<svg id="fa3e8f71-6b85-4540-94d4-eeed17224a6b" data-name="Layer 1" xmlns="http://www.w3.org/2000/svg" viewBox="0 0 1009.52 777.93"><defs><style>.f77e3b22-4cbb-4308-b763-4b2399ac473c{fill:#303030;}.f086fce5-5a86-474e-8102-411e2d2ea27c{fill:#ecb504;}</style></defs><path class="f77e3b22-4cbb-4308-b763-4b2399ac473c" d="M133-43.91q444.18,0,888.37-.09c3.75,0,4.6.84,4.6,4.59q-.16,386.67-.1,773.34H178.6c-10,0-10.48-.45-9.38-10.69a446.87,446.87,0,0,0,1.86-63.89c0-1.09.68-2.47-.87-3.45-.55,2.1-1.07,4.11-1.6,6.12-.17-39.42-8.16-77.66-15.34-116,.59,8.64,1.94,17.18,3.24,25.72,4.88,32.13,8.64,64.37,9.2,96.91.06,3.31-.08,6.52-2.76,10.27,0-2.57,0-4.15,0-5.72-.3-16.51-1.45-33-3.26-49.35-4.47-40.59-12.73-80.47-22.78-120Q123.61,451.49,108,399.76q-1.57-5.67-3.13-11.36l-.46.13q1.41,5.75,2.8,11.51c1.47,5.61,2.93,11.23,4.42,16.83C126,471,141.91,524.67,151.45,579.94c5.86,33.88,9.25,67.95,8.45,102.38-.07,2.69-.25,5.44-3.56,5.41-2.89,0-3.38-2.44-3.41-5.06-.82-58.95-11-116.52-25.44-173.49C114,455.84,95.74,403.88,82.19,350.52,69.75,301.52,55.9,253,53.5,202.05c-1.12-23.82-1.77-47.61,1.43-71.33,1.16-8.6,2.62-17.16,3.94-25.73a6.1,6.1,0,0,0-1.35,2.62c-5.83,25.07-8.93,50.44-7.92,76.22,1.5,38.36,10.06,75.74,16.2,113.44,2.82,17.4,9.76,33.87,12.76,51.28l-.8.69c-1.07-.34-.24-2.61-2.2-2.08,9.5,37.35,21.14,74.16,28.48,112.06a29.88,29.88,0,0,1-2.64-6.88c-16.79-59-35.51-117.4-50.1-177-.58-2.39-.86-6.18-3.21-6.09-3.18.12-2.54,4.11-2.85,6.52-.92,7.14-.61,14.36-.47,21.61-2.88-7.55-3.64-15.76-8-22.72A1.87,1.87,0,0,1,37,272a1,1,0,0,1,.87-.12c1.36.59,1.29,2,1.2,3-.59,6.94,1.72,13.41,2.93,20.07,1.12,6.12,3.79,11.94,3.58,18.31l.13-.05c-1.22-1-1.4-2.53-1.79-4-3.76-14.06-7.59-28.1-11.39-42.15,6.75,38.58,16.51,76.45,26.19,114.34a37,37,0,0,1-2.47-6C46.76,344,37.16,312.53,30.4,280.3c-10.33-49.23-16.95-98.73-12.53-149.22,5.18-59.18,25.9-112,64-157.75,4.4-5.28,6.31-12.09,11.37-16.82,0,0-.16-.27-.25-.42h30c.83,2.34-1.42,2.86-2.49,3.85-29.27,26.93-49.86,59.45-63,96.89-3.57,10.14-7,20.31-10,30.63l-1.27-1c-.14-.42-.44-.87-.37-1.26s.7-.95,1-.44a2.11,2.11,0,0,1,.1,1.82c-4.33,8-4.32,16.84-5.72,25.5-3.84,23.82-.37,47.48.55,71.21,0,.85-.09,1.76,1.13,1.69.81-.05,1-.72,1-1.43,0-1.33,0-2.67,0-4,.24-20.15.84-40.28,3-60.33C51.47,77.46,64.36,38.87,89.4,4.68A342.29,342.29,0,0,1,133-43.91ZM937.42,560.34c2.27,1,4.55,2,6.81,3.09,1.47.68,3.06,1.08,3.87-.68s-.83-2.28-1.94-2.94a45.65,45.65,0,0,0-14.31-5.21c1.85-1.38,3.18-2.32,4.47-3.32,7.53-5.88,13.16-13.12,15.9-22.4,4.46-15-1.16-25.61-16.15-29.89-8-2.28-16.12-4.08-24.17-6.15a38.08,38.08,0,0,1-24.21-17.9c-3-5-3-5-8.47-3.07,8,17.7,8,25.18.25,43.4-1.37,3.2-2.73,6.43-3.78,9.75-5.29,16.77,3.12,31.72,20.2,36,8.69,2.2,17.18.88,25.59-1.55l1.24.93a29.91,29.91,0,0,0-2.06,10.69c0,1.21.21,2.52,1.66,2.66a1.46,1.46,0,0,0,1.66-1.86l-.1.09c2.59-1.12,2-3.5,2.1-5.53a19.44,19.44,0,0,1,3.09-9.45c.13,1-.26,2.05-.08,3,.49,2.51-1.69,7.06.51,7.11,3.17.07,0-4.36,1.54-6.4,3.46,2,3.81,5.78,5.23,9,.43,1,1.14,2.41,2.46,2.05,1.58-.42.79-1.89.64-3a21.35,21.35,0,0,0-3-7.35Zm-786.88-204a46,46,0,0,0-7.31,17.81c-.51,2.79.08,5.49,3,6.76,2.61,1.15,4.4-.52,5.93-2.44.41-.52.87-1,1.47-1.69,3.47,5.63,6.74,3,9.9-.59.28.9.42,1.37.58,1.83,1.41,4.24,2.31,8.78,6.26,11.63s8.16-3.25,12.33.54c.8.72,2.42-1.75,2.67-3.52a21.14,21.14,0,0,0-.84-8.87c-.28-1-1.18-2.14.5-2.93,3.41-1.59,2.22-4.41,1.61-6.92-.74-3-3-5.31-4.92-7.62,1.52-1.58,4.16-2,3.71-4.18-.77-3.73-4.81-3.31-7.61-5,.9-1,1.73-1.78,2.4-2.67,1-1.31,2.28-2.6,1-4.44-1-1.51-2.57-1.32-4.06-1.12a27.34,27.34,0,0,0-2.91.7,46.94,46.94,0,0,0-17.49,8.24c-2.2,1.75-4,.81-6,.08-1.46-.53-1.06-1.5-.55-2.37A234.06,234.06,0,0,0,163.06,323a30.09,30.09,0,0,0,9.84,9.19c1.15.68,2.8,1.84,3.62.77,2.55-3.37,3.95-.57,5.79.65,3.25,2.16,5.37,1.27,4.95-2.59-.39-3.66,1.52-3.59,3.9-3.89,2.68-.35,5.9-.92,6.42-3.84.56-3.2-2.8-4.05-5.11-5.25a14.93,14.93,0,0,0-1.84-.78c-1-.37-1.15-.8-.43-1.72,2.52-3.25,0-3.84-2.43-4.52-1.25-.34-3.4-6.46-2.58-7.41,1.67-1.93,3.13-3.65-.15-5.52-1.17-.67.13-1.32.54-1.84,1-1.31,2.21-2.5,3.18-3.85,4.05-5.67,3.42-7.05-3.4-7.67.33-3.11.85-6.2.93-9.31.07-2.42.64-5.55-2.13-6.68s-4.34,1.77-5.87,3.58c-1.85,2.2-3.41,4.63-5.12,7-2.36-2.37-2.42-7.6-6-6.69-4.3,1.08-3.94,5.94-4,9.78a20.74,20.74,0,0,1,0,2.49c-.08.57-.43,1.53-.79,1.59-5.54.95-3.39,5.06-3.53,8.27-.07,1.42,1.37,4-.62,4s-4.6,2.49-6.24-1c-.66-1.4-2.22-2.46-3.54-3.46-3.78-2.88-5.31-2.55-6.73,1.86-.58,1.81-1.22,2-2.74,1.53s-3.46-1-4.49.8.37,3.46,1.36,5c1.5,2.29,3.08,4.5,4.39,6.93,2.3,4.25,6.68,7.51,9.85,11.58,1.76,2.26,5.63.89,9.15.57-3.87,8.86-7.73,17.09-12.87,24.92-2.1-2.06-1.66-3.48-.46-5.2a51.56,51.56,0,0,0,6.1-12c1.18-3.27.26-6-3.51-6-2.92,0-3.45-1.19-3.83-3.65-.33-2.07-.59-5.68-3.8-4.45-2.64,1-2.65-.29-3.36-1.69s-1.68-3.15-3.65-2.84-2,2.34-2.56,3.88c-.35,1,.22,2.26-1.08,3.34-1.09-1.94-2-3.87-3.17-5.61-2.82-4.11-5.06-3.27-7.2,2.63-3.13-1.41-6.13-6.17-9.54-3-4,3.74,1.66,6.89,2.54,10.65-2.35,1.07-5.85,1.39-5.52,5.06.29,3.29,3.23,4.39,5.88,5.46,1.38.57,2.83,1,5.16,1.77-2,.53-2.9.76-3.84,1.05-5.23,1.59-5.72,3.41-1.9,7.33.54.56,1.13.7.93,1.86-1.21,6.73-.35,7.4,6.73,5.35,1.49-.43,2.19-.71,2.75,1.3,1.25,4.47,4.34,4.05,7.33,1.88,2.42-1.74,4.49-3.95,6.74-5.93,3.81-3.36,4.62-3,6,1.91a4.7,4.7,0,0,1-1,4.14c-2.08,3.21-4.2,6.4-6.16,9.69s-4.21,6.21-4.53,10.32c2.63-.27,3.59-2.22,4.87-3.6,3.75-4.06,6.48-8.86,9.24-13.59C146.89,355.08,148.27,354.29,150.54,356.35ZM736.46,154.86c7.18,7.31,17.56,9.37,23.56,17.51,1.38,1.87,4.35,2.31,6.84,2.76,8.38,1.54,15.6-.83,21.31-7,10.73-11.62,21.16-23.51,33-34.07a20.9,20.9,0,0,0,6.33-11.13c.77-3.32,1-6.78-1-9.64-1.58-2.19-1.46-4-.72-6.4,2.72-9.07-.66-15.74-9.39-18.95a5.12,5.12,0,0,1-2.86-2.46c-2.62-4.43-6.87-6-11.76-6.4-5.34-.38-10.18,1.51-14.94,3.5a84.49,84.49,0,0,1-29.52,6.76c-9.59.35-18.34,3.13-25.31,10.18-10.48,10.6-10.54,26.12-.14,36.61,2.81,2.84,2.51,10.78-.52,13.61a28,28,0,0,0-7.22,30.64c1.61,4.13,4.2,4.18,7.48,2.83,3-1.23,5.83-2.4,4.39-6.85C733.7,169.37,734,162.28,736.46,154.86ZM442.13,706.76c27.78.1,50.25-16.83,57.22-43.13,5-18.91-2.15-34.89-20.44-41.51-13.07-4.74-25.68-9.81-36.79-18.23a3.09,3.09,0,0,0-.44-.24c-12.77-7-25-5.7-36.48,2.8-9.1,6.73-14,16.3-16.8,27C378.14,672.17,403.41,706.62,442.13,706.76ZM32.67,249.12c-6.75-43.07-10.29-86.28-4.93-129.85C18.85,163,23.3,206.15,32.67,249.12Zm-6.94-16.18c-2.09-21.4-4.58-42.77-4.76-64.32a414.66,414.66,0,0,1,4.75-64.92C14.83,146.77,17.56,189.86,25.73,232.94ZM226.12,69.1c-10.08,0-16.91,8.37-16.86,20.72A16.29,16.29,0,0,0,225.49,106c9.74,0,17.29-8.22,17.27-18.81C242.75,76.89,235.61,69.12,226.12,69.1Zm463.58,583c0-9.5-6.1-17-14.67-18s-15.62,4.25-17.85,13.75c-2.55,10.84,1.11,19,9.88,22.16C678.33,674,689.72,665,689.7,652.08Zm-435.94-31c0-8.17-4.33-14.7-11.3-17.16a15.66,15.66,0,0,0-20.41,10c-4.07,12.26-.39,21.94,9.57,25.17C242.78,642.74,253.8,633.76,253.76,621.07ZM900.67,267.46c-.38-5.49-2.09-10.92-7.43-14.49-5.65-3.78-11.66-4.12-17.43-.65-7.54,4.54-8.75,12.34-8.4,20.11.31,6.92,4.58,11.63,11.24,13.79C889.8,289.82,900.8,280.69,900.67,267.46ZM833.73,719.53c4.47-3.79,9.79-6,13.06-10.73,2.46-3.54,3.15-7.34.13-11-2.35-2.84-5.36-4.79-9.12-3.56-4.39,1.44-5.83,5.27-5.82,9.47C832,708.94,833.87,714,833.73,719.53ZM62.28,216a404.21,404.21,0,0,0,15.81,70.12C73,262.71,66.23,239.63,62.28,216ZM68.76,76.25c-5.31,9.52-6.05,20.14-7.09,30.7Q65.21,91.6,68.76,76.25Zm-8,36.21a38.91,38.91,0,0,0-2.26,16.17Q59.62,120.54,60.75,112.46ZM82.81,306q1.55,6.51,3.1,13l1.29-.34A31.44,31.44,0,0,0,82.81,306Zm4.82,14.62c-.11,0-.27,0-.3.11a.63.63,0,0,0-.07.46c.18.42.38.38.49-.12A1.31,1.31,0,0,0,87.63,320.6Z" transform="translate(-16.48 44)"/><path class="f086fce5-5a86-474e-8102-411e2d2ea27c" d="M150.54,356.35c-2.27-2.06-3.65-1.27-5,1.11-2.76,4.73-5.49,9.53-9.24,13.59-1.28,1.38-2.24,3.33-4.87,3.6.32-4.11,2.64-7.15,4.53-10.32s4.08-6.48,6.16-9.69a4.7,4.7,0,0,0,1-4.14c-1.33-4.95-2.14-5.27-6-1.91-2.25,2-4.32,4.19-6.74,5.93-3,2.17-6.08,2.59-7.33-1.88-.56-2-1.26-1.73-2.75-1.3-7.08,2.05-7.94,1.38-6.73-5.35.2-1.16-.39-1.3-.93-1.86-3.82-3.92-3.33-5.74,1.9-7.33.94-.29,1.89-.52,3.84-1.05-2.33-.79-3.78-1.2-5.16-1.77-2.65-1.07-5.59-2.17-5.88-5.46-.33-3.67,3.17-4,5.52-5.06-.88-3.76-6.56-6.91-2.54-10.65,3.41-3.15,6.41,1.61,9.54,3,2.14-5.9,4.38-6.74,7.2-2.63,1.18,1.74,2.08,3.67,3.17,5.61,1.3-1.08.73-2.34,1.08-3.34.52-1.54.53-3.57,2.56-3.88s2.88,1.33,3.65,2.84.72,2.71,3.36,1.69c3.21-1.23,3.47,2.38,3.8,4.45.38,2.46.91,3.62,3.83,3.65,3.77,0,4.69,2.72,3.51,6a51.56,51.56,0,0,1-6.1,12c-1.2,1.72-1.64,3.14.46,5.2,5.14-7.83,9-16.06,12.87-24.92-3.52.32-7.39,1.69-9.15-.57-3.17-4.07-7.55-7.33-9.85-11.58-1.31-2.43-2.89-4.64-4.39-6.93-1-1.5-2.48-3.05-1.36-5s2.86-1.33,4.49-.8,2.16.28,2.74-1.53c1.42-4.41,2.95-4.74,6.73-1.86,1.32,1,2.88,2.06,3.54,3.46,1.64,3.51,4.36,1.06,6.24,1s.55-2.59.62-4c.14-3.21-2-7.32,3.53-8.27.36-.06.71-1,.79-1.59a20.74,20.74,0,0,0,0-2.49c.1-3.84-.26-8.7,4-9.78,3.61-.91,3.67,4.32,6,6.69,1.71-2.35,3.27-4.78,5.12-7,1.53-1.81,3-4.76,5.87-3.58s2.2,4.26,2.13,6.68c-.08,3.11-.6,6.2-.93,9.31,6.82.62,7.45,2,3.4,7.67-1,1.35-2.15,2.54-3.18,3.85-.41.52-1.71,1.17-.54,1.84,3.28,1.87,1.82,3.59.15,5.52-.82.95,1.33,7.07,2.58,7.41,2.47.68,4.95,1.27,2.43,4.52-.72.92-.56,1.35.43,1.72a14.93,14.93,0,0,1,1.84.78c2.31,1.2,5.67,2.05,5.11,5.25-.52,2.92-3.74,3.49-6.42,3.84-2.38.3-4.29.23-3.9,3.89.42,3.86-1.7,4.75-4.95,2.59-1.84-1.22-3.24-4-5.79-.65-.82,1.07-2.47-.09-3.62-.77a30.09,30.09,0,0,1-9.84-9.19,234.06,234.06,0,0,1-12.86,26.63c-.51.87-.91,1.84.55,2.37,2,.73,3.8,1.67,6-.08a46.94,46.94,0,0,1,17.49-8.24,27.34,27.34,0,0,1,2.91-.7c1.49-.2,3-.39,4.06,1.12,1.25,1.84-.07,3.13-1,4.44-.67.89-1.5,1.67-2.4,2.67,2.8,1.68,6.84,1.26,7.61,5,.45,2.21-2.19,2.6-3.71,4.18,1.92,2.31,4.18,4.57,4.92,7.62.61,2.51,1.8,5.33-1.61,6.92-1.68.79-.78,1.91-.5,2.93a21.14,21.14,0,0,1,.84,8.87c-.25,1.77-1.87,4.24-2.67,3.52-4.17-3.79-8.46,2.26-12.33-.54s-4.85-7.39-6.26-11.63c-.16-.46-.3-.93-.58-1.83-3.16,3.61-6.43,6.22-9.9.59-.6.69-1.06,1.17-1.47,1.69-1.53,1.92-3.32,3.59-5.93,2.44-2.88-1.27-3.47-4-3-6.76A46,46,0,0,1,150.54,356.35Zm12.91,13.54c1.41,1.28,1.41,2.85,1.86,4.26,1.3,4.1,2.09,8.41,4.62,12,.79,1.12,1.76,2.11,3.28,1.88,1.72-.27,1.77-1.7,1.9-3.05.08-.75-.27-1.71.81-2.12,1.59,0,2.06,1.48,3,2.36s1.65,2.42,3.23,1.59c1.23-.65.73-2.09.72-3.19a23.39,23.39,0,0,0-2-8.69c-1-2.33-2-4.35,2.29-3.22,2.31.62,1.61-1.24,1.28-2.48-1.23-4.76-4.78-7.76-8.54-10.67,2-2.09,5.07-.14,6.78-2.35-2.8-2.95-6.79-1.79-9.92-3.44,1-2.76,4.36-3.62,5.22-6.91-7.69,1.42-14.35,4.33-21.09,8.12,6,3.66,12.26,6,15,12.39a23.6,23.6,0,0,1-4.31-2.54c-13.6-9-17.51-7.44-21.62,8.74-.54,2.12-1.45,4.64.95,5.83s3.14-1.7,4.51-2.94,2.42-4.24,4.29-.79c2.65,4.87,4,2,5.62-.67C162.08,372.79,161.67,371,163.45,369.89ZM143.71,342c2-4.38,3.81-8.3,5.66-12.19,1-2.11.42-3.52-1.9-2.95-4,1-4.52-1.08-4.68-4.17a16.9,16.9,0,0,0-1.12-3.89c-2.14.21-1.83,3.21-4,2.71-1-2.46-.56-5.54-3.36-7.32-1.95,3.53-.51,7.46-2.14,11.19-4.12-3.43-4.3-9.18-8.51-12.12a7.56,7.56,0,0,0-.53,1.11c-.57,2.34,1.41,5.81-1,6.84-2,.87-2.93-3-4.93-4.13-1.69-.95-3.52-3.39-5.15-2-1.87,1.56.67,3.37,1.51,5a17.44,17.44,0,0,0,2.08,2.79c1.59,1.94,1.65,3.15-1.31,3.45-1.41.14-3.48.14-3.65,1.9s1.84,2.17,3.15,2.69c4.71,1.82,9.47,3.5,14.46,5.32-2.55,2.35-5.36,1.49-7.87,2s-6.87,0-6.94,2.35c-.1,3.43,4.25,1.18,6.43,2.15-.07,2.08-2,2.16-2.88,3.29s-2.42,1.83-1.48,3.26c.8,1.22,2.12.2,3.17-.19s1.81-.86,2.76-1.12c2.44-.67,4.77-1.24,4.4,2.8-.24,2.74,1.37,2.74,3.07,1.41,2.23-1.73,4-4.17,6.48-5.41,5.42-2.78,3.77-5.68.77-8.94-.67-.74-1.28-1.53-1.88-2.33-3.26-4.28-7.63-7.42-12.95-11.49C129.4,325.67,134.49,329.94,143.71,342Zm39.57-71c-4.21,2.9-6.29,6.78-8.16,10.82-.41.88-.76,2-2,1.81-1-.12-1-1.19-1.37-1.9-1.23-2.25-1.82-4.94-4.33-6.56-1.25,3.51-.95,6.76-.64,10.1.23,2.44,2.49,5.62.65,7.07-2.33,1.83-3.26-3.2-6.4-2.92-.06,5.57,1.71,10.39,5.08,15.22,3.08-5.82,4-11.87,8.39-17.89-.48,7.86-4.23,13.41-5.36,20.08,5.42-1.66,10.58-2.62,14.74-6.3-1.41-1-2.94.14-4.35-1.41,3-3.75,7.63-6.53,9.29-11.66-3.22-.75-4.83,2.49-8.18,2.28C183,283.78,185,277.86,183.28,271Zm-.41,37.22c-5.49.17-10.33,2.14-15.06,4.52-.93.47-1.88,1.06-1.68,2.2.25,1.44,1.56.79,2.43.85,3.63.27,7.16.77,10,3.29-3.86-.05-7.53-.85-11.24-1.34-1.63-.21-3.82,0-2.52,2.64a22.67,22.67,0,0,0,10.49,10.26c1.41-1.93-.06-3.82,1.44-5.38,3.37,1,4.31,5.29,7.78,6.21a3.15,3.15,0,0,0-.24-3.1c-2.24-4.25-.07-4.64,3.5-4.33,2.29.2,4.85.68,7-1.49-3.39-3.15-7.66-3.47-11.33-5,.75-2.29,3.83-1.55,4.34-3.88-3-1.67-6,.71-9.05,0C179.34,311,182.6,311,182.87,308.26Zm-45.8-8a9.47,9.47,0,0,0,5.52,5.73c.93.42,3,.42,1.59,2-2.67,3,.25,3.15,1.72,4,2.14,1.27,4.76.63,7.25,1.31a7.48,7.48,0,0,1-.62,1.64c-.83,1.13-2.94,1.83-2.09,3.53s2.81,1.52,4.48,1.54a14.61,14.61,0,0,0,2-.06c1.6-.2,3.49.06,4.14-2,.56-1.82-.91-2.75-2-3.66-2.62-2.18-5.36-4.23-8.05-6.33,4.09,0,6.52,2.71,9.19,5,.69.6,1.3,1.89,2.38,1a2.61,2.61,0,0,0,.56-2.28c-1.24-4-3-7.8-6.47-10.56-1.11,1.62.15,3.35-1.49,4.78-1.65-2.25-3.16-4.55-4.93-6.63-1.46-1.73-3.26-4.49-5.32-3.82-2.29.74-.3,3.77-.74,5.74-.05.24-.42.42-.67.65C141.37,301.86,139.87,299.45,137.07,300.28Z" transform="translate(-16.48 44)"/><path class="f086fce5-5a86-474e-8102-411e2d2ea27c" d="M736.46,154.86c-2.51,7.42-2.76,14.51-.51,21.49,1.44,4.45-1.42,5.62-4.39,6.85-3.28,1.35-5.87,1.3-7.48-2.83a28,28,0,0,1,7.22-30.64c3-2.83,3.33-10.77.52-13.61-10.4-10.49-10.34-26,.14-36.61,7-7.05,15.72-9.83,25.31-10.18a84.49,84.49,0,0,0,29.52-6.76c4.76-2,9.6-3.88,14.94-3.5,4.89.35,9.14,2,11.76,6.4a5.12,5.12,0,0,0,2.86,2.46c8.73,3.21,12.11,9.88,9.39,18.95-.74,2.45-.86,4.21.72,6.4,2,2.86,1.82,6.32,1,9.64a20.9,20.9,0,0,1-6.33,11.13c-11.85,10.56-22.28,22.45-33,34.07-5.71,6.18-12.93,8.55-21.31,7-2.49-.45-5.46-.89-6.84-2.76C754,164.23,743.64,162.17,736.46,154.86Zm36.9,1.41c-1.26,1.11-3.5,1.22-3.93,3.61,2.26-.08,3.51-1.35,4.85-2.44L776,157c.09,2.32-2.06,2.56-3.35,3.45-4.2,2.91-9,4.6-14.38,6.71,6,4.72,9.93-1.53,15.09-1.79-2.76,2.87-6.35,3.3-9.24,5.36,9.83,3.45,18.22.72,24.62-8.49a138.18,138.18,0,0,1,25.92-27.53,64.21,64.21,0,0,0,7.16-6.93c3.79-4.27,4.19-9.19,2.1-14.64-1.34,5.61-6.91,5.69-10.42,8.33a104.31,104.31,0,0,1-19.31,11.14c2.47-5.66,6.56-7.36,10.17-9.51,5.14-3,10.62-5.59,14.62-10.26,4.57-5.32,5.6-12.31,2.49-17-3-4.51-8.55-5.82-15.78-3.16-7.64,2.81-15.11,6.08-22.7,9-1.51.59-3,1.78-5.85.9l19.33-9.84c1.39-.8,3.29-.78,4.24-2.64a6.6,6.6,0,0,0-5,1.79c-2.82-.73-.49-1.45.09-1.82,4.13-2.64,9-3.14,14.87-4.26-7.54-3.09-13.86-4.33-20.43-.85-11.09,5.89-22.93,8.3-35.48,8.4A28.76,28.76,0,0,0,731.53,105c-5.11,6.61-6.24,14-3.39,22.56,2.05-4.32,2.84-8.49,5.6-11.68l.85.74c-1.88,5.21-6.47,9.88-3.43,16.87l3.14-8,.83.78-1.65,6.43a1.74,1.74,0,0,0-.22,2.17l1.24-1.24c4.83-14.9,16.14-21.85,31-25.57-1.33,2.5-3.34,2.56-4.91,3.29-5.92,2.77-11.5,6-16,10.84-6,6.43-8.86,14-7.7,22.83,1.42,10.73,9.23,16.37,19.82,14.22,8.84-1.79,15.9-6.51,21.75-13.26,1.19-1.38,2-3.28,4.71-3.79-.81,5.35-4,8.69-7.09,12.13ZM731,155.11c-.25,0-.7,0-.72.15-.15.58.2.77.72.73-.9,4.75-2.75,9.27-2.56,15.52-2.1-2.94-.68-5.32-2.21-7.14-.85,3.6-.54,6.9-.3,10.22s1.68,3.52,4.5,2.45c2.22-.83,2.86-1.71,2.14-4-1.24-3.88-1-7.9-.49-11.88.43-3.59,2.78-6.81,2.22-11.35C732.93,151.92,730.75,152.64,731,155.11Zm37.83,4.57c-4.52,1.64-9.18,2.34-13.88,3.58C757.89,166,763.45,164.62,768.83,159.68ZM728,161.51c-.18-.36-.31-.62-.43-.89-.2.36-.53.71-.55,1.08s.31.67.48,1C727.64,162.3,727.81,161.88,728,161.51Z" transform="translate(-16.48 44)"/><path class="f086fce5-5a86-474e-8102-411e2d2ea27c" d="M442.13,706.76c-38.72-.14-64-34.59-53.73-73.3,2.84-10.71,7.7-20.28,16.8-27,11.48-8.5,23.71-9.8,36.48-2.8a3.09,3.09,0,0,1,.44.24c11.11,8.42,23.72,13.49,36.79,18.23,18.29,6.62,25.46,22.6,20.44,41.51C492.38,689.93,469.91,706.86,442.13,706.76ZM389.51,651.3c.14,1.92.26,5.26.66,8.55a44,44,0,0,0,1.48,6.81c6.88,23.56,29.39,38.85,54.5,37.07,26.3-1.87,47.33-20.36,50.94-44.8,2.49-16.87-4.72-30.38-20.44-34.65-12.36-3.35-22.89-9.51-33.39-16.24-16-10.23-33.61-6.48-44.37,9.27C392.18,627.13,389.78,638.21,389.51,651.3Z" transform="translate(-16.48 44)"/><path class="f086fce5-5a86-474e-8102-411e2d2ea27c" d="M924,571.93a1.46,1.46,0,0,1-1.66,1.86c-1.45-.14-1.65-1.45-1.66-2.66a29.91,29.91,0,0,1,2.06-10.69l.33-1.16-1.57.23c-8.41,2.43-16.9,3.75-25.59,1.55-17.08-4.32-25.49-19.27-20.2-36,1-3.32,2.41-6.55,3.78-9.75,7.8-18.22,7.78-25.7-.25-43.4,5.52-1.9,5.51-1.89,8.47,3.07a38.08,38.08,0,0,0,24.21,17.9c8.05,2.07,16.18,3.87,24.17,6.15,15,4.28,20.61,14.86,16.15,29.89-2.74,9.28-8.37,16.52-15.9,22.4-1.29,1-2.62,1.94-4.47,3.32a45.65,45.65,0,0,1,14.31,5.21c1.11.66,2.68,1.33,1.94,2.94s-2.4,1.36-3.87.68c-2.26-1-4.54-2.06-6.81-3.08l-1.29-.13c.1.4.2.8.29,1.2a21.35,21.35,0,0,1,3,7.35c.15,1.07.94,2.54-.64,3-1.32.36-2-1.08-2.46-2.05-1.42-3.2-1.77-7-5.23-9-1.56,2,1.63,6.47-1.54,6.4-2.2-.05,0-4.6-.51-7.11-.18-.9.21-1.91.08-3a19.44,19.44,0,0,0-3.09,9.45c-.05,2,.49,4.41-2.1,5.53-.18-3.15,1.7-6.2.5-9.95-1.93,2.83-1.72,5.72-2.28,8.38C921.78,572,923.09,571.77,924,571.93Zm-38.6-92.75c3.89,9.75,3.56,19.32.08,28.84-2.23,6.08-5,12-7,18.11-4.56,14.21,2.13,26.9,16.31,31.56,22.3,7.34,51.25-9.59,55.76-32.62,2.27-11.58-2.31-19.68-13.57-23.05-7.8-2.33-15.77-4.08-23.68-6-9.81-2.44-18.39-6.79-24.34-15.34C888.14,479.52,887.32,478.46,885.38,479.18Z" transform="translate(-16.48 44)"/><path class="f086fce5-5a86-474e-8102-411e2d2ea27c" d="M226.12,69.1c9.49,0,16.63,7.79,16.64,18.12,0,10.59-7.53,18.81-17.27,18.81a16.29,16.29,0,0,1-16.23-16.21C209.21,77.47,216,69.08,226.12,69.1Zm13.63,18.28c.06-8.32-5.82-14.87-13.52-15-8-.19-14.3,6.84-14.28,16,0,8.49,5.83,14.75,13.67,14.71S239.69,96.23,239.75,87.38Z" transform="translate(-16.48 44)"/><path class="f086fce5-5a86-474e-8102-411e2d2ea27c" d="M689.7,652.08c0,12.9-11.37,21.91-22.64,17.89-8.77-3.13-12.43-11.32-9.88-22.16,2.23-9.5,9.13-14.82,17.85-13.75S689.69,642.58,689.7,652.08Zm-30.82,1.21c0,8.48,5.9,14.71,13.75,14.64s14-6.9,14.06-15.75c0-8.3-5.91-14.85-13.6-15C665.05,637.09,658.83,644.13,658.88,653.29Z" transform="translate(-16.48 44)"/><path class="f086fce5-5a86-474e-8102-411e2d2ea27c" d="M253.76,621.07c0,12.69-11,21.67-22.14,18-10-3.23-13.64-12.91-9.57-25.17a15.66,15.66,0,0,1,20.41-10C249.43,606.37,253.74,612.9,253.76,621.07Zm-30.81,1c0,8.53,5.65,14.81,13.5,14.89s14.13-6.64,14.3-15.5c.17-8.5-6-15.28-13.85-15.22S223,613.12,223,622.05Z" transform="translate(-16.48 44)"/><path class="f086fce5-5a86-474e-8102-411e2d2ea27c" d="M900.67,267.46c.13,13.23-10.87,22.36-22,18.76-6.66-2.16-10.93-6.87-11.24-13.79-.35-7.77.86-15.57,8.4-20.11,5.77-3.47,11.78-3.13,17.43.65C898.58,256.54,900.29,262,900.67,267.46Zm-30.81,1.63c-.06,8.54,5.62,14.83,13.45,14.92s14.16-6.58,14.35-15.46c.19-8.49-6-15.28-13.81-15.25S869.92,260.17,869.86,269.09Z" transform="translate(-16.48 44)"/><path class="f086fce5-5a86-474e-8102-411e2d2ea27c" d="M833.73,719.53c.14-5.56-1.74-10.59-1.75-15.81,0-4.2,1.43-8,5.82-9.47,3.76-1.23,6.77.72,9.12,3.56,3,3.65,2.33,7.45-.13,11C843.52,713.49,838.2,715.74,833.73,719.53ZM840,712c6.77-4.63,8.13-8,4.91-12.87-1.09,4.57-3.25,8.45-5.54,12.26l-.22,1.12Zm-2.4-12.4,1.08.81c-1.49,3.82-2.8,7.68-2.65,12.81,2.71-4.16,4.91-7.6,6.27-11.49.55-1.57,1.85-4.19-.14-4.75s-5.26-1.94-7.06,1.56c-1.65,3.23-1.43,6.42-.89,10.77.64-2.43,1-3.83,1.39-5.24A9.91,9.91,0,0,1,837.63,699.64Z" transform="translate(-16.48 44)"/><path class="f086fce5-5a86-474e-8102-411e2d2ea27c" d="M108,399.76c0,.74-.27.84-.78.3q-1.41-5.79-2.81-11.53l.46-.13Q106.43,394.09,108,399.76Z" transform="translate(-16.48 44)"/><path class="f77e3b22-4cbb-4308-b763-4b2399ac473c" d="M45.61,313.26c2.92,0,.74-2.49,1.92-3.59,9.24,26.61,15.49,54,21.79,81.63,2.11-1.72.11-4,2.13-5.76a60.31,60.31,0,0,1,2.73,17.1c-2.07-.52-1.51-2.59-3.07-3.8v8.55l-.72.07c-4-15.34-8-30.69-12.1-46-3.91-14.74-6.93-29.73-12-44.15a19.84,19.84,0,0,1-.52-4.11A.93.93,0,0,1,45.61,313.26Z" transform="translate(-16.48 44)"/><path class="f77e3b22-4cbb-4308-b763-4b2399ac473c" d="M78.56,348.55c.42,1,1,2-.07,2.93-.24-.75-.48-1.49-.73-2.24Z" transform="translate(-16.48 44)"/><polygon class="f77e3b22-4cbb-4308-b763-4b2399ac473c" points="28.96 343.97 28.91 343.54 29.18 343.66 28.96 343.97"/><path class="f77e3b22-4cbb-4308-b763-4b2399ac473c" d="M47.52,87.46l-1,4-.86-.74c0-1.42-.66-3,.61-4.21Z" transform="translate(-16.48 44)"/><path class="f77e3b22-4cbb-4308-b763-4b2399ac473c" d="M46.5,91.42c-.41,1.21,0,2.68-1.38,3.77-.5-1.68-.94-3.17.52-4.51Z" transform="translate(-16.48 44)"/><path class="f77e3b22-4cbb-4308-b763-4b2399ac473c" d="M44.57,96.14c.93,1.33.5,2.46-.19,3.8C43.34,98.52,43.7,97.38,44.57,96.14Z" transform="translate(-16.48 44)"/><path class="f77e3b22-4cbb-4308-b763-4b2399ac473c" d="M43.49,101.26c.82.87.56,1.69-.08,2.52A1.67,1.67,0,0,1,43.49,101.26Z" transform="translate(-16.48 44)"/><path class="f77e3b22-4cbb-4308-b763-4b2399ac473c" d="M163.45,369.89c-1.78,1.13-1.37,2.9-2.12,4.15-1.63,2.69-3,5.54-5.62.67-1.87-3.45-3-.37-4.29.79s-2.1,4.14-4.51,2.94-1.49-3.71-.95-5.83c4.11-16.18,8-17.77,21.62-8.74a23.6,23.6,0,0,0,4.31,2.54c-2.79-6.37-9.06-8.73-15-12.39,6.74-3.79,13.4-6.7,21.09-8.12-.86,3.29-4.22,4.15-5.22,6.91,3.13,1.65,7.12.49,9.92,3.44-1.71,2.21-4.81.26-6.78,2.35,3.76,2.91,7.31,5.91,8.54,10.67.33,1.24,1,3.1-1.28,2.48-4.25-1.13-3.25.89-2.29,3.22a23.39,23.39,0,0,1,2,8.69c0,1.1.51,2.54-.72,3.19-1.58.83-2.32-.72-3.23-1.59s-1.39-2.33-3-2.36c-1.08.41-.73,1.37-.81,2.12-.13,1.35-.18,2.78-1.9,3.05-1.52.23-2.49-.76-3.28-1.88-2.53-3.63-3.32-7.94-4.62-12C164.86,372.74,164.86,371.17,163.45,369.89Z" transform="translate(-16.48 44)"/><path class="f77e3b22-4cbb-4308-b763-4b2399ac473c" d="M143.71,342c-9.22-12.09-14.31-16.36-22.34-18,5.32,4.07,9.69,7.21,12.95,11.49.6.8,1.21,1.59,1.88,2.33,3,3.26,4.65,6.16-.77,8.94-2.44,1.24-4.25,3.68-6.48,5.41-1.7,1.33-3.31,1.33-3.07-1.41.37-4-2-3.47-4.4-2.8-1,.26-1.83.78-2.76,1.12s-2.37,1.41-3.17.19c-.94-1.43.73-2.26,1.48-3.26s2.81-1.21,2.88-3.29c-2.18-1-6.53,1.28-6.43-2.15.07-2.35,4.44-1.84,6.94-2.35s5.32.35,7.87-2c-5-1.82-9.75-3.5-14.46-5.32-1.31-.52-3.31-1-3.15-2.69s2.24-1.76,3.65-1.9c3-.3,2.9-1.51,1.31-3.45a17.44,17.44,0,0,1-2.08-2.79c-.84-1.6-3.38-3.41-1.51-5,1.63-1.36,3.46,1.08,5.15,2,2,1.13,3,5,4.93,4.13,2.36-1,.38-4.5,1-6.84a7.56,7.56,0,0,1,.53-1.11c4.21,2.94,4.39,8.69,8.51,12.12,1.63-3.73.19-7.66,2.14-11.19,2.8,1.78,2.37,4.86,3.36,7.32,2.22.5,1.91-2.5,4-2.71a16.9,16.9,0,0,1,1.12,3.89c.16,3.09.72,5.15,4.68,4.17,2.32-.57,2.91.84,1.9,2.95C147.52,333.73,145.74,337.65,143.71,342Z" transform="translate(-16.48 44)"/><path class="f77e3b22-4cbb-4308-b763-4b2399ac473c" d="M183.28,271c1.73,6.82-.24,12.74-2.64,18.74,3.35.21,5-3,8.18-2.28-1.66,5.13-6.25,7.91-9.29,11.66,1.41,1.55,2.94.41,4.35,1.41-4.16,3.68-9.32,4.64-14.74,6.3,1.13-6.67,4.88-12.22,5.36-20.08-4.38,6-5.31,12.07-8.39,17.89-3.37-4.83-5.14-9.65-5.08-15.22,3.14-.28,4.07,4.75,6.4,2.92,1.84-1.45-.42-4.63-.65-7.07-.31-3.34-.61-6.59.64-10.1,2.51,1.62,3.1,4.31,4.33,6.56.38.71.38,1.78,1.37,1.9,1.24.16,1.59-.93,2-1.81C177,277.82,179.07,273.94,183.28,271Z" transform="translate(-16.48 44)"/><path class="f77e3b22-4cbb-4308-b763-4b2399ac473c" d="M182.87,308.26c-.27,2.74-3.53,2.71-4.08,5.5,3,.68,6.05-1.7,9.05,0-.51,2.33-3.59,1.59-4.34,3.88,3.67,1.51,7.94,1.83,11.33,5-2.18,2.17-4.74,1.69-7,1.49-3.57-.31-5.74.08-3.5,4.33a3.15,3.15,0,0,1,.24,3.1c-3.47-.92-4.41-5.24-7.78-6.21-1.5,1.56,0,3.45-1.44,5.38a22.67,22.67,0,0,1-10.49-10.26c-1.3-2.67.89-2.85,2.52-2.64,3.71.49,7.38,1.29,11.24,1.34-2.87-2.52-6.4-3-10-3.29-.87-.06-2.18.59-2.43-.85-.2-1.14.75-1.73,1.68-2.2C172.54,310.4,177.38,308.43,182.87,308.26Z" transform="translate(-16.48 44)"/><path class="f77e3b22-4cbb-4308-b763-4b2399ac473c" d="M137.07,300.28c2.8-.83,4.3,1.58,6.44,1.58.25-.23.62-.41.67-.65.44-2-1.55-5,.74-5.74,2.06-.67,3.86,2.09,5.32,3.82,1.77,2.08,3.28,4.38,4.93,6.63,1.64-1.43.38-3.16,1.49-4.78,3.49,2.76,5.23,6.52,6.47,10.56a2.61,2.61,0,0,1-.56,2.28c-1.08.9-1.69-.39-2.38-1-2.67-2.31-5.1-5-9.19-5,2.69,2.1,5.43,4.15,8.05,6.33,1.09.91,2.56,1.84,2,3.66-.65,2.07-2.54,1.81-4.14,2a14.61,14.61,0,0,1-2,.06c-1.67,0-3.68.05-4.48-1.54s1.26-2.4,2.09-3.53a7.48,7.48,0,0,0,.62-1.64c-2.49-.68-5.11,0-7.25-1.31-1.47-.87-4.39-1-1.72-4,1.4-1.56-.66-1.56-1.59-2A9.47,9.47,0,0,1,137.07,300.28Z" transform="translate(-16.48 44)"/><path class="f77e3b22-4cbb-4308-b763-4b2399ac473c" d="M733.74,115.85c-2.76,3.19-3.55,7.36-5.6,11.68-2.85-8.61-1.72-16,3.39-22.56a28.76,28.76,0,0,1,23.26-11.65c12.55-.1,24.39-2.51,35.48-8.4,6.57-3.48,12.89-2.24,20.43.85C804.79,86.89,800,87.39,795.83,90c-.58.37-2.91,1.09-.09,1.82l.74.85-19.34,9.84c2.84.88,4.34-.31,5.85-.9,7.59-2.94,15.06-6.21,22.7-9,7.23-2.66,12.81-1.35,15.78,3.16,3.11,4.72,2.08,11.71-2.49,17-4,4.67-9.48,7.21-14.62,10.26-3.61,2.15-7.7,3.85-10.17,9.51a104.31,104.31,0,0,0,19.31-11.14c3.51-2.64,9.08-2.72,10.42-8.33,2.09,5.45,1.69,10.37-2.1,14.64a64.21,64.21,0,0,1-7.16,6.93,138.18,138.18,0,0,0-25.92,27.53c-6.4,9.21-14.79,11.94-24.62,8.49,2.89-2.06,6.48-2.49,9.24-5.36-5.16.26-9.1,6.51-15.09,1.79,5.33-2.11,10.18-3.8,14.38-6.71,1.29-.89,3.44-1.13,3.35-3.45l-.11.09c1.51.87,2.31-.34,2.59-1.31s-.85-.35-1.34-.47l-1.06-1c3-3.44,6.28-6.78,7.09-12.13-2.66.51-3.52,2.41-4.71,3.79-5.85,6.75-12.91,11.47-21.75,13.26-10.59,2.15-18.4-3.49-19.82-14.22-1.16-8.87,1.67-16.4,7.7-22.83,4.52-4.81,10.1-8.07,16-10.84,1.57-.73,3.58-.79,4.91-3.29-14.88,3.72-26.19,10.67-31,25.57l-1-.93,1.65-6.43,1-2c.65-1,1.31-2,2-3l1.56-1.63.86-1,1-1,.91-.86c4.28-3.61,9.36-6,13.92-9.25a27.82,27.82,0,0,0-14.68,8.33l-1,1-1,1-1,1c-.49.52-1,1-1.45,1.58-.68,1-1.36,2-2,3.08-.33.63-.67,1.25-1,1.88l-3.14,8c-3-7,1.55-11.66,3.42-16.87l.51-1.39a1.92,1.92,0,0,0,1.09-1.91c.15-.32.3-.65.46-1-.62-.21-.66.28-.79.65l-1.52,1.56C734.14,115,733.94,115.41,733.74,115.85Zm41.64,48.63c.67-.49,2-.34,1.88-1.73-1,.06-1.93.21-2.41,1.21l-.92.66C774.48,165.24,774.93,164.86,775.38,164.48Z" transform="translate(-16.48 44)"/><path class="f77e3b22-4cbb-4308-b763-4b2399ac473c" d="M731,155.11c-.25-2.47,1.93-3.19,3.3-5.27.56,4.54-1.79,7.76-2.22,11.35-.46,4-.75,8,.49,11.88.72,2.26.08,3.14-2.14,4-2.82,1.07-4.26.93-4.5-2.45s-.55-6.62.3-10.22c1.53,1.82.11,4.2,2.21,7.14-.19-6.25,1.66-10.77,2.56-15.52l-.11.1c.47.26.92.17.92-.36,0-.24-.58-.48-.9-.72Z" transform="translate(-16.48 44)"/><path class="f77e3b22-4cbb-4308-b763-4b2399ac473c" d="M768.83,159.68c-5.38,4.94-10.94,6.33-13.88,3.58C759.65,162,764.31,161.32,768.83,159.68Z" transform="translate(-16.48 44)"/><path class="f77e3b22-4cbb-4308-b763-4b2399ac473c" d="M774.28,157.44c-1.34,1.09-2.59,2.36-4.85,2.44.43-2.39,2.67-2.5,3.93-3.61Z" transform="translate(-16.48 44)"/><path class="f77e3b22-4cbb-4308-b763-4b2399ac473c" d="M795.74,91.85a6.6,6.6,0,0,1,5-1.79c-1,1.86-2.85,1.84-4.23,2.64Z" transform="translate(-16.48 44)"/><path class="f77e3b22-4cbb-4308-b763-4b2399ac473c" d="M776,157l-1.72.47-.92-1.17,2.72-2,1.06,1-1.25,1.78Z" transform="translate(-16.48 44)"/><path class="f77e3b22-4cbb-4308-b763-4b2399ac473c" d="M728,161.51c-.15.37-.32.79-.5,1.2-.17-.34-.5-.68-.48-1s.35-.72.55-1.08C727.65,160.89,727.78,161.15,728,161.51Z" transform="translate(-16.48 44)"/><path class="f77e3b22-4cbb-4308-b763-4b2399ac473c" d="M734.5,133.58l-1.24,1.24a1.74,1.74,0,0,1,.22-2.17Z" transform="translate(-16.48 44)"/><path class="f77e3b22-4cbb-4308-b763-4b2399ac473c" d="M731,156c-.52,0-.87-.15-.72-.73,0-.1.47-.1.72-.15l-.09-.1c0,.36,0,.72,0,1.08Z" transform="translate(-16.48 44)"/><path class="f77e3b22-4cbb-4308-b763-4b2399ac473c" d="M389.51,651.3c.27-13.09,2.67-24.17,9.38-34,10.76-15.75,28.37-19.5,44.37-9.27,10.5,6.73,21,12.89,33.39,16.24,15.72,4.27,22.93,17.78,20.44,34.65-3.61,24.44-24.64,42.93-50.94,44.8-25.11,1.78-47.62-13.51-54.5-37.07a44,44,0,0,1-1.48-6.81C389.77,656.56,389.65,653.22,389.51,651.3Zm44.82,0c-1.83,3.62-2.74,7.29-.83,11.13a51.62,51.62,0,0,1,1.67-10.29l4.33-5.29A8.73,8.73,0,0,0,434.33,651.27Zm-7.49-38.53c-9.33,2.09-19.28,6.53-24.75,17.47a54,54,0,0,0-5.64,24.1c0,9.89,1.8,19.33,9.7,26.28,4.37,3.85,9.52,5.51,15.27,3.23a14.43,14.43,0,0,0,9.26-11.5c.62-3.41-.49-6.63-1.63-9.73-2.57-7-.57-12.73,4.79-17.48,2.74-2.43,5.76-4.53,8.47-7,4.49-4,5.54-8.73,3.39-14C443,617.64,435.93,612.83,426.84,612.74Zm59.59,44a60.46,60.46,0,0,0-.53-6.37c-1.44-8.42-4.13-16.33-12.24-20.63-5.75-3-12-4.32-18-.54s-7.1,9.66-6.36,16.18c.05.49.08,1,.17,1.48a18,18,0,0,1-5.26,16.87,34.52,34.52,0,0,0-4.14,5c-7.15,10.58-1.37,24.59,11.28,26.35,9.94,1.39,18.82-1.65,25.45-9.55S486.23,668.16,486.43,656.79Zm-40.69-5.49c-1.36,3.69-2.48,6.74-3.6,9.8A10.84,10.84,0,0,0,445.74,651.3Z" transform="translate(-16.48 44)"/><path class="f77e3b22-4cbb-4308-b763-4b2399ac473c" d="M885.38,479.18c1.94-.72,2.76.34,3.54,1.46,6,8.55,14.53,12.9,24.34,15.34,7.91,2,15.88,3.71,23.68,6,11.26,3.37,15.84,11.47,13.57,23.05-4.51,23-33.46,40-55.76,32.62-14.18-4.66-20.87-17.35-16.31-31.56,2-6.15,4.79-12,7-18.11C888.94,498.5,889.27,488.93,885.38,479.18Zm19.7,29.62c-.26-.27-.73-.79-.75-.77-.68.55-.18.92.26,1.28l.71,1.21,1.49,1.59.93,1.06c2.25,2.87,4.48,5.75,6.74,8.62A52.89,52.89,0,0,1,923,536.33c3.91,10.83,3.26,11.72-7.9,14.14-3.58.77-5.09-.42-6.72-3.13-5.83-9.66-9.16-20.19-11.47-31.14-.91-4.35-.87-9-3-13.44-1.54,2.12-.14,3.63,0,5.13,1.91,15.1,5.49,29.68,13.88,42.71,1.15,1.8,4.08,3.91,4.16,3.62,1.34-4.84,5.73-2.61,8.46-3.66,7.17-2.77,7.28-2.45,5.77-9.94-2.35-11.68-10-20-17.77-28.3l-.79-.88-1.64-1.61Zm-.34-9.64,1.07.92c4.91,4.61,11,7.54,16.34,11.56a36.59,36.59,0,0,1,12.4,17.6c-.38-8.33-5-14-11.41-18.5-5-4.54-11.17-7.51-16.65-11.41l-1.18-.78c-.4-.12-1.09-.43-1.15-.34C903.79,498.79,904.31,499,904.74,499.16Zm34.5,14.67,1.44,1.37c4.68,6.09,4.59,12.68,2,19.54l-.34.62.56-.37c5-5.66,4.53-13.51-1.35-20.78l-1.49-1.41c-5.62-5.73-12.83-8-20.34-9.7C926.37,506.5,933.5,508.85,939.24,513.83Zm-40.77,40.6c.38.09,1,.37,1.11.24.38-.49-.11-.69-.5-.86-14.73-13-13-29.44-9.46-46.34-2.93,8.11-4.86,16.31-4.26,24.76C886,541.65,890.12,549.38,898.47,554.43Z" transform="translate(-16.48 44)"/><path class="f77e3b22-4cbb-4308-b763-4b2399ac473c" d="M924,571.93c-.89-.16-2.2.06-1.88-1.48.56-2.66.35-5.55,2.28-8.38,1.2,3.75-.68,6.8-.5,9.95Z" transform="translate(-16.48 44)"/><path class="f77e3b22-4cbb-4308-b763-4b2399ac473c" d="M921.48,559.51l1.57-.23-.33,1.16Z" transform="translate(-16.48 44)"/><path class="f77e3b22-4cbb-4308-b763-4b2399ac473c" d="M936.42,561.42c-.09-.4-.19-.8-.29-1.2l1.29.13Z" transform="translate(-16.48 44)"/><path class="f77e3b22-4cbb-4308-b763-4b2399ac473c" d="M239.75,87.38c-.06,8.85-6.19,15.64-14.13,15.67S212,96.83,212,88.34c0-9.16,6.25-16.19,14.28-16C233.93,72.51,239.81,79.06,239.75,87.38Zm-7.83,4.81,1.17.57c0-.23,0-.46,0-.68l-1.25.22c-.91-3.49.68-5.39,4.29-6-5.39-.78-5.89-1.58-4-5.78-5-1.26-9.38.69-13.48,3.23,2.1,3.1,1.78,5.62-1.36,8.54,4.54,0,5.11.68,5.21,6.44,2-5.1,4.73-5.65,8.39-1.19C229.44,93.31,229.44,93.31,231.92,92.19ZM225.1,77.9l-.59-.5c-.11.27-.32.55-.29.81s.35.34.55.51C224.88,78.45,225,78.18,225.1,77.9Z" transform="translate(-16.48 44)"/><path class="f77e3b22-4cbb-4308-b763-4b2399ac473c" d="M658.88,653.29c0-9.16,6.17-16.2,14.21-16.07,7.69.11,13.63,6.66,13.6,15,0,8.85-6.12,15.68-14.06,15.75S658.93,661.77,658.88,653.29Zm20,3.78,1.17.57V657l-1.24.23c-.91-3.5.68-5.39,4.5-6.16-5.12.11-6.5-1.87-4.4-5.59-5-1.35-9.23.87-13.21,3.16,2.24,3,1.82,6-2.4,9.24,6.44-1.64,6.3,1.71,6,6,1.83-6.09,4.93-5.22,8.85-1.33C676.45,658.25,676.45,658.25,678.86,657.07Zm-6.81-13.93-.35-.84c-.2.16-.55.3-.56.47a2.42,2.42,0,0,0,.31.83C671.66,643.45,671.86,643.3,672.05,643.14Z" transform="translate(-16.48 44)"/><path class="f77e3b22-4cbb-4308-b763-4b2399ac473c" d="M223,622.05c0-8.93,6.08-15.77,14-15.83s14,6.72,13.85,15.22c-.17,8.86-6.36,15.58-14.3,15.5S222.9,630.58,223,622.05Zm20,4,1.17.58V626l-1.24.23c-.91-3.5.69-5.39,4.33-5.81-1.41-1.9-3.54.56-4.61-1.67a4,4,0,0,1,.54-4.23c-5.19-1.39-9.38.81-13.37,3.11,2.2,3,1.84,6-2.37,9.21,6.36-1.56,6.31,1.71,5.87,5.68,2.11-4.78,4.86-5.59,8.37-1.54C242,628.89,238,626.25,242.92,626.07Zm-6.82-14.28-.59-.5c-.11.27-.32.55-.29.81s.35.34.55.5C235.87,612.33,236,612.07,236.1,611.79Z" transform="translate(-16.48 44)"/><path class="f77e3b22-4cbb-4308-b763-4b2399ac473c" d="M869.86,269.09c.06-8.92,6.12-15.76,14-15.79s14,6.76,13.81,15.25c-.19,8.88-6.39,15.56-14.35,15.46S869.8,277.63,869.86,269.09Zm20,4.06,1.17.57V273l-1.24.24c-.91-3.5.68-5.4,4.5-6.17-5.12.11-6.5-1.87-4-6.21-1.38.4-2.72,1.2-3.18.85-4.4-3.33-6.5,3.13-10.26,2.32-.44-.1-.56.49-.16,1,2.71,3.24,1.13,5.91-2.18,8.82,6.24-1.56,6.12,1.76,5.46,5.84,1.77-1.5,1.91-3.47,4-4.19,2.57-.88,2.8,2.32,4.75,2.31C888.78,275.93,885.1,273.38,889.83,273.15ZM883,259.08l-.46-.81c-.17.25-.45.49-.45.74s.26.53.41.79Z" transform="translate(-16.48 44)"/><path class="f77e3b22-4cbb-4308-b763-4b2399ac473c" d="M837.63,699.64a9.91,9.91,0,0,0-2,4.47c-.36,1.41-.75,2.81-1.39,5.24-.54-4.35-.76-7.54.89-10.77,1.8-3.5,4.94-2.16,7.06-1.56s.69,3.18.14,4.75c-1.36,3.89-3.56,7.33-6.27,11.49-.15-5.13,1.16-9,2.65-12.81.17-.41.34-.83.5-1.24.55-.63,1.78-1.4.87-2.12s-1.34.78-2,1.33Z" transform="translate(-16.48 44)"/><path class="f77e3b22-4cbb-4308-b763-4b2399ac473c" d="M839.39,711.43a42.9,42.9,0,0,0,5.55-12.26c3.22,4.86,1.86,8.24-4.91,12.87A6.15,6.15,0,0,0,839.39,711.43Z" transform="translate(-16.48 44)"/><path class="f77e3b22-4cbb-4308-b763-4b2399ac473c" d="M840,712l-.85.51.21-1.12A6.15,6.15,0,0,1,840,712Z" transform="translate(-16.48 44)"/><path class="f086fce5-5a86-474e-8102-411e2d2ea27c" d="M741.73,115.84a27.82,27.82,0,0,1,14.68-8.33c-4.56,3.21-9.64,5.64-13.92,9.25Z" transform="translate(-16.48 44)"/><path class="f086fce5-5a86-474e-8102-411e2d2ea27c" d="M774.85,164c.48-1,1.39-1.15,2.41-1.21.07,1.39-1.21,1.24-1.88,1.73C775.21,164.3,775,164.13,774.85,164Z" transform="translate(-16.48 44)"/><path class="f086fce5-5a86-474e-8102-411e2d2ea27c" d="M735.31,123.56c.67-1,1.35-2,2-3.08l.81.76c-.66,1-1.32,2-2,3Z" transform="translate(-16.48 44)"/><path class="f086fce5-5a86-474e-8102-411e2d2ea27c" d="M775.89,157.06l1.25-1.78c.49.12,1.6-.45,1.34.47S777.4,157.93,775.89,157.06Z" transform="translate(-16.48 44)"/><path class="f086fce5-5a86-474e-8102-411e2d2ea27c" d="M736.18,124.27l-1,2-.83-.78c.34-.63.68-1.25,1-1.88Z" transform="translate(-16.48 44)"/><path class="f086fce5-5a86-474e-8102-411e2d2ea27c" d="M739.71,119.61l-1.56,1.63-.81-.76c.48-.53,1-1.06,1.45-1.58Z" transform="translate(-16.48 44)"/><path class="f086fce5-5a86-474e-8102-411e2d2ea27c" d="M736.18,113.29a1.92,1.92,0,0,1-1.09,1.91l-.76-.68,1.52-1.56Z" transform="translate(-16.48 44)"/><path class="f086fce5-5a86-474e-8102-411e2d2ea27c" d="M738.79,118.9l1-1,.83.76-.86,1Z" transform="translate(-16.48 44)"/><path class="f086fce5-5a86-474e-8102-411e2d2ea27c" d="M775.38,164.48c-.45.38-.9.76-1.45.14l.92-.66C775,164.13,775.21,164.3,775.38,164.48Z" transform="translate(-16.48 44)"/><path class="f086fce5-5a86-474e-8102-411e2d2ea27c" d="M741.58,117.62l-1,1-.83-.76,1-1Z" transform="translate(-16.48 44)"/><path class="f086fce5-5a86-474e-8102-411e2d2ea27c" d="M740.72,116.84l1-1,.76.92-.91.86Z" transform="translate(-16.48 44)"/><path class="f086fce5-5a86-474e-8102-411e2d2ea27c" d="M735.09,115.2l-.51,1.39-.84-.74c.2-.44.4-.89.59-1.33Z" transform="translate(-16.48 44)"/><path class="f086fce5-5a86-474e-8102-411e2d2ea27c" d="M735.85,113c.13-.37.17-.86.79-.65-.16.33-.31.66-.46,1Z" transform="translate(-16.48 44)"/><path class="f086fce5-5a86-474e-8102-411e2d2ea27c" d="M730.89,156.09c0-.36,0-.72,0-1.08.32.24.89.48.9.72C731.81,156.26,731.36,156.35,730.89,156.09Z" transform="translate(-16.48 44)"/><path class="f086fce5-5a86-474e-8102-411e2d2ea27c" d="M426.84,612.74c9.09.09,16.18,4.9,18.86,11.43,2.15,5.23,1.1,9.92-3.39,14-2.71,2.45-5.73,4.55-8.47,7-5.36,4.75-7.36,10.45-4.79,17.48,1.14,3.1,2.25,6.32,1.63,9.73a14.43,14.43,0,0,1-9.26,11.5c-5.75,2.28-10.9.62-15.27-3.23-7.9-7-9.73-16.39-9.7-26.28a54,54,0,0,1,5.64-24.1C407.56,619.27,417.51,614.83,426.84,612.74Zm-26.95,43c-.06,7.31,1.28,14.24,5.87,20.17,4.15,5.35,10.23,7.1,15.4,4.65,5.45-2.58,7.42-7.71,5.65-14.81-.24-1-.54-1.91-.86-2.86-2.73-8.11-.2-14.67,6-20.06,2.51-2.17,5.32-4,7.84-6.15,6.31-5.4,5.68-13.57-1.43-17.87-5.44-3.28-11.36-4-17.21-1.44-8.71,3.79-15.5,9.55-18.06,19.27C401.46,643,399.9,649.23,399.89,655.78Z" transform="translate(-16.48 44)"/><path class="f086fce5-5a86-474e-8102-411e2d2ea27c" d="M486.43,656.79c-.2,11.37-3,20.81-9.67,28.77s-15.51,10.94-25.45,9.55c-12.65-1.76-18.43-15.77-11.28-26.35a34.52,34.52,0,0,1,4.14-5,18,18,0,0,0,5.26-16.87c-.09-.49-.12-1-.17-1.48-.74-6.52.38-12.43,6.36-16.18s12.29-2.51,18,.54c8.11,4.3,10.8,12.21,12.24,20.63A60.46,60.46,0,0,1,486.43,656.79Zm-2.88-.77a61.72,61.72,0,0,0-.8-7c-1.76-8.15-5.35-15.12-13.53-18.57s-17.83,1.62-16.92,10c1.31,12.22-2.32,21.54-9.74,31.06-6.87,8.81.7,21.4,11.89,21.05,9.81-.3,18.13-3.91,23.15-13.14A48.31,48.31,0,0,0,483.55,656Z" transform="translate(-16.48 44)"/><path class="f086fce5-5a86-474e-8102-411e2d2ea27c" d="M435.17,652.11a51.62,51.62,0,0,0-1.67,10.29c-1.91-3.84-1-7.51.83-11.13Z" transform="translate(-16.48 44)"/><path class="f086fce5-5a86-474e-8102-411e2d2ea27c" d="M445.74,651.3a10.84,10.84,0,0,1-3.6,9.8C443.26,658,444.38,655,445.74,651.3Z" transform="translate(-16.48 44)"/><path class="f086fce5-5a86-474e-8102-411e2d2ea27c" d="M434.33,651.27a8.73,8.73,0,0,1,5.17-4.45l-4.33,5.29Z" transform="translate(-16.48 44)"/><path class="f086fce5-5a86-474e-8102-411e2d2ea27c" d="M908.49,512.32c7.72,8.31,15.42,16.62,17.77,28.3,1.51,7.49,1.4,7.17-5.77,9.94-2.73,1.05-7.12-1.18-8.46,3.66-.08.29-3-1.82-4.16-3.62-8.39-13-12-27.61-13.88-42.71-.19-1.5-1.59-3,0-5.13,2.09,4.49,2,9.09,3,13.44,2.31,10.95,5.64,21.48,11.47,31.14,1.63,2.71,3.14,3.9,6.72,3.13,11.16-2.42,11.81-3.31,7.9-14.14a52.89,52.89,0,0,0-8.53-14.54c-2.26-2.87-4.49-5.75-6.74-8.62Z" transform="translate(-16.48 44)"/><path class="f086fce5-5a86-474e-8102-411e2d2ea27c" d="M898.47,554.43c-8.35-5-12.45-12.78-13.11-22.2-.6-8.45,1.33-16.65,4.26-24.76-3.51,16.9-5.27,33.34,9.46,46.34C898.87,554,898.67,554.22,898.47,554.43Z" transform="translate(-16.48 44)"/><path class="f086fce5-5a86-474e-8102-411e2d2ea27c" d="M923.14,510.74c6.41,4.53,11,10.17,11.41,18.5a36.59,36.59,0,0,0-12.4-17.6Z" transform="translate(-16.48 44)"/><path class="f086fce5-5a86-474e-8102-411e2d2ea27c" d="M941.59,514.21c5.88,7.27,6.39,15.12,1.35,20.78l-.23-.27c2.56-6.84,2.65-13.43-2-19.52Z" transform="translate(-16.48 44)"/><path class="f086fce5-5a86-474e-8102-411e2d2ea27c" d="M939.24,513.83c-5.74-5-12.87-7.33-19.48-10.73,7.51,1.65,14.72,4,20.34,9.7Z" transform="translate(-16.48 44)"/><path class="f086fce5-5a86-474e-8102-411e2d2ea27c" d="M922.15,511.64c-5.33-4-11.43-6.95-16.34-11.56l.68-.75c5.48,3.9,11.61,6.87,16.65,11.41Z" transform="translate(-16.48 44)"/><path class="f086fce5-5a86-474e-8102-411e2d2ea27c" d="M940.68,515.2l-1.44-1.37.86-1,1.49,1.41Z" transform="translate(-16.48 44)"/><path class="f086fce5-5a86-474e-8102-411e2d2ea27c" d="M906.79,512.11l-1.49-1.59.76-.69,1.64,1.61Z" transform="translate(-16.48 44)"/><path class="f086fce5-5a86-474e-8102-411e2d2ea27c" d="M899.08,553.81c.39.17.88.37.5.86-.1.13-.73-.15-1.11-.24C898.67,554.22,898.87,554,899.08,553.81Z" transform="translate(-16.48 44)"/><path class="f086fce5-5a86-474e-8102-411e2d2ea27c" d="M942.94,535l-.56.37c.12-.21.23-.42.34-.63Z" transform="translate(-16.48 44)"/><path class="f086fce5-5a86-474e-8102-411e2d2ea27c" d="M907.7,511.44l.79.88-.77.85-.93-1.06Z" transform="translate(-16.48 44)"/><path class="f086fce5-5a86-474e-8102-411e2d2ea27c" d="M904.74,499.16c-.43-.19-1-.37-.58-1,.06-.09.75.22,1.15.34Z" transform="translate(-16.48 44)"/><path class="f086fce5-5a86-474e-8102-411e2d2ea27c" d="M905.3,510.52l-.71-1.21.49-.51,1,1Z" transform="translate(-16.48 44)"/><path class="f086fce5-5a86-474e-8102-411e2d2ea27c" d="M905.31,498.55l1.18.78-.68.75-1.07-.92Z" transform="translate(-16.48 44)"/><path class="f086fce5-5a86-474e-8102-411e2d2ea27c" d="M904.59,509.31c-.44-.36-.94-.73-.26-1.28,0,0,.49.5.75.77Z" transform="translate(-16.48 44)"/><path class="f086fce5-5a86-474e-8102-411e2d2ea27c" d="M231.92,92.2c-2.48,1.11-2.48,1.11-1,5.35-3.66-4.46-6.35-3.91-8.39,1.19-.1-5.76-.67-6.4-5.21-6.44,3.14-2.92,3.46-5.44,1.36-8.54,4.1-2.54,8.49-4.49,13.48-3.23-1.87,4.2-1.37,5,4,5.78-3.61.6-5.2,2.5-4.29,6Zm-2.44-5.06c-.31-2.27-.59-4.63-3.63-4.35a4.41,4.41,0,0,0-4.25,4.69c0,2.13.8,4.56,3.55,4.59C228.25,92.1,229.35,89.9,229.48,87.14Z" transform="translate(-16.48 44)"/><path class="f086fce5-5a86-474e-8102-411e2d2ea27c" d="M225.09,77.91l-.32.81c-.2-.17-.53-.32-.55-.51s.18-.54.29-.81Z" transform="translate(-16.48 44)"/><path class="f086fce5-5a86-474e-8102-411e2d2ea27c" d="M231.85,92.3l1.25-.22c0,.22,0,.45,0,.68l-1.17-.57Z" transform="translate(-16.48 44)"/><path class="f086fce5-5a86-474e-8102-411e2d2ea27c" d="M678.85,657.08c-2.4,1.17-2.4,1.17-.74,5.38-3.92-3.89-7-4.76-8.85,1.33.32-4.25.46-7.6-6-6,4.22-3.2,4.64-6.26,2.4-9.24,4-2.29,8.17-4.51,13.21-3.16-2.1,3.72-.72,5.7,4.4,5.59-3.82.77-5.41,2.66-4.5,6.16ZM676.41,652c-.3-2.15-.48-4.57-3.53-4.35a4.36,4.36,0,0,0-4.33,4.59c0,2.33.85,4.89,3.94,4.69C675.28,656.76,676.31,654.66,676.41,652Z" transform="translate(-16.48 44)"/><path class="f086fce5-5a86-474e-8102-411e2d2ea27c" d="M672.05,643.14c-.19.16-.39.31-.6.46a2.42,2.42,0,0,1-.31-.83c0-.17.36-.31.56-.47C671.81,642.58,671.93,642.86,672.05,643.14Z" transform="translate(-16.48 44)"/><path class="f086fce5-5a86-474e-8102-411e2d2ea27c" d="M678.79,657.18,680,657v.69l-1.17-.57Z" transform="translate(-16.48 44)"/><path class="f086fce5-5a86-474e-8102-411e2d2ea27c" d="M242.92,626.08c-4.89.17-.91,2.81-1.31,4.86-3.51-4.05-6.26-3.24-8.37,1.54.44-4,.49-7.24-5.87-5.68,4.21-3.16,4.57-6.23,2.37-9.21,4-2.3,8.18-4.5,13.37-3.11a4,4,0,0,0-.54,4.23c1.07,2.23,3.2-.23,4.61,1.67-3.64.42-5.24,2.31-4.33,5.81Zm-2.43-4.84c-.31-2-.25-4.58-3.29-4.57a4.33,4.33,0,0,0-4.57,4.35c-.13,2.38.67,4.9,3.67,4.93C239.1,626,240.25,623.92,240.49,621.24Z" transform="translate(-16.48 44)"/><path class="f086fce5-5a86-474e-8102-411e2d2ea27c" d="M236.09,611.79c-.11.28-.22.54-.32.81-.2-.16-.54-.32-.55-.5s.18-.54.29-.81Z" transform="translate(-16.48 44)"/><path class="f086fce5-5a86-474e-8102-411e2d2ea27c" d="M242.85,626.19l1.24-.23v.69l-1.17-.57Z" transform="translate(-16.48 44)"/><path class="f086fce5-5a86-474e-8102-411e2d2ea27c" d="M889.82,273.16c-4.72.22-1,2.77-1.17,4.65-1.95,0-2.18-3.19-4.75-2.31-2.09.72-2.23,2.69-4,4.19.66-4.08.78-7.4-5.46-5.84,3.31-2.91,4.89-5.58,2.18-8.82-.4-.48-.28-1.07.16-1,3.76.81,5.86-5.65,10.26-2.32.46.35,1.8-.45,3.18-.85-2.46,4.34-1.08,6.32,4,6.21-3.82.77-5.41,2.67-4.5,6.17Zm-2.43-5.07c-.31-2.26-.6-4.62-3.63-4.34a4.42,4.42,0,0,0-4.26,4.69c0,2.13.81,4.56,3.56,4.59C886.16,273.06,887.25,270.86,887.39,268.09Z" transform="translate(-16.48 44)"/><path class="f086fce5-5a86-474e-8102-411e2d2ea27c" d="M889.76,273.27,891,273v.69l-1.17-.57Z" transform="translate(-16.48 44)"/><path class="f086fce5-5a86-474e-8102-411e2d2ea27c" d="M883,259.08l-.5.72c-.15-.26-.42-.53-.41-.79s.28-.49.45-.74Z" transform="translate(-16.48 44)"/><path class="f086fce5-5a86-474e-8102-411e2d2ea27c" d="M838.13,698.42c.61-.55,1-2.11,2-1.33s-.32,1.49-.87,2.12Z" transform="translate(-16.48 44)"/><path class="f086fce5-5a86-474e-8102-411e2d2ea27c" d="M837.63,699.64l.5-1.22,1.08.79c-.16.41-.33.83-.5,1.24Z" transform="translate(-16.48 44)"/><path class="f77e3b22-4cbb-4308-b763-4b2399ac473c" d="M399.89,655.78c0-6.55,1.57-12.82,3.23-19.1,2.56-9.72,9.35-15.48,18.06-19.27,5.85-2.55,11.77-1.84,17.21,1.44,7.11,4.3,7.74,12.47,1.43,17.87-2.52,2.16-5.33,4-7.84,6.15-6.23,5.39-8.76,12-6,20.06.32,1,.62,1.9.86,2.86,1.77,7.1-.2,12.23-5.65,14.81-5.17,2.45-11.25.7-15.4-4.65C401.17,670,399.83,663.09,399.89,655.78ZM421,640.92l.44.63.2-.51-.72,0c.45-.77-.07-1.09-.63-1.41a11.07,11.07,0,0,0-4.13-3.85l-1.1-.9-.94-.5.25,1.11,1,1a13.1,13.1,0,0,0,4.46,3.6A1,1,0,0,0,421,640.92Zm-4.48,9.81c1.63-.11,3.61.28,4.19-1.19s-1.09-2.6-2.19-3.54a14.69,14.69,0,0,0-7.53-3.47,3.34,3.34,0,0,0-4,2.17c-.63,1.7.43,2.86,1.7,3.73A15,15,0,0,0,416.53,650.73Zm7.5-16.68a41.8,41.8,0,0,1-1.92-4.34c-.32-1-.15-2.09,1.4-1.72,2,.47,3.58,5.19,2,6.74-.63.61-1.35.75-.68,1.63a3.8,3.8,0,0,0,2.86,1.77c1.09,0,1.26-.9,1.18-1.76-.17-1.64-.35-3.29-.67-4.9-.61-3.14-2.13-5.63-5.54-6.23a2.36,2.36,0,0,0-2.73,1.71C419.11,630.29,420.87,632.55,424,634.05Zm-6.23,28.43c-3.35.83-7.14,1.56-8.58,5.43-.65,1.74,1.12,3.07,2.84,3.36,4.16.69,6.24-2.12,8.07-5.2C421.61,663.57,420.85,662.41,417.8,662.48Zm16.8-31.21c1.56-3.3,1.36-6.37-1.66-10Zm-17.45,24.19c-2.85-1.68-5-1.61-8.72-1.05A15.5,15.5,0,0,0,417.15,655.46Z" transform="translate(-16.48 44)"/><path class="f77e3b22-4cbb-4308-b763-4b2399ac473c" d="M483.55,656a48.31,48.31,0,0,1-5.95,23.42c-5,9.23-13.34,12.84-23.15,13.14-11.19.35-18.76-12.24-11.89-21.05,7.42-9.52,11.05-18.84,9.74-31.06-.91-8.36,8.75-13.43,16.92-10s11.77,10.42,13.53,18.57A61.72,61.72,0,0,1,483.55,656Zm-29.39,10.74c-.2-.48-.5-.82-1-.47a6.89,6.89,0,0,0,.47,1,15.27,15.27,0,0,0,6.52,5.24A14.74,14.74,0,0,0,454.16,666.76Zm-5,9c.5,3,.59,6.35,2.5,9.24,1.25,1.9,2.75,3.53,5.28,2.57s3.44-3,3-5.6a17.25,17.25,0,0,0-4.46-8.73c-1.14-1.31-2.23-3.55-4.2-2.92C449.16,671,449.46,673.52,449.2,675.75Zm14.31-16.45c-1.07.12-2.89.24-4.69.52s-2.41,1.36-1.08,2.71c3.31,3.37,7,6.09,12,6.5a3.68,3.68,0,0,0,4.05-2.24c.67-1.58,0-2.93-1-4.12C470.55,660,467.53,659.33,463.51,659.3Zm-3.82-9.14c3.46-.33,6.88-.86,9.69-3.16,1.4-1.15,2.9-2.48,2.14-4.56s-2.68-2.85-4.82-2.54a12.28,12.28,0,0,0-9.52,6.26C455.51,649.13,456.26,650.44,459.69,650.16Z" transform="translate(-16.48 44)"/><path class="f77e3b22-4cbb-4308-b763-4b2399ac473c" d="M229.48,87.14c-.13,2.76-1.23,5-4.33,4.93-2.75,0-3.53-2.46-3.55-4.59a4.41,4.41,0,0,1,4.25-4.69C228.89,82.51,229.17,84.87,229.48,87.14Z" transform="translate(-16.48 44)"/><path class="f77e3b22-4cbb-4308-b763-4b2399ac473c" d="M676.41,652c-.1,2.64-1.13,4.74-3.92,4.93-3.09.2-3.93-2.36-3.94-4.69a4.36,4.36,0,0,1,4.33-4.59C675.93,647.45,676.11,649.87,676.41,652Z" transform="translate(-16.48 44)"/><path class="f77e3b22-4cbb-4308-b763-4b2399ac473c" d="M240.49,621.24c-.24,2.68-1.39,4.75-4.19,4.71-3,0-3.8-2.55-3.67-4.93a4.33,4.33,0,0,1,4.57-4.35C240.24,616.66,240.18,619.19,240.49,621.24Z" transform="translate(-16.48 44)"/><path class="f77e3b22-4cbb-4308-b763-4b2399ac473c" d="M887.39,268.09c-.14,2.77-1.23,5-4.33,4.94-2.75,0-3.54-2.46-3.56-4.59a4.42,4.42,0,0,1,4.26-4.69C886.79,263.47,887.08,265.83,887.39,268.09Z" transform="translate(-16.48 44)"/><path class="f086fce5-5a86-474e-8102-411e2d2ea27c" d="M416.53,650.73a15,15,0,0,1-7.79-2.3c-1.27-.87-2.33-2-1.7-3.73a3.34,3.34,0,0,1,4-2.17,14.69,14.69,0,0,1,7.53,3.47c1.1.94,2.78,2.06,2.19,3.54S418.16,650.62,416.53,650.73Zm1-2.69c-2.43-1.81-4.72-4-8.55-2.77C411.24,648.57,414.3,648.55,417.5,648Z" transform="translate(-16.48 44)"/><path class="f086fce5-5a86-474e-8102-411e2d2ea27c" d="M424,634.05c-3.16-1.5-4.92-3.76-4.09-7.1a2.36,2.36,0,0,1,2.73-1.71c3.41.6,4.93,3.09,5.54,6.23.32,1.61.5,3.26.67,4.9.08.86-.09,1.78-1.18,1.76a3.8,3.8,0,0,1-2.86-1.77c-.67-.88.05-1,.68-1.63,1.57-1.55,0-6.27-2-6.74-1.55-.37-1.72.74-1.4,1.72A41.8,41.8,0,0,0,424,634.05Z" transform="translate(-16.48 44)"/><path class="f086fce5-5a86-474e-8102-411e2d2ea27c" d="M417.8,662.48c3.05-.07,3.81,1.09,2.33,3.59-1.83,3.08-3.91,5.89-8.07,5.2-1.72-.29-3.49-1.62-2.84-3.36C410.66,664,414.45,663.31,417.8,662.48Zm-7,6c4.21,1.67,5.81-.65,7.82-3.5A8.78,8.78,0,0,0,410.79,668.49Z" transform="translate(-16.48 44)"/><path class="f086fce5-5a86-474e-8102-411e2d2ea27c" d="M434.6,631.27l-1.66-10C436,624.9,436.16,628,434.6,631.27Z" transform="translate(-16.48 44)"/><path class="f086fce5-5a86-474e-8102-411e2d2ea27c" d="M417.15,655.46a15.5,15.5,0,0,1-8.72-1.05C412.1,653.85,414.3,653.78,417.15,655.46Z" transform="translate(-16.48 44)"/><path class="f086fce5-5a86-474e-8102-411e2d2ea27c" d="M416.17,635.76a11.07,11.07,0,0,1,4.13,3.85l-.45.48a13.1,13.1,0,0,1-4.46-3.6Z" transform="translate(-16.48 44)"/><path class="f086fce5-5a86-474e-8102-411e2d2ea27c" d="M415.07,634.86l1.1.9-.78.73-1-1A5.78,5.78,0,0,0,415.07,634.86Z" transform="translate(-16.48 44)"/><path class="f086fce5-5a86-474e-8102-411e2d2ea27c" d="M420.3,639.61c.56.32,1.08.64.63,1.41l.08-.1a1,1,0,0,1-1.16-.83Z" transform="translate(-16.48 44)"/><path class="f086fce5-5a86-474e-8102-411e2d2ea27c" d="M414.38,635.47l-.25-1.11.94.5A5.78,5.78,0,0,1,414.38,635.47Z" transform="translate(-16.48 44)"/><path class="f086fce5-5a86-474e-8102-411e2d2ea27c" d="M420.93,641l.72,0-.2.51-.44-.63Z" transform="translate(-16.48 44)"/><path class="f086fce5-5a86-474e-8102-411e2d2ea27c" d="M449.2,675.75c.26-2.23,0-4.74,2.16-5.44,2-.63,3.06,1.61,4.2,2.92A17.25,17.25,0,0,1,460,682c.4,2.6-.53,4.64-3,5.6s-4-.67-5.28-2.57C449.79,682.1,449.7,678.74,449.2,675.75Zm3.12-3.57a13.43,13.43,0,0,0,.27,8.91c.64,1.71,1.06,4.61,3.66,3.68s1.32-3.44.5-5.15C455.69,677.41,454.25,675.38,452.32,672.18Z" transform="translate(-16.48 44)"/><path class="f086fce5-5a86-474e-8102-411e2d2ea27c" d="M463.51,659.3c4,0,7,.69,9.24,3.37,1,1.19,1.67,2.54,1,4.12A3.68,3.68,0,0,1,469.7,669c-4.92-.41-8.65-3.13-12-6.5-1.33-1.35-.72-2.44,1.08-2.71S462.44,659.42,463.51,659.3ZM461,662a21.25,21.25,0,0,0,7.05,4.21c1,.32,2.05.7,2.68-.34.81-1.36-.32-2.12-1.26-2.79C467.17,661.45,464.56,661.54,461,662Z" transform="translate(-16.48 44)"/><path class="f086fce5-5a86-474e-8102-411e2d2ea27c" d="M459.69,650.16c-3.43.28-4.18-1-2.51-4a12.28,12.28,0,0,1,9.52-6.26c2.14-.31,4,.38,4.82,2.54s-.74,3.41-2.14,4.56C466.57,649.3,463.15,649.83,459.69,650.16ZM458.5,648c4.25-1.35,8.18-.91,10.53-5.4C464.38,642.28,461.4,643.84,458.5,648Z" transform="translate(-16.48 44)"/><path class="f086fce5-5a86-474e-8102-411e2d2ea27c" d="M454.16,666.76a14.74,14.74,0,0,1,6,5.8,15.27,15.27,0,0,1-6.52-5.24Z" transform="translate(-16.48 44)"/><path class="f086fce5-5a86-474e-8102-411e2d2ea27c" d="M453.61,667.32a6.89,6.89,0,0,1-.47-1c.52-.35.82,0,1,.47Z" transform="translate(-16.48 44)"/><path class="f77e3b22-4cbb-4308-b763-4b2399ac473c" d="M417.5,648c-3.2.51-6.26.53-8.55-2.77C412.78,644,415.07,646.23,417.5,648Z" transform="translate(-16.48 44)"/><path class="f77e3b22-4cbb-4308-b763-4b2399ac473c" d="M410.79,668.49a8.78,8.78,0,0,1,7.82-3.5C416.6,667.84,415,670.16,410.79,668.49Z" transform="translate(-16.48 44)"/><path class="f77e3b22-4cbb-4308-b763-4b2399ac473c" d="M452.32,672.18c1.93,3.2,3.37,5.23,4.43,7.44.82,1.71,2.06,4.23-.5,5.15s-3-2-3.66-3.68A13.43,13.43,0,0,1,452.32,672.18Z" transform="translate(-16.48 44)"/><path class="f77e3b22-4cbb-4308-b763-4b2399ac473c" d="M461,662c3.53-.49,6.14-.58,8.47,1.08.94.67,2.07,1.43,1.26,2.79-.63,1-1.71.66-2.68.34A21.25,21.25,0,0,1,461,662Z" transform="translate(-16.48 44)"/><path class="f77e3b22-4cbb-4308-b763-4b2399ac473c" d="M458.5,648c2.9-4.19,5.88-5.75,10.53-5.4C466.68,647.12,462.75,646.68,458.5,648Z" transform="translate(-16.48 44)"/></svg>