<svg id="ad433d4f-9859-419b-bbbe-4f6381d3ccf2" data-name="Layer 1" xmlns="http://www.w3.org/2000/svg" viewBox="0 0 1099.9 1023.99"><defs><style>.eeca9862-530a-472f-8889-ba2da26bb672{fill:#303030aa;}.ee85502d-f6c1-49a5-a78b-85de8f55719e{fill:#ffc200;}</style></defs><path class="eeca9862-530a-472f-8889-ba2da26bb672" d="M653.94,907.9q-446.67,0-893.35.1c-3.75,0-4.59-.85-4.59-4.6q.15-507.39,0-1014.8c0-3.75.84-4.59,4.59-4.59q469.17.15,938.34.09c4.5,1.07,8,3.63,11.3,6.83Q726-93.68,740.31-77c30.42,35.43,53.27,75,65.22,120.4,9.59,36.47,12.87,73.69,13.55,111.24.09,5,.08,10,.37,15,.28,4.8-.29,9.67,1.12,15.64.6-3,1-4.72,1.31-6.5,5.6-33.23,4.37-66.35-2-99.32C805.26,4.56,773.45-61.07,716.42-113.15c-.77-.71-2.18-1.2-1.49-2.75h39c2.3,2.76,6,5.3,6.48,8.34a12.39,12.39,0,0,0,3.21,6.79c54.09,62.11,83.53,134.51,90.52,216.35.41,4.82-.26,9.83,1.77,14.47v57c-1.65.79-.91,2.32-1,3.52-1.27,19.45-3.43,38.81-6.24,58.09-8.58,58.9-23.17,116.38-40.95,173.1-.64,2-.82,4.38-3.14,5.82l31.63-132.85-1.87-.46-15.6,56.85-1.4-.42,6.91-30.23c-3.47,4-3.2,9.33-6.27,14.18.28-5.62.53-10.44.76-15.26a61.21,61.21,0,0,0-.76-14.44c-.63-3.29,0-8.66-3.38-8.93-2.75-.22-3.81,5.16-4.65,8.5-20.05,80-44.45,158.78-67.14,238-.32,1.11-.33,2.44-2.27,3.57,9.86-48.47,24.15-95.14,34.94-142.81l-2.91,4.09c7.47-35.49,19.15-68.74,23.09-103.69a9.64,9.64,0,0,0-1.65,3.55q-12.09,46-24.15,92.11c-8.41,32-15.43,64.32-25.58,95.85-21.61,67.12-41.39,134.72-52.92,204.45-4.48,27.09-9.09,54.15-11.67,81.51-1.61,17.09-2,34.25-2.89,51.38a69.57,69.57,0,0,1-1.19,10.4c-.45,2.11-1.88,4.19-4.55,3.7-2.19-.39-3.22-2.18-3.33-4.4-.06-1.16,0-2.33-.11-3.49-1-20,.45-39.92,2.08-59.86A883.22,883.22,0,0,1,687.37,661c12.2-55.55,27.17-110.38,41.94-165.28,1.8-6.65,3.31-13.39,5-20.08a11.29,11.29,0,0,0-2.84,5.25c-16.67,57.81-32.77,115.79-45.27,174.68-11.68,55.07-20.9,110.52-22.39,167-.1,3.64-.54,7.28-.92,12a22.24,22.24,0,0,1-3-12.56c.82-49.07,8-97.51,14.55-146,1.08-8,2.51-15.88,3.78-23.82L676.4,652c-7.49,53.08-20,105.5-18.82,160.48-3.19-1.91-1.92-4.91-4.72-6.46,0,2.35,0,4.24,0,6.13.55,20,1.23,40,1.65,59.94C654.77,884,656,896,653.94,907.9ZM804.93,100l.39.14-.46.29.07-.4c-.84-3.77-.93-7.72-3-12.07C802.82,92.6,802.32,96.67,804.93,100Zm-8.79,127.23c-3.42,10.26-5.33,20.89-7.81,31.38-3.91,16.52-7.62,33.09-11.41,49.64a118.93,118.93,0,0,0,6-17.72c5.79-20.84,9.58-42.09,13.31-63.35-1.69-.89-1.1-1.95-.15-2.93a1.31,1.31,0,0,1,1.15.32C797.85,225.82,798.07,227,796.14,227.25ZM663.89,551a1.62,1.62,0,0,1,1.32-2.52c1.3,0,1,1.8,1.66,2.67,1.17,1.62,0,5.3,2.74,5,2.36-.28.42-3.55,1.31-5.28.08-.15.18-.28.29-.47,2.3.25,2.6,2.27,3.34,3.87.83,1.79,1.52,3.67,2.4,5.44.54,1.07,1.39,2.05,2.77,1.28,1.12-.62.59-1.68.47-2.67-.38-3-2.57-5.72-2.14-9.31,2.42,1,4.51,2,6.67,2.83,1.6.57,3.57,2.11,4.81-.28s-1.16-3-2.61-3.92c-4.23-2.59-9.1-3.76-14.12-5.81,2.25-1.82,4.06-3.26,5.84-4.72a47.06,47.06,0,0,0,16.28-25.68c3.72-15.14-2.37-25.91-17.35-30.32-9.24-2.72-18.65-4.89-28-7.2-11.21-2.76-19.93-8.86-25.94-18.79a21.71,21.71,0,0,0-3.55-4.76,4.31,4.31,0,0,0-5.57-.32c-2.24,1.53,0,3,.53,4.21,6.28,13.47,6.61,26.87.23,40.44a142.31,142.31,0,0,0-5.86,14.83c-6.5,19.1,5.65,38.26,25.59,40.77a57.67,57.67,0,0,0,22.73-1.76c3.11-.86,4.07-.19,3.08,2.93a29.66,29.66,0,0,0-1.38,9.34c0,1.21.46,2.46,1.88,2.55,1.58.1,1.93-1,1.6-2.35C666.84,558,665.44,554.48,663.89,551ZM-214,342.92c2.47-.62,3.48-2.22,4.64-3.57A99.38,99.38,0,0,0-199,324.67c.84-1.43,1.15-4,3.77-2.72,2.94,1.46.49,3-.25,4.38a57.78,57.78,0,0,0-5.66,15.91c-.6,3.08-.11,5.71,2.7,7.39s5,.17,6.95-1.95c.87-1,1.68-2.31,3.08-.55,2.35,3,4.91,2.21,7.37.23,2.06-1.64,2.59-.77,3.26,1.34a25.43,25.43,0,0,0,5.41,10c1.81,1.92,4,3.47,6.49,1.28,2-1.79,3.52-1.47,5.65-.13,2.82,1.77,4.7.32,5.55-2.64a14.22,14.22,0,0,0,.23-6.92c-.63-3.06-2.63-6.26,1.56-8.61,1.12-.63.64-2.41.39-3.76a19.48,19.48,0,0,0-4-8.48c-1-1.29-1.65-2,0-3.63,3.22-3.13,2.57-5.36-2-7-2.92-1-4.75-1.79-1.53-4.7,1.37-1.23,2.43-2.87,1-4.84-1.26-1.81-3.1-1.83-4.93-1.32-7.24,2-14.41,4.19-20.43,8.93-1.77,1.39-3.57,2.61-5.89,2s-3.79-1.85-2.28-4.69c3.5-6.6,6.87-13.28,10.21-20,3.12-6.22,3.06-6.21,8.75-1.81a70.06,70.06,0,0,0,6.16,4.24c.79.49,2.43,1,2.69.72,3-3.59,5.15-.63,7.59.79,2.06,1.19,4.52,1.84,4.67-1.64.19-4.3,2.6-5.7,6.29-6.25,2.52-.38,5.1-1.07,5.45-4.18s-2.26-3.74-4.22-4.92c-1.58-.95-4.51-1.12-3.52-3.86s-.1-3.52-2.06-4.66c-3.36-1.95-4.14-5.13-3.05-8.65.51-1.67.87-3,0-4.72s-.1-3.18,1.06-4.56a34.6,34.6,0,0,0,4-5.12c1.43-2.54,1.35-5.38-2.2-5.48-3.81-.11-3.55-1.9-2.92-4.41a22,22,0,0,0,.19-10.39c-1-4.11-3.23-4.85-6.31-1.89a41.06,41.06,0,0,0-5.72,6.89c-1.76,2.64-3,3.68-4.35-.15-.72-2.09-1.44-4.38-4.25-4s-4.19,2.57-4.57,5.21c-.3,2.13-.22,4.31-.34,6.47-.08,1.3.16,2.81-1.39,3.45-4.23,1.74-3.88,5.15-3.58,8.8.14,1.66,1.85,4.14-1.19,5.06-2.8.84-5.58,1.33-7.21-2.19-.87-1.9-2.84-2.75-4.52-3.81-2.74-1.73-4.91-1.12-5.71,2.06-.65,2.63-2,3.24-4.32,2.4a3,3,0,0,0-3.92,1.23,3.28,3.28,0,0,0,.79,4.49c3.13,2.76,4.29,6.68,6.08,10.22.64,1.27,2.57,2.88.2,4.21-2.15,1.21-3.36-.09-4.09-2.12a3.22,3.22,0,0,0-3.37-2.46c-1.93.2-2.65,1.77-3,3.5-.28,1.25-.63,2.48-1,3.81-8.38-10.36-8.38-10.36-12.11-2.76-1.63-1.19-3.21-2.37-4.82-3.51a4,4,0,0,0-5.46.23,4.25,4.25,0,0,0-1.08,5.43,38.76,38.76,0,0,0,2.36,3.81c1.1,1.72,1.16,2.94-1.2,3.66-2,.61-3.47,1.88-3.35,4.35.12,2.64,1.56,4.21,3.77,5.41,1.78,1,4.06,1.05,5.77,3-.94.49-1.49.8-2,1-5.46,2.48-5.61,2.87-2.08,7.77a3.5,3.5,0,0,1,.64,3.55c-1.36,4.64,1.47,7.36,6.21,5.78,2.68-.9,4.32-.64,5.91,1.65,2.39,3.45,5.23,3,8.05.49,2.49-2.2,5-4.38,7.33-6.77,2.8-2.91,4.35-1.39,5.4,1.41.87,2.32.26,4.54-1.12,6.62-2.48,3.75-4.78,7.61-7.24,11.37C-212.27,335.93-214.32,338.76-214,342.92ZM455.59,100.28c4.6,5,9.28,8.27,15.43,8.87,1.6.16,1.94,1.66,2.67,2.73,9,13.25,27.67,15.57,38.43,3.84q18.75-20.44,38.45-39.9c5.49-5.42,7.86-12.25,4.59-20.1A16,16,0,0,1,554.61,45c1.6-5.63.42-10.49-4.1-14.43-2.5-2.19-4.77-4.66-7.32-6.78-9.62-8-19.91-9.69-31.51-4.06a82.27,82.27,0,0,1-30.8,7.67c-7.95.53-15.89,1.34-23.1,5.46C441,42.45,436.29,64.18,448.3,77.6c5.56,6.22,5.4,12-.29,18.36-7.82,8.73-10.23,18.83-7.12,30.15,1.48,5.4,3.71,6.93,8,5.88,5.57-1.36,7.09-3.8,5.69-9.42A36.63,36.63,0,0,1,455.59,100.28Zm-388,545.9c-.38,12.06,2,23.46,8.17,34,13.47,23.06,38.29,34.13,66.21,29.58,26.58-4.33,46.82-23.52,52-49.35,2.8-14,.31-26.53-10.8-36.37a44.93,44.93,0,0,0-19.36-10c-10.37-2.51-19.4-7.3-28-13.6-21.21-15.51-44.79-10.36-58.41,12.11A66.81,66.81,0,0,0,67.55,646.18ZM804.23,102.39a450.07,450.07,0,0,1,4.36,52.19,500.72,500.72,0,0,1-1.23,51.4c-1.2,17-2.82,34-4.25,51C813.79,204.91,814.47,118.75,804.23,102.39Zm40.89-16.06a515.88,515.88,0,0,1,4.61,52.16c.57,17.64.36,35.28-.77,52.9-1.1,17.24-3,34.41-4.79,51.59C853.84,204.05,857.36,130.49,845.12,86.33Zm-7.88,168.23c7.61-35.83,11.68-72.05,9.51-108.73-.68-11.54,0-23.44-5.31-34.34-.44-.9-.56-2.2.6-2.56,1.66-.51,2.09,1.1,1.86,2.08a31.42,31.42,0,0,0-.66,9.28,585.25,585.25,0,0,1-.91,85.71C841,222.22,839.05,238.36,837.24,254.56ZM366.77,651.86c-.15,11.14,6.86,18.87,17.32,19.12,11,.26,19.73-9.13,19.77-21.27,0-10.72-8.21-19.6-18.39-19.78C374.42,629.73,366.94,638.51,366.77,651.86ZM-90.88,23.63a29.58,29.58,0,0,0-.67-4.51,18.94,18.94,0,0,0-16.36-14c-7.74-.65-13.79,2.89-17.26,10.1-4.39,9.11-3.56,19.49,2,25.28a18.2,18.2,0,0,0,19.74,4.37C-95.83,41.87-91,34.18-90.88,23.63ZM637.2,223.72a30.53,30.53,0,0,0-.78-5,19.08,19.08,0,0,0-16.19-13.6A17.43,17.43,0,0,0,603,214.6c-4.52,8.91-4,19.54,1.36,25.38a18.41,18.41,0,0,0,20,5.13C632.32,242.13,637.17,234.57,637.2,223.72ZM-78.8,615.4c.06-10.89-8-19.64-18.2-19.84-10.8-.21-18.94,9.43-19,22.53-.07,10.3,8,18.72,18.05,18.74C-87.45,636.86-78.86,627.26-78.8,615.4Zm639.66,91.69a79.16,79.16,0,0,1,1.37,15.67c0,1.92,1.1,2.35,2.58,1.18,4.54-3.61,9.49-6.86,12.94-11.58,2.86-3.91,2.48-8.23-.49-12-2.58-3.29-6.26-4.65-10.23-3.29C562.83,698.49,561.06,702,560.86,707.09Zm229.07-660-1.33.36q4.29,20,8.59,40.06C797.7,73.47,793.77,60.3,789.93,47.11ZM768.69,345.2l-1.45-.42q-2.22,7.88-4.43,15.75l1.45.42Q766.48,353.08,768.69,345.2Z" transform="translate(244 115.99)"/><path class="ee85502d-f6c1-49a5-a78b-85de8f55719e" d="M-214,342.92c-.35-4.16,1.7-7,3.62-9.9,2.46-3.76,4.76-7.62,7.24-11.37,1.38-2.08,2-4.3,1.12-6.62-1-2.8-2.6-4.32-5.4-1.41-2.31,2.39-4.84,4.57-7.33,6.77-2.82,2.5-5.66,3-8.05-.49-1.59-2.29-3.23-2.55-5.91-1.65-4.74,1.58-7.57-1.14-6.21-5.78a3.5,3.5,0,0,0-.64-3.55c-3.53-4.9-3.38-5.29,2.08-7.77.56-.25,1.11-.56,2-1-1.71-1.93-4-2-5.77-3-2.21-1.2-3.65-2.77-3.77-5.41-.12-2.47,1.34-3.74,3.35-4.35,2.36-.72,2.3-1.94,1.2-3.66a38.76,38.76,0,0,1-2.36-3.81,4.25,4.25,0,0,1,1.08-5.43,4,4,0,0,1,5.46-.23c1.61,1.14,3.19,2.32,4.82,3.51,3.73-7.6,3.73-7.6,12.11,2.76.34-1.33.69-2.56,1-3.81.38-1.73,1.1-3.3,3-3.5a3.22,3.22,0,0,1,3.37,2.46c.73,2,1.94,3.33,4.09,2.12,2.37-1.33.44-2.94-.2-4.21-1.79-3.54-2.95-7.46-6.08-10.22a3.28,3.28,0,0,1-.79-4.49,3,3,0,0,1,3.92-1.23c2.36.84,3.67.23,4.32-2.4.8-3.18,3-3.79,5.71-2.06,1.68,1.06,3.65,1.91,4.52,3.81,1.63,3.52,4.41,3,7.21,2.19,3-.92,1.33-3.4,1.19-5.06-.3-3.65-.65-7.06,3.58-8.8,1.55-.64,1.31-2.15,1.39-3.45.12-2.16,0-4.34.34-6.47.38-2.64,1.66-4.86,4.57-5.21s3.53,2,4.25,4c1.33,3.83,2.59,2.79,4.35.15a41.06,41.06,0,0,1,5.72-6.89c3.08-3,5.36-2.22,6.31,1.89a22,22,0,0,1-.19,10.39c-.63,2.51-.89,4.3,2.92,4.41,3.55.1,3.63,2.94,2.2,5.48a34.6,34.6,0,0,1-4,5.12c-1.16,1.38-1.92,2.93-1.06,4.56s.53,3.05,0,4.72c-1.09,3.52-.31,6.7,3.05,8.65,2,1.14,3,2.05,2.06,4.66s1.94,2.91,3.52,3.86c2,1.18,4.55,2,4.22,4.92s-2.93,3.8-5.45,4.18c-3.69.55-6.1,1.95-6.29,6.25-.15,3.48-2.61,2.83-4.67,1.64-2.44-1.42-4.56-4.38-7.59-.79-.26.31-1.9-.23-2.69-.72a70.06,70.06,0,0,1-6.16-4.24c-5.69-4.4-5.63-4.41-8.75,1.81-3.34,6.68-6.71,13.36-10.21,20-1.51,2.84-.14,4,2.28,4.69s4.12-.6,5.89-2c6-4.74,13.19-6.94,20.43-8.93,1.83-.51,3.67-.49,4.93,1.32,1.38,2,.32,3.61-1,4.84-3.22,2.91-1.39,3.67,1.53,4.7,4.56,1.62,5.21,3.85,2,7-1.63,1.59-1,2.34,0,3.63a19.48,19.48,0,0,1,4,8.48c.25,1.35.73,3.13-.39,3.76-4.19,2.35-2.19,5.55-1.56,8.61a14.22,14.22,0,0,1-.23,6.92c-.85,3-2.73,4.41-5.55,2.64-2.13-1.34-3.62-1.66-5.65.13-2.49,2.19-4.68.64-6.49-1.28a25.43,25.43,0,0,1-5.41-10c-.67-2.11-1.2-3-3.26-1.34-2.46,2-5,2.73-7.37-.23-1.4-1.76-2.21-.42-3.08.55-1.91,2.12-4.06,3.69-6.95,1.95s-3.3-4.31-2.7-7.39a57.78,57.78,0,0,1,5.66-15.91c.74-1.4,3.19-2.92.25-4.38-2.62-1.29-2.93,1.29-3.77,2.72a99.38,99.38,0,0,1-10.32,14.68C-210.49,340.7-211.5,342.3-214,342.92Zm44.12-9.56c-6-3-11-5.47-15.94-8.19-2.66-1.47-4.13-.82-5.65,1.62a58,58,0,0,0-6.73,14.95c-.62,2.2-1.28,4.45,1.1,5.78,2.6,1.44,3.23-1.52,4.66-2.62s2.34-4.33,4.6-2c4.73,4.78,6.24,1.64,7.62-2.59.27-.85.73-1.48,1.82-1.35,1.48,2,1.71,4.6,2.56,6.93,1.19,3.28,2.32,6.58,3.61,9.81a3.73,3.73,0,0,0,3.55,2.34,2.14,2.14,0,0,0,2.47-1.95c.5-4.79,2.24-3.46,4.36-1,.84,1,1.75,2.38,3.26,1.72,1.79-.79,1.06-2.52,1-4a30.63,30.63,0,0,0-2.53-10.11c-.71-1.76-.67-3,1.71-2.72,4.21.48,2.81-2.13,2-4-1.74-4.22-5-7.33-8.25-10.32,1.57-2.2,4.38-.58,5.84-2.34,0-1.14-.76-1.57-1.51-1.87-2.44-1-6.17-.1-7.37-2.23-1.68-3,3.77-3.7,3.57-7.31a70.18,70.18,0,0,0-21.77,8.42C-180.06,324.2-173.56,326.27-169.85,333.36Zm-53.12-58c-.15,2.28-.18,3.43-.33,4.57-.17,1.39.62,3.3-1.2,3.93-1.55.53-2.16-1.22-3-2.14a18.38,18.38,0,0,0-5.43-4.3c-.9-.42-1.89-.81-2.77,0s-.44,1.86.11,2.69c1.19,1.8,2.39,3.61,3.72,5.31,1.9,2.45,1.49,3.84-1.66,4.34-1.38.22-3.31-.05-3.25,2.18.06,1.84,1.74,2.29,3.11,2.8,5.06,1.9,10.14,3.74,15.7,5.77-3.35,2.7-6.84,1.92-10,2.57-2.08.44-5.65-.57-5.61,2.53.05,3.29,3.71,1.59,5.69,2.33.22.08.34.43.52.66-.15.28-.29.56-.45.84-1.08,1.88-4.9,2.86-3.4,5.25,1.32,2.11,3.77-.77,5.81-1.07s4.57-1.81,5,1c1.07,7.67,3.73,3.09,6.18,1.1,1.55-1.26,3.08-2.54,4.68-3.74,4.73-3.54,4.81-4.28,1.32-9.05-3.32-4.54-7.59-8.24-11-12.78,4.3.72,7.51,3.25,10.36,6.16s5.67,6.34,8.54,9.59a48.44,48.44,0,0,0,6.19-12.1c.51-1.33,1.42-3.95-1.47-3.49-4.6.73-5.37-1.74-5.85-5.3-.13-1-.13-4.28-2-2.72-4.29,3.55-3.9.18-4.56-2.35-.33-1.25-.84-2.56-2.51-2.86-2.74,3,0,7.57-2.89,10.88C-217.53,284.85-218.46,279.42-223,275.38ZM-157.14,229c-4.36,2.73-6.52,6.79-8.55,11-.9,1.85-2,3.55-3.67.75-1.38-2.27-2.09-6.95-4.52-5.92s-1,5.69-1,8.78a10.81,10.81,0,0,0,.4,2.45c.5,2,2.13,4.39-.27,5.86s-3.05-1.94-4.84-2.52a5.11,5.11,0,0,0-1.3,0,22,22,0,0,0,5.29,15.71c3.41-5.37,3.88-11.79,8.69-17.06-.64,6.37-2.86,11.24-4.5,16.25-.88,2.72,0,3.4,2.53,2.75,4.29-1.12,8.51-2.44,12.39-5.89-4.66-.8-3.84-2.42-1.44-4.73,2.74-2.63,6-5,6.77-9.28-3.12-.88-5,2.24-8.08,1.74C-157.31,242.27-154.82,236-157.14,229Zm-.94,41c-5.47-.21-10.26,1.71-14.93,4.1-1,.51-2.41,1-2.18,2.38.32,1.86,2.06,1.26,3.26,1.35,2.85.21,5.7.29,7.87,3.08-3.78.68-6.95-.8-10.25-.9-2.89-.09-3.77,1.22-2.32,3.65,2.67,4.48,6.12,8.18,11.09,10.13,1.3-1.57-.06-4.41,2.13-4.8,1.87-.33,2.81,2,4.2,3.16,1.18,1,1.92,2.75,4,2.27-.88-6.8-.88-6.8,6.46-7.4.33,0,.67,0,1-.1,1.12-.2,2.52-.28,2.72-1.64s-1.24-1.85-2.25-2.27c-2.92-1.21-5.89-2.3-8.87-3.44,1-1.94,3.29-1.76,3.82-3.85-2.69-2-6,1-8.6-.35C-161,272.8-158.06,272.69-158.08,270Zm-49.28-8.72c.64,5,8.92,5.16,7.62,11.54,0,.22,1.65.93,2.6,1.2a18,18,0,0,0,3.9.72c2.43.14,3.09,1,1.45,3-2.71,3.35-.47,4.26,2.39,4.85.32.07.69,0,1,.06,6.89,2.29,5.23-5.64,8.8-7.44,1.32-.66.24-2.4-.12-3.65a22.41,22.41,0,0,0-5-8.51,4,4,0,0,0-1.08-.66c-1.83.68-.21,3.11-2.49,3.72-2.36-3-4.78-6.06-7.27-9.09-.86-1-2-1.93-3.45-1.43s-1.21,1.84-1,3c.49,3.4-.71,4.39-3.85,2.83C-205,260.92-206.1,260.49-207.36,261.32Zm23.63,24.44c-2.93,0-5.08.17-7.2,0-2.78-.28-5-1.41-6.07-4.37-.49-1.44,0-4.64-2.6-3.55s-.33,3.51.31,5.16c.71,1.81,1.73,3.65,3.95,4.18,5.06,1.19,5.26,4.34,3.29,8.29-2.15,4.3-4.42,8.54-6.54,12.86-.57,1.16-1.1,2.8.45,3.47,1.4.6,1.81-1.06,2.37-2A179.9,179.9,0,0,0-183.73,285.76Z" transform="translate(244 115.99)"/><path class="ee85502d-f6c1-49a5-a78b-85de8f55719e" d="M455.59,100.28a36.63,36.63,0,0,0-1,22.29c1.4,5.62-.12,8.06-5.69,9.42-4.32,1-6.55-.48-8-5.88-3.11-11.32-.7-21.42,7.12-30.15,5.69-6.35,5.85-12.14.29-18.36-12-13.42-7.35-35.15,9.48-44.79,7.21-4.12,15.15-4.93,23.1-5.46a82.27,82.27,0,0,0,30.8-7.67c11.6-5.63,21.89-3.91,31.51,4.06,2.55,2.12,4.82,4.59,7.32,6.78,4.52,3.94,5.7,8.8,4.1,14.43a16,16,0,0,0,.55,10.77c3.27,7.85.9,14.68-4.59,20.1q-19.74,19.47-38.45,39.9c-10.76,11.73-29.46,9.41-38.43-3.84-.73-1.07-1.07-2.57-2.67-2.73C464.87,108.55,460.19,105.27,455.59,100.28Zm66.92-70.75c-.75.18-1.69,1-2.23.23s.57-1.33,1.19-1.68c4.28-2.38,9.16-3.1,13.71-5-6.83-1.37-13.33-4.51-20.49-.56-12.35,6.82-25.82,9.4-39.89,9.47-10.95.06-19.47,5.16-25.79,13.89-5,6.88-6,16.26-2.6,21.86,2.54-3.23,2.42-8,6.62-11.05-1.14,6.5-6.9,11.47-3.89,18.24,2.42-1.37,1-4.61,3.61-5.5,1.3,2.48-1,4.74-.21,8.16,1-4.1,5.28-6.54,1.37-10.64-.9-1,.43-2.8,1.86-3.59.21-.12.59.06.87.11.75,1.07-1.55,2.38.51,3.55l8.39-9.54c-2.43-1.08-3.34,2.09-5.77,1,4.53-5.43,9.77-9,17.07-10.31-2.31,2.65-5.76,2.87-7.94,6.23,5.35-1.46,9.61-4.28,15.48-4.26-5.37,3.32-10.12,6-14.58,9.09q-14.69,10.17-13.92,28.17c.57,13.07,10,20.29,22.74,17.18a41.8,41.8,0,0,0,23.93-15.29c1.07-1.39,2.08-2.73,4.53-2.94-1.92,5.85-4.14,10.73-9.06,13.91-.82.52-2.6,1.49-1.23,2.36,4,2.56.22,2.85-.93,3.62-4.62,3-10.25,4.32-15.07,8,5.61,3.37,9.55-1.75,14.43-2-2,3.16-5.9,2.93-8.05,5.42,9.44,3.69,19.22.57,25.12-8,3.7-5.35,7.88-10.3,12.08-15.25,7.27-8.55,16.48-15,24.24-23.06,4.45-4.6,5.66-9.79,3.79-16.09-5,5.06-27.27,17.81-32.43,18.54a11,11,0,0,1,5.23-5.88c4.59-2.7,9.16-5.43,13.76-8.13a27.91,27.91,0,0,0,9.34-8.84c3.85-5.85,4.06-12.24.54-16.76s-8.45-5.89-15.34-3.39c-9.22,3.34-18.26,7.19-27.41,10.73-1.54.59-3,2.06-5.78.8L523.24,30.4l1.47-1C523.92,28.59,523.22,29.16,522.51,29.53ZM451.27,99c-.81,1.92-1.71,3.75-2.37,5.67-1,3-1,7.52-3,8.64-4.1,2.31-1.15,5.19-2,7.58a1.36,1.36,0,0,0,0,.49c.18,2-.07,4.33,3.12,3.66,2.7-.56,5.31-1.15,4.19-5.08a30.08,30.08,0,0,1,.71-18.05C452.27,101.06,453.06,100,451.27,99Zm36.08,8.4c-4.44.39-5.76.83-9.33,3.07C482.37,111,483.52,110.62,487.35,107.37ZM466.58,56.65l-.28-.2-.06.27Z" transform="translate(244 115.99)"/><path class="ee85502d-f6c1-49a5-a78b-85de8f55719e" d="M67.55,646.18a66.81,66.81,0,0,1,9.77-33.63c13.62-22.47,37.2-27.62,58.41-12.11,8.61,6.3,17.64,11.09,28,13.6a44.93,44.93,0,0,1,19.36,10c11.11,9.84,13.6,22.36,10.8,36.37-5.15,25.83-25.39,45-52,49.35-27.92,4.55-52.74-6.52-66.21-29.58C69.6,669.64,67.17,658.24,67.55,646.18Zm62.27,61.07a59.87,59.87,0,0,0,59.71-45.16c5.13-20.41-3.06-38.12-23.79-43.49-12.64-3.27-24-9.65-34.73-17.15-14.3-10-31.37-8.58-43.69,3.76-10.94,11-14.91,24.87-15.76,39.91C69.58,679.74,96,707.89,129.82,707.25Z" transform="translate(244 115.99)"/><path class="ee85502d-f6c1-49a5-a78b-85de8f55719e" d="M662.9,560.94c.33,1.38,0,2.45-1.6,2.35-1.42-.09-1.87-1.34-1.88-2.55a29.66,29.66,0,0,1,1.38-9.34c1-3.12,0-3.79-3.08-2.93A57.67,57.67,0,0,1,635,550.23c-19.94-2.51-32.09-21.67-25.59-40.77a142.31,142.31,0,0,1,5.86-14.83c6.38-13.57,6-27-.23-40.44-.57-1.22-2.77-2.68-.53-4.21a4.31,4.31,0,0,1,5.57.32,21.71,21.71,0,0,1,3.55,4.76c6,9.93,14.73,16,25.94,18.79,9.36,2.31,18.77,4.48,28,7.2,15,4.41,21.07,15.18,17.35,30.32a47.06,47.06,0,0,1-16.28,25.68c-1.78,1.46-3.59,2.9-5.84,4.72,5,2.05,9.89,3.22,14.12,5.81,1.45.89,3.9,1.43,2.61,3.92s-3.21.85-4.81.28c-2.16-.78-4.25-1.79-6.67-2.83-.43,3.59,1.76,6.26,2.14,9.31.12,1,.65,2-.47,2.67-1.38.77-2.23-.21-2.77-1.28-.88-1.77-1.57-3.65-2.4-5.44-.74-1.6-1-3.62-3.34-3.87-.11.19-.21.32-.29.47-.89,1.73,1.05,5-1.31,5.28-2.74.33-1.57-3.35-2.74-5-.62-.87-.36-2.66-1.66-2.67a1.62,1.62,0,0,0-1.32,2.52l.08-.05c-1.57.61-2.26,1.52-1,3.08l0-.06c-1.25,2.36-3.63,4.73,0,7.08ZM622.11,457.46c-.69,1.08-1,1.35-1,1.6a17.59,17.59,0,0,0,.42,2.91,48.75,48.75,0,0,1-3,33.59,108,108,0,0,0-6.71,17.69,26.23,26.23,0,0,0,16.73,31.66c25.69,9.32,58.29-8.81,63.84-35.5,2.56-12.3-2.63-21.48-14.61-25.13-6.67-2-13.46-3.72-20.27-5.21C643.41,476,630.34,471.18,622.11,457.46Z" transform="translate(244 115.99)"/><path class="ee85502d-f6c1-49a5-a78b-85de8f55719e" d="M366.77,651.86c.17-13.35,7.65-22.13,18.7-21.93,10.18.18,18.43,9.06,18.39,19.78,0,12.14-8.77,21.53-19.77,21.27C373.63,670.73,366.62,663,366.77,651.86Zm33.43-1.41c0-9.58-6.2-16.55-14.86-16.64s-15.62,7.34-15.72,17.13c-.09,9.46,6.35,16.68,14.85,16.64C393.44,667.53,400.17,660.2,400.2,650.45Z" transform="translate(244 115.99)"/><path class="ee85502d-f6c1-49a5-a78b-85de8f55719e" d="M-90.88,23.63c-.09,10.55-5,18.24-12.55,21.23a18.2,18.2,0,0,1-19.74-4.37c-5.56-5.79-6.39-16.17-2-25.28,3.47-7.21,9.52-10.75,17.26-10.1a18.94,18.94,0,0,1,16.36,14A29.58,29.58,0,0,1-90.88,23.63ZM-125,26.1c-.15,9.45,6.17,16.52,14.8,16.57S-94.42,35-94.29,25.56c.12-9-6.7-16.51-15.08-16.57C-118.16,8.93-124.84,16.24-125,26.1Z" transform="translate(244 115.99)"/><path class="ee85502d-f6c1-49a5-a78b-85de8f55719e" d="M637.2,223.72c0,10.85-4.88,18.41-12.86,21.39a18.41,18.41,0,0,1-20-5.13c-5.31-5.84-5.88-16.47-1.36-25.38a17.43,17.43,0,0,1,17.26-9.51,19.08,19.08,0,0,1,16.19,13.6A30.53,30.53,0,0,1,637.2,223.72ZM603,226.43c-.11,9.22,6.55,16.5,15,16.47,8.66,0,15.7-7.7,15.79-17.2.09-9.16-6.5-16.53-14.92-16.68C610,208.86,603.14,216.34,603,226.43Z" transform="translate(244 115.99)"/><path class="ee85502d-f6c1-49a5-a78b-85de8f55719e" d="M-78.8,615.4c-.06,11.86-8.65,21.46-19.19,21.43-10,0-18.12-8.44-18.05-18.74.1-13.1,8.24-22.74,19-22.53C-86.77,595.76-78.74,604.51-78.8,615.4Zm-34.09,1c0,9.7,5.93,16.48,14.7,16.62s16-7.27,16.14-16.74-6.53-17-15.14-17.1S-112.84,606.86-112.89,616.38Z" transform="translate(244 115.99)"/><path class="ee85502d-f6c1-49a5-a78b-85de8f55719e" d="M560.86,707.09c.2-5.05,2-8.6,6.17-10,4-1.36,7.65,0,10.23,3.29,3,3.79,3.35,8.11.49,12-3.45,4.72-8.4,8-12.94,11.58-1.48,1.17-2.55.74-2.58-1.18A79.16,79.16,0,0,0,560.86,707.09Zm5.84-2.37.89.71c-.6,3.19-2,6.32-1.09,11,2.17-4,3.88-6.87,5.22-9.86.88-2,3-3.94,1.15-6.37-1.3-1.65-3.32-1.52-5.07-1.12-2.81.66-3.87,2.93-4.18,5.56-.23,1.93-.26,3.88-.38,5.83C565.17,708.67,565.05,706.27,566.7,704.72Zm8.83-1.64c-1.95,4.51-3.66,8.45-5.68,13.1C577.25,711.36,578.33,708.79,575.53,703.08Z" transform="translate(244 115.99)"/><path class="ee85502d-f6c1-49a5-a78b-85de8f55719e" d="M663.89,551c1.55,3.51,3,7-1,10l.08.08c-.46-2.36,1.39-4.73,0-7.08l0,.06c1.63-.59.93-2,1-3.08Z" transform="translate(244 115.99)"/><path class="ee85502d-f6c1-49a5-a78b-85de8f55719e" d="M804.93,100.05l-.07.4.46-.29-.39-.14Z" transform="translate(244 115.99)"/><path class="eeca9862-530a-472f-8889-ba2da26bb672" d="M814,348.53c5.54,13.73-1.46,24.35-4.23,35.33-7.65,30.26-16.1,60.32-24.25,90.46,0,.13-.22.21-.61.57-.22-2.77-.41-5.31-.61-7.94-2.28.65-1.83,3.28-4.6,4.62,1.13-7.75,2.13-14.68,3.2-22,2.93,1.75,1.18,4.24,2.79,6.3C795.08,420.32,804.37,385.12,814,348.53Z" transform="translate(244 115.99)"/><path class="eeca9862-530a-472f-8889-ba2da26bb672" d="M-169.85,333.36c-3.71-7.09-10.21-9.16-16-13a70.18,70.18,0,0,1,21.77-8.42c.2,3.61-5.25,4.35-3.57,7.31,1.2,2.13,4.93,1.23,7.37,2.23.75.3,1.52.73,1.51,1.87-1.46,1.76-4.27.14-5.84,2.34,3.23,3,6.51,6.1,8.25,10.32.76,1.86,2.16,4.47-2,4-2.38-.26-2.42,1-1.71,2.72a30.63,30.63,0,0,1,2.53,10.11c.07,1.46.8,3.19-1,4-1.51.66-2.42-.74-3.26-1.72-2.12-2.47-3.86-3.8-4.36,1a2.14,2.14,0,0,1-2.47,1.95,3.73,3.73,0,0,1-3.55-2.34c-1.29-3.23-2.42-6.53-3.61-9.81-.85-2.33-1.08-4.88-2.56-6.93-1.09-.13-1.55.5-1.82,1.35-1.38,4.23-2.89,7.37-7.62,2.59-2.26-2.28-3.19,1-4.6,2s-2.06,4.06-4.66,2.62c-2.38-1.33-1.72-3.58-1.1-5.78a58,58,0,0,1,6.73-14.95c1.52-2.44,3-3.09,5.65-1.62C-180.88,327.89-175.81,330.32-169.85,333.36Z" transform="translate(244 115.99)"/><path class="eeca9862-530a-472f-8889-ba2da26bb672" d="M-223,275.38c4.51,4,5.44,9.47,9.44,12.68,2.91-3.31.15-7.84,2.89-10.88,1.67.3,2.18,1.61,2.51,2.86.66,2.53.27,5.9,4.56,2.35,1.9-1.56,1.9,1.71,2,2.72.48,3.56,1.25,6,5.85,5.3,2.89-.46,2,2.16,1.47,3.49a48.44,48.44,0,0,1-6.19,12.1c-2.87-3.25-5.56-6.56-8.54-9.59s-6.06-5.44-10.36-6.16c3.45,4.54,7.72,8.24,11,12.78,3.49,4.77,3.41,5.51-1.32,9.05-1.6,1.2-3.13,2.48-4.68,3.74-2.45,2-5.11,6.57-6.18-1.1-.4-2.85-3.07-1.31-5-1s-4.49,3.18-5.81,1.07c-1.5-2.39,2.32-3.37,3.4-5.25.16-.28.3-.56.44-.84-.17-.23-.29-.58-.51-.66-2-.74-5.64,1-5.69-2.33,0-3.1,3.53-2.09,5.61-2.53,3.14-.65,6.63.13,10-2.57-5.56-2-10.64-3.87-15.7-5.77-1.37-.51-3.05-1-3.11-2.8-.06-2.23,1.87-2,3.25-2.18,3.15-.5,3.56-1.89,1.66-4.34-1.33-1.7-2.53-3.51-3.72-5.31-.55-.83-1-1.79-.11-2.69s1.87-.46,2.77,0a18.38,18.38,0,0,1,5.43,4.3c.87.92,1.48,2.67,3,2.14,1.82-.63,1-2.54,1.2-3.93C-223.15,278.81-223.12,277.66-223,275.38Zm2.45,13.91-.16.27.59,0c0-.09-.07-.21-.14-.27S-220.42,289.29-220.52,289.29Z" transform="translate(244 115.99)"/><path class="eeca9862-530a-472f-8889-ba2da26bb672" d="M-157.14,229c2.32,7-.17,13.26-2.1,19.84,3.06.5,5-2.62,8.08-1.74-.75,4.26-4,6.65-6.77,9.28-2.4,2.31-3.22,3.93,1.44,4.73-3.88,3.45-8.1,4.77-12.39,5.89-2.48.65-3.41,0-2.53-2.75,1.64-5,3.86-9.88,4.5-16.25-4.81,5.27-5.28,11.69-8.69,17.06a22,22,0,0,1-5.29-15.71,5.11,5.11,0,0,1,1.3,0c1.79.58,2.49,4,4.84,2.52s.77-3.85.27-5.86a10.81,10.81,0,0,1-.4-2.45c0-3.09-1.47-7.73,1-8.78s3.14,3.65,4.52,5.92c1.7,2.8,2.77,1.1,3.67-.75C-163.66,235.8-161.5,231.74-157.14,229Z" transform="translate(244 115.99)"/><path class="eeca9862-530a-472f-8889-ba2da26bb672" d="M-158.08,270c0,2.65-2.9,2.76-2.89,5.37,2.63,1.33,5.91-1.68,8.6.35-.53,2.09-2.82,1.91-3.82,3.85,3,1.14,5.95,2.23,8.87,3.44,1,.42,2.45.84,2.25,2.27s-1.6,1.44-2.72,1.64c-.33.06-.67.07-1,.1-7.34.6-7.34.6-6.46,7.4-2,.48-2.78-1.31-4-2.27-1.39-1.13-2.33-3.49-4.2-3.16-2.19.39-.83,3.23-2.13,4.8-5-1.95-8.42-5.65-11.09-10.13-1.45-2.43-.57-3.74,2.32-3.65,3.3.1,6.47,1.58,10.25.9-2.17-2.79-5-2.87-7.87-3.08-1.2-.09-2.94.51-3.26-1.35-.23-1.41,1.17-1.87,2.18-2.38C-168.34,271.75-163.55,269.83-158.08,270Z" transform="translate(244 115.99)"/><path class="eeca9862-530a-472f-8889-ba2da26bb672" d="M-207.36,261.32c1.26-.83,2.36-.4,3.41.12,3.14,1.56,4.34.57,3.85-2.83-.16-1.15-.36-2.5,1-3s2.59.39,3.45,1.43c2.49,3,4.91,6.13,7.27,9.09,2.28-.61.66-3,2.49-3.72a4,4,0,0,1,1.08.66,22.41,22.41,0,0,1,5,8.51c.36,1.25,1.44,3,.12,3.65-3.57,1.8-1.91,9.73-8.8,7.44-.3-.1-.67,0-1-.06-2.86-.59-5.1-1.5-2.39-4.85,1.64-2,1-2.85-1.45-3a18,18,0,0,1-3.9-.72c-1-.27-2.64-1-2.6-1.2C-198.44,266.48-206.72,266.35-207.36,261.32Zm24.14,13.91c-2.36-4-3.48-4.67-7.72-4.56C-188.26,272.33-186.65,274.93-183.22,275.23Z" transform="translate(244 115.99)"/><path class="eeca9862-530a-472f-8889-ba2da26bb672" d="M-183.73,285.76a179.9,179.9,0,0,1-12,24c-.56.92-1,2.58-2.37,2-1.55-.67-1-2.31-.45-3.47,2.12-4.32,4.39-8.56,6.54-12.86,2-3.95,1.77-7.1-3.29-8.29-2.22-.53-3.24-2.37-3.95-4.18-.64-1.65-2.79-4.11-.31-5.16s2.11,2.11,2.6,3.55c1,3,3.29,4.09,6.07,4.37C-188.81,285.93-186.66,285.76-183.73,285.76Z" transform="translate(244 115.99)"/><path class="eeca9862-530a-472f-8889-ba2da26bb672" d="M523.24,30.4,500.31,42.32c2.78,1.26,4.24-.21,5.78-.8,9.15-3.54,18.19-7.39,27.41-10.73,6.89-2.5,11.81-1.14,15.34,3.39s3.31,10.91-.54,16.76A27.91,27.91,0,0,1,539,59.78c-4.6,2.7-9.17,5.43-13.76,8.13A11,11,0,0,0,520,73.79c5.16-.73,27.42-13.48,32.43-18.54,1.87,6.3.66,11.49-3.79,16.09-7.76,8-17,14.51-24.24,23.06-4.2,4.95-8.38,9.9-12.08,15.25-5.9,8.55-15.68,11.67-25.12,8,2.15-2.49,6-2.26,8.05-5.42-4.88.29-8.82,5.41-14.43,2,4.82-3.67,10.45-4.94,15.07-8,1.15-.77,5-1.06.93-3.62-1.37-.87.41-1.84,1.23-2.36,4.92-3.18,7.14-8.06,9.06-13.91-2.45.21-3.46,1.55-4.53,2.94a41.8,41.8,0,0,1-23.93,15.29c-12.76,3.11-22.17-4.11-22.74-17.18q-.79-18,13.92-28.17c4.46-3.1,9.21-5.77,14.58-9.09-5.87,0-10.13,2.8-15.48,4.26,2.18-3.36,5.63-3.58,7.94-6.23-7.3,1.3-12.54,4.88-17.07,10.31,2.43,1.09,3.34-2.08,5.77-1L457.15,67c-2.06-1.17.24-2.48-.5-3.55-.29-.05-.67-.23-.88-.11-1.43.79-2.76,2.64-1.86,3.59,3.91,4.1-.39,6.54-1.37,10.64-.75-3.42,1.51-5.68.21-8.16-2.6.89-1.19,4.13-3.61,5.5-3-6.77,2.75-11.74,3.89-18.24-4.2,3.06-4.08,7.82-6.62,11.05-3.39-5.6-2.38-15,2.6-21.86,6.32-8.73,14.84-13.83,25.79-13.89,14.07-.07,27.54-2.65,39.89-9.47,7.16-3.95,13.66-.81,20.49.56-4.55,1.88-9.43,2.6-13.71,5-.62.35-1.81.73-1.19,1.68s1.48-.05,2.23-.23Z" transform="translate(244 115.99)"/><path class="eeca9862-530a-472f-8889-ba2da26bb672" d="M451.27,99c1.79,1.06,1,2.09.73,2.91a30.08,30.08,0,0,0-.71,18.05c1.12,3.93-1.49,4.52-4.19,5.08-3.19.67-2.94-1.7-3.12-3.66a1.36,1.36,0,0,1,0-.49c.81-2.39-2.14-5.27,2-7.58,2-1.12,2-5.68,3-8.64C449.56,102.72,450.46,100.89,451.27,99Z" transform="translate(244 115.99)"/><path class="eeca9862-530a-472f-8889-ba2da26bb672" d="M487.35,107.37c-3.83,3.25-5,3.63-9.33,3.07C481.59,108.2,482.91,107.76,487.35,107.37Z" transform="translate(244 115.99)"/><path class="eeca9862-530a-472f-8889-ba2da26bb672" d="M522.51,29.53c.71-.37,1.41-.94,2.2-.15l-1.47,1Z" transform="translate(244 115.99)"/><polygon class="eeca9862-530a-472f-8889-ba2da26bb672" points="710.58 172.64 710.24 172.72 710.3 172.44 710.58 172.64"/><path class="eeca9862-530a-472f-8889-ba2da26bb672" d="M129.82,707.25c-33.84.64-60.24-27.51-58.26-62.13.85-15,4.82-28.94,15.76-39.91,12.32-12.34,29.39-13.74,43.69-3.76,10.72,7.5,22.09,13.88,34.73,17.15,20.73,5.37,28.92,23.08,23.79,43.49A59.87,59.87,0,0,1,129.82,707.25Zm-5.63-60.1c-4.55,2.35-5.84,5.8-4.25,13.84.66-5.88,1.77-10.14,4.18-13.92l0-.23ZM79,653.26a35.52,35.52,0,0,0,9.72,27.21c7.16,7.71,18.6,7.41,24.9-.67,4.21-5.4,4.25-11.43,1.85-17.51-3.27-8.31-1.08-14.91,5.72-20.36,3.38-2.7,6.73-5.46,9.86-8.45,4-3.86,4.79-8.64,2.78-13.76-3.59-9.16-14.51-15.05-24.1-12.61-11.78,3-20.59,9.92-25.62,21.18A59,59,0,0,0,79,653.26Zm99.91,3.56c-.06-9.66-2.33-18-7.77-25.38s-16.27-11-24.43-7.82c-7.64,3-10.17,8.91-8.9,20.26a24.2,24.2,0,0,1-6.1,19.37,57.67,57.67,0,0,0-4.82,5.7,18.5,18.5,0,0,0,12.78,28.92c11.83,1.72,21.64-2,29.06-11.52A48.41,48.41,0,0,0,178.94,656.82Zm-48.49,2.44c2.52-2.37,3-4.84,3.25-8.07A18.79,18.79,0,0,0,130.45,659.26Z" transform="translate(244 115.99)"/><path class="eeca9862-530a-472f-8889-ba2da26bb672" d="M622.11,457.46c8.23,13.72,21.3,18.5,35.44,21.61,6.81,1.49,13.6,3.18,20.27,5.21,12,3.65,17.17,12.83,14.61,25.13-5.55,26.69-38.15,44.82-63.84,35.5a26.23,26.23,0,0,1-16.73-31.66,108,108,0,0,1,6.71-17.69,48.75,48.75,0,0,0,3-33.59,17.59,17.59,0,0,1-.42-2.91C621.09,458.81,621.42,458.54,622.11,457.46ZM643,492.94c-.19.84.2,1.11,1,1-.41,1.67.75,2.38,1.89,3.1,1.18,1.79,2.24,3.67,3.57,5.34,5.29,6.65,10.39,13.4,12.86,21.71.81,2.7,1.83,5.38,1.53,8.26-.36,3.48-4,3.49-6.58,5.53,9.77-1.86,10.48-2.82,8.31-11.58-3-12-10.29-21.38-19.11-29.71-.58-1.12-1.18-2.22-2.52-2.59a1,1,0,0,0-1-1,1.56,1.56,0,0,0-.23-.34s-.16,0-.25,0Zm39.13,4.86c-5.17-6.5-12.22-9.63-20-11.41,6.47,4,13.53,6.95,19.18,12.2,4.42,5.59,4.82,12.12,3.88,19C689.53,510.92,688.33,504.32,682.12,497.8Zm-36.7-15.21c-.66-.58-1.22-1.88-2.2-.86-.31.32.76,1.23,1.65,1.33a32.63,32.63,0,0,0,2.84,2.68c8.94,6.67,19.36,11.68,25,22.11C668.2,494.48,655.89,489.52,645.42,482.59ZM634,540.94c.15.36.09,1.23.77.33l-.85-.24c.24-1.21-.73-1.77-1.39-2.44-6.82-7-9.92-15.62-10.25-25.2-.16-4.81.41-9.64.65-14.46-2.82,8-4,16.11-2,24.31C622.81,530.84,626.53,537.32,634,540.94Zm-2.9-49.24c-2.4,3-.21,5.29.13,7.52,1.91,12.39,5.33,24.33,11.83,35.19,4.07,6.79,4.3,6.86,12.14,3.55-5.17.63-8.74-.94-10.79-5.25a147.1,147.1,0,0,1-10.54-29C632.93,499.93,633.24,495.83,631.07,491.7ZM673.78,510l-.33-.83a4.14,4.14,0,0,0-.41.65c0,.11.1.28.16.42Zm-32.25-29.26.31-.28c-.1-.1-.2-.27-.3-.28s-.21.17-.31.26Z" transform="translate(244 115.99)"/><path class="eeca9862-530a-472f-8889-ba2da26bb672" d="M663,553.94c1.42,2.35-.43,4.72,0,7.08C659.32,558.67,661.7,556.3,663,553.94Z" transform="translate(244 115.99)"/><path class="eeca9862-530a-472f-8889-ba2da26bb672" d="M664,550.92c-.11,1.11.59,2.49-1,3.08C661.71,552.44,662.4,551.53,664,550.92Z" transform="translate(244 115.99)"/><path class="eeca9862-530a-472f-8889-ba2da26bb672" d="M400.2,650.45c0,9.75-6.76,17.08-15.73,17.13-8.5,0-14.94-7.18-14.85-16.64.1-9.79,6.92-17.22,15.72-17.13S400.23,640.87,400.2,650.45Zm-3.82-1.72c-3.19-.89-6.65-1.36-4.79-5.56.39-.87-.61-.94-1.27-.73-3.13,1-4.81-1.41-7.21-3.34,0,3.27-1.35,5.27-4.16,6.19-1.07.36-1.66,1.14-1.12,2.29,1.43,3,0,5.4-2,8.08,3.89-.13,5.32,2.14,5.57,6.54,2.54-4.89,5.4-4.08,7.84-2.39C390.34,655.28,391.07,651.14,396.38,648.73Z" transform="translate(244 115.99)"/><path class="eeca9862-530a-472f-8889-ba2da26bb672" d="M-125,26.1c.15-9.86,6.83-17.17,15.62-17.11,8.38.06,15.2,7.55,15.08,16.57-.13,9.46-7.28,17.15-15.9,17.11S-125.14,35.55-125,26.1ZM-113.57,36c2.12-.53,3-3.67,4.79-2.63,5,2.9,5.2-2.56,5.32-3.83.3-3.27,2.39-4.45,4-5.38-3.47-4.05-6.73-8.38-12.36-9.57.38,2.66-1,4.56-3.66,5.43-1.28.42-2.29,1-1.38,2.42,2,3.18-.29,5.54-1.86,8.38C-114.59,30.44-113.51,32.76-113.57,36Z" transform="translate(244 115.99)"/><path class="eeca9862-530a-472f-8889-ba2da26bb672" d="M603,226.43c.11-10.09,7-17.57,15.91-17.41,8.42.15,15,7.52,14.92,16.68-.09,9.5-7.13,17.17-15.79,17.2C609.58,242.93,602.92,235.65,603,226.43Zm22-8.33c-2.94-.15-5.81-.48-8.17-3.8-.58,3.45-1.84,5.44-4.49,6.26-1,.31-1.8.93-1.1,2.2,1.71,3.1.15,5.57-2.39,8.41,4.49-.74,5.2,2.4,7.31,6.49-.17-7.87,5.94-.12,7.53-5.37.84-2.75.63-7,5.17-8.24-4-.73-4.49-3.06-4-6l.08-.32Z" transform="translate(244 115.99)"/><path class="eeca9862-530a-472f-8889-ba2da26bb672" d="M-112.89,616.38c0-9.52,7.16-17.32,15.7-17.22s15.27,7.61,15.14,17.1-7.28,16.9-16.14,16.74S-112.94,626.08-112.89,616.38ZM-93,625.06l.54.42-.39-.56c.35-4.71,2.69-8.18,7-10.61-2.78-.58-5.61-.52-5.08-4.33.13-.93-7.69-3.51-8-2.7-1.39,3.4-8.29,3.94-5.07,9.77.24.43-.58,1.45-.92,2.19s-1.27,1.61.17,1.79c3.52.45,2.94,3.63,3.83,6.78C-98.75,623.33-96,623.8-93,625.06Z" transform="translate(244 115.99)"/><path class="eeca9862-530a-472f-8889-ba2da26bb672" d="M566.7,704.72c-1.65,1.55-1.53,3.95-3.46,5.74.12-2,.15-3.9.38-5.83.31-2.63,1.37-4.9,4.18-5.56,1.75-.4,3.77-.53,5.07,1.12,1.89,2.43-.27,4.4-1.15,6.37-1.34,3-3.05,5.81-5.22,9.86-.88-4.67.49-7.8,1.09-11,.3-.68.6-1.36.89-2s.69-1.3,1-2c0-.39.11-.79.17-1.19l-1,.46-1.06,2Z" transform="translate(244 115.99)"/><path class="eeca9862-530a-472f-8889-ba2da26bb672" d="M575.53,703.08c2.8,5.71,1.72,8.28-5.68,13.1C571.87,711.53,573.58,707.59,575.53,703.08Z" transform="translate(244 115.99)"/><path class="ee85502d-f6c1-49a5-a78b-85de8f55719e" d="M-220.52,289.29c.1,0,.22,0,.29,0s.09.18.14.27l-.59,0Z" transform="translate(244 115.99)"/><path class="ee85502d-f6c1-49a5-a78b-85de8f55719e" d="M-183.22,275.23c-3.43-.3-5-2.9-7.72-4.56C-186.7,270.56-185.58,271.24-183.22,275.23Z" transform="translate(244 115.99)"/><path class="ee85502d-f6c1-49a5-a78b-85de8f55719e" d="M79,653.26a59,59,0,0,1,5.11-25c5-11.26,13.84-18.18,25.62-21.18,9.59-2.44,20.51,3.45,24.1,12.61,2,5.12,1.27,9.9-2.78,13.76-3.13,3-6.48,5.75-9.86,8.45-6.8,5.45-9,12.05-5.72,20.36,2.4,6.08,2.36,12.11-1.85,17.51-6.3,8.08-17.74,8.38-24.9.67A35.52,35.52,0,0,1,79,653.26Zm3.91.33c-.31,9.83,2.1,18.13,8.31,25a12.78,12.78,0,0,0,15.48,2.94c5.34-2.71,7.69-7.92,6.33-14.29-.48-2.27-1.27-4.47-1.85-6.72-1.75-6.81-.29-13,4.49-18A53.49,53.49,0,0,1,125,635c4.89-3.24,7.77-7.36,6.72-13.32-1-5.65-5.84-9.63-12.34-10.75-12.47-2.13-26,5.53-31,17.65A67.55,67.55,0,0,0,82.94,653.59Z" transform="translate(244 115.99)"/><path class="ee85502d-f6c1-49a5-a78b-85de8f55719e" d="M178.94,656.82a48.41,48.41,0,0,1-10.18,29.53c-7.42,9.51-17.23,13.24-29.06,11.52A18.5,18.5,0,0,1,126.92,669a57.67,57.67,0,0,1,4.82-5.7,24.2,24.2,0,0,0,6.1-19.37c-1.27-11.35,1.26-17.31,8.9-20.26,8.16-3.15,18.88.31,24.43,7.82S178.88,647.16,178.94,656.82Zm-3.65-1.27c-.08-1.83-.12-3.67-.26-5.49-.68-8.32-3.85-15.41-10.34-20.87-5-4.25-10.56-5.41-16.7-2.71-5.9,2.58-7.57,7.55-7.39,13.47.06,2.16.27,4.32.49,6.47.74,7-1.08,13.07-6.09,18.27a33.92,33.92,0,0,0-5.73,8.11,15.19,15.19,0,0,0,13,22.05c12.27.4,21.56-4.83,27.32-15.78A47.28,47.28,0,0,0,175.29,655.55Z" transform="translate(244 115.99)"/><path class="ee85502d-f6c1-49a5-a78b-85de8f55719e" d="M124.13,647.08c-2.42,3.77-3.53,8-4.19,13.91-1.59-8-.3-11.49,4.25-13.84Z" transform="translate(244 115.99)"/><path class="ee85502d-f6c1-49a5-a78b-85de8f55719e" d="M130.45,659.26a18.79,18.79,0,0,1,3.25-8.07C133.48,654.42,133,656.89,130.45,659.26Z" transform="translate(244 115.99)"/><path class="ee85502d-f6c1-49a5-a78b-85de8f55719e" d="M124.19,647.15l0-.31a1.79,1.79,0,0,0,0,.23Z" transform="translate(244 115.99)"/><path class="ee85502d-f6c1-49a5-a78b-85de8f55719e" d="M631.07,491.7c2.17,4.13,1.86,8.23,2.77,12.05a147.1,147.1,0,0,0,10.54,29c2,4.31,5.62,5.88,10.79,5.25-7.84,3.31-8.07,3.24-12.14-3.55-6.5-10.86-9.92-22.8-11.83-35.19C630.86,497,628.67,494.74,631.07,491.7Z" transform="translate(244 115.99)"/><path class="ee85502d-f6c1-49a5-a78b-85de8f55719e" d="M646.44,496.59c8.82,8.34,16.12,17.67,19.11,29.72,2.17,8.76,1.46,9.72-8.31,11.58,2.56-2,6.22-2,6.58-5.53.3-2.88-.72-5.56-1.53-8.26-2.47-8.31-7.57-15.06-12.86-21.71-1.33-1.67-2.39-3.55-3.57-5.34Z" transform="translate(244 115.99)"/><path class="ee85502d-f6c1-49a5-a78b-85de8f55719e" d="M634,540.94c-7.44-3.62-11.16-10.1-13-17.7-2-8.2-.85-16.33,2-24.31-.24,4.82-.81,9.65-.65,14.46.33,9.58,3.43,18.18,10.25,25.2.66.67,1.63,1.23,1.39,2.44Z" transform="translate(244 115.99)"/><path class="ee85502d-f6c1-49a5-a78b-85de8f55719e" d="M645.42,482.58c10.47,6.94,22.78,11.9,27.26,25.27-5.61-10.43-16-15.44-25-22.11a32.63,32.63,0,0,1-2.84-2.68Z" transform="translate(244 115.99)"/><path class="ee85502d-f6c1-49a5-a78b-85de8f55719e" d="M682.12,497.8c6.21,6.52,7.41,13.12,3,19.75.94-6.84.54-13.37-3.88-19Z" transform="translate(244 115.99)"/><path class="ee85502d-f6c1-49a5-a78b-85de8f55719e" d="M681.27,498.59c-5.65-5.25-12.71-8.23-19.18-12.2,7.81,1.78,14.86,4.91,20,11.41Z" transform="translate(244 115.99)"/><path class="ee85502d-f6c1-49a5-a78b-85de8f55719e" d="M644.87,483.06c-.89-.1-2-1-1.65-1.33,1-1,1.54.28,2.2.86Z" transform="translate(244 115.99)"/><path class="ee85502d-f6c1-49a5-a78b-85de8f55719e" d="M643.92,494c1.34.37,1.94,1.47,2.52,2.58l-.58.46c-1.14-.72-2.3-1.43-1.89-3.1Z" transform="translate(244 115.99)"/><path class="ee85502d-f6c1-49a5-a78b-85de8f55719e" d="M673.78,510l-.58.24c-.06-.14-.2-.31-.16-.42a4.14,4.14,0,0,1,.41-.65Z" transform="translate(244 115.99)"/><path class="ee85502d-f6c1-49a5-a78b-85de8f55719e" d="M633.89,541l.85.24c-.68.9-.62,0-.77-.33Z" transform="translate(244 115.99)"/><path class="ee85502d-f6c1-49a5-a78b-85de8f55719e" d="M643,492.94l-.57-.25c.09,0,.21-.06.25,0a1.56,1.56,0,0,1,.23.34Z" transform="translate(244 115.99)"/><path class="ee85502d-f6c1-49a5-a78b-85de8f55719e" d="M641.52,480.74l-.29-.3c.1-.09.21-.26.31-.26s.2.18.3.28Z" transform="translate(244 115.99)"/><path class="ee85502d-f6c1-49a5-a78b-85de8f55719e" d="M642.9,493a1,1,0,0,1,1,1L644,494c-.78.1-1.17-.17-1-1Z" transform="translate(244 115.99)"/><path class="ee85502d-f6c1-49a5-a78b-85de8f55719e" d="M396.38,648.73c-5.31,2.41-6,6.55-7.16,11.08-2.44-1.69-5.3-2.5-7.84,2.39-.25-4.4-1.68-6.67-5.57-6.54,2-2.68,3.45-5.06,2-8.08-.54-1.15.05-1.93,1.12-2.29,2.81-.92,4.18-2.92,4.16-6.19,2.4,1.93,4.08,4.33,7.21,3.34.66-.21,1.66-.14,1.27.73C389.73,647.37,393.19,647.84,396.38,648.73Zm-16.15,2c.27,2.41,1,4.78,3.94,4.76,3.24,0,4.63-2.38,4.65-5.34,0-2.4-.51-4.94-3.73-4.74S380.41,647.62,380.23,650.78Z" transform="translate(244 115.99)"/><path class="ee85502d-f6c1-49a5-a78b-85de8f55719e" d="M-113.57,36c.06-3.22-1-5.54-5.16-5.18,1.57-2.84,3.86-5.2,1.86-8.38-.91-1.43.1-2,1.38-2.42,2.7-.87,4-2.77,3.66-5.43,5.63,1.19,8.89,5.52,12.36,9.57-1.6.93-3.69,2.11-4,5.38-.12,1.27-.32,6.73-5.32,3.83C-110.56,32.31-111.45,35.45-113.57,36Zm7.63-12.34a3.16,3.16,0,0,0-3.74-3.33c-3.16.21-4.69,2.17-4.57,5.33.09,2.54.82,4.75,3.9,4.66C-107,30.2-105.85,28-105.94,23.64Z" transform="translate(244 115.99)"/><path class="ee85502d-f6c1-49a5-a78b-85de8f55719e" d="M624.92,218c-.54,3,0,5.29,4,6-4.54,1.26-4.33,5.49-5.17,8.24-1.59,5.25-7.7-2.5-7.53,5.37-2.11-4.09-2.82-7.23-7.31-6.49,2.54-2.84,4.1-5.31,2.39-8.41-.7-1.27.08-1.89,1.1-2.2,2.65-.82,3.91-2.81,4.49-6.26,2.36,3.32,5.23,3.65,8.17,3.8ZM614,225.7c.1,2.84,1.16,5.05,4.37,4.83s4-2.58,3.84-5.37c-.11-2.55-.77-4.87-3.92-4.58C615.39,220.84,613.87,222.68,614,225.7Z" transform="translate(244 115.99)"/><path class="ee85502d-f6c1-49a5-a78b-85de8f55719e" d="M625,218.1l0-.39c0,.11,0,.21-.07.32Z" transform="translate(244 115.99)"/><path class="ee85502d-f6c1-49a5-a78b-85de8f55719e" d="M-93,625.07c-2.94-1.27-5.71-1.74-7.89,2.74-.89-3.15-.31-6.33-3.83-6.78-1.44-.18-.46-1.14-.17-1.79s1.16-1.76.92-2.19c-3.22-5.83,3.68-6.37,5.07-9.77.33-.81,8.15,1.77,8,2.7-.53,3.81,2.3,3.75,5.08,4.33-4.36,2.43-6.7,5.9-7,10.61Zm-8.91-8.56c.17,2.5,1,4.69,4.34,4.47s4-2.53,3.84-5.23c-.09-2.35-.19-4.93-3.57-4.72C-100.51,611.22-102,613.1-101.95,616.51Z" transform="translate(244 115.99)"/><path class="ee85502d-f6c1-49a5-a78b-85de8f55719e" d="M-92.89,624.92l.39.56-.54-.42Z" transform="translate(244 115.99)"/><path class="ee85502d-f6c1-49a5-a78b-85de8f55719e" d="M567.66,702.68l1.06-2,.79.73c-.34.66-.69,1.31-1,2Z" transform="translate(244 115.99)"/><path class="ee85502d-f6c1-49a5-a78b-85de8f55719e" d="M566.7,704.72l1-2,.82.71c-.29.68-.59,1.36-.89,2Z" transform="translate(244 115.99)"/><path class="ee85502d-f6c1-49a5-a78b-85de8f55719e" d="M568.72,700.7l1-.46c-.06.4-.12.8-.17,1.19Z" transform="translate(244 115.99)"/><path class="eeca9862-530a-472f-8889-ba2da26bb672" d="M82.94,653.59a67.55,67.55,0,0,1,5.36-25.05c5-12.12,18.56-19.78,31-17.65,6.5,1.12,11.34,5.1,12.34,10.75,1.05,6-1.83,10.08-6.72,13.32a53.49,53.49,0,0,0-9.25,7.56c-4.78,5.05-6.24,11.21-4.49,18,.58,2.25,1.37,4.45,1.85,6.72,1.36,6.37-1,11.58-6.33,14.29a12.78,12.78,0,0,1-15.48-2.94C85,671.72,82.63,663.42,82.94,653.59Zm17.24-21.79c-.23-.21-.59-.64-.66-.6-.57.36-.33.81,0,1.24a8,8,0,0,0,5.46,4.08A7.43,7.43,0,0,0,100.18,631.8Zm8.88-1.78-.09-.09a5.59,5.59,0,0,0,3.15,4.19c2.06,1.19,3.49.36,3.3-1.79-.28-3.27-.62-6.71-2.91-9.36-1.6-1.84-3.8-3.33-6.09-1.62s-1.56,4.16-.35,6.32C106.72,628.83,107.52,629.93,109.06,630Zm-7.71,18.85c1.51-.18,3.58.3,4.37-1.42,1-2.19-1.26-3.14-2.51-4.26a14.56,14.56,0,0,0-8-3.54c-1.84-.24-3.31.27-4.07,2-.88,2,0,3.48,1.74,4.59A16.88,16.88,0,0,0,101.35,648.87Zm4.68,15c0-2.23-1.47-2.25-2.8-2.22a13.23,13.23,0,0,0-8.6,3.53c-2.49,2.22-1.83,5,1.33,6.09C99.49,672.57,106.22,667.44,106,663.91Z" transform="translate(244 115.99)"/><path class="eeca9862-530a-472f-8889-ba2da26bb672" d="M175.29,655.55a47.28,47.28,0,0,1-5.69,23.52c-5.76,10.95-15,16.18-27.32,15.78a15.19,15.19,0,0,1-13-22.05,33.92,33.92,0,0,1,5.73-8.11c5-5.2,6.83-11.25,6.09-18.27-.22-2.15-.43-4.31-.49-6.47-.18-5.92,1.49-10.89,7.39-13.47,6.14-2.7,11.66-1.54,16.7,2.71,6.49,5.46,9.66,12.55,10.34,20.87C175.17,651.88,175.21,653.72,175.29,655.55Zm-25.85,28.31c.09-3.53-3.14-9.68-6.5-12.45-2.78-2.29-4.4-1.64-5.1,1.85a18.92,18.92,0,0,0,2.22,12.92c1.18,2.23,2.79,3.83,5.48,3.28C148.48,688.86,149.35,686.58,149.44,683.86Zm3-25.89a19.73,19.73,0,0,0-2.48.23c-1.28.21-2.92.2-3.49,1.52-.75,1.75,1,2.65,2,3.64a19.74,19.74,0,0,0,10.52,5.27c2.26.41,4.42.23,5.61-2.07s-.17-3.82-1.61-5.28C160.45,658.76,157.41,657.69,152.41,658Zm-2.29-10a17.69,17.69,0,0,0,9.54-3.38c1.86-1.32,3.37-2.93,2.35-5.42s-3.18-2.64-5.45-2.43a12.59,12.59,0,0,0-10.05,6.5C144.49,646.66,145.35,648,150.12,648Z" transform="translate(244 115.99)"/><path class="eeca9862-530a-472f-8889-ba2da26bb672" d="M380.23,650.78c.18-3.16,1.77-5.14,4.86-5.32s3.74,2.34,3.73,4.74c0,3-1.41,5.32-4.65,5.34C381.24,655.56,380.5,653.19,380.23,650.78Z" transform="translate(244 115.99)"/><path class="eeca9862-530a-472f-8889-ba2da26bb672" d="M-105.94,23.64c.09,4.37-1.06,6.56-4.41,6.66-3.08.09-3.81-2.12-3.9-4.66-.12-3.16,1.41-5.12,4.57-5.33A3.16,3.16,0,0,1-105.94,23.64Z" transform="translate(244 115.99)"/><path class="eeca9862-530a-472f-8889-ba2da26bb672" d="M614,225.69c-.13-3,1.39-4.85,4.29-5.11,3.15-.29,3.81,2,3.92,4.58.12,2.79-.68,5.16-3.84,5.37S614.1,228.54,614,225.69Z" transform="translate(244 115.99)"/><path class="eeca9862-530a-472f-8889-ba2da26bb672" d="M-101.95,616.51c-.07-3.41,1.44-5.29,4.61-5.48,3.38-.21,3.48,2.37,3.57,4.72.11,2.7-.56,5-3.84,5.23S-101.78,619-101.95,616.51Z" transform="translate(244 115.99)"/><path class="ee85502d-f6c1-49a5-a78b-85de8f55719e" d="M101.35,648.87a16.88,16.88,0,0,1-8.47-2.62c-1.69-1.11-2.62-2.57-1.74-4.59.76-1.74,2.23-2.25,4.07-2a14.56,14.56,0,0,1,8,3.54c1.25,1.12,3.51,2.07,2.51,4.26C104.93,649.17,102.86,648.69,101.35,648.87Zm.69-3.44c-2.57-2.32-4.8-3.75-8.46-2.73C95.91,645.64,98.33,646.48,102,645.43Z" transform="translate(244 115.99)"/><path class="ee85502d-f6c1-49a5-a78b-85de8f55719e" d="M109.06,630c-1.54-.09-2.34-1.19-3-2.35-1.21-2.16-1.88-4.66.35-6.32s4.49-.22,6.09,1.62c2.29,2.65,2.63,6.09,2.91,9.36.19,2.15-1.24,3-3.3,1.79a5.59,5.59,0,0,1-3.15-4.19l3.63.85c-.64-2.44-.3-4.83-2.35-6.4a1.88,1.88,0,0,0-1.79-.08C106.25,626.4,110,628,109.06,630Z" transform="translate(244 115.99)"/><path class="ee85502d-f6c1-49a5-a78b-85de8f55719e" d="M106,663.91c.19,3.53-6.54,8.66-10.07,7.4-3.16-1.12-3.82-3.87-1.33-6.09a13.23,13.23,0,0,1,8.6-3.53C104.56,661.66,106,661.68,106,663.91Zm-3.86.5c-2.34.22-4.7.64-6,3.1-.36.67.19,1.23,1,1.3,2.88.26,4.53-1.29,5.52-3.78C102.65,665,102.45,664.79,102.17,664.41Z" transform="translate(244 115.99)"/><path class="ee85502d-f6c1-49a5-a78b-85de8f55719e" d="M100.18,631.8a7.43,7.43,0,0,1,4.77,4.72,8,8,0,0,1-5.46-4.08C99.73,632.24,100,632,100.18,631.8Z" transform="translate(244 115.99)"/><path class="ee85502d-f6c1-49a5-a78b-85de8f55719e" d="M99.49,632.44c-.3-.43-.54-.88,0-1.24.07,0,.43.39.66.6C100,632,99.73,632.24,99.49,632.44Z" transform="translate(244 115.99)"/><path class="ee85502d-f6c1-49a5-a78b-85de8f55719e" d="M149.44,683.86c-.09,2.72-1,5-3.9,5.6-2.69.55-4.3-1.05-5.48-3.28a18.92,18.92,0,0,1-2.22-12.92c.7-3.49,2.32-4.14,5.1-1.85C146.3,674.18,149.53,680.33,149.44,683.86Zm-8.7-10.25c-1,4.33,0,7.67,1.57,10.91.5,1,1.26,2.05,2.67,1.59a2.29,2.29,0,0,0,1.64-3.11C145.49,679.66,144.16,676.38,140.74,673.61Z" transform="translate(244 115.99)"/><path class="ee85502d-f6c1-49a5-a78b-85de8f55719e" d="M152.41,658c5-.28,8,.79,10.51,3.31,1.44,1.46,2.74,3.1,1.61,5.28s-3.35,2.48-5.61,2.07a19.74,19.74,0,0,1-10.52-5.27c-1-1-2.71-1.89-2-3.64.57-1.32,2.21-1.31,3.49-1.52A19.73,19.73,0,0,1,152.41,658Zm-1,3.22c2.18,2.56,4.66,3.44,7,4.46.92.39,2.06.57,2.64-.46.72-1.28-.14-2.2-1.18-2.82A10.4,10.4,0,0,0,151.36,661.19Z" transform="translate(244 115.99)"/><path class="ee85502d-f6c1-49a5-a78b-85de8f55719e" d="M150.12,648c-4.77,0-5.63-1.32-3.61-4.73a12.59,12.59,0,0,1,10.05-6.5c2.27-.21,4.45,0,5.45,2.43s-.49,4.1-2.35,5.42A17.69,17.69,0,0,1,150.12,648Zm9.08-8.07c-4.7-.5-7.85.92-10.43,4.9C153,644.44,156.53,643.81,159.2,639.91Z" transform="translate(244 115.99)"/><path class="eeca9862-530a-472f-8889-ba2da26bb672" d="M102,645.43c-3.71,1.05-6.13.21-8.46-2.73C97.24,641.68,99.47,643.11,102,645.43Z" transform="translate(244 115.99)"/><path class="eeca9862-530a-472f-8889-ba2da26bb672" d="M109.06,630c1-2-2.81-3.62-.6-5.72a1.88,1.88,0,0,1,1.79.08c2,1.57,1.71,4,2.35,6.4l-3.63-.85Z" transform="translate(244 115.99)"/><path class="eeca9862-530a-472f-8889-ba2da26bb672" d="M102.17,664.41c.28.38.48.54.45.62-1,2.49-2.64,4-5.52,3.78-.78-.07-1.33-.63-1-1.3C97.47,665.05,99.83,664.63,102.17,664.41Z" transform="translate(244 115.99)"/><path class="eeca9862-530a-472f-8889-ba2da26bb672" d="M140.74,673.61c3.42,2.77,4.75,6,5.88,9.39a2.29,2.29,0,0,1-1.64,3.11c-1.41.46-2.17-.55-2.67-1.59C140.75,681.28,139.7,677.94,140.74,673.61Z" transform="translate(244 115.99)"/><path class="eeca9862-530a-472f-8889-ba2da26bb672" d="M151.36,661.19a10.4,10.4,0,0,1,8.49,1.18c1,.62,1.9,1.54,1.18,2.82-.58,1-1.72.85-2.64.46C156,664.63,153.54,663.75,151.36,661.19Z" transform="translate(244 115.99)"/><path class="eeca9862-530a-472f-8889-ba2da26bb672" d="M159.2,639.91c-2.67,3.9-6.18,4.53-10.43,4.9C151.35,640.83,154.5,639.41,159.2,639.91Z" transform="translate(244 115.99)"/></svg>