<?xml version="1.0" encoding="utf-8"?>
<!-- Generator: Adobe Illustrator 25.2.0, SVG Export Plug-In . SVG Version: 6.00 Build 0)  -->
<svg version="1.1" id="e218bdee-e49f-4eae-b58e-0c01c1473d9d"
	 xmlns="http://www.w3.org/2000/svg" xmlns:xlink="http://www.w3.org/1999/xlink" x="0px" y="0px" viewBox="0 0 1100.7 1023.1"
	 style="enable-background:new 0 0 1100.7 1023.1;" xml:space="preserve">
<style type="text/css">
	.st0{fill:#303030;}
	.st1{fill:#303030;}
	.st2{fill:#FFC200;}
</style>
<path class="st0" d="M1100.6,721v301.9H879.1c-211.3,0-422.6,0-633.8,0c-5.5,0-11.1-0.9-16.4-0.2c-6.4,0.8-12.7-0.8-19.1,0.1
	c-7.5,1.1-8.9-0.3-9.1-8c0-2.5,0.1-5,0.3-7.5c2.8-26.7,3.6-53.5,2.5-80.4c-0.1-1.7,0.5-3.6-0.9-5.2c-2.5,1.8-1,5.2-3.1,7.6
	c-0.2-0.7-0.3-1.3-0.4-2c-2-25.2,0.3-50.8-6.1-75.7c-1.8-6.9-2-14.2-3-21.2c-3.1-22.1-6.5-44.2-11.6-65.9c0.7-2.9-0.2-5.2-2.2-7.7
	c-0.6,3,0.3,5.3,1,7.6c2.1,5.7,1.5,11.7,2.6,17.6c4,21.8,7,43.7,9.8,65.7c3.9,30.2,6.2,60.6,6.9,91.1c0.1,4-1.1,7.9-3.5,11.2
	c-0.9-6.2-0.1-11.4-0.4-16.7c-1.6-33.5-5-66.9-10.3-100c-4.6-28.3-10.6-56.2-16.9-84c-8-35.1-18.1-69.7-27.1-104.5
	c-3-11.6-6.6-23-9.9-34.6c-3-10.3-5.9-20.6-8.8-30.9c-1.6-8.5-4-16.8-7.3-24.9c1,8.5,2.9,16.9,5.7,24.9c1.4,1.8,1.3,4.1,1.7,6.2
	c-0.9,1.1-1,1.8,0.7,1.9c2,7.7,3.9,15.4,5.9,23.1c9,33.4,18.3,66.7,27,100.2C164,752,173.5,793.4,180,835.5
	c6.2,39.7,9.6,79.6,8.6,119.9c-0.1,3.3-0.6,6.4-4.5,6.5c-3.9,0.1-4.6-2.8-4.7-6.2c-0.3-43.6-5.2-86.7-12.3-129.6
	c-5.6-33.3-12.8-66.3-21.2-98.9c-7.5-29.6-16-59-25.2-88.1c-5.3-16.9-11.5-33.6-16-50.7c-6.4-24.2-12.1-48.7-18.8-72.9
	c-7.4-26.4-14.9-52.8-20.8-79.6c-2.5-11.3-5.7-22.5-6.8-34.1c-1.6-9.6-3.2-19.2-4.8-28.8c-0.2-2.1-0.4-4.2-0.6-6.2
	c0.7-0.9,0.7-1.7-0.4-2.2c-2.5-16.2-3.1-32.7-4.2-49.1c-1.8-26.2-1.4-52.6,1.3-78.7c1.2-12.2,3.1-24.2,5.9-36.2l1.7,0.3
	c0,1.1-0.1,2.3-0.1,3.4c-0.9,0.1-1.5,0.8-1.5,1.7c-1,13.9-2.4,27.8-2.9,41.7c-0.9,24.8,1,49.5,3.2,74.1c0.7,8.2,2.7,16.3,4.1,24.4
	c2,6,2.2,12.4,3.4,18.6c4.5,24.6,10.8,48.8,17.3,73c-0.4,3.6,2,6.3,3.6,9.3c-1.6-3,0.5-6.8-2-9.6c-0.8-4.2-1.8-8.4-2.4-12.6
	c-1.6-10.3-6.2-19.8-8.4-30c-3.5-16.3-7.2-32.6-10.1-49.1c1.1-4.8-1.2-9.2-1.7-13.8c-1.4-13.5-3.2-27-4.3-40.6
	c-1.6-19.4-1.2-38.9-0.1-58.3c0.5-8.9,3.1-17.5,3.2-26.4c0.3-8.7,3.2-16.8,4.8-25.2c1.5-8.1,3.8-16,5.7-24
	c-3.3,4.1-5.5,9.1-6.3,14.4c-2-0.2-2,1.5-2.3,2.6c-1.9,6.5-4.6,12.7-5.4,19.5c-0.1,1.3-0.2,2.7-0.4,4c-4.6,18.5-7.8,37.2-9.6,56.2
	c-2.2,22.5-2.2,45.2,0,67.7c1.5,15.7,4.2,31.3,5.8,46.9v0.1c0.3,1.5,0.6,2.9,0.9,4.4c-0.5,8.2,2.9,15.9,3.7,24
	c0.2,2.2-0.9,5.1,1.8,6.7c1.4,8.1,3,16.3,4.2,24.5c2,14.1,4.9,28,8.6,41.8c3.6,13.3,8.3,26.3,10.2,40c-3.9-0.6-1.6-6-5.3-7
	c-0.6,5.5,3.1,10.5,2,16.1c-0.1,0.4,1.2,0.9,2.1,0.5c1.6,5.6,3.1,11.2,4.6,16.8c5.1,18.7,10.4,37.3,15.3,56.1
	c3.8,14.6,8.2,29,11.1,43.8c-0.5,0.7-0.3,1.7,0.4,2.2c0.1,0,0.1,0.1,0.2,0.1c0.2,0.9,0.4,1.9,0.7,2.8c-0.8,1.1-0.7,1.9,0.8,2.1
	c0.6,3.3,1.3,6.6,1.9,9.8c-0.3,0.3-0.2,0.9,0.1,1.2c0.1,0.1,0.2,0.1,0.3,0.2c0.7,1.1,1,2.5,0.8,3.8l-1.3,1.9
	c-4.8-16.7-9.5-33.5-14.4-50.2c-9.5-32.3-19.2-64.6-28.6-96.9c-9-30.9-17.4-62-25-93.3c-0.5-2.5-1.3-4.8-2.6-7
	c-1.8-2.9-3.3-2-4.1,0.3c-0.9,2.9-1.5,5.8-1.7,8.8c-0.8,8.5-0.5,17-0.4,25.6c-3.1-4.3-3-9.6-4.7-14.4c0.3-6.6-2.9-12.3-5.2-18.3
	c0.7,6.3,1.4,12.6,3.5,18.6l1.8,8.7l-2.7,0.1c-0.8-3-1.6-6.1-2.3-9.1c-2.5-10.2-5.1-20.4-7.6-30.7c1-3.4-0.5-6.1-2.5-8.6
	c0.7,3-1.4,6.7,2.5,8.8c0,1.5,0.1,3.1,0.1,4.7c-1,0.9-1.2,1.7,0.4,2c4,21.7,8.8,43.3,13.9,64.8c2.9,12.1,5.7,24.1,8.6,36.2
	c0,2.5,0.2,5,2,7.1c0.2,0.9,0.4,1.9,0.6,2.8l-2.6,0c-10.5-35.2-20.1-70.6-27.1-106.6c-4.8-25-9.5-50-11.9-75.3
	c0.7-0.8,0.7-2.1-0.2-2.8c0,0-0.1-0.1-0.1-0.1c-0.1-1.4-0.2-2.7-0.3-4.1c1.1-2.2-1.3-5.5,2.2-7c2.6,15.5,3.8,31.3,8,46.9
	c-0.2-11.5-3.1-22.3-3.6-33.3l2.5-1.6c0.6,11.7,4,23,5.3,34.7c-0.3,0.9-0.2,2,0.4,2.8c0.8,1.9,1.1,4,1.1,6
	c1.4,8.3,2.5,16.6,6.1,24.3c-0.9-8.2-1.2-16.5-4.1-24.3l-0.7-6.5c0-1.4,0.5-2.9-0.9-4l-0.7-5.4c0.6-1.1,0.8-2.1-0.6-2.7
	c-7.1-45.2-8.6-91.2-4.3-136.7c1.8-0.7,1.4-1.8,0.6-3c0.1-1.4,0.2-2.9,0.3-4.3c2.6-5.6,1.7-11.6,2.3-17.4
	c-1.5,5.5-4.3,10.8-3.2,16.7c-6.6,34.7-6.7,69.6-4.6,104.6c-5-34.5-3.9-69-0.2-103.6c0.6,0.2,0.9-0.1,0.9-0.6c0-0.2-0.3-0.4-0.5-0.6
	c0.4-3.4,0.9-6.8,1.2-10.2c0.1-1,1.5-3.1-1.3-3l-0.8,0.2l0.7,0.4C7.6,216,5,228,4,240.2l-2.8,0.1c0.1-0.9,0.2-1.8,0.3-2.8
	c2-2.2,1.3-4.6,0.6-7l0.5-4.9c1.9-2.2,1.2-4.7,1-7.1c0.1-1.3,0.2-2.7,0.3-4c0.6-0.3,0.7-0.6,0.1-1l0.6-2.7c1,0.2,1.2-0.3,1-1.1
	c-1.8-1.5-0.8-3.5-0.6-5.2c0.7-4.9,1.8-9.8,2.7-14.7c9.3-51.4,29.7-100.2,59.8-142.9c7.4-10.6,14.9-21.1,24.2-30.2
	c5.1-5.2,10.3-10.3,14.1-16.6h34c0.4,2.2,0.4,2.2-1.4,3.9c-24.1,22.3-44.9,47.9-61.7,76.1c-3.5,5.8-7.7,11.4-9.5,18.2
	c-0.3,0.2-0.4,0.6-0.2,0.9c-2.3,1.3-2.9,3.5-3.3,5.8l-4.5,8.1c-5.2,9-8.3,18.9-11.9,28.6c-1,2.7,0.4,2.8,2.5,2l-9.1,29.2l-1.5-1.3
	c-0.5-0.1-0.9-0.6-0.8-1.2c0-0.1,0.1-0.3,0.2-0.4c0.2-0.3,1-0.5,1.2-0.4c0.5,0.7,0.5,1.6,0,2.3c-2.6,4.8-3.2,10.1-4.7,15.3
	c-0.7,2.5,2.3,4.4,0.7,6.6c-2.6,3.4-2.4,7.8-2.9,11.5c-2.3,17-3.8,34.1-2.1,51.2c1.2,12.6,1.9,25.2,3,37.8c0.2,2.2-1.5,6.4,1,6.3
	c3.3-0.1,1.6-4.4,1.6-6.7c0.5-52.8,3-105.3,20.5-155.8c6.7-19.5,15.6-38.1,26.7-55.4c7-11,14.7-21.5,22.6-31.8
	c10.5-13.8,22.6-25.9,34.4-38.6c4-4.2,9.5-6.9,12.2-12.3c314.3,0,628.7,0,943-0.1c3.9,0,4.9,0.6,4.9,4.8
	c-0.1,207.7-0.2,415.4-0.1,623.2c-4.3,0.5-8.2-1.1-12.2-2.3c-6.6-2-13.1-4-18.7-8.8c-5.3-4.5-10-9.2-12.8-15.5
	c-2.1-4.6-5.5-1.6-7.6-1c-2.7,0.7,0,2.7,0.6,3.8c7.2,14.8,6.8,29.5,0.1,44.2c-2.2,4.7-4.1,9.5-5.7,14.4c-8.2,25.5,12,43,31.6,43.3
	c6.2,0.1,12.3-0.1,18.3-1.8c4-1.2,4.9,0.2,3.5,3.9c-1.1,2.9-0.9,5.9-0.9,8.9C1096.6,719.5,1097.8,721.1,1100.6,721z M93,482
	c-1,5,1.6,9.4,2.7,14c2.3,9.6,4.8,19.1,8.6,28.3c-0.9-4.6-1.2-9.2-2.8-13.6c-1.3-3.7-2.5-7.6-1.8-11.7c0.8-0.9,0.8-2.1,0-3
	c-0.9-5.1-1.4-10.4-5.4-14.4c-1.8-9.2-4.1-18.2-6.8-24.7c-0.1,4.9,0.7,9.7,2.4,14.2C91.4,474.6,92.4,478.2,93,482z M160.9,442.2
	c-1,1.4-2.5,1.3-3.7,1.6c-5.3,1.6-6,3.9-2.2,8c0.7,0.8,1.3,1.1,1.1,2.4c-1.2,7.6,0.4,8.9,7.6,6.6c2-0.7,3.2-1.1,4,1.7
	c1.2,4.2,4.2,4.1,7.5,2.4c3.3-1.7,5.5-4.8,8.3-7.1c1.5-1.2,3-3.5,5-2.3s2.3,3.9,2.2,6.3c-0.2,1.7-0.9,3.2-2,4.5
	c-4.1,5.3-7.1,11.2-10.7,16.9c-0.8,1.3-2.1,2.8-0.7,4c1.8,1.5,2.9-0.6,4.1-1.6c0.6-0.6,1.1-1.2,1.6-1.9c4.3-4.7,7.3-10.3,10.7-15.6
	c1-1.5,1.9-3.6,4.2-2.3c2.6,1.5-0.1,2.8-0.6,4c-2.2,5.4-5.6,10.2-6.6,16.1c-0.6,3.4-1,6.7,2.7,8.7c3.4,1.9,6.1,0.5,8.2-2.3
	c1-1.3,1.8-1.9,3-0.2c2.1,3.1,4.8,2.8,7.2,0.5c2.7-2.5,3.6-0.9,4.4,1.6c0.7,2.6,1.6,5.1,2.6,7.5c2.4,5.1,6.1,6.3,10.6,3.3
	c1.9-1.3,3-0.3,4.5,0.5c3.4,1.8,5.4,0.5,6-3.2c0.2-1.7,0.2-3.3,0.1-5c0-4-2.6-8.4,2.2-11.6c1-0.6,0.4-2.5,0-3.8
	c-0.7-2.9-2.1-5.6-4.1-7.9c-1.1-1.2-1.7-2.2-0.4-3.9c3.3-4.5,3-5.8-2.1-7.9c-3.3-1.3-4.4-2.4-1.3-5.1c1.4-1,1.9-3,1.1-4.5
	c-1-1.8-2.7-1.7-4.4-1.5c-1,0.1-2,0.3-3,0.5c-8.2,1.5-15.9,4.9-22.5,10c-2.5,1.9-4.6,0.8-6.3-0.5c-2.1-1.6,0.3-3,1-4.2
	c4.5-7.8,8.4-15.9,11.7-24.2c1.3-3.5,2.4-5.7,5.5-1.2c1.3,2,2.9,3.7,4.7,5.1c2.4,1.7,5.2,5.3,8.1,2.9c2.4-1.9,3.1-1.4,4.7,0.1
	c1.5,1.7,4,2.2,6,1.2c1.9-0.9,2.2-2.9,1.7-4.8c-0.6-2.4,0.6-2.9,2.5-3.2c1.6-0.3,3.3-0.7,4.8-1.2c2.1-0.6,4.4-1.3,4.6-4
	s-2-3.6-3.9-4.7c-2.4-1.4-6.2-1.8-3.9-6.2c0.5-0.9-0.5-2.1-1.5-2.3c-3.1-0.6-3.1-3.5-4.5-5.1c-2.9-3.3-0.3-4.6,0.8-6.7
	c0.3-0.5,0.4-1.6,0.1-1.9c-3.2-3.3-0.5-5.1,1.4-7.4c1.4-1.6,2.6-3.5,3.5-5.4c0.7-1.6,0.5-4.2-1.3-4.2c-6.8,0-4.6-4.3-4.3-7.9
	c0.1-2.3,0.1-4.7,0-7c-0.1-1.9-0.5-3.8-2.5-4.5c-1.9-0.6-3.1,0.7-4.4,1.8c-3.3,3-5.3,7-8.3,10.6c-1.1-2.2-2.3-4.4-3.7-6.5
	c-2.2-2.9-4.2-2.6-5.9,0.6c-1.8,3.6-1.8,7.4-1.7,11.2c0,1.2,0.8,3.1-1.2,3.2c-5.5,0.5-4.5,4.3-4.1,7.7c0.2,2.4,0.7,4.9,1,6.7
	c-6.2,1.8-9.7-2.3-13.4-5.9c-0.8-0.6-1.7-1.1-2.6-1.4c-2-0.7-4-0.2-4.3,2c-0.4,3.5-2.2,3.7-5.1,3.6c-4.1-0.2-5.7,2.1-3.2,5.1
	c4.3,5.1,4.6,13.5,12.6,15.6c0.6,0.3,1.1,0.8,1.2,1.4c0.2,7.3,5.4,7.4,10.6,7.1c2.7-0.1,3.9,0.4,2.4,3.3
	c-3.8,7.2-7.4,14.5-11.3,21.7c-0.6,1.2-0.7,4.1-3,2.9c-1.8-1-1.2-2.9-0.1-4.8c2.6-4.5,4.9-9,7.1-13.7c1.8-4.1,0.4-7.1-3.6-7.3
	c-3.6-0.2-4.3-1.8-4.9-4.8c-0.5-2.7-0.9-6.5-5.6-4.6c-1.6,0.6-1.9-0.8-2.4-1.8c-1-1.7-2-3.8-4.4-3.4c-2.7,0.5-2.7,3-3.3,5.1
	c-0.3,1,0.3,2.3-0.9,3.4c-1.4-2.5-2.7-5-4.2-7.3c-2-3-4.9-3.5-6.8-0.4s-3.6,2.3-5.9,0.9c-2.9-1.7-5.7-2-8.1,0.9
	c-2.3,2.9,0.7,4.2,2,6.1c1.6,2.5,4.5,5.3-1.2,6.5c-2,0.4-2.9,2-2.9,4.1c0,2.1,0.4,3.5,2.6,4.3C154.6,439.3,157.7,440.8,160.9,442.2
	L160.9,442.2z M865.4,251c-0.3,2.5,1.2,6.1,2.2,9.8c1.2,4.5,3.4,6.1,8,4.4c5.5-1.9,7.2-4.2,5.9-8.9c-2-7.1-2-14.6-0.1-21.6
	c0.6-2.2,1.3-3.3,3-0.9c3.2,4.3,7.5,6.4,12.7,7.2c2.1,0.3,3.1,1.4,4.2,3c9.2,13.8,26,16,38.9,5.3c4.7-3.9,8.3-8.6,12.3-13
	c6.1-6.6,11.9-13.3,18.7-19.2c4.7-4.1,9.6-8.2,13.2-13.5c3.8-5.6,6.1-12,3.4-18.4c-1.9-4.4-1.7-8-0.8-12.3c2-8.6-2.4-16-10.7-18.9
	c-1.4-0.5-2.9-0.6-3.8-2.1c-5.2-9.3-16.1-10.5-24-7.2c-16.3,6.9-33.2,10.1-50.7,11.9c-13.2,1.4-23.3,9.3-28.2,21.9
	c-4.8,12.3-2,23.4,7.8,32.7c2.5,2.4,1.6,12-1,14.4C869.4,231.9,865.7,239.9,865.4,251z M537.6,874.9c32.6-1.2,55.2-14.8,66.5-44.5
	c5.5-14.4,5.6-28.8-3.9-41.9c-6.7-9.2-16.9-13.4-27.4-16.3c-8-2.2-15.5-5-22-10c-4.3-3.2-8.8-6-13.5-8.5c-15.1-8.5-38.9-4-48.7,10.3
	c-9.6,13.8-16,29.1-14.8,46.4c1.3,17,5,32.8,18.6,45.2C504.8,867.1,520.8,874,537.6,874.9z M287.7,131.9c-12-0.4-19,10-20,21.1
	c-1.4,15.3,9.8,21.9,20.9,22c10.6,0.1,19-10.8,19.4-25.1C308.2,141.6,297.3,131.9,287.7,131.9z M298.9,796.9
	c11.7,0.1,20.7-9,20.9-21.4s-7.5-21.7-18.6-21.5c-14.8,0.2-18.8,7.2-20.2,23.9C280,788.8,290,797.3,298.9,796.9L298.9,796.9z
	 M1034.5,366.2c-0.1,10.6,8.2,19.5,18.3,19.7c11.3,0.1,20.4-9.4,20.6-21.8c0.3-12.1-8.1-21.7-19.1-21.9
	C1042.9,342,1034.7,352,1034.5,366.2z M827.6,810.8c0-9.2-5.1-17.3-12.5-19.8c-8-2.8-17.2-0.7-21.5,5.9c-4.8,7.2-6.4,15.3-3.8,23.8
	c1.7,5.5,5.8,9,10.8,11C814.1,837,827.7,826.5,827.6,810.8z M993.5,873.8c0.2,3.2,1.6,8.1,1.2,13.1c-0.2,2.5,1.1,3.1,3,1.4
	c4.1-3.6,9.1-6.2,12.4-10.6c2.3-3.1,4.4-6.3,2.6-10.5c-2.3-5.4-7-8.3-12.2-7.3C995.9,860.8,993.4,865.1,993.5,873.8L993.5,873.8z
	 M15.8,177.5c-2.4,7.4-5,14.8-6,22.6c-0.1,0.8,0,1.8,1,1.9c1.2,0.1,1.7-1,1.7-2C13,192.5,16.2,185.4,15.8,177.5z M70.1,153.8
	c0.4,0,0.5,0.1,0.2,0.5c0,0-0.2-0.1-0.4-0.1L70.1,153.8z M85.1,450.1h0.3l-0.1-0.3L85.1,450.1z"/>
<path class="st1" d="M1100.6,678v12c-3.4,0.6-6.8,1.3-10.2,2.3c-3.8,1.3-5.8-0.1-7.7-3.3c-6.6-11.2-11.1-23.5-13.3-36.3
	c-1.3-7.1-2.7-14.2-4.1-21.3c-1.3,5.5,0,10.7,0.7,15.9c2.1,15.1,6.3,29.5,14,42.9c1.8,3.1,3.1,6,6.6,7.2c1-1-0.5-3.3,1.7-3.2
	c4.3,0.1,8-2.5,12.2-2.2v7c-1.9,0.5-3.9,0.8-5.8,1.4c-10.2,3.2-20.2,3.4-30.3-0.3c-13.2-4.8-20.5-17.5-18-31.2
	c1.2-6.4,3.7-12.5,6.4-18.3c5.8-12.4,7.7-25,3.9-38.3c-0.3-1.2-1-2.6,0.8-3.8c4.4,5.8,8.8,11.4,15.4,15c8.6,4.7,18.1,6.5,27.5,8.6v5
	c-4.4,0.3-7.9-2.8-12.5-2.5l12.5,5.5v6c-9.2-5.5-18-11.6-26.4-18.2c-0.3,1.3,0.2,2.5,1.3,3.3c7.7,6.9,16.9,11.8,25.1,17.9v22
	c-3.8-5.2-6.8-10.9-11.3-15.7c-4.3-4.5-8.3-9.3-12.4-14l-1.1,1C1084.6,653.8,1095,664.2,1100.6,678z M1060.2,643
	c-9.7,22.2-3.2,50.8,12.9,54.3c-7.7-7.5-13.6-15-14.8-25.3C1057,662.2,1059.9,652.7,1060.2,643z"/>
<path class="st2" d="M1100.6,632c-9.4-2.1-18.9-3.9-27.5-8.6c-6.6-3.6-11.1-9.2-15.4-15c-1.8,1.2-1.1,2.6-0.8,3.8
	c3.8,13.3,1.8,25.9-3.9,38.3c-2.7,5.8-5.2,11.9-6.4,18.3c-2.5,13.7,4.8,26.4,18,31.2c10.1,3.7,20.2,3.5,30.3,0.3
	c1.9-0.6,3.8-1,5.8-1.4v22c-2.8,0.2-3.9-1.5-3.9-4c0-3-0.2-6,0.9-8.9c1.5-3.7,0.5-5-3.5-3.9c-6,1.7-12.1,1.9-18.3,1.8
	c-19.6-0.2-39.8-17.7-31.6-43.3c1.6-4.9,3.5-9.7,5.7-14.4c6.8-14.7,7.2-29.5-0.1-44.2c-0.6-1.2-3.3-3.2-0.6-3.8
	c2.2-0.6,5.5-3.6,7.6,1c2.9,6.3,7.5,10.9,12.8,15.5c5.6,4.8,12.1,6.8,18.7,8.8c3.9,1.2,7.9,2.8,12.2,2.3L1100.6,632z"/>
<path class="st2" d="M1100.6,692c-4.2-0.3-8,2.3-12.2,2.2c-2.2-0.1-0.7,2.2-1.7,3.2c-3.5-1.2-4.8-4.1-6.6-7.2
	c-7.7-13.4-11.9-27.8-14-42.9c-0.7-5.2-2-10.5-0.7-15.9c1.4,7.1,2.8,14.2,4.1,21.3c2.2,12.8,6.7,25.1,13.3,36.3
	c1.9,3.2,3.9,4.5,7.7,3.3c3.4-0.9,6.8-1.7,10.2-2.3L1100.6,692z"/>
<path class="st2" d="M1100.6,678c-5.6-13.7-16-24.2-24.9-35.6l1.1-1c4.1,4.7,8.2,9.4,12.4,14c4.5,4.7,7.5,10.4,11.3,15.7V678z"/>
<path class="st0" d="M91.6,16.7c-0.9-1.4-1.6-2.6-0.1-4.2c2.5-2.7,4.6-5.6,7-8.4c1-1.2,2.6-2.1,2.2-4.1h5
	C101.9,6.4,96.7,11.5,91.6,16.7z"/>
<path class="st2" d="M1100.6,649c-8.3-6.1-17.5-10.9-25.1-17.9c-1-0.8-1.5-2.1-1.3-3.3c8.4,6.6,17.2,12.7,26.4,18.2V649z"/>
<path class="st2" d="M1100.6,640l-12.5-5.5c4.5-0.4,8.1,2.8,12.5,2.5V640z"/>
<path class="st2" d="M160.9,442.2c-3.2-1.4-6.3-2.9-9.5-4.1c-2.2-0.8-2.6-2.3-2.6-4.3s0.8-3.7,2.9-4.1c5.8-1.2,2.9-4,1.2-6.5
	c-1.2-1.9-4.4-3.2-2-6.1s5.2-2.5,8.1-0.9c2.3,1.4,3.9,2.2,5.8-0.9c2-3.2,4.8-2.6,6.8,0.4c1.6,2.3,2.8,4.8,4.2,7.3
	c1.2-1.1,0.6-2.4,0.9-3.4c0.6-2.1,0.6-4.6,3.3-5.1c2.4-0.4,3.4,1.7,4.4,3.4c0.6,1,0.9,2.5,2.4,1.8c4.7-1.9,5.1,1.9,5.6,4.6
	c0.6,3,1.3,4.6,4.9,4.8c4.1,0.2,5.5,3.2,3.6,7.3c-2.1,4.7-4.5,9.3-7.1,13.7c-1.1,1.9-1.7,3.8,0.1,4.8c2.3,1.2,2.4-1.7,3-2.9
	c3.9-7.2,7.5-14.5,11.3-21.7c1.5-2.9,0.3-3.4-2.4-3.3c-5.3,0.3-10.4,0.2-10.6-7.1c-0.1-0.6-0.6-1.2-1.2-1.4
	c-8-2.1-8.3-10.5-12.6-15.6c-2.5-3-0.9-5.3,3.2-5.1c2.9,0.2,4.7-0.1,5.1-3.6c0.2-2.2,2.2-2.7,4.3-2c1,0.3,1.8,0.8,2.6,1.4
	c3.7,3.6,7.1,7.7,13.4,5.9c-0.3-1.8-0.7-4.2-1-6.7c-0.3-3.4-1.4-7.2,4.1-7.7c2-0.2,1.2-2.1,1.2-3.2c-0.1-3.9-0.1-7.6,1.7-11.2
	c1.6-3.2,3.7-3.6,5.9-0.6c1.4,2.1,2.6,4.2,3.7,6.5c3-3.7,5-7.6,8.3-10.6c1.2-1.1,2.5-2.4,4.4-1.8c2,0.7,2.4,2.6,2.5,4.5
	c0.1,2.3,0.1,4.7,0,7c-0.3,3.6-2.5,7.9,4.3,7.9c1.8,0,2,2.6,1.3,4.2c-0.9,2-2.1,3.8-3.5,5.4c-1.9,2.3-4.7,4.1-1.4,7.4
	c0.3,0.3,0.2,1.4-0.1,1.9c-1.1,2.1-3.7,3.4-0.8,6.7c1.4,1.6,1.5,4.5,4.5,5.1c1,0.2,2,1.4,1.5,2.3c-2.3,4.4,1.5,4.9,3.9,6.2
	c1.9,1.1,4.1,2.1,3.9,4.7s-2.5,3.3-4.6,4c-1.6,0.5-3.2,0.9-4.8,1.2c-1.9,0.3-3.1,0.8-2.5,3.2c0.5,1.9,0.2,3.9-1.7,4.8
	c-2,1-4.5,0.5-6-1.2c-1.5-1.5-2.3-2.1-4.7-0.1c-2.9,2.3-5.6-1.3-8.1-2.9c-1.9-1.4-3.5-3.1-4.7-5.1c-3.1-4.5-4.2-2.2-5.5,1.2
	c-3.3,8.4-7.2,16.5-11.7,24.2c-0.7,1.2-3.1,2.6-1,4.2c1.8,1.3,3.9,2.4,6.3,0.5c6.6-5.1,14.3-8.5,22.5-10c1-0.2,2-0.4,3-0.5
	c1.7-0.1,3.4-0.2,4.4,1.5c0.8,1.6,0.4,3.5-1.1,4.5c-3.1,2.7-2.1,3.8,1.3,5.1c5.1,2,5.4,3.4,2.1,7.9c-1.2,1.7-0.7,2.7,0.4,3.9
	c2,2.3,3.4,5,4.1,7.9c0.4,1.3,1,3.2,0,3.8c-4.8,3.2-2.2,7.6-2.2,11.6c0.1,1.7,0,3.3-0.1,5c-0.6,3.6-2.6,5-6,3.2
	c-1.5-0.8-2.6-1.7-4.5-0.5c-4.4,3-8.2,1.8-10.6-3.3c-1-2.5-1.9-5-2.6-7.5c-0.8-2.5-1.6-4.1-4.4-1.6c-2.4,2.3-5.1,2.6-7.2-0.5
	c-1.2-1.7-1.9-1.2-3,0.2c-2.1,2.8-4.8,4.1-8.2,2.3c-3.6-2-3.2-5.3-2.7-8.7c1-5.9,4.4-10.7,6.6-16.1c0.5-1.2,3.2-2.5,0.6-4
	c-2.3-1.3-3.2,0.8-4.2,2.3c-3.4,5.3-6.4,10.9-10.7,15.6c-0.5,0.7-1,1.3-1.6,1.9c-1.2,1-2.3,3.1-4.1,1.6c-1.4-1.2-0.1-2.7,0.7-4
	c3.5-5.6,6.5-11.6,10.7-16.9c1.1-1.3,1.8-2.8,2-4.5c0.1-2.4-0.2-5.1-2.2-6.3s-3.5,1.1-5,2.3c-2.8,2.4-5,5.4-8.3,7.1
	c-3.3,1.7-6.4,1.8-7.5-2.4c-0.8-2.8-2-2.3-4-1.7c-7.2,2.4-8.7,1-7.6-6.6c0.2-1.3-0.4-1.7-1.1-2.4c-3.8-4.1-3.1-6.4,2.2-8
	C158.5,443.5,159.9,443.5,160.9,442.2z M211.9,417.8c1.2-0.1,2.2-1,2.3-2.2c0.4-2.2-4.3-11.6-6.3-12.7c-1.3-0.7-1.8-0.2-2,1
	c-0.2,1,0.4,2.5-1.6,2.8c-2.5-3.9-5.5-7.4-9-10.4c-1.4-1.1-3.9-2-3.4,0.7c1.3,7.5-2.5,5.5-6.4,4.1c-0.3-0.1-0.9,0.3-1.5,0.5
	c0.3,0.7,0.6,1.3,0.8,1.8c1.6,3.6,8.8,3.3,6.7,9.6c-0.1,0.2,1.2,1,2,1.4c1.9,1.1,4,1.6,6.2,1.5c2.7,0,3.5,1,1.4,3.1
	c-1,1.1-2.4,2.5-0.8,3.8c2.7,2.1,6.1,1.4,9.1,0.8s2.2-3.2,1.9-5.3C211.6,418.2,211.8,418,211.9,417.8L211.9,417.8z M226.6,480.2
	c-6.2-4.2-12.2-8.6-19.1-11.6c-1.4-0.6-3.2-2.3-4.5-0.5c-4.7,6.1-8.1,13-9.2,20.7c-0.2,1.2,0.4,2.4,1.5,3c1.5,0.8,2.5-0.1,3.5-1.1
	c0.6-0.6,1.2-1.2,1.7-1.8c2-2.3,3.8-4,5.9,0.1c1.4,2.8,3.4,2.2,4.9-0.2c0.6-1.2,1.1-2.4,1.5-3.7c0.4-1,0.3-2.6,1.9-2.5
	c1.4,0.1,1.6,1.6,1.9,2.6c0.8,2.7,1.3,5.5,2.2,8.2c1.1,3.1,1.4,6.6,4.5,8.7c1.7,1.1,4,1.9,4.3-0.7c1-6.9,3-4.2,5.5-1
	c0.8,1.1,1.9,2,3.4,1.3s1.1-2.3,1-3.6c-0.6-3.8-1.6-7.5-3.1-11c-0.6-1.7-0.5-3.5,1.7-3c5,1.1,3.4-1.7,2.7-4s-2.5-4.3-4-6.2
	s-5.4-2.9-4.9-5c0.6-3,4.8-0.7,7.1-2.4c-2.5-2.5-5.7-2.6-8.7-3.3s-2.9-1.9-1-3.6c1.5-1.4,3.8-2.2,4.2-5.4
	c-7.2,1.6-14.1,4.2-20.7,7.5c-3.2,1.7-2.9,2.8,0.3,4.4c6.5,3.2,12.3,7.2,16.1,13.6L226.6,480.2z M174,442.9
	c-4.1,3.2-8.2,1.4-11.7,2.6c-2.1,0.8-6.2-0.3-5.8,3c0.3,2.7,4,2.1,6.4,2c0.2,0,0.3,0.5,0.6,1c-1.3,1.4-2.7,2.8-4,4.2
	c-0.7,0.5-0.9,1.5-0.5,2.3c0.6,1.1,1.7,0.8,2.6,0.4c1.2-0.5,2.4-1.2,3.6-1.6c2.9-1.1,5.2-1.3,5.5,2.9c0.2,3.4,2.4,2.8,4.2,1.4
	c2.9-2.2,5.3-5.1,8.4-7.1c3.5-2.2,3-4.1,1-7.1c-4.5-6.9-10.8-12-17.9-17.6c4.3-0.1,6.7,1.6,9,3.3c5.4,4,10.4,8.4,13.9,14.1
	c1.2,2,2,2.4,3.4,0.2c2.2-3.7,4-7.7,5.4-11.8c0.7-1.8,0.1-3.4-1.9-3c-5.2,1-5.8-1.9-6-5.9c0-1.1-0.1-2.7-1.5-3.4
	c-4,3.6-3.9,3.6-5.6-1.6c-0.5-1.4-0.4-3.4-3-3.8c-0.4,3.1-0.9,6-1.3,8.9c-0.2,1.1,0.3,2.7-1.1,3c-1.8,0.5-2-1.4-2.6-2.5
	c-2.1-3.6-3.5-7.6-7-10.6c-1,2.5-0.4,4.7-0.6,6.8c-0.1,1,0,2.1-1.2,2.4c-0.9,0.2-1.5-0.5-2-1.2c-1.8-2.3-4.1-4.3-6.6-5.8
	c-1-0.5-2.2-1.1-3.2-0.1c-0.8,0.9-0.1,2,0.4,2.8c1.4,2.2,2.9,4.4,4.5,6.6c1.3,1.9,1.2,2.9-1.3,3.2c-1.8,0.2-4.1,0.2-4.2,2.6
	c0,2.1,2.1,2.8,3.8,3.4C162.9,439,168,440.8,174,442.9z M227,386.7c-0.4,7.6-3.8,14.4-6,22.2c6.3-1.9,12-3.4,16.9-6.9
	c-0.9-1.9-3.8,0-4-2.3c-0.2-1.9,1.6-2.8,2.9-3.7c2.7-1.9,4.3-4.6,6-7.3c0.4-0.6,1-1.5,0.1-2.2c-0.6-0.2-1.3-0.2-1.8,0
	c-0.9,0.4-1.7,1-2.6,1.4s-2.1,1.6-3.1,0.4c-0.8-0.9,0-1.9,0.4-2.8c1.8-4.3,3.1-8.8,2.8-13.5c-0.1-1.4,0.6-3.4-1-4.1
	c-1.6-0.7-2.5,1.2-3.5,2.2c-2.7,2.6-4,6.1-5.7,9.3c-0.6,1-1.1,2.2-2.5,2.1c-1.2-0.1-1.2-1.4-1.6-2.3c-1.2-2.5-2.2-5.1-4.7-7
	c-2.8,5.1-0.8,10-0.5,14.9c0.1,1.7,1.8,3.9-0.2,5c-1.8,1-2.6-1.5-3.9-2.4c-0.8-0.5-1.4-1.6-2.5-1.1c-0.5,0.4-0.7,1.1-0.6,1.7
	c0.3,5.7,2.4,11.2,6.1,15.7C220.9,399,223,392.5,227,386.7L227,386.7z M239.2,437.3c1.1-2.9-2.5-5.8-0.6-7.6s5.4-0.3,8.2-0.6
	c1.3-0.2,2.9,0,3.3-1.6s-1.3-2.2-2.4-2.7c-3.2-1.2-6.4-2.2-9.6-3.3c0.9-2.7,4.2-2,4.8-4.4c-1-1.2-2.2-0.6-3.3-0.8
	c-2.2-0.4-5.1,2.4-6.4,0c-1.1-2.1,3.2-2.8,3.9-5.8c-6.1,0.4-11.4,2.4-16.5,5c-1.2,0.6-2.9,1-2.6,2.6c0.3,1.8,2.1,1.1,3.3,1.3
	c3.9,0.7,7.9,0.8,10.8,4.2c-4.1-0.3-8.2-0.9-12.2-1.8c-1.3-0.3-2.7-0.3-3.6,1s0.1,2.2,0.6,3.2c1.9,4.1,5.4,6.7,8.7,9.5
	c1.9,1.6,3.9,1.7,3.6-1.8c-0.1-1-0.4-2.1,0.8-2.6c1.4-0.6,2,0.6,2.9,1.3C235.2,433.5,235.9,436.8,239.2,437.3L239.2,437.3z"/>
<path class="st2" d="M865.4,251c0.2-11.1,4-19.1,11-25.7c2.6-2.4,3.5-11.9,1-14.4c-9.8-9.3-12.6-20.4-7.8-32.7
	c4.9-12.6,15-20.5,28.2-21.8c17.5-1.8,34.4-5,50.7-11.9c8-3.4,18.9-2.1,24,7.2c0.9,1.5,2.4,1.6,3.8,2.1c8.3,3,12.7,10.4,10.7,18.9
	c-1,4.3-1.1,7.9,0.8,12.3c2.7,6.4,0.4,12.8-3.4,18.4c-3.6,5.2-8.5,9.3-13.2,13.5c-6.8,5.9-12.6,12.7-18.7,19.2
	c-4,4.4-7.7,9.1-12.3,13c-12.9,10.7-29.8,8.5-38.9-5.3c-1.1-1.6-2.1-2.7-4.2-3c-5.1-0.7-9.5-2.9-12.7-7.2c-1.7-2.4-2.4-1.2-3,0.9
	c-2,7.1-1.9,14.6,0.1,21.6c1.3,4.7-0.4,7-5.9,8.9c-4.6,1.6-6.8,0-8-4.4C866.6,257.1,865.1,253.5,865.4,251z M922.6,245L922.6,245
	c-1.4,3.1-5.3,2.4-7.3,4.7c0.4,1.2,1.5,1.3,2.5,1.6c7.3,2.2,17.7-1.5,23.2-8.4c2.8-3.5,5.3-7.3,8.1-10.8
	c8.3-10.5,18.2-19.3,28.6-27.8c7-5.7,9-12.1,6.7-21.3c-2.6,3.5-5,6.8-7.6,10c-2.7,3.3-6.2,5.8-10.1,7.4c-0.7-2,2.4-2.1,1.3-4.2
	c-6.2,1.9-10.8,7.3-17.6,8.1c1-2.7,2.9-4.9,5.4-6.3c4.3-2.6,8.7-4.9,12.9-7.6c5.3-3.4,10.8-6.8,13.1-13.2c1.9-5.4,2.6-11-1.5-15.6
	c-4-4.6-9.5-5.4-15.1-3.3c-6.7,2.5-13.3,5.3-20,7.9c-4.8,1.9-9.7,3.6-14.5,5.4c7.7-6.6,17.2-9.6,25.6-14.9c-1.2-1.1-2.2-0.4-3.2-0.5
	l-0.5-0.5c4.2-3.4,9.8-3,15.2-4.7c-4-3.5-8.6-1.9-12.5-3.4c-3.2-1.2-7.8,1-11.3,2.9c-12,6.3-25.4,9.5-38.9,9.3
	c-9.9,0-18.9,3.1-25.7,10.3c-7.4,7.9-13.1,17.2-6.2,28.1c2.8-5.4,3.4-12,9.4-16.4c-2.6,8.2-9.3,14.4-6.7,23.2
	c3-6.7,6-13.2,11.4-18.4c5.4-5.1,10.8-9.4,19.6-11c-6.3,4.8-12.6,7-17.2,11.6c-7,6.9-9.4,11-9.1,15.9c12.1-16.8,25.1-26.2,34.9-25.2
	c-0.7,1.4-2,2.3-3.5,2.5c-6.3,1.6-11.5,5.4-16.3,9.4c-9.2,7.7-14.2,17.3-12.9,29.8c1.2,10.7,8.7,17.9,19.4,17.2
	c11.6-0.8,20.7-6.6,28.3-15.1c1.6-1.8,2.9-4,6.5-4.9c-1.6,6.2-5.4,11.5-10.6,15.2c-5.8,4.3-12,7.7-19.5,8.3
	c-0.8,0.1-2.8-0.2-2.2,1.7c0.4,1.1,1.5,1.7,2.7,1.4c0.1,0,0.1-0.1,0.2-0.1c0.8-0.2,1.5-0.7,2.3-0.9c7.6-1.8,13.6-6.7,20.5-9.9
	l0.4,0.4c-4.9,5.8-12,8-18.5,11.3c-1.1,0.6-3.7,0-3,2.2c0.6,1.8,2.7,1.5,4.4,1.2C916.8,247.4,919.3,245.1,922.6,245z M870.2,244
	c-2.1,3.7-1.1,7-0.7,10.4c0.5,4.8,2.3,4.5,5.8,3c2.1-1,2.8-2.1,2.2-4.2c-1.2-3.9-0.7-7.9-0.8-11.8c0-1.3,0.8-3-1.1-3.7
	c-3.4,3.4-0.9,8.4-3.2,12.3C869.9,248.4,871.4,246,870.2,244L870.2,244z M872.8,261.7c2.9,0.5,4.7,0,6.5-1.8
	C876.2,259.5,876.2,259.5,872.8,261.7L872.8,261.7z M877.1,233.8c-0.2,0.2-0.5,0.5-0.5,0.7s0.3,0.5,0.4,0.7c0.2-0.2,0.5-0.5,0.5-0.7
	S877.2,234.1,877.1,233.8L877.1,233.8z M959.8,155.6c-0.3-0.1-0.5-0.4-0.8-0.4s-0.5,0.3-0.7,0.4c0.2,0.1,0.5,0.4,0.7,0.4
	C959.2,156,959.5,155.7,959.8,155.6L959.8,155.6z M879,206.8l-0.1,0.3l0.5,0.1c0-0.1,0-0.3-0.1-0.4
	C879.2,206.7,879.1,206.8,879,206.8z"/>
<path class="st2" d="M537.6,874.9c-16.8-0.9-32.8-7.7-45.1-19.2c-13.6-12.4-17.3-28.2-18.6-45.2c-1.3-17.3,5.2-32.6,14.8-46.4
	c9.9-14.3,33.6-18.8,48.7-10.3c4.7,2.5,9.2,5.4,13.5,8.5c6.5,5,14,7.8,22,10c10.5,2.8,20.7,7,27.4,16.3c9.6,13.1,9.4,27.5,3.9,41.9
	C592.8,860,570.2,873.6,537.6,874.9z M478.5,808.4c-1.6,28.1,15.2,49.4,37.1,58.1c32.3,12.8,75.4-1.2,86.6-42.3
	c5.9-21.8-3.1-39.4-24.3-46.6c-4.9-1.6-10-2.3-14.8-4.5c-9-4.1-16.6-10.4-25.1-15.3c-15.5-9-35.2-5.2-46.2,8.9
	C481.9,779.1,478,793.2,478.5,808.4z"/>
<path class="st2" d="M287.7,131.9c9.6,0,20.6,9.7,20.3,17.9c-0.4,14.3-8.8,25.2-19.4,25.1c-11.1-0.1-22.3-6.7-20.9-21.9
	C268.7,141.9,275.7,131.5,287.7,131.9z M303.6,153.1c0-9.4-7.5-17.8-16-17.7c-8.8,0.1-16.5,8.7-16.6,18.6
	c-0.1,9.6,6.8,17.1,15.8,17.1C296.1,171.1,303.5,163.2,303.6,153.1L303.6,153.1z"/>
<path class="st2" d="M298.8,796.9c-8.9,0.4-18.8-8-17.9-19c1.4-16.7,5.4-23.7,20.2-23.9c11.1-0.2,18.8,9.1,18.6,21.5
	S310.6,797,298.8,796.9z M301,757.9c-9.7-0.2-16.8,7.1-17.2,17.5c-0.3,9.8,6.5,17.5,15.6,17.7s16.7-7.7,17-17.8
	C316.7,765.8,309.7,758,301,757.9L301,757.9z"/>
<path class="st2" d="M1034.5,366.2c0.2-14.2,8.4-24.2,19.8-24c11,0.2,19.4,9.7,19.1,21.9c-0.3,12.4-9.3,21.9-20.6,21.8
	C1042.7,385.8,1034.4,376.9,1034.5,366.2z M1069.7,363.6c0-9.8-6.7-17.4-15.6-17.4c-9.1-0.1-16.5,8.1-16.5,18.4s6.5,17.4,15.8,17.4
	C1062.9,382.1,1069.6,374.5,1069.7,363.6z"/>
<path class="st2" d="M827.6,810.8c0,15.6-13.5,26.1-26.9,20.8c-5.1-2-9.2-5.5-10.8-11c-2.6-8.5-1-16.6,3.8-23.8
	c4.4-6.6,13.5-8.7,21.5-5.9C822.5,793.6,827.6,801.6,827.6,810.8z M791.7,812c-0.1,9.8,6.4,17,15.6,17.1s16.8-7.7,17-17.8
	c0.2-9.6-6.9-17.3-16.2-17.4C798.7,793.8,791.8,801.4,791.7,812z"/>
<path class="st0" d="M58.7,206.6c-0.1,8.9-2.6,17.5-3.2,26.4c-1.1,19.5-1.6,38.9,0.1,58.3c1.1,13.6,2.9,27.1,4.3,40.6
	c0.5,4.6,2.8,9,1.7,13.8l-1.4,0.3c-1.4-8.1-3.4-16.2-4.1-24.4c-2.2-24.6-4.1-49.3-3.2-74.1c0.5-13.9,1.9-27.8,2.9-41.7
	c0-0.9,0.6-1.6,1.5-1.7C57.5,205.1,57.1,206.4,58.7,206.6z"/>
<path class="st2" d="M993.5,873.9c-0.1-8.8,2.3-13,7-14c5.2-1,9.9,1.9,12.2,7.3c1.8,4.2-0.3,7.5-2.6,10.5c-3.3,4.4-8.3,7-12.4,10.6
	c-1.9,1.7-3.1,1-3-1.4C995.1,882,993.7,877.1,993.5,873.9z M1002.7,880c7-2.9,9.6-8.5,5.6-14.2c-0.4,5.8-4.5,9.3-5.8,14.1
	c-0.2,0.3-0.4,0.7-0.6,1c0.1,0.1,0.2,0.2,0.3,0.2L1002.7,880z M997.7,881.7l1.3,0.3c2.4-4.9,4.8-9.7,7.1-14.7c0.6-1.3,1.2-3.1-0.6-4
	c-1.6-0.8-2.3,0.8-2.9,2C999.7,870.4,998.5,876,997.7,881.7z M996.1,875.5c0.6-4.7,3.9-8.4,5.4-13.6
	C994.7,865.1,995.5,870.4,996.1,875.5L996.1,875.5z"/>
<path class="st0" d="M32.8,442.4c1.9,7.1,3.8,14.2,5.7,21.6c1.7,0.5,0.8-1.6,1.7-2.1c1.9,1.9,1.6,4.6,2.4,6.9
	c-1.1,2-0.6,4.1-0.3,6.2c0.8,5,1.4,10,2.1,15c-3.7-9.8-6.8-19.8-9.5-30c-1.6-5.8-4.5-11.3-4.7-17.5L32.8,442.4z"/>
<path class="st0" d="M45.7,520.4c4.1,12.7,7.4,25.7,10.2,38.8c0.6,2.5,1.1,5.1,1.8,7.6c-5.9-15.1-10.1-30.8-14.7-46.3L45.7,520.4z"
	/>
<path class="st0" d="M94.4,481.6c4,4,4.5,9.3,5.4,14.4l0,0c-1.5,1-1.6,2,0,3l0,0c-0.7,4.1,0.4,8,1.8,11.7c1.6,4.4,2,9,2.8,13.6
	c-3.8-9.1-6.3-18.7-8.6-28.3c-1.1-4.6-3.7-9-2.7-14C93.3,481.2,93.6,480.7,94.4,481.6z"/>
<path class="st0" d="M50.5,142.4c0.1,0.6-0.2,1.2-0.8,1.4c-2,0.8-3.4,0.6-2.5-2c3.6-9.7,6.7-19.6,11.9-28.6l2.7-0.1
	c0.3,3.8-2.4,6.6-3.8,9.6c-2.5,5.3-2.7,11.6-7.2,15.9C49.6,139.7,49.3,141,50.5,142.4z"/>
<path class="st0" d="M62.8,171.7c-1.2,9.8-3.3,19.4-5.5,29l-1.7-0.3c-0.3-2.2,0.7-4.5-0.5-6.6c0.8-6.8,3.5-13,5.4-19.5
	C60.8,173.2,60.8,171.4,62.8,171.7z"/>
<path class="st0" d="M51.8,373l2-0.2c1.6,9.6,3.2,19.2,4.8,28.8c-0.4,0.7-0.8,1.4-1.2,2.1c-2.7-1.7-1.6-4.6-1.8-6.7
	C54.7,388.9,51.3,381.2,51.8,373z"/>
<path class="st0" d="M81,514.2c2,1.8,1.4,4.2,1.8,6.4c-2.2,0.5-1.5-1.4-2.2-2c-1.5-1.4-1.2,0.4-1.5,1c-0.9,0.4-2.2-0.1-2.1-0.5
	c1.1-5.5-2.6-10.5-2-16.1c3.7,1,1.4,6.3,5.3,7c0.8,0.5,0.6,1.2,0.4,1.9c-1.3,0.8-0.9,1.9-0.7,3L81,514.2z"/>
<path class="st0" d="M21.3,380c2.8,7.8,3.2,16.1,4.1,24.3c-3.7-7.7-4.8-16-6.1-24.3H21.3z"/>
<path class="st0" d="M15.8,177.5c0.4,7.8-2.8,14.9-3.2,22.5c0,0.9-0.5,2.1-1.7,2c-1.1-0.1-1.1-1.2-1-1.9
	C10.8,192.3,13.4,185,15.8,177.5z"/>
<path class="st0" d="M119.6,579.3l-1.6,0.1c-2.8-8.1-4.7-16.4-5.7-24.9C115.6,562.5,118,570.8,119.6,579.3z"/>
<path class="st0" d="M32.7,433.3l-1.7,0.4c-2.1-6-2.8-12.3-3.5-18.6C29.8,421,32.9,426.7,32.7,433.3z"/>
<path class="st0" d="M10,338.2c-2.5-1.5-1.3-4.2-0.9-5.8c0.9-3.6-1.6-7.3,0.9-12c2.2,6,1.2,11.3,2.5,16.2
	C11.7,337.1,10.8,337.6,10,338.2z"/>
<path class="st0" d="M15,217.3c-0.8,0.4-0.9-0.1-0.9-0.7c-1.1-6,1.7-11.2,3.2-16.7C16.7,205.7,17.6,211.7,15,217.3z"/>
<path class="st0" d="M20.1,402.7v0.2c-3.8-2.1-1.7-5.8-2.5-8.8C19.6,396.6,21.1,399.3,20.1,402.7z"/>
<path class="st0" d="M5.3,323c0.5,0.2,0.7,0.8,0.5,1.3c0,0.1-0.1,0.2-0.1,0.2c-3.5,1.5-1.1,4.7-2.2,6.9c-1.2-2.9-1.6-6.1-1.1-9.2
	L5.3,323z"/>
<path class="st0" d="M80.9,437.6c0.5-0.4,0.9-0.8,1.6-0.3c2.5,2.9,0.4,6.5,2,9.6C82.9,443.9,80.5,441.2,80.9,437.6z"/>
<path class="st0" d="M115.3,658.5c1.2,1.7,1.6,3.9,1,5.9c-1.9-0.8-2.3-2.2-2.3-4C114.4,659.8,114.9,659.1,115.3,658.5z"/>
<path class="st2" d="M178.4,764.6l-1.2-0.1c-0.7-2.3-1.5-4.6-1-7.6C178.1,759.4,179.1,761.8,178.4,764.6z"/>
<path class="st0" d="M2.5,225.7c-0.5-2.4-0.2-5,1-7.1C3.7,221,4.4,223.5,2.5,225.7z"/>
<path class="st0" d="M1.4,237.7c-0.4-2.4-0.2-4.8,0.6-7.1C2.7,233,3.4,235.5,1.4,237.7z"/>
<path class="st0" d="M43,510.5c1.6,2.1,1.8,4.6,2,7.1C43.2,515.6,43,513.1,43,510.5z"/>
<path class="st0" d="M17.8,371.2c1.2,0.1,1.3-1.1,2-1.7c1.4,1.1,1,2.6,0.9,4c-0.8-0.5-1.9-0.3-2.5,0.5
	C17.6,373.2,17.5,372.2,17.8,371.2z"/>
<path class="st0" d="M4,240.3c0.6,0.6,0.4,1.1-0.2,1.5l-2.7-0.2l0.1-1.3L4,240.3z"/>
<path class="st0" d="M4.1,338.5c-0.6-0.9-0.7-2-0.2-2.9c0.9,0.7,1,1.9,0.3,2.8C4.1,338.4,4.1,338.5,4.1,338.5z"/>
<path class="st0" d="M66.7,103.2c0.1-1.3,0.2-2.7,0.3-4c-0.1-0.3,0-0.7,0.2-0.9C70.6,100.3,67.3,101.6,66.7,103.2z"/>
<path class="st0" d="M14.2,224.6c-0.5-1.1-0.7-2.2,0.6-3C15.6,222.8,16,223.9,14.2,224.6z"/>
<path class="st0" d="M53.1,366.5c-1-0.6-1-1.4-0.5-2.2C53.8,364.9,53.9,365.6,53.1,366.5z"/>
<path class="st0" d="M19.1,364.1c-0.8-0.6-1.1-1.8-0.6-2.7C19.9,362,19.7,363,19.1,364.1z"/>
<path class="st0" d="M110.1,636.3c0.8,0.4,1.1,1.4,0.7,2.2c0,0,0,0.1-0.1,0.1c-0.8-0.4-1.1-1.3-0.7-2.1
	C110,636.5,110.1,636.4,110.1,636.3z"/>
<path class="st0" d="M111.4,641.5c0.8,0.4,1.1,1.3,0.8,2.1C110.7,643.3,110.5,642.6,111.4,641.5z"/>
<path class="st0" d="M9.3,217.7c-0.3-0.6-0.4-1,0.4-1.2c0.2,0.2,0.5,0.4,0.5,0.6C10.2,217.6,9.9,217.9,9.3,217.7z"/>
<path class="st0" d="M20.2,407.5c1.2,0.5,0.8,1.2,0.4,2C18.9,409.2,19.2,408.4,20.2,407.5z"/>
<path class="st0" d="M114,653.4c0.8,0.2,0.9,0.7,0.5,1.3c-0.4-0.1-0.7-0.5-0.6-1C113.9,653.6,113.9,653.5,114,653.4z"/>
<path class="st0" d="M3.8,214.6c-0.1-0.3-0.1-0.5-0.2-0.8c0-0.1,0.2-0.2,0.3-0.3C4.5,213.9,4.4,214.3,3.8,214.6z"/>
<path class="st0" d="M4.5,210.8c-0.6-1.2-0.2-1.5,1-1.1C5.8,210.5,5.5,211,4.5,210.8z"/>
<path class="st0" d="M119.7,585.6c1.1,0.3,1.1,1,0.7,1.9C118.7,587.5,118.8,586.7,119.7,585.6z"/>
<path class="st0" d="M99.7,496c0.8,0.9,0.8,2.1,0,3l0,0V496z"/>
<polygon class="st0" points="85.1,450.1 85.3,449.8 85.4,450.1 "/>
<path class="st0" d="M9.5,203.3l0.2,0.6H9.3l-0.7-0.4L9.5,203.3z"/>
<polygon class="st0" points="50.9,368.6 51.1,368.6 50.9,368.6 "/>
<path class="st0" d="M44.3,489.9c-0.7-5-1.3-10-2.1-15c-0.3-2.1-0.8-4.2,0.3-6.2c0.2,1.2,0.4,2.5,0.6,3.7c0.5,1.8,0,3.9,1.8,5.2
	c8.5,24.8,14.8,50.2,20.2,75.8c0.9,4.4,1.9,8.7,2.9,13.1c0.6,3,0.3,6.3,3.2,8.6c0.8-1.4,0.9-3.1,0.3-4.6c-0.6-1.6-0.6-3.3-0.1-4.9
	l1.2-0.2l0.5,2.8c-0.4,1-0.5,1.9,0.7,2.4c1.3,4.7,2,9.6,2,14.4c0,0.7,0,0.7-1.4,0.4c0.2-0.8-0.1-1.2-0.8-1.3
	c-0.3-1.1-0.6-2.2-0.8-3.3c0.1-1.1-0.3-2.3-1.3-2.2c-1,0.2-0.9,1.5-0.5,2.5c0.9,3.6,1.2,7.4,0.8,11.1c-0.2-0.1-0.5-0.1-0.7,0.1
	c-0.2-0.9-0.4-1.8-0.7-2.6c0.5-0.8,0.2-1.2-0.5-1.5l-0.5-2.8c0.8-1.1,0.6-1.9-0.9-2.1c-7.6-29-15.1-58.1-22.7-87.1
	c-0.2-0.8-0.2-1.6-0.4-2.5c0.4-0.6,0.2-1-0.5-1.3L44.3,489.9z"/>
<path class="st0" d="M5.3,323l-3-0.7l-0.3-3.9c0.6-2.7,1.3-5.5-0.6-8c-0.7-5.6-0.9-11.2-0.7-16.9l2.5,0.1l0.6,11.9
	c-1.1,0.8-1.1,1.6,0.2,2.2L5.3,323z"/>
<path class="st0" d="M2.7,260.5c0,8,0,16,0,24c-1.9,2.3,0.6,5.7-1.9,7.9c-0.9-12.6-0.9-25.3,0-37.9C2.8,256.1,0.9,258.9,2.7,260.5z"
	/>
<path class="st0" d="M1.1,241.7l2.7,0.2c-0.2,3.5-0.4,7-0.6,10.6l-2.5,0.1L1.1,241.7z"/>
<path class="st0" d="M0.7,292.5c2.5-2.2,0-5.6,1.9-7.9c1.3,3,0.8,6,0.6,9.1l-2.5-0.1c-0.1-0.2-0.2-0.5-0.2-0.7
	C0.5,292.7,0.6,292.6,0.7,292.5z"/>
<path class="st0" d="M0.7,252.6l2.5-0.1c0.3,2.8,0.6,5.5-0.6,8.1c-1.7-1.6,0.2-4.5-2-6L0.7,252.6z"/>
<path class="st0" d="M71.5,570.6c0.6,1.5,0.5,3.2-0.3,4.6c-2.9-2.3-2.6-5.7-3.2-8.6C69.7,567.4,68.5,570.9,71.5,570.6z"/>
<path class="st0" d="M1.5,310.4c1.9,2.5,1.2,5.3,0.6,8C1.3,315.8,1,313.1,1.5,310.4z"/>
<path class="st0" d="M44.9,477.6c-1.7-1.4-1.3-3.5-1.8-5.2C44.8,473.8,44.6,475.8,44.9,477.6z"/>
<path class="st0" d="M70.9,592.5c0.2-0.2,0.5-0.2,0.7-0.1c0,0.6,0.1,1.2,0.1,1.8C70.9,593.9,70.7,593.3,70.9,592.5z"/>
<path class="st0" d="M70.9,581.3c-0.4-1-0.5-2.3,0.6-2.5s1.5,1.1,1.3,2.2L70.9,581.3z"/>
<path class="st0" d="M73.9,570.7c-1.3-0.5-1.2-1.4-0.7-2.4C74.1,568.9,74.5,569.6,73.9,570.7z"/>
<path class="st0" d="M68.3,583.4c1.5,0.2,1.6,0.9,0.9,2.1C68.4,585.1,68,584.2,68.3,583.4z"/>
<path class="st0" d="M69.7,588.3c0.7,0.3,1,0.8,0.5,1.5C69.5,589.5,69.3,589,69.7,588.3z"/>
<path class="st0" d="M73.6,584.3c0.8,0.1,1.1,0.5,0.8,1.3C73.7,585.4,73.2,585.1,73.6,584.3z"/>
<path class="st0" d="M72.6,565.5l-1.2,0.2c-0.6-0.6,0-0.7,0.4-0.8C72.2,564.8,72.7,564.8,72.6,565.5z"/>
<path class="st0" d="M81,514.2l-1,0.7c-0.1-1.1-0.5-2.3,0.7-3L81,514.2z"/>
<path class="st0" d="M44.9,492.5c0.7,0.2,0.8,0.7,0.5,1.3C44.6,493.5,44.4,493.1,44.9,492.5z"/>
<path class="st0" d="M83.1,523.3c-0.1-0.1-0.2-0.3-0.2-0.4s0.3-0.2,0.4-0.3c0,0.2,0,0.3,0,0.5C83.4,523.2,83.2,523.2,83.1,523.3z"/>
<path class="st2" d="M1060.2,643c-0.3,9.7-3.1,19.2-2,29c1.2,10.3,7.2,17.8,14.8,25.3C1057,693.9,1050.5,665.3,1060.2,643z"/>
<path class="st0" d="M63.7,105.1c1.7,0.3,1.6-2,3.1-2c-0.2,2.2-0.8,4.2-3.1,5.1L63.7,105.1z"/>
<path class="st0" d="M61.7,113.1c-0.4-2.1,0.8-3.7,2.1-5.1C64.3,110,63.4,112.1,61.7,113.1z"/>
<path class="st0" d="M40.7,172.9c0.2,1.6-0.4,3.3-1.6,4.4c-0.7-1.9-1.4-3.8,0.1-5.7L40.7,172.9z"/>
<path class="st0" d="M37.8,182.9c-0.5-1.9-0.9-3.6,0.8-5.5C39.7,179.7,38.9,181.4,37.8,182.9z"/>
<path class="st0" d="M37.1,188.2c-1.6-1.7-0.8-2.9-0.2-4.4C38.5,185.5,37.5,186.7,37.1,188.2z"/>
<path class="st0" d="M50.5,142.4c-1.2-1.4-0.9-2.7,0.4-3.8C51.6,139.9,50.8,141.1,50.5,142.4z"/>
<path class="st1" d="M227,479.7c-3.8-6.5-9.6-10.5-16.1-13.6c-3.1-1.5-3.5-2.7-0.3-4.4c6.5-3.4,13.5-5.9,20.7-7.5
	c-0.4,3.1-2.6,3.9-4.2,5.4c-1.9,1.8-1.9,3,1,3.6s6.2,0.8,8.7,3.3c-2.4,1.7-6.5-0.5-7.1,2.4c-0.5,2.2,3.4,3.1,4.9,5s3.3,3.8,4,6.2
	s2.4,5.1-2.7,4c-2.2-0.5-2.3,1.3-1.7,3c1.4,3.5,2.5,7.2,3.1,11c0.2,1.3,0.6,2.8-1,3.6s-2.6-0.2-3.4-1.3c-2.5-3.3-4.5-6-5.5,1
	c-0.4,2.6-2.6,1.8-4.3,0.7c-3.1-2.1-3.4-5.6-4.5-8.7c-0.9-2.7-1.5-5.5-2.2-8.2c-0.3-1.1-0.5-2.5-1.9-2.6c-1.6-0.1-1.5,1.4-1.9,2.5
	c-0.4,1.3-0.9,2.5-1.5,3.7c-1.5,2.3-3.5,3-4.9,0.2c-2.1-4.1-3.9-2.3-5.8-0.1c-0.5,0.6-1.1,1.2-1.7,1.8c-1,1-2,1.9-3.5,1.1
	c-1.1-0.6-1.7-1.8-1.4-3c1.1-7.8,4.4-14.6,9.1-20.7c1.3-1.7,3.2,0,4.5,0.5c6.9,3,12.9,7.5,19.1,11.6c0.4,0.4,0.8,1,1.4,0.3
	L227,479.7z"/>
<path class="st1" d="M174,442.9c-6-2.1-11.2-3.9-16.3-5.7c-1.7-0.6-3.9-1.3-3.8-3.4c0-2.4,2.4-2.4,4.2-2.6c2.6-0.3,2.7-1.4,1.3-3.2
	c-1.6-2.1-3.1-4.3-4.5-6.6c-0.5-0.8-1.2-1.9-0.4-2.8c1-1.1,2.2-0.5,3.2,0.1c2.6,1.5,4.9,3.5,6.8,5.8c0.6,0.6,1.1,1.4,2,1.2
	c1.2-0.3,1.2-1.4,1.2-2.4c0.2-2.1-0.4-4.3,0.6-6.8c3.5,3,4.9,7,7,10.6c0.6,1.1,0.8,2.9,2.6,2.5c1.4-0.4,0.9-1.9,1.1-3
	c0.4-2.9,0.9-5.8,1.3-8.9c2.6,0.4,2.6,2.4,3,3.8c1.7,5.2,1.6,5.2,5.6,1.6c1.4,0.7,1.5,2.2,1.5,3.4c0.1,4,0.8,6.9,6,5.9
	c2-0.4,2.5,1.2,1.9,3c-1.4,4.1-3.2,8-5.4,11.8c-1.4,2.2-2.2,1.8-3.4-0.2c-3.5-5.8-8.6-10.1-13.9-14.1c-2.3-1.7-4.8-3.4-9-3.3
	c7.1,5.7,13.4,10.7,17.9,17.6c2,3,2.5,4.9-1,7.1c-3,2-5.5,4.8-8.4,7.1c-1.8,1.4-4,2-4.2-1.4c-0.3-4.2-2.6-4-5.5-2.9
	c-1.2,0.5-2.4,1.1-3.6,1.6c-0.9,0.4-2,0.7-2.6-0.4c-0.4-0.8-0.1-1.7,0.6-2.3c1.3-1.5,2.7-2.9,4-4.2c-0.3-0.5-0.5-1-0.6-1
	c-2.4,0.1-6.1,0.7-6.4-2c-0.4-3.3,3.7-2.3,5.8-3C165.8,444.2,170,446.1,174,442.9z"/>
<path class="st1" d="M227,386.7c-4,5.8-6.1,12.3-9,19.3c-3.7-4.4-5.8-9.9-6.1-15.6c-0.1-0.6,0.2-1.3,0.6-1.7
	c1.1-0.5,1.7,0.6,2.5,1.1c1.3,0.9,2.1,3.4,3.9,2.4c2-1.1,0.3-3.3,0.2-5c-0.4-4.8-2.4-9.7,0.5-14.9c2.5,1.9,3.5,4.5,4.7,7
	c0.4,0.9,0.4,2.2,1.6,2.3c1.4,0.1,1.9-1.1,2.5-2.1c1.7-3.2,3.1-6.7,5.7-9.3c1-1,1.8-3,3.5-2.2s0.9,2.7,1,4.1c0.3,4.8-1,9.2-2.8,13.5
	c-0.4,0.9-1.2,1.9-0.4,2.8c1.1,1.2,2.1,0,3.1-0.4s1.7-1.1,2.6-1.4c0.6-0.2,1.3-0.2,1.8,0c0.9,0.6,0.3,1.5-0.1,2.2
	c-1.7,2.6-3.3,5.4-6,7.3c-1.4,0.9-3.1,1.8-2.9,3.7c0.2,2.3,3.1,0.4,4,2.3c-5,3.5-10.6,5-16.9,6.9C223.2,401,226.6,394.3,227,386.7z"
	/>
<path class="st1" d="M239.2,437.3c-3.3-0.4-4.1-3.8-6.2-5.4c-0.9-0.7-1.6-1.9-2.9-1.3c-1.2,0.5-0.9,1.6-0.8,2.6
	c0.3,3.5-1.6,3.5-3.6,1.8c-3.3-2.8-6.9-5.4-8.7-9.5c-0.5-1-1.4-2-0.6-3.2s2.3-1.2,3.6-1c4,0.9,8.1,1.6,12.2,1.8
	c-2.9-3.4-6.9-3.5-10.8-4.2c-1.2-0.2-3,0.5-3.3-1.3c-0.2-1.6,1.5-2,2.6-2.6c5.1-2.6,10.4-4.6,16.5-5c-0.7,3-5,3.7-3.9,5.8
	c1.2,2.4,4.1-0.4,6.4,0c1.1,0.2,2.3-0.4,3.3,0.8c-0.6,2.4-3.9,1.8-4.8,4.4c3.2,1.1,6.4,2.1,9.6,3.3c1.1,0.4,2.8,1,2.4,2.7
	s-2,1.5-3.3,1.6c-2.8,0.4-6.2-1.3-8.2,0.6S240.3,434.4,239.2,437.3z"/>
<path class="st1" d="M211.4,418.3c0.3,2.1,1.1,4.7-1.9,5.3s-6.4,1.4-9.1-0.8c-1.6-1.3-0.3-2.6,0.8-3.8c2-2.2,1.3-3.2-1.4-3.1
	c-2.2,0.1-4.3-0.4-6.2-1.5c-0.7-0.4-2-1.1-2-1.4c2.1-6.3-5.1-6-6.7-9.6c-0.3-0.6-0.5-1.2-0.8-1.8c0.7-0.2,1.2-0.7,1.5-0.5
	c3.9,1.5,7.8,3.5,6.4-4.1c-0.5-2.7,2-1.8,3.4-0.7c3.5,3,6.5,6.6,9,10.4c1.9-0.4,1.4-1.8,1.6-2.8c0.3-1.2,0.8-1.7,2-1
	c2,1.1,6.7,10.5,6.3,12.7c-0.1,1.2-1.1,2.2-2.3,2.2c-2.1-3.9-5.7-6.8-10-8l-1.3-0.4l0.8,0.9C204.2,413.7,207.8,416.1,211.4,418.3z"
	/>
<path class="st1" d="M952.9,156.4c1,0.1,2-0.6,3.2,0.5c-8.4,5.3-17.9,8.3-25.6,14.9c4.8-1.8,9.7-3.6,14.5-5.4
	c6.7-2.6,13.3-5.4,20-7.9c5.7-2.1,11.1-1.3,15.1,3.3s3.4,10.2,1.5,15.6c-2.3,6.4-7.8,9.7-13.1,13.2c-4.2,2.7-8.6,5-12.9,7.6
	c-2.4,1.5-4.3,3.7-5.4,6.3c6.8-0.8,11.4-6.3,17.6-8.1c1.2,2.1-2,2.2-1.3,4.2c3.9-1.6,7.4-4.2,10.2-7.4c2.6-3.1,5-6.5,7.6-10
	c2.3,9.2,0.3,15.6-6.7,21.3c-10.3,8.4-20.2,17.3-28.6,27.8c-2.8,3.5-5.3,7.3-8.1,10.8c-5.5,6.9-15.9,10.6-23.2,8.4
	c-0.9-0.3-2-0.4-2.5-1.6c2-2.3,5.9-1.5,7.3-4.6c1.9-0.1,3.7-0.4,4.6-2.8c-2.9,0.9-2.9,0.9-4.7,2.7c-3.3,0.1-5.8,2.4-8.9,2.9
	c-1.7,0.3-3.8,0.6-4.4-1.2c-0.7-2.2,1.8-1.6,3-2.2c6.4-3.3,13.5-5.5,18.4-11.3c1.6-0.6,3.1-1.4,3.4-3.6c-2.3,0.3-3.1,1.8-3.8,3.2
	c-6.9,3.2-13,8.1-20.5,9.9c-0.8,0.2-1.5,0.7-2.3,0.9c-1.1,0.5-2.3,0-2.8-1.1c0-0.1-0.1-0.1-0.1-0.2c-0.6-1.9,1.4-1.6,2.2-1.7
	c7.4-0.6,13.7-4,19.5-8.3c5.2-3.7,8.9-9.1,10.6-15.2c-3.7,0.9-4.9,3.2-6.5,4.9c-7.6,8.4-16.7,14.3-28.3,15
	c-10.7,0.7-18.2-6.5-19.4-17.2c-1.3-12.4,3.6-22.1,12.9-29.8c4.8-4,10-7.8,16.3-9.4c1.5-0.2,2.8-1.2,3.5-2.5
	c-9.8-1.1-22.8,8.4-34.9,25.2c-0.3-4.9,2.1-8.9,9.1-15.9c4.7-4.6,11-6.7,17.2-11.6c-8.8,1.7-14.3,6.1-19.6,11s-8.4,11.8-11.4,18.4
	c-2.6-8.8,4.1-15,6.7-23.2c-6,4.3-6.6,10.9-9.4,16.4c-6.8-10.9-1.1-20.2,6.2-28.1c6.8-7.3,15.8-10.4,25.7-10.4
	c13.5,0.1,26.9-3.1,38.9-9.4c3.6-1.9,8.1-4.1,11.3-2.9c3.9,1.4,8.5-0.1,12.5,3.4c-5.4,1.7-11,1.3-15.2,4.7l-0.9,1.1l-1.1,0.5
	c0.1,0.1,0.2,0.2,0.2,0.3c0.4-0.2,0.7-0.4,1-0.6L952.9,156.4z"/>
<path class="st1" d="M870.2,244c1.2,2-0.3,4.4,2.2,5.9c2.3-3.9-0.2-8.8,3.2-12.3c1.9,0.7,1,2.4,1.1,3.7c0.1,4-0.3,8,0.8,11.8
	c0.6,2.1-0.1,3.3-2.2,4.2c-3.5,1.6-5.3,1.8-5.8-3C869.1,250.9,868.1,247.6,870.2,244z"/>
<path class="st1" d="M872.8,261.7c3.4-2.3,3.4-2.3,6.5-1.8C877.5,261.7,875.7,262.2,872.8,261.7z"/>
<path class="st1" d="M877.1,233.8c0.2,0.3,0.4,0.5,0.4,0.8s-0.3,0.5-0.5,0.7c-0.2-0.2-0.4-0.5-0.4-0.7S876.9,234.1,877.1,233.8z"/>
<path class="st1" d="M959.8,155.6c-0.3,0.2-0.5,0.4-0.8,0.4s-0.5-0.2-0.7-0.4c0.2-0.1,0.5-0.4,0.7-0.4S959.5,155.4,959.8,155.6z"/>
<path class="st1" d="M879,206.8c0.1,0,0.3,0,0.3,0s0.1,0.2,0.1,0.4l-0.5-0.1L879,206.8z"/>
<path class="st1" d="M478.5,808.4c-0.5-15.2,3.4-29.2,13.2-41.6c11-14.1,30.7-17.9,46.2-8.9c8.5,4.9,16.2,11.1,25.1,15.3
	c4.7,2.2,9.9,2.8,14.8,4.5c21.2,7.2,30.2,24.8,24.3,46.6c-11.1,41.1-54.2,55.1-86.6,42.3C493.7,857.8,476.9,836.5,478.5,808.4z
	 M485.9,815.5c0.6,9.2,2.1,19.5,10.2,27.4c6.6,6.5,15.4,7.8,22.3,3.4c6.9-4.4,9.4-12.7,6.2-21.6c-3.7-10.3-1.8-16.8,6.8-23.7
	c3.1-2.5,6.3-4.9,9.2-7.6c3.1-2.9,4.6-7.2,3.8-11.4c-1.3-8.4-10.1-16.9-18.6-17c-13.3-0.2-24,6.3-31.2,16.7
	C488.1,791.2,486.1,802.7,485.9,815.5z M547.6,805.4c2,8.2-2,15-8.1,21.4c-10.3,10.8-7,28.3,5.9,33.3c9.8,3.8,26.1-0.7,33-8.7
	c10.6-12.3,13.8-26.6,12.1-42.3c-1.8-16.7-12.4-27.3-27-27.3c-6.5,0-11.4,2.8-14.4,8.8C546.9,795.2,547.8,799.9,547.6,805.4
	L547.6,805.4z M535.2,805.7c-6.4,3.4-8.9,11.3-5.6,17.8c0.1,0.2,0.2,0.4,0.3,0.6C529,816.7,530.8,810.9,535.2,805.7L535.2,805.7z
	 M543.3,809.9l-4.2,11.3C543.3,818.3,543.6,814.1,543.3,809.9L543.3,809.9z"/>
<path class="st0" d="M4,307.7c-1.3-0.6-1.3-1.4-0.2-2.2C4.4,306.1,4.5,307,4,307.7z"/>
<path class="st1" d="M303.5,153.1c0,10.2-7.4,18.1-16.8,18.1c-9,0-15.9-7.5-15.8-17.1c0.1-9.9,7.8-18.5,16.6-18.6
	C296,135.3,303.6,143.6,303.5,153.1z M293,165.2c-1-5.9-1-5.9,3.2-6.2c-0.6-1.6-2.3-3-1.2-5c1-1.6,3.9,0,4.3-2.5
	c-6.2-1.1-6.4-1.4-4.4-7.2c-3.9,1.6-7.2,1.3-9.5-3c0.6,5.6-3.1,6.3-6.8,7.2c3.4,4,0.9,7.4-1.7,10.8c5.4,0,5.4,0,6.5,7
	C286.1,159.8,289.4,160.6,293,165.2z"/>
<path class="st1" d="M301,757.8c8.7,0.2,15.7,8,15.5,17.4c-0.2,10.1-7.8,18-17,17.8c-9.2-0.2-15.9-7.9-15.6-17.7
	C284.1,764.9,291.2,757.7,301,757.8z M291.2,770.1c2.7,4.2,2.3,7.6-1.7,10.6c5.9,0.6,5.9,0.6,6.9,6.8c1.3-2,2.4-3.7,4.7-4.3
	c3-0.8,2.4,3.5,4.9,3c-1.6-4.9-1.6-4.9,3.2-5.5c-4.4-4.4,0.3-5.3,3.5-7.5c-6.6,0.6-6.6-2.6-4.1-8c-4.8,3.1-7.8,1.8-10.2-2.1
	C298.4,768.2,295.8,770.1,291.2,770.1L291.2,770.1z"/>
<path class="st1" d="M1069.7,363.6c0,10.8-6.7,18.4-16.2,18.4c-9.3,0-15.9-7.2-15.9-17.4s7.4-18.4,16.5-18.4
	C1062.9,346.3,1069.7,353.9,1069.7,363.6z M1044.2,369.6c4.6-0.1,5.8,2.8,5.5,7.2c2.4-4.8,5.4-5.9,9.5-1.9c-1.1-6.3,1.4-10,6.7-12.8
	c-5.3,0-7.6-1.8-4.3-7.8c-4.6,2.6-7.1,0.7-9.6-2c-0.4,4.1-2.7,5.5-5.8,7c-1.2,0.6,1.6,5.4-0.5,8.2
	C1045.3,368.2,1044.1,368.2,1044.2,369.6L1044.2,369.6z"/>
<path class="st1" d="M791.7,812c0.1-10.6,7-18.2,16.5-18.1c9.2,0,16.4,7.8,16.2,17.4c-0.3,10.2-7.7,18-17,17.8
	S791.6,821.8,791.7,812z M811.4,819.1c0.3,1.1-0.1,2.7,1.8,2.9c0.7-1.7-0.5-2.4-1.5-3.2c0.9-2.7,3.1-1.7,5.7-1.3
	c-5.8-5.3-0.1-6,3.8-8.6c-7.4,0.7-7.8-2.3-4.9-7.4c-4.7,2.4-7.8,1.7-10.4-3.1c0.1,3.9-0.7,6.9-3.4,7.1c-4.3,0.3-2.2,2.3-1.9,4.3
	c0.6,2.5-0.4,5.1-2.5,6.5c-0.1,0,0,0.3,0,0.9c4.7-1,6.1,1.6,5.8,6.1C805.3,820.5,808.3,818.8,811.4,819.1L811.4,819.1z"/>
<path class="st1" d="M997.7,881.7c0.8-5.7,2-11.3,4.9-16.4c0.6-1.1,1.3-2.7,2.9-2c1.8,0.8,1.2,2.7,0.6,4c-2.3,5-4.7,9.8-7.1,14.7
	L997.7,881.7z"/>
<path class="st1" d="M1002.5,879.9c1.3-4.8,5.3-8.3,5.8-14.1c4,5.7,1.3,11.3-5.6,14.2L1002.5,879.9z"/>
<path class="st1" d="M996.1,875.5c-0.5-5.1-1.4-10.4,5.4-13.6C1000,867.1,996.7,870.8,996.1,875.5z"/>
<path class="st1" d="M1002.7,880l-0.5,1.1c-0.1-0.1-0.2-0.1-0.3-0.2c0.2-0.3,0.4-0.7,0.6-1L1002.7,880z"/>
<path class="st0" d="M99.8,496v3C98.1,498,98.2,497,99.8,496z"/>
<path class="st2" d="M227,479.7l1,0.8c-0.6,0.7-1,0.1-1.4-0.3L227,479.7z"/>
<path class="st2" d="M211.4,418.3c-3.7-2.2-7.2-4.6-10-8c0.1-0.2,0.3-0.4,0.5-0.5c4.3,1.2,7.9,4.1,10,8
	C211.8,418,211.6,418.2,211.4,418.3z"/>
<path class="st2" d="M201.4,410.4l-0.8-0.9l1.3,0.4C201.7,410,201.6,410.2,201.4,410.4z"/>
<path class="st2" d="M930.3,232.8c0.7-1.5,1.5-2.9,3.8-3.2c-0.3,2.2-1.7,3-3.4,3.6L930.3,232.8z"/>
<path class="st2" d="M922.6,245c1.8-1.9,1.8-1.9,4.7-2.7C926.3,244.7,924.5,245,922.6,245L922.6,245z"/>
<path class="st2" d="M951.7,157.1c-0.3,0.2-0.7,0.4-1,0.6c-0.1-0.1-0.2-0.2-0.2-0.3l1.1-0.5L951.7,157.1z"/>
<path class="st2" d="M951.5,157l0.9-1.1l0.5,0.5l-1.2,0.7L951.5,157z"/>
<path class="st2" d="M485.9,815.5c0.3-12.9,2.3-24.3,8.8-33.7c7.2-10.4,17.9-16.9,31.2-16.7c8.5,0.1,17.3,8.6,18.6,17
	c0.8,4.2-0.7,8.5-3.8,11.4c-2.9,2.7-6.1,5.2-9.2,7.6c-8.6,6.8-10.5,13.4-6.8,23.7c3.2,8.9,0.8,17.1-6.2,21.6s-15.6,3-22.3-3.4
	C487.9,835,486.4,824.8,485.9,815.5z M510,845.1c2.2,0.1,4.4-0.6,6.2-1.9c6-4,7.3-9.1,4.6-18.1c-3.7-12.3-1-20.1,9.7-27.5
	c2.8-2.1,5.5-4.3,7.9-6.8c2.7-2.4,3.8-6.1,2.9-9.6c-1.3-6.2-5.7-9.6-11.5-11.2c-14.4-4.1-31.4,6.6-36,22.6c-1.2,4.3-2.2,8.7-3,13.1
	c-1.6,9.7-1.1,19.2,2.9,28.3C496.8,840.7,503.1,845.2,510,845.1z"/>
<path class="st2" d="M547.6,805.4c0.2-5.5-0.7-10.2,1.5-14.7c3-6,7.9-8.8,14.4-8.8c14.5,0,25.2,10.6,27,27.3
	c1.7,15.7-1.5,30-12.1,42.3c-6.8,7.9-23.2,12.5-33,8.7c-12.9-5-16.2-22.5-5.9-33.3C545.6,820.4,549.5,813.6,547.6,805.4z M587.6,818
	c0-9.5-2.5-18.4-6.4-23.8c-6-8.3-14.5-11.7-21.9-8.5s-9.9,9.3-8,20.4c1.3,7.5-0.9,13.8-5.6,19.5c-2,2.4-4,4.9-5.7,7.5
	c-6.2,9.4-2.4,21,8.5,24c9.6,2.7,18.8,0.1,26-6.5C583.9,841.5,586.9,829.5,587.6,818L587.6,818z"/>
<path class="st2" d="M535.2,805.7c-4.4,5.1-6.2,11-5.2,18.4c-3.7-6.3-1.6-14.4,4.7-18C534.8,805.9,535,805.8,535.2,805.7z"/>
<path class="st2" d="M543.3,809.8c0.2,4.3-0.1,8.5-4.2,11.3L543.3,809.8z"/>
<path class="st2" d="M293,165.2c-3.6-4.6-6.9-5.3-9.6,1c-1-7.1-1-7.1-6.5-7c2.6-3.4,5.1-6.7,1.7-10.8c3.7-0.9,7.4-1.6,6.8-7.2
	c2.3,4.2,5.6,4.6,9.5,3c-2,5.8-1.8,6.1,4.4,7.2c-0.5,2.6-3.4,0.9-4.3,2.5c-1.2,2,0.6,3.4,1.2,5C292,159.3,292,159.3,293,165.2z
	 M282.5,153.4c0.3,2.7,1.4,4.9,4.5,4.7s4.3-2.5,4.2-5.2c-0.1-2.5-0.6-5.2-4.1-4.9C283.9,148.3,282.6,150.3,282.5,153.4z"/>
<path class="st2" d="M291.2,770.1c4.6,0,7.2-1.9,7.1-7c2.4,3.9,5.4,5.1,10.2,2.1c-2.5,5.4-2.5,8.6,4.1,8c-3.2,2.2-7.9,3-3.5,7.5
	c-4.7,0.7-4.7,0.7-3.2,5.5c-2.6,0.6-2-3.7-4.9-3c-2.3,0.6-3.4,2.3-4.7,4.3c-0.9-6.2-0.9-6.2-6.9-6.8
	C293.5,777.8,293.9,774.3,291.2,770.1z M303.9,774.6c-0.1-2.5-0.3-4.9-3.6-4.8c-3.6,0.2-4.8,2.5-4.7,5.8c0.1,2.6,1.1,4.5,4.1,4.5
	C303.3,780,304,777.6,303.9,774.6z"/>
<path class="st2" d="M1044.2,369.6c0-1.4,1.1-1.4,1.6-2c2.1-2.8-0.8-7.6,0.5-8.2c3.1-1.6,5.4-3,5.8-7c2.5,2.7,5.1,4.7,9.6,2
	c-3.4,6-1.1,7.8,4.3,7.8c-5.3,2.7-7.8,6.5-6.7,12.8c-4.1-4-7.1-3-9.5,1.9C1049.9,372.4,1048.7,369.5,1044.2,369.6z M1057.7,363.8
	c0-2.5-0.3-4.9-3.5-4.9c-3.2,0-5.2,1.8-5.3,4.8c0,2.4,0.9,5.2,4.1,5.3C1056.2,369.1,1057.7,367,1057.7,363.8z"/>
<path class="st2" d="M811.4,819.1c-3.1-0.3-6.1,1.4-7.4,4.2c0.3-4.5-1.1-7-5.8-6.1c0-0.6-0.1-0.8,0-0.9c2.1-1.4,3.1-4,2.5-6.5
	c-0.3-1.9-2.5-4,1.9-4.3c2.7-0.2,3.5-3.2,3.4-7.1c2.6,4.7,5.7,5.5,10.4,3.1c-2.8,5.2-2.5,8.2,4.9,7.4c-3.9,2.5-9.6,3.3-3.8,8.6
	c-2.6-0.4-4.8-1.4-5.7,1.3L811.4,819.1z M803.4,811.1c0.2,2.5,0.5,5.4,3.8,5.4s4.7-2.2,4.6-5.3c-0.1-2.5,0.1-5.4-3.6-5.4
	C804.9,805.9,803.6,808.1,803.4,811.1L803.4,811.1z"/>
<path class="st2" d="M811.7,818.9c1,0.8,2.2,1.5,1.5,3.2c-1.9-0.2-1.5-1.8-1.8-2.9L811.7,818.9z"/>
<path class="st1" d="M510,845.1c-6.9,0.1-13.2-4.4-16.2-11.1c-4-9.1-4.5-18.7-2.9-28.3c0.8-4.4,1.8-8.8,3-13.1
	c4.5-16,21.5-26.7,36-22.6c5.8,1.6,10.2,5,11.5,11.2c0.8,3.5-0.3,7.2-2.9,9.6c-2.5,2.5-5.1,4.7-7.9,6.8
	c-10.7,7.4-13.4,15.2-9.7,27.5c2.7,9,1.3,14.1-4.6,18.1C514.5,844.5,512.3,845.2,510,845.1z M507.8,790.8l-0.6-0.3l0.3,0.7
	c1.5,3.1,4.1,5.6,7.3,6.8l0.5,0.4l-0.4-0.4C513.5,794.4,510.8,792.4,507.8,790.8z M510,809.7c1.8-0.3,3.8,0,4.4-2
	c0.6-1.7-1.1-2.6-2.1-3.6c-2.5-2.4-5.7-4-9.1-4.7c-2.4-0.6-3.8,1-4.8,2.8s0.3,3.1,1.6,4.2C502.9,808.9,506.6,809,510,809.7
	L510,809.7z M523.7,791.2c0-3.7-1.4-8-3.3-9.8c-1.6-1.5-3.5-2.9-5.7-1.3s-2,3.5-1,5.8c1.4,2.8,3.4,5.3,5.8,7.3
	c0.9,0.8,1.8,1.8,3,1.3C524.2,793.9,523.5,792.3,523.7,791.2z M514.6,824.4c0-1-1.3-1.3-2.9-1.4c-3.9-0.2-10.7,3.8-10.8,6.5
	s1.9,3.8,4.1,4.1C508.5,834,514.2,829,514.6,824.4L514.6,824.4z M528.8,776.7c0.5,3.5,1,7,1.4,10.5
	C533.3,783.2,532,779.8,528.8,776.7L528.8,776.7z M501.1,814.2c0.8,0.4,1.7,0.7,2.5,1c1.8,0.4,3.5,0.9,5.2-0.2
	c0.2-0.4,0.2-0.9,0-1.2c-1.4-1.2-3.1-0.7-4.7-0.8C503.3,813,502.2,812.6,501.1,814.2L501.1,814.2z M512.7,833.8
	c-2.1,0.6-4.6,0.6-5.7,4C509.7,836.9,511.5,835.7,512.7,833.8z"/>
<path class="st1" d="M587.6,818c-0.7,11.6-3.7,23.5-13.2,32.4c-7.2,6.7-16.3,9.2-26,6.5c-10.9-3-14.8-14.5-8.5-24
	c1.8-2.6,3.7-5.1,5.7-7.5c4.7-5.7,6.9-12,5.6-19.5c-1.9-11,0.7-17.3,8-20.4c7.3-3.1,16,0.2,21.9,8.5
	C585,799.6,587.5,808.5,587.6,818z M559.5,834.1l0.6,0.1l-0.3-0.3l-1.7-1.4c-1.3-2.8-3.9-4.7-6.9-5.4c2.2,3,3.8,5,6.3,6L559.5,834.1
	z M563.8,819c-1.3,0.2-3.3,0.5-5.2,0.9s-2.4,1.9-1.1,3.2c4,3.8,8.2,7.3,14.1,7.7c1.9,0.3,3.7-0.7,4.5-2.4c1-1.9,0.2-3.6-1-5.1
	C572.5,819.8,568.6,819.2,563.8,819z M560.3,846.8c-0.7-5.2-3.3-9.9-7.3-13.3c-3-2.6-4.7-1-5.2,2c-0.8,4.8,0.2,9.8,2.7,14
	c1.2,2.2,3,3.8,5.7,3S559.9,849.3,560.3,846.8L560.3,846.8z M559.6,808.9c3.9,0.1,10-2.2,12.3-4.6c1.2-1.2,2.2-2.6,1.6-4.4
	c-0.6-2-2.2-2.8-4.1-3c-4.8-0.5-10.9,3.3-12.8,7.8C555.2,807.9,556.5,808.9,559.6,808.9L559.6,808.9z M557.9,814.2
	c3.7,0.4,6.7,0.8,9.8,1c0.5-0.1,0.9-0.3,1.1-0.8c0.4-0.8-0.2-1.2-0.9-1.3C564.7,812.7,561.5,811.3,557.9,814.2L557.9,814.2z
	 M563.9,791.4c-3.6,0.3-6.7,2.5-8.2,5.7C559.5,795.7,562.2,794.4,563.9,791.4L563.9,791.4z"/>
<path class="st1" d="M282.5,153.4c0.1-3.1,1.4-5.1,4.6-5.4c3.5-0.3,4.1,2.4,4.1,4.9c0.1,2.7-1.3,5-4.2,5.2
	C284.1,158.2,282.8,156.1,282.5,153.4z"/>
<path class="st1" d="M303.9,774.6c0.1,3-0.6,5.4-4.2,5.5c-3,0.1-4-1.8-4.1-4.5c-0.1-3.3,1.1-5.6,4.7-5.8
	C303.6,769.7,303.8,772.2,303.9,774.6z"/>
<path class="st1" d="M1057.7,363.8c0,3.1-1.4,5.3-4.7,5.2s-4.2-2.9-4.1-5.3c0-3,2.2-4.8,5.3-4.8S1057.7,361.3,1057.7,363.8z"/>
<path class="st1" d="M803.4,811.2c0.2-3.1,1.5-5.3,4.8-5.3c3.7,0,3.5,2.8,3.6,5.4c0.1,3.2-1.4,5.4-4.6,5.3S803.6,813.7,803.4,811.2z
	"/>
<path class="st2" d="M510,809.7c-3.4-0.7-7.1-0.8-10-3.3c-1.3-1.1-2.6-2.3-1.6-4.2s2.4-3.3,4.8-2.8c3.4,0.7,6.6,2.3,9.1,4.7
	c1,1,2.7,1.9,2.1,3.6C513.7,809.7,511.7,809.5,510,809.7z M510.9,806.1c-2-1.6-4.3-2.8-6.8-3.5c-1-0.3-2.1-0.6-2.6,0.5
	s0.6,1.9,1.4,2.2C505.1,806.1,507.4,807.2,510.9,806.1z"/>
<path class="st2" d="M523.7,791.2c-0.2,1.1,0.5,2.7-1.2,3.3c-1.2,0.5-2.2-0.5-3-1.3c-2.5-2-4.5-4.5-5.8-7.3c-1-2.2-1.1-4.2,1-5.8
	c2.1-1.5,4.1-0.2,5.7,1.3C522.3,783.2,523.7,787.5,523.7,791.2z M521.2,791.3c-0.6-3.6-0.5-6.4-3.4-8c-0.8-0.5-1.9-0.1-1.8,0.9
	C516.1,787.2,518,789.1,521.2,791.3L521.2,791.3z"/>
<path class="st2" d="M514.6,824.4c-0.4,4.7-6.1,9.7-9.6,9.2c-2.3-0.3-4.2-1.3-4.1-4.1s6.9-6.7,10.8-6.5
	C513.3,823,514.6,823.4,514.6,824.4z M510.9,826c-3,0-5.4,0.7-6.9,3.2c-0.4,0.6,0.2,1.3,0.9,1.5c3.1,0.7,4.3-1.8,5.9-3.6
	C510.9,827,510.8,826.8,510.9,826z"/>
<path class="st2" d="M528.9,776.7c3.2,3.1,4.4,6.5,1.4,10.5C529.8,783.7,529.3,780.2,528.9,776.7z"/>
<path class="st2" d="M501.1,814.2c1.1-1.6,2.1-1.2,3-1.2c1.6,0,3.3-0.4,4.7,0.8c0.2,0.4,0.2,0.9,0,1.2c-1.7,1.1-3.5,0.6-5.2,0.2
	C502.8,814.9,502,814.6,501.1,814.2z"/>
<path class="st2" d="M514.7,798c-3.2-1.2-5.8-3.7-7.2-6.8l0.4-0.4c3.1,1.6,5.8,3.6,7,7.1L514.7,798z"/>
<path class="st2" d="M512.7,833.8c-1.2,2-3,3.1-5.7,4C508.1,834.3,510.5,834.4,512.7,833.8z"/>
<path class="st2" d="M514.7,797.9l0.4,0.4L514.7,797.9L514.7,797.9z"/>
<path class="st2" d="M507.4,791.2l-0.3-0.7l0.6,0.3L507.4,791.2z"/>
<path class="st2" d="M563.8,819c4.8,0.2,8.7,0.8,11.4,4.3c1.2,1.5,1.9,3.2,1,5.1c-0.8,1.7-2.7,2.7-4.5,2.4
	c-5.9-0.4-10.1-3.9-14.1-7.7c-1.4-1.3-1-2.8,1.1-3.2S562.5,819.2,563.8,819z M562,822.5c2.1,2.9,4.7,3.9,7.4,4.7
	c1.1,0.3,2.4,0.9,3-0.6s-0.5-2.2-1.4-2.9C568.4,821.9,565.6,821.6,562,822.5L562,822.5z"/>
<path class="st2" d="M560.3,846.8c-0.4,2.5-1.3,4.9-4.1,5.7s-4.4-0.8-5.7-3c-2.5-4.2-3.4-9.2-2.7-14c0.5-3.1,2.2-4.6,5.2-2
	C557,836.9,559.6,841.6,560.3,846.8z M551.1,836c-0.5,3.7-0.9,7.2,0.9,10.4c0.8,1.5,1.9,3.1,3.8,2.3s1.6-2.6,1-4.3
	C555.7,841.2,553.7,838.3,551.1,836z"/>
<path class="st2" d="M559.6,808.9c-3,0-4.4-1-3-4.2c1.9-4.5,8-8.3,12.8-7.8c2,0.2,3.5,1,4.1,3c0.6,1.8-0.4,3.2-1.6,4.4
	C569.5,806.7,563.5,808.9,559.6,808.9z M558.6,805.6c4-0.2,7-0.8,9.6-2.5c0.9-0.6,2.3-1.1,1.6-2.5c-0.6-1-1.9-1.4-3-0.9
	C563.6,800.7,560.7,802.8,558.6,805.6z"/>
<path class="st2" d="M557.9,814.2c3.6-2.9,6.8-1.5,10-1.1c0.7,0.1,1.3,0.6,0.9,1.3c-0.2,0.4-0.6,0.7-1.1,0.8
	C564.6,815,561.5,814.6,557.9,814.2z"/>
<path class="st2" d="M563.8,791.5c-1.6,2.9-4.3,4.2-8.2,5.7C557.2,793.9,560.3,791.8,563.8,791.5z"/>
<path class="st2" d="M557.5,833.1c-2.6-1-4.1-3-6.3-6c3,0.6,5.5,2.6,6.9,5.4L557.5,833.1z"/>
<path class="st2" d="M559.5,834.1l-2-1l0.5-0.6l1.8,1.3L559.5,834.1z"/>
<path class="st2" d="M559.8,833.8l0.3,0.3l-0.6-0.1L559.8,833.8z"/>
<path class="st1" d="M510.9,806.1c-3.5,1.1-5.7,0-8-0.8c-0.9-0.3-2-1-1.4-2.2s1.7-0.8,2.6-0.5C506.6,803.3,508.9,804.5,510.9,806.1z
	"/>
<path class="st1" d="M521.2,791.3c-3.1-2.2-5.1-4-5.2-7.1c0-1,1-1.4,1.8-0.9C520.7,784.8,520.6,787.7,521.2,791.3z"/>
<path class="st1" d="M510.9,826c-0.1,0.8,0,1-0.1,1.1c-1.6,1.8-2.8,4.2-5.9,3.6c-0.7-0.2-1.3-0.8-0.9-1.5
	C505.5,826.7,507.9,826.1,510.9,826z"/>
<path class="st1" d="M562,822.5c3.6-1,6.4-0.6,9,1.3c0.9,0.7,2,1.5,1.4,2.9c-0.6,1.3-1.9,0.9-3,0.6
	C566.7,826.4,564.1,825.5,562,822.5z"/>
<path class="st1" d="M551.1,836c2.6,2.3,4.6,5.2,5.8,8.4c0.5,1.7,0.9,3.5-1,4.3s-3-0.8-3.8-2.3C550.2,843.1,550.6,839.7,551.1,836z"
	/>
<path class="st1" d="M558.6,805.6c2-2.8,4.9-4.9,8.2-6c1.1-0.5,2.4-0.1,3,0.9c0.7,1.5-0.7,2-1.6,2.5
	C565.6,804.8,562.6,805.3,558.6,805.6z"/>
</svg>
