<svg id="about-bg" xmlns="http://www.w3.org/2000/svg" viewBox="0 0 1302.02 1208.52"><defs></defs><path class="cls-1" d="M-114,900.1a13.17,13.17,0,0,1-3.06,11c-2.18,2.45-2.19,5.3-2.12,8.34.31,13.16-11.2,25.19-24.28,25.26-4,0-6.32,1.24-9.31,4.54-6.61,7.3-15.65,9.89-25.78,8.15C-189,955.61-198,950.24-207.34,946c-10.88-4.94-22.11-8.92-33.17-13.35-10-4-20.65-6.29-29.86-12.44-8.3-5.55-12.4-13.36-15.65-22.36-3.51-9.76-.52-18.3,3.33-26.89a10.66,10.66,0,0,1,2.84-4c2.25-1.77,2.49-3.75,1.57-6.16-2.71-7.07-.94-13.73,2.24-20.06,2-3.9.16-4.28-2.94-4-8.76.72-16.43,4.32-23.66,9-1.24.81-2.51,1.57-3.74,2.39-6.85,4.55-9.58,4.12-14.59-2.31-6-7.76-5.57-10.7,3.35-17.17,10-7.25,21.25-10.85,33.49-9.3,6,.76,12.23,2.22,17.7,5.41.42.25.72.73,1.15.92,2,.86,16.95-6.22,17.35-8.38,1.63-8.84,8.18-14,14.41-19.3,6.81-5.8,15.58-7.89,23.8-8.16a44.71,44.71,0,0,1,26.31,7.47c6.38,4.19,11.35,9.39,16.35,14.85,4.65,5.08,7.08,11.43,9.76,17.48,6.4,14.5,16,26.52,26.91,37.73,5.75,5.91,10.86,12.26,14.25,20C-114.39,891.38-114,895.31-114,900.1Zm-16.88-2.2c.11.73.07,1.58,1.18,1.54a.46.46,0,0,0,.3-.32c0-1.09-.76-1.12-1.53-1.16-.47-4-3.81-6-6.11-8.64-.69-.81-2.45-1.57-1.39-2.72,1.33-1.45,2.26.3,3.15,1.17,2.36,2.3,4.53,4.75,6.68,7.25,2.75,3.19,4.36,7.19,7.29,10.36,2.52-7.81-3.08-12-7.35-17.32,3.7,0,4.75,3.49,7.71,3.85-2.21-7.81-7.55-13.32-13.08-18.38-8.69-8-17-16.27-22.84-26.49-4.4-7.69-7.42-16.15-11.53-24-8.61-16.52-26.95-29.9-46.78-27a35.86,35.86,0,0,0-20.84,10c5.26,0,9.52,0,13.78,0,4.64-.06,9.25-.08,13.6,2,1,.45,2.69,0,2.23,1.83-.35,1.36-1.56.63-2.51.49-9.56-1.4-19.08-2.95-28.77-.59-2,.5-3.77.93-3.59,3.13s2.37,1.19,3.59,1.18c2.3,0,4.64-1,6.88-.73,17.25,1.85,31.95,8.74,43,22.46.83,1,2.42,1.95.79,4-16.38-15.41-33.79-27.85-58-21a66.1,66.1,0,0,1,35.88,7.41c12.93,6.88,25.65,20.85,24.09,26.41-1.7-3.87-5.55-5.17-8.22-7.8-7.79-7.67-16.38-14-27.08-17.33-13.65-4.28-26.93-4.44-39,3.72-13.16,8.92-17.82,20.53-9.88,35.39S-248.5,890-232.79,895c2.61.83,7.34,1,6.31,4.65-.81,2.9-5.4,1.55-8.11,1.05-16.94-3.11-28.94-13.28-38-27.43-.77-1.2-.54-4-3-2.61-1.67,1-1.44,2.91-.77,4.92,1,3,3.86,3.95,5.64,6.06a75.27,75.27,0,0,0,15.32,13.94c1.86,1.24,5.81,1.79,4.2,4.46-1.1,1.83-3.73-1.29-5.49-2.5-8-5.48-14.93-12.23-21.53-19.24-3.18,2.91-1.91,5.61,0,7.9,2.18,2.67,4.89,4.92,7.21,7.49,3.46,3.85,8.8,5.7,11.14,10.79-8.15-3.61-14.29-9.87-20.62-16.16-1.74,10.09,7.9,26.53,21.05,30.58,9,2.76,18.37,4.22,27.16,7.4A304.19,304.19,0,0,1-188,946.9c9.42,5.24,18.45,6.51,24.89,3.32-5.26-2.2-11.55-2.27-17.13-7.07,5.62-.33,9.12,3.58,13.78,3.1,3.87-.4,8.17,4.73,11.85-1-13.66-2-28.38-8.66-30.85-14.15,5.09,1.68,9,5.38,14.3,6.17a23,23,0,0,0-5.06-4.36,201.93,201.93,0,0,1-23.48-18c-1-.89-2.26-2-1.5-3.3s2.45-.68,3.73-.5a9.17,9.17,0,0,1,2.23,1c8,3.7,14.48,9.62,21.24,15.09,9.81,7.94,20.27,13.44,33.57,10.75,9-1.82,15.17-11.26,13.19-20-1.94-8.61-7.56-14.48-13.39-20.44-9-9.22-17.82-18.61-26.65-28-.69-.73-2-1.84-.9-2.93s2,.35,2.79,1.1c8.19,7.88,17.76,14.21,25.33,22.85C-137.54,893.4-134.84,896.53-130.92,897.9Zm-163.51-71.18c-5.1-1-9.32,1.48-13.58,3.7-2.31,1.2-5.29,2.11-6.59,4.06-2,3.06,2.66,3.66,3.4,6,1.09,3.47,3,2.93,5.66,1.26,3.43-2.19,7-4.15,10.62-6.12,5.74-3.19,12.63-2,18.37-5.43-9.27-1.69-18.12-.7-27.75,3.08C-301.36,828.85-297.5,828.68-294.43,826.72Zm-24.1,10.73c-1,6.7,3.21,8.15,7.61,10.67C-311.88,843.11-315.14,840.94-318.53,837.45Z" transform="translate(324.99 200.62)"/><path class="cls-1" d="M973.12-155.93c-1.15,3.25-2.19,6.65,0,9.75,5.81,8.19,4.32,16.47.84,24.93-4.05,9.87-11.91,16.72-19.61,23.28-13.58,11.55-24.54,25.46-36.76,38.22-5.78,6-11.08,12.54-18.93,16.53-18,9.15-39.6,1.89-48.59-14.31-.79-1.43-1-3.51-3.62-3.47-8.89.12-15.38-4.32-20.31-11.36-.6-.85-.93-1.81-2.21-1.38-1,.34-.9,1.27-1,2.07-1.53,10.56-3,21.4.26,31.59,1.82,5.64,1.05,8.7-3.24,11.69a18.39,18.39,0,0,1-11.83,2.89c-5.15-.34-5.24-5.62-6.53-9.08-7.13-19.18,1.39-39.35,16-51.21,1.1-.89,1.55-1.58,1.2-2.84-.14-.48-.35-.94-.46-1.43-.15-.67-9.09-22.91-9.48-23.47-5.47-8-6-17-5.89-26.28.07-7.22,3-13.44,6.4-19.39a30,30,0,0,1,8-9.05c6.13-4.53,11.6-9.86,19.58-12,5.83-1.58,11.89-1.94,17.68-4,4.47-1.6,9.74-.19,14.69-.51,6.53-.43,12.47-3,18.7-4.06,8.57-1.5,15.94-5.91,24.11-8.27,4.76-1.37,9.15-3.08,14.33-3.33,7.87-.38,15.28-.53,21.85,4.7a6,6,0,0,1,2,2.73c2,5.35,7,6.18,11.44,8.33,5.63,2.77,10.67,6.58,11.12,13.79Q973-163.42,973.12-155.93ZM817.69-73.14c-1.19.1-1.62,1-2.07,1.91-3.29,6.59-5.42,13.43-4.83,20.92.08,1.05.44,2.72-1.15,2.87-2.1.19-1.59-1.73-1.63-2.9-.11-2.95,0-5.91,0-8.86l-1.87,0c0,6.2-.19,12.41.11,18.6.1,1.94,0,5.16,3.79,4.46,6.32-1.16,9-3.63,7.43-7.38-1.52-3.56-1.15-7.15-1.59-10.74-.78-6.42,1.64-12.38,2.23-18.59a1.71,1.71,0,0,0,.86-2c0-.2-.37-.33-.56-.5Zm41-82.26c-.12,3-2,3.52-3.72,4.49-9.78,5.39-19.83,10.42-26.91,19.59-4.64,6-7.14,12.94-9.45,20-.34,1-1.47,2.32.19,2.76,1.15.31,2-1,2.08-2.3.08-2.93,1.6-5.46,2.8-7.85,8.48-16.91,23.1-26.38,40.52-31.87,2.37-.74,5-3.31,8.62-1.38-1.55,1.38-2.45,2.54-4.15,3.19a101.85,101.85,0,0,0-11.71,5.3c-20.47,11.06-34.54,26.1-32.26,51.54A29.09,29.09,0,0,0,832-74.38c8.06,9,20.74,10.23,34.38,4.66,12.68-5.18,22.47-13.71,31-24,.7-.85,1.11-2.35,2.61-1.83,1.77.62,1.27,2.35.93,3.43a34,34,0,0,1-8.33,13.84c-9.29,9.41-20.76,14.5-33.52,17.14-1.27.27-3.74-.61-3.6,1.46.16,2.36,2.65,2.09,4.43,1.9a17.88,17.88,0,0,0,4.3-1.1,109.63,109.63,0,0,0,29.27-16.15c1.65-1.3,3.23-3.78,6-3.22a2.21,2.21,0,0,1-.89,2.41C888.72-67.12,878-59.81,865.21-56c-1.68.5-3.62,1.08-3.37,2.74.21,1.35,2,2.65,3.91,2.39a18.26,18.26,0,0,0,3.37-.66c7.24-2.42,13.75-6.4,20.58-9.7.9-.43,1.84-2.23,2.83-.61.83,1.35-.27,2.15-1.64,2.94-6.58,3.81-13.14,7.64-20.65,10.52a28.14,28.14,0,0,0,9.06,2.6c14.06,1.23,24-5.7,31.41-16.42a217.07,217.07,0,0,1,32.9-37c7.57-6.91,16.14-12.76,22.58-20.89,3-3.8,5.43-7.85,4.68-13.63-4.52,4.41-6.15,10.65-12.43,12.43-.68-2.79,1.35-3.64,2.55-4.82a45.9,45.9,0,0,0,9.13-12.3c.86-1.72,1.75-3.83.08-4.92s-2.15,1.46-3.07,2.42c-4.2,4.4-6,10.61-11.11,14.46-2.5,1.87-5.68,2.8-7.62,5.47-.6.82-1.26,2.39-2.66,1s0-2,.87-2.74c3.35-2.69,6.68-5.4,10.06-8,.87-.68,1.65-1.5.9-2.42-.94-1.17-1.7.12-2.44.63-2.72,1.87-5.45,3.71-8.12,5.66-6.93,5.06-14.88,8.38-22.16,12.85-.87.53-2.5,1.83-3.57.41s.79-2.19,1.47-3.19a19.09,19.09,0,0,1,4.18-4.19c6.66-5.22,14.51-8.41,21.54-13,9.1-5.94,17-12.76,20-23.92,2.31-8.58-4.61-21-14.56-22.15-9.08-1-16.8,2.2-24.7,5.22-11.68,4.46-22.71,10.53-34.72,14.18-1,.31-2.08,2.63-3.18.43-.79-1.59.62-2.15,2-2.77,9.44-4.37,18.85-8.83,28.26-13.3,4.44-2.1,8.84-4.28,13.26-6.43-5.62-1.05-9.85,3.1-16.34,3.6,8-8.41,17.92-8.62,27.67-10.39-4.73-3.15-11.19-3.26-16.61-.6-1.34.66-3,2.09-3.79.32s1.15-2.64,2.95-3.11c1.38-.36,3.26-.37,3.83-2.37-1.67-.72-3.06-.35-4.56-.06-8.81,1.72-16.83,5.21-24.93,9.1-14.64,7-30.78,8.73-46.76,9.22-13.14.39-24.12,4.12-34.37,12.58-12,9.93-16.35,22.14-14.79,37,.23,2.2.77,4.81,3.21,6.55,2.72-8.41,5.65-16.38,10.9-23.23.78-1,1.62-2.81,3-2s.25,2.18-.53,3.35c-1.38,2.06-2.44,4.34-3.63,6.52-2.61,4.76-3.75,10.22-6.35,14.86-2.49,4.44-2.51,7.33,1.9,9.5C821.32-134.77,836.89-147.8,858.7-155.4ZM813.12-30.9c2.94-.24,6-.54,7.1-3.92.34-1.1-1.4-1-2.3-1-3,.19-5.9,1.37-7.44,3.83C809.78-30.85,812.08-31.17,813.12-30.9Zm-4.82-34c.18,1-1.34,2.28.69,3.29C808.9-62.88,809.51-63.95,808.3-64.94Z" transform="translate(324.99 200.62)"/><path class="cls-1" d="M546.06,913.37c-1.31-19.83,4.84-39.12,15.69-56.59a60.79,60.79,0,0,1,32.75-26c17.64-6,33.59-3.12,48.77,6.79q11.37,7.42,22.61,15c7.14,4.87,15.61,5.94,23.58,8.41,17.26,5.35,32.86,13,42.22,29.52,6.85,12.08,7.77,25.41,5.59,38.58-3.57,21.51-14.38,39.57-30,54.5-9.79,9.33-21.86,14.9-34.62,19.38-12.14,4.26-24.46,4.94-37.07,4.87-12.78-.06-24.71-3.46-36.16-8.67-20.92-9.53-36.55-24.69-45.84-45.72C548.14,941.3,545.51,935.18,546.06,913.37ZM639.22,1003c4.66-.23,9.17-.92,13.73-1.59a110,110,0,0,0,24.28-6.35,82.93,82.93,0,0,0,31.08-20.65C717.1,965,723.22,953.88,727.7,942c4.64-12.34,6.07-25.37,2.87-38.2-4.32-17.31-16.32-27.9-32.78-33.78-9-3.22-18.87-4-27.23-8.93-11.22-6.56-22.14-13.65-33.17-20.54-16-10-32.23-9.64-48.62-1.13-17.7,9.18-26.95,25.09-32.46,43.16-3.81,12.5-4.35,25.6-3.69,38.86a81.51,81.51,0,0,0,20,50.5C590.18,992.51,612.92,1001.47,639.22,1003Z" transform="translate(324.99 200.62)"/><path class="cls-1" d="M-275.44-182.8c13.12,0,22.17,8.08,26.83,21.2,4.54,12.77-2.74,31.51-14.84,38-14.55,7.79-33.84,2-39.47-16.14-3.89-12.53-.33-23.62,6.87-33.8A22.92,22.92,0,0,1-275.44-182.8ZM-299-151.2c0,.67,0,1.34,0,2-.25,9.21,4.19,16,11.74,20.47,8.65,5.15,17.51,4,24.91-2.38,8.84-7.56,11.2-17.87,8.27-28.88-4-14.9-19.74-21-32.64-14C-295.67-169.16-298.71-160.84-299-151.2Z" transform="translate(324.99 200.62)"/><path class="cls-1" d="M563,919.91c1.65-16.79,4.39-34.73,16-49.77,5.07-6.54,12.52-10.19,19.6-14.1,6.25-3.45,12.88-5.61,20.3-5.21,13.67.73,26.72,11.74,28.85,26.19.82,5.57-2.16,10.18-5.71,14.24-4.06,4.65-9.52,7.66-14.1,11.7-7,6.16-12.63,13.06-11.95,23.24.25,3.86,1.86,7.33,3.11,10.84,3.89,10.92,1.9,21.09-6.85,28.35-7.76,6.43-17.08,8.2-27.85,2.21A34.33,34.33,0,0,1,570.12,952C565.55,942.34,563.32,932.08,563,919.91Zm6.8,5c-.6,11.14,2.16,23.2,11,33.12,4.8,5.38,11,9,18.54,7.54,7.2-1.36,12.85-5.27,15.17-12.69,2-6.57,0-13.05-1.94-19-3.7-11.5-1.12-21,6.7-29.59,4.94-5.42,11.34-9.07,16.91-13.73,7.74-6.48,9.45-16.23,2.86-24.37a26,26,0,0,0-23.23-9.77c-14.73,1.4-27.36,8.6-35.06,21.45C572.53,891.51,569.61,907,569.76,924.89Z" transform="translate(324.99 200.62)"/><path class="cls-1" d="M631,960.78c-.17-8.81,3.39-15.42,8.9-21.28a60,60,0,0,0,8.76-11.34c3.38-5.93,4.67-12,3.18-18.89-1.88-8.76-1.52-17.48,4.12-25.15,6-8.13,14.17-10.15,23.75-9,19.93,2.34,27.37,16.76,31.27,29.7a71.27,71.27,0,0,1,1.68,33.45c-3.46,19-11.05,36.4-29.78,45.43-11.49,5.53-23.84,7.8-36.27,2.09C638.22,981.92,630.3,971.4,631,960.78Zm77.16-35.93c-.35-6.06,0-12.05-1.88-18.12-3-9.47-7.66-17.53-15.74-23.29-7.37-5.26-15.54-6.5-23.77-2.33-8,4.07-11.12,11.08-10.88,20,.12,4.52,1.62,8.76,1.85,13.12.56,10.43-5,18.4-11.4,26-6.95,8.24-12.84,16.73-8.41,28.49,2.4,6.38,9.33,13.17,16.85,14.37,6.88,1.1,13.24-.25,19.89-1.83,9.52-2.26,16.42-7.57,21.52-15.42C704.21,953.43,709.06,940,708.11,924.85Z" transform="translate(324.99 200.62)"/><path class="cls-1" d="M626,936c-4.76-6.76-3-18.48,2.75-24.71a20.89,20.89,0,0,0,1.83-1.66c.86-1.19,2.08-2.27,3.27-1.28,1.6,1.34-.32,2.27-1.1,3.07C626.35,918,625.61,926.3,626,936Z" transform="translate(324.99 200.62)"/><path class="cls-1" d="M640.71,932.79c-2.6-.29-2.41-1.2-1.84-2.18,2.61-4.57,5-9.19,5.44-14.58.08-1,.78-1.95,2-1.49.48.18,1.18,1.14,1.06,1.39-2.39,4.91-1.4,11.12-5.84,15.25A4,4,0,0,0,640.71,932.79Z" transform="translate(324.99 200.62)"/><path class="cls-1" d="M-288.87-159.1c5.84.09,9.8-1.87,10.07-8.37.06-1.55,1.6-1.4,2-.39,2.77,7.33,7.43,4.9,12,2.23,1.43,2-.09,2.77-1,3.44-3.07,2.21-.88,4.41-.1,6.54,1.15,3.12,2.57.15,3.87.07s3.3-1,3.77,1-1.64,1.75-2.76,2.08c-6,1.74-6.22,2.32-2.71,7.48.48.69,1.07,1.39.42,2.19a1.36,1.36,0,0,1-2.18,0c-1.52-1.73-2.88-1.31-4.17.16-1.65,1.89.86,2.47,1.38,3.56.69,1.45,1.7,2.75.23,3.92-.93.74-1.68-.78-2.18-1.36-4.17-4.9-6.21-4.82-9.8.61-.53.81-1,1.68-1.47,2.56-2-.66-1.34-2.21-1.08-3.33,1.23-5.29,0-6.66-6.12-6.44-.87,0-1.68.07-1.93-1-.17-.75.23-1.19.83-1.61,5-3.44,5.41-7.44,1.4-11.91C-288.77-157.92-288.73-158.51-288.87-159.1Zm18.1,7c0-5.75-1.14-7.71-4.66-7.78s-8.19,4.44-8.16,8,3.77,7.95,6.87,7.9C-273-144-270.81-147-270.77-152Z" transform="translate(324.99 200.62)"/><path class="cls-1" d="M618.06,888c-.45,2.21.64,4.29-.94,5.28-1.8,1.14-3.45-.48-4.94-1.4-5.45-3.41-8.33-8.81-10.65-14.5-.93-2.29,1.51-3.42,2.64-4.88,1.26-1.64,3-1.7,4.89-.79C616.32,875.12,616.8,882,618.06,888Zm-4.56-1.82c-.31-3.36-1-6.53-3.59-8.9-.87-.79-1.77-1.69-3-1a2.21,2.21,0,0,0-.74,3.06,24,24,0,0,0,5.42,8.05C612.6,888.28,613.76,887.94,613.5,886.16Z" transform="translate(324.99 200.62)"/><path class="cls-1" d="M597.16,914.79c-5-.3-9.58-2.24-13.95-4.56-2.41-1.28-2.79-3.78-2.08-6.12a5.46,5.46,0,0,1,6.21-3.93A25.55,25.55,0,0,1,604,910c1.12,1.41.89,2.36-.62,3.17A10.62,10.62,0,0,1,597.16,914.79Zm-1.83-3.9c1.33-.23,2.76.43,3.3-1,.63-1.66-1.11-1.59-1.87-2.3-2.3-2.13-5.45-2.3-8-3.7-1.32-.72-2.55-.88-3.38.66-.74,1.38-.24,2.43.92,3.43C589,910.32,592.46,910,595.33,910.89Z" transform="translate(324.99 200.62)"/><path class="cls-1" d="M591.21,948.83c-3-.18-5.53-1.44-6.65-4.28s1.23-4.71,3-6.16c3.24-2.58,7.3-3.71,11.16-5.08a4.53,4.53,0,0,1,5,1.13c1.78,1.84.31,3.19-.43,4.84C601,944.65,597.21,948.12,591.21,948.83Zm9.33-10.45c-4.79-1.56-7.83,1-11.08,2.89a2.13,2.13,0,0,0-1.25,2.44c.32,1.19,1.45,1.17,2.43,1.27C595.58,945.47,597.81,941.93,600.54,938.38Z" transform="translate(324.99 200.62)"/><path class="cls-1" d="M607.21,900.3a57.56,57.56,0,0,1-15.91-13.49C595.31,886.5,604.4,894,607.21,900.3Z" transform="translate(324.99 200.62)"/><path class="cls-1" d="M629.68,877.65c0,1.16,0,2.31,0,3.46a1.54,1.54,0,0,1-1.53,1.6,1.62,1.62,0,0,1-2-1.65c-.29-4.38.39-8.88-1.95-13a1.33,1.33,0,0,1,1.07-1.87,1.87,1.87,0,0,1,2.22,1.51C627.66,871.19,630.57,874,629.68,877.65Z" transform="translate(324.99 200.62)"/><path class="cls-1" d="M591.48,923c-2.35-1.07-6.94,1.49-6.82-2.58.07-2.5,4.56-1,7-1.17s6.55.38,6.26,2.38C597.57,924.36,593.73,922.11,591.48,923Z" transform="translate(324.99 200.62)"/><path class="cls-1" d="M594.66,954.7c-1.74-.34-1.46-1.22-.8-2.13,1.82-2.56,4.71-3.42,7.47-4.26,1.19-.37,1.78,1,1,1.91C600.37,952.71,596.83,952.64,594.66,954.7Z" transform="translate(324.99 200.62)"/><path class="cls-1" d="M670,966.47c-.22,4.4-1.1,7.57-4.65,9-3.78,1.53-6.64,0-9.05-3.08-5.15-6.5-6.75-18-3.33-23.76,1.62-2.76,3.08-3.46,5.71-.93C664.35,953.21,668.66,959.38,670,966.47Zm-13.49-16c-1.31,6.86-.77,12.5,2.17,17.91,1.1,2,2.62,3.24,4.81,2.39,2.47-1,2.54-3,1.84-5.39C663.7,960,660.29,955.7,656.49,950.52Z" transform="translate(324.99 200.62)"/><path class="cls-1" d="M685.2,945a33.78,33.78,0,0,1-20.05-11.5c-1.15-1.32-1.44-2.52.3-3.72,5.89-4.08,21.18-1.61,25.45,4.07,1.84,2.43,2.93,5.17,1.64,7.86S688.37,945.3,685.2,945Zm-14.13-12.16a32.88,32.88,0,0,0,11.58,7.12c1.79.7,3.94,1.84,5.08-.81.93-2.19-.94-3.06-2.41-4.21C681.2,931.69,676.53,933.11,671.07,932.82Z" transform="translate(324.99 200.62)"/><path class="cls-1" d="M669.72,913.1c-2.2-.57-5.23,1.14-6.34-1.45-1-2.3.61-4.77,2.15-6.74,4.24-5.39,9.5-8.9,16.65-9,3,0,5,1.1,6.23,3.88s.12,4.9-1.66,6.74C682.09,911.32,676,912.63,669.72,913.1Zm.23-4.45c4.22-.63,8.51-1,12-3.83,1.07-.85,2.09-1.9,1.66-3.3a2.4,2.4,0,0,0-2.88-1.42,24.49,24.49,0,0,0-12,6.27,2.08,2.08,0,0,0-.36,1.77C668.53,908.85,669.3,908.89,670,908.65Z" transform="translate(324.99 200.62)"/><path class="cls-1" d="M679.47,922.94a41.93,41.93,0,0,0-11.65-1.29,1.85,1.85,0,0,1-1.44-1c-.29-1,.63-1.27,1.44-1.53a17.93,17.93,0,0,1,12.58.27c1,.42,2.46.74,2.12,2.26S680.62,922.49,679.47,922.94Z" transform="translate(324.99 200.62)"/><path class="cls-1" d="M648.36,967.44c-2.21-4.84-2.27-10-2.2-15.25,0-1.07.32-2,1.64-1.92a1.91,1.91,0,0,1,1.86,1.94c.08,5,0,10,0,15Z" transform="translate(324.99 200.62)"/><path class="cls-1" d="M670.09,950.53c-5.61-1.51-9.42-5.42-13-9.66a.77.77,0,0,1,.06-1.23c.79-.66,1.47-.21,2.23.22A30,30,0,0,1,670.09,950.53Z" transform="translate(324.99 200.62)"/><path class="cls-1" d="M662.82,897.72c1.15-4,9.3-10.14,11.74-9.68.38.07,1,.58,1,.73a4,4,0,0,1-.87,1.63,8.33,8.33,0,0,1-1.9,1.55C669.75,893.75,666.67,895.5,662.82,897.72Z" transform="translate(324.99 200.62)"/></svg>