<svg id="Layer_1" data-name="Layer 1" xmlns="http://www.w3.org/2000/svg" viewBox="0 0 1009.43 778"><path d="M-77-16.75H816v778H-40c-.24-3.29-.84-6.61-.68-9.89.64-12.8,1.76-25.59,2.24-38.4.38-10,.07-20.06.07-30.1l-1.46-.08c-.54,1.9-1.07,3.8-1.61,5.7-1.4-20-3.24-39.82-5.61-59.55-1.65-13.72-3.89-27.36-6.13-41-1.31-8-3.14-15.95-4.74-23.92.69,12,2.55,23.84,4.34,35.66,4.86,32.14,8.66,64.39,9,96.94,0,2.64-.77,5.29-1.19,7.93-2.7-98.93-31.79-192.16-58.53-286.79-.35,1.29-.57,1.64-.5,1.91,2.7,10.62,5.3,21.27,8.16,31.85C-81.61,507.39-65.44,563-56.63,620.39c4.56,29.7,7.1,59.55,6.11,89.61,0,1.69-2.22,3.3-3.4,4.94-1-1.64-2.91-3.27-2.93-4.94-1-60.67-11.21-120-27-178.35-12.64-46.72-26.7-93-39.63-139.68-12.7-45.83-26.43-91.45-30.94-139.13-2.63-27.75-4.31-55.53-1.7-83.33,1.41-15,4-29.82,6-43.61.16-.34-.32.38-.53,1.17-7.47,28-11.87,56.51-9.7,85.45,1.75,23.36,5,46.66,8.75,69.8,3.48,21.64,8.25,43.09,12.82,64.55,2.22,10.4,5.3,20.62,8,30.92l-.94.25-3.52-9.36-.77.26,31.44,118.36-1.48.4q-7-23.77-13.91-47.57c-4.72-16.13-9.52-32.23-14.2-48.37-4.63-16-9.06-32-13.75-48s-7.58-32.36-14-47.9c-4.88,9-3.27,18.44-3.83,27.74q-2.24-8-4.45-16l-1.06.26L-164,340.5l-.93.2-13.24-50-1.53.37,26.25,111.31c-.63-1.69-1.09-2.75-1.42-3.85-10.66-34.85-20.75-69.84-27.62-105.69-9.11-47.5-14.12-95.21-8.6-143.59,6.47-56.65,27.77-106.9,64.45-150.62,4.13-4.93,7.77-10.27,11.63-15.42h29a12.27,12.27,0,0,1-1.18,1.56c-30.31,29.57-56.45,61.8-67.3,104-1.36,5.29-3.58,10.36-5.2,15.6-3.12,10.06-7.22,20-8.89,30.29-3.6,22.3-2.35,44.81-.18,67.23.34,3.46.56,6.93.83,10.4l1.53.07c.16-1.62.37-3.23.47-4.85,1.32-22.76,1.7-45.63,4.15-68.27,4.21-38.9,17.59-74.57,40.66-106.49C-108.13,14.73-93.06-1.41-77-16.75ZM-183.37,265.37c-6.38-44.92-8.48-89.74-.93-134.65C-195.87,175.73-192.53,220.64-183.37,265.37Zm7,16.23c-7.26-44.85-11.37-89.84-6-135.27C-191.61,191.93-186.68,236.88-176.42,281.6Zm45.93,37.54c-8.27-35.94-18.11-71.61-21.21-108.59C-149.51,247.68-141.61,283.71-130.49,319.14ZM-152.73,175.8c.49-24.74,5.65-48.76,10.92-72.76C-149.88,126.62-153.15,150.93-152.73,175.8Zm29.48,173.42,1.59-.44-5-17.88-1.38.39Z" transform="translate(193.43 16.75)"/><path d="M87.57,453.89v-5.2l1.16-.13,2.52,15.09-.93.29L88,459.13l-.74.19q.28,4.06.55,8.14C79.5,435.92,69,404.94,63.91,372.64l1.52-.39Q76.11,413,86.8,453.78Z" transform="translate(193.43 16.75)"/></svg>