<svg id="menu-bg" xmlns="http://www.w3.org/2000/svg" viewBox="0 0 1363.53 744.11"><defs><style>.cls-1{fill:#fee490;}</style></defs><path class="cls-1" d="M-367.6,250c-2.21-1.34-4.11-2.29-5.77-3.55-3.48-2.61-3.4-6.15.56-7.69,3.58-1.39,2.71-2.82,1.06-4.88-.21-.26-.31-.6-.51-.86-1.69-2.2-2.44-4.52-.16-6.68s4.81-1.32,6.84.25,3.11,2.69,4.77-.69c1.46-3,4.2-2.19,6,.23a58.82,58.82,0,0,1,3.4,6,34.35,34.35,0,0,1,.73-3.74c.51-1.54.76-3.58,2.74-3.76a3.8,3.8,0,0,1,3.86,2.64c.95,2.55,2.45,2.82,4.87,1.15-3.61-3.17-4.06-8.11-7.15-11.76s-2-5.83,2.77-6.48a3.88,3.88,0,0,0,3-1.35c3.71-4.63,4.8-4.64,9.19-.59,2.09,1.93,3.58,4.51,7.47,3.29,1.78-.56,2.1-.74,1.77-2.29-.88-4.17-1.8-8.28,3.49-10.54,1.38-.59.69-2.4.74-3.68.09-2.32-.22-4.7,1-6.82.89-1.51,1.23-3.75,3.5-3.79,1.92,0,2.7,1.7,3.55,3.14.75,1.27,1.52,2.53,2.43,4,2.34-3.28,4.23-6.75,7.1-9.52,3.14-3,5-1.68,6.4,1.48,1.61,3.57.47,7.18-.14,10.77-.32,1.87-1.23,4,2.35,3.73s3.64,2,2.53,4.62a5.33,5.33,0,0,1-1.29,2.1c-5,3.9-2.68,9.66-3.48,14.54-.28,1.69-.48,5.16,3.37,5.31,1,0,2.59,1.48,2.05,2.41-2.34,4,1.16,4.51,3.23,5.85,1.57,1,3.24,2,3.19,4.1-.06,2.53-2.25,3.39-4.06,3.81-3.7.85-6,2.3-6.78,6.49-.58,3.35-3.34,2.6-5.47,1.11-1.71-1.2-3.2-2.42-5.25-.56-1.49,1.34-2.81.1-4.06-.62-3.89-2.28-6.9-5.57-10.25-9.35-4,9-7.41,17.81-12.33,25.88-.63,1-.57,1.83.52,2.49,1.89,1.13,3.62,1.32,5.51-.19,5-4,10.82-6.4,16.92-8.17a34,34,0,0,0,3.37-.87c2.16-.86,4-.44,5.31,1.39s.11,3.45-1.21,4.85c-.56.59-1.09,1.22-1.84,2.07,1.84,1.07,3.55,1.93,5.12,3,2.17,1.48,3.74,3.24.75,5.42-2.41,1.76-.49,3,.24,4.58,1.92,4.15,5.94,8.21.48,12.85-1.19,1,.09,3.16.48,4.71.67,2.66.92,5.27-.32,7.79-1.14,2.32-2.68,3.87-5.53,2.29a4.23,4.23,0,0,0-3.72-.65c-5.17,1.72-8.33.29-10.43-4.66-1.1-2.59-1.8-5.34-2.79-8.34-3.05,2.27-6,6.12-9.92,1.26-.56-.69-1.62.77-2.2,1.5-1.48,1.86-3.28,2.85-5.62,2s-3.42-3.05-3.56-5.53c-.36-6.29,2.92-11.47,5.27-16.94.52-1.23,2.76-2.55.81-3.74-2.38-1.45-2.43,1.47-3.16,2.62a149.4,149.4,0,0,1-10.68,15c-.93,1.12-1.95,2.9-3.57,1.82s-.38-2.72.2-4c2.27-5.22,5.6-9.8,8.65-14.56,1.36-2.13,3.16-4.23,1.85-7.35-1.07-2.54-2.14-3.28-4.27-1.31s-3.88,4.2-6.15,5.83c-3.07,2.2-6.5,4.09-9.32-.51-1-1.62-2.23-1.47-3.86-1.14-6,1.22-7.43-.05-6.92-5.92a2.66,2.66,0,0,0-.49-2.34C-375,254.67-372,252.24-367.6,250Zm70.51,21.12c-2.13-.94-3-1.42-3.91-1.7-6.8-2-6.8-2-2.57-7.42.1-.13-.16-.54-.39-1.23-7,1.75-13.67,4.07-19.92,8.32,9.78,4.87,16.88,11,18.19,15.74a93.25,93.25,0,0,0-8.06-6.09c-15.21-9.2-13.72-9.73-21.18,8.31-.85,2.07-1.95,4.88.54,6.38,2.81,1.69,3.23-1.85,4.74-3,1.27-1,2.18-3.47,4.28-.91,3.08,3.76,4.42,3.45,6.26-1.31.38-1-.14-2.79,1.47-2.73s1.59,1.87,2,3.09c1,3.17,1.86,6.37,2.89,9.53A10.61,10.61,0,0,0-309.5,303c1.53,1.28,3.24,1,3.42-.87.69-6.85,3-2.55,4.94-.85.72.62,1.31,1.72,2.47,1.2s.73-1.7.82-2.64c.35-3.8-1.31-7.14-2.41-10.61-.41-1.27-1.05-3.17,1.09-2.84,5.73.88,2.81-2.38,2-4.09a53.34,53.34,0,0,0-4.16-6.17c-.79-1.16-3.4-1-2.77-2.93.55-1.63,2.64-.86,4.05-1.12C-299.5,272-298.93,271.74-297.09,271.16ZM-362.14,258c-.48.51-.79.88-1.14,1.21-1.28,1.21-3.86,2.29-3,4.07,1,2.11,3.18.06,4.83-.26.65-.13,1.25-.44,1.89-.63,1.68-.5,3.34-.15,3.44,1.7.38,6.83,3.27,2.74,5.34,1.25a52.29,52.29,0,0,0,4-3.79c5.11-4.55,5.14-4.72.83-10.05-.53-.64-1.22-1.16-1.69-1.83-3-4.27-7.63-6.94-11.82-11.24,5.66,1.17,8.75,3.69,14.87,9.07,2.56,2.25,3.11,8.52,7.68,6.39,3-1.41,3.52-6.51,5.11-10,1.09-2.38.12-3.17-2.06-2.89-2.79.37-4.78-.43-4.82-3.43-.06-4.54-1.73-5.11-4.85-2.13-1.74-2.33-1.11-5.57-3.94-6.94a15.87,15.87,0,0,0-1.41,7c0,1.07.53,2.63-1,3s-1.74-1.2-2.34-2.13c-2-3-2.62-7-6.4-9.22-.13,1.12-.2,1.77-.3,2.41-.29,1.92,1.07,4.74-.71,5.58-2.25,1.06-2.46-2.52-4.18-3.37-2.1-1-4.15-4.46-6.31-2.24-1.58,1.64,1.35,3.92,2.69,5.7,1.82,2.43,3.69,4.76-1.49,5.3-1,.1-2.66.19-2.58,1.77.05,1.22,1.26,1.93,2.34,2.38,2.61,1.07,5.33,1.91,7.87,3.12,2.29,1.09,6.9.4,6.59,2.9-.36,2.84-4.67,1.85-7.37,2.2-2.34.3-6.06-.32-6.21,2.43-.14,2.5,3.59,1.12,5.47,1.88C-362.67,257.35-362.59,257.52-362.14,258Zm55.59-57.41c.88,3.74-1.09,6.08-1.57,8.69-.63,3.46-4.59,8.16-1.93,9.86,3,1.94,7.71-1.21,11.2-3.51.49-.32,1.22-.51,1-1.41-3.28-.56-4.3-1.81-1.11-4.12a15.45,15.45,0,0,0,4.86-4.93c.64-1.18,2.74-2.21,1.45-3.75-1-1.23-2.39.23-3.57.69-1,.38-2.09,1.57-3.11.32-.74-.9.25-1.85.58-2.73a28.35,28.35,0,0,0,1.53-15.27c-4.37,2.49-6.25,6.31-8.09,10.2-.48,1-.83,2.35-2.36,2.14-1.24-.18-1.14-1.47-1.6-2.3-1.14-2.06-1.63-4.62-4.44-6.17,0,4.65-.07,8.73,0,12.81,0,1.54,1.74,3.43-.09,4.52s-2.77-1.19-4.06-2.08c-.5-.35-1.06-.62-2.23-1.3a27.65,27.65,0,0,0,5.07,15.79C-311.45,212.46-310.86,206.08-306.55,200.6Zm14.43,27.52c-3.21-2.77-6.6,1.08-9.42-.72.11-2.57,3.76-2.27,3-5.42a49.35,49.35,0,0,0-13.63,4.26c-1.14.51-2.7,1.24-2.21,2.86.44,1.44,2,.71,3.07.83,3.3.35,6.77.18,9.3,3a2.19,2.19,0,0,1-2.54.68c-3.72-.83-9-4.17-10.79-.3-1.95,4.25,4.11,6.71,7,9.71a3.47,3.47,0,0,0,1.27.78c.84.33,1.84.27,2.05-.69,1.36-6.24,3.45-1.79,5.32-.39,1,.75,1.58,2.22,3.47,1.88.09-.56.45-1.27.25-1.75-1.78-4.28.14-5.1,4-4.83,2.15.15,4.67.91,6.73-1.54-3.14-3.17-7.91-2.94-11.78-5.51Zm-38.33-6.74c3.77-.37,5.17,1.83,7.1,2.88,1.75,1,3,4.62,4.85,3,2-1.74-.18-4.61-1.27-6.8a25,25,0,0,0-2.4-3.79c-1.06-1.4-2.2-2.51-2.77.4-.59,3.06-1.82,1.67-2.74.24-1.82-2.8-3.56-5.69-6.37-7.6-1.71-1.16-4.14-1.5-3.44,1.57,1.05,4.64-.84,4-3.77,2.85-.93-.36-2-1.4-3.41,0a12.87,12.87,0,0,0,5.53,5.35c1,.49,2.49.8,1.73,2.42-1.39,3,.89,3.47,2.73,4.06,2.12.68,4.33,1.06,6.32,1.52.28,2.47-3.64,3.08-1.84,5.44,1.38,1.81,3.71,1,5.65,1.11a4.18,4.18,0,0,0,.5,0c1.5-.06,3.14,0,3.88-1.64s-.68-2.67-1.57-3.85C-323.86,225.73-327.49,224.77-330.45,221.38Zm8.06,15.5a14.83,14.83,0,0,1-8.4-.33c-3.22-1-3.6-4.19-5.55-6.26.36,2.8-1.46,6.47,2.52,7.68,6.16,1.89,6.62,2.57,4.44,8.51-1,2.73-3.5,5-2.88,9.76A98.64,98.64,0,0,0-322.39,236.88Zm-10.93,19c-2.11,1.29-3.15,2.5-2.07,5.08C-333.79,259.51-332.82,258.27-333.32,255.86Z" transform="translate(375.88 -28.58)"/><path class="cls-1" d="M-59.17,656.11a20.35,20.35,0,0,1,10,1.93A11,11,0,0,0-38,657.8a8.8,8.8,0,0,0,4.51-4.52c5.27-11.38,16.63-16.75,28.87-14.36S16,649.26,20.79,660.62a76.31,76.31,0,0,0,17.06,24.89,39.47,39.47,0,0,1,9,13c2,4.85,3,9.5-.7,14a7.55,7.55,0,0,0-1.4,5.16c.05,8.64-6,15.37-14.47,16a8.3,8.3,0,0,0-6.22,3.06c-4.08,4.4-9.65,5.54-15.55,4.67-6.9-1-12.59-5.09-18.9-7.61-10.77-4.29-21.42-8.94-32.37-12.74-14.35-5-21.32-23.75-10.94-35.75.41-.48.89-1.28.76-1.77-1.47-5.23-.24-10,1.53-15,.8-2.24-1.93-1.58-3.13-1.34A40,40,0,0,0-70,673.76c-4.58,3.27-5.83,2.63-10.1-2.47-3.34-4-.48-6.19,2-8.21C-72.7,658.65-66.54,655.89-59.17,656.11Zm62.1,17.95c-1.81-.27-2.78-1.71-4-2.82-8.27-7.49-17.5-12.57-29.17-11.41-8.06.8-14.17,4.78-17.8,11.91-3.87,7.61,0,13.8,4.81,19.39S-32,700.31-25,702.85c1.56.57,4.42.57,3.61,3-.65,1.95-3.26,1.16-4.91.65a46.85,46.85,0,0,1-11.29-5.12c-1.19-.76-3.47-3.48-4.37.58l0,0c-2.21-.46-3.74-1.6-4-4,1.24-.27,2.25,1.53,4,.16-2.21-3.19-5.73-5.39-7.19-9.11a1.37,1.37,0,0,0-2-.74c-1,.65-.81,1.67-.28,2.61,1,1.81,3.47,2.64,3.53,5.12a3.67,3.67,0,0,1-2.6-1.18c-.68-.58-1.21-1.82-2.37-1.19s-1.09,1.85-.71,3c.25.78.43,1.57.63,2.36l.06-.06c-1.82,1.49-1,3.3-.57,5,2.28,8.2,8,13,16,14.83A129.66,129.66,0,0,1-1.41,732.6c4,2.31,8.23,4.37,12.91,5,2,.3,4.22,1,6.17-1.09-2.19-1.43-5.41-.22-6.76-3.27,4,1,7.71,3.09,12.85.18-5.08-.32-8.56-1.84-12.06-3.28-.85-.36-2.42.06-2-2s.15-2.14-1.59-1.41c-2.09.87-2.84.39-2.06-.67,2.06-2.76-.78-3-1.76-4C1.5,719-3,717.74-5.4,712.62c4.9.77,7.87,3,10.81,5.32,5.57,4.47,10.91,9.3,18,11.27,5.86,1.63,11.09.11,14.93-4.28,3.55-4.06,1.92-8.68-.24-13a24.91,24.91,0,0,0-4.87-6.28c-4-4-8-8-11.94-12-1.07-1.11-2.74-2.07-1.66-4.84,3.31,2.76,6.39,5.37,9.51,7.93.68.56,1,2.27,2.14,1.47,3.86-2.63,5,1,6.59,2.89,2.1,2.5,3.86,5.29,6.67,9.22-1-5.53-1-10-2.78-13.76-1.63-3.45-4.84-6.32-7.8-9a62.21,62.21,0,0,1-17.14-24.64C13,652.85,6.16,645.28-4.74,642.57c-7.52-1.87-14.6-.84-20.54,4.9A45.62,45.62,0,0,0-17,648c4.68.07,4.68.09,7.14,2.33-18.25-.27-18.25-.27-20.37,2.64a81.27,81.27,0,0,1,9.12,0C-11.35,654.21-3,657.91,2,667l.05-.05c-1.25.22-2.28-1.61-4-.09,2.17,2,4.62,3.83,5.24,6.9ZM-53,663.33c-3.93-.45-7.89-.08-11.79-.06-2.91,0-5.59-1.41-8.31,1-1.4,1.25-2.63,2.05-1,3.93,1.24,1.44,2,3.84,4.61,1.92C-64.6,666.49-58.94,664.8-53,663.33Zm23.08-7.84c6.82-.18,12.86,3.15,19.4,3.89C-16.27,654.52-23,654.4-29.91,655.49Zm21.14,5.44a2.08,2.08,0,0,0,1.67,1.69c.9.15,1.11-.52.89-1.15a1.58,1.58,0,0,0-1.74-1.25C-8.28,660.27-8.54,660.72-8.77,660.93Z" transform="translate(375.88 -28.58)"/><path class="cls-1" d="M625.12,107.15c-1.8,7.79-2.22,14.79,0,21.85,1.48,4.71-2.23,6.1-5.46,7.38-3.06,1.22-5.74,1-7.33-2.7-4.59-10.75-2.58-20.52,4.29-29.47,2.88-3.76,6.29-7,4.62-12.45-.43-1.44-.62-2.82-1.71-4-15.89-16.84-6-42.21,17.63-47.6,5.1-1.16,10.25-1,15.35-1.47,10.13-.91,19.4-4.55,28.66-8.18C690.22,27,699.2,28,704.73,36A6.31,6.31,0,0,0,708,38.1c7.93,3.09,11.52,10.26,9,18.48-.89,2.87-1,5.12.74,7.85,2,3.21,1.42,7,.51,10.66C716.83,80.84,713.2,85.32,709,89a223.56,223.56,0,0,0-28.08,29c-11.75,14.61-29.4,14.37-40.14-.92-.69-1-1.22-1.93-2.59-2C632.84,114.58,628.91,111.7,625.12,107.15Zm35,4.12c.19-.22.58-.57.55-.62-.41-.58-.72-.23-1,.17-.18.21-.54.54-.49.61C659.59,112,659.87,111.58,660.14,111.27ZM617,113.08c-.07-.78-.13-1.56-.24-2.91-.85,1.68-2.44,2.51-1.16,4.11L617,113c0,3.16.31,6.36-.68,9.81-2.26-1.9-.46-4.29-2.25-6.32,0,3.88-.07,7.28,0,10.67,0,1.65.86,3.16,2.77,2.6,1.67-.5,4.68-.35,4-3.27a35.18,35.18,0,0,1,1.37-20.38C618.89,108.19,619.25,111.56,617,113.08Zm53-7-.06,0a10.31,10.31,0,0,1-3.8,3.79,53,53,0,0,1-15.69,8.2c-.91.28-2.17.44-1.88,1.74a1.94,1.94,0,0,0,2.39,1.3,62.27,62.27,0,0,0,6.53-2.14c2.91-1.11,5.34-3.3,8.5-3.85l-.05,0c-2.32,4.55-8.16,4.2-11.12,7.92a18.79,18.79,0,0,0,21.83-6.41A163.28,163.28,0,0,1,708.35,83c5.57-4.39,9.47-10.21,5.83-19-1.45,6.7-7.25,7.25-11.39,10l-1.1.91c-4.73,1.31-8.29,4.81-12.7,6.7-1.17.5-2.69,2.45-3.75.51-.8-1.45.93-2.71,2.16-3.49,3.65-2.31,7.33-4.55,11.08-6.68,6-3.43,11.34-7.49,14.26-14.08,3.53-8-1.4-15.78-10-15.87a22.85,22.85,0,0,0-9.2,1.85q-11.49,4.77-23,9.42c-1,.39-2,1.39-3.43-.47,2.25-1.17,4.43-2.22,6.51-3.42,6.59-3.82,14.08-5.84,20.37-10.24l1.93-.21-.27-.55-1.62.82c-2.71-.72-4.89,1.6-8.35,1.73,4.2-4.25,9.46-3.24,13.62-5.58C695,34.72,691.32,32,686.74,33a37.32,37.32,0,0,0-8.9,3.12c-9.23,4.48-18.77,7.25-29.22,7.2s-20.45,2.66-27.71,11.21c-5.81,6.84-9.66,17-4.53,23.37,2.68-5.22,3.67-11.41,8.9-15a108.36,108.36,0,0,1-4.9,10.25c-2.7,5.51-2.73,7.19-.72,10,1.85-3,1.39-7.26,5.18-9.16l.19.17c-1,3.85-3.92,7.15-3,11.67,2.59-7,6.46-13,12.25-17.62,5.63-4.47,11.84-7.75,19.25-8.31-5.33,2.93-10.86,5.44-15.63,9.2-8,6.27-13.13,14.11-12.87,24.61.33,13.56,10.52,20.78,23.42,16.74a42.09,42.09,0,0,0,20.25-13.88c1-1.23,1.52-3,3.91-2.88.12,4-2.15,6.83-4.44,9.6C665.7,106.26,668.1,106,670,106.1Zm-25.32,9.8c4.18,2,7.35-.45,10.63-2.49A22.43,22.43,0,0,0,644.66,115.9Zm-29.14,17.2c3.33,1.28,5.07.22,6.66-1.22a1.45,1.45,0,0,0,0-1.2C619.77,130,618.28,131.7,615.52,133.1Zm41.89-20.39.19-.25-.31,0Z" transform="translate(375.88 -28.58)"/><path class="cls-1" d="M970.6,568.26c.67,2.22,1.43,4.42,2,6.68.3,1.22.88,2.87-.69,3.54s-2.32-.81-3-2c-1.33-2.4-2.62-4.83-4.31-8-1.21,2.86.37,7.15-4.61,5.55-1.32-.43-1,2.14-1.54,3.26-.91,1.78-1.62,4.11-4.21,3.19-2-.71-2-2.62-1.65-4.64,1.4-9.13,1.39-8.8-7.44-7.52-12.14,1.75-23.4.19-32.61-9.36-6.94-7.19-8.64-15.45-7-24.78,1.25-7.12,4.67-13.49,7.39-20.09,4.93-12,4-23.68-1.35-35.26-.59-1.29-2.66-3.18-.14-4.12,2.06-.77,5.07-2.22,6.59,1,6.57,13.86,18.53,19.54,32.67,22.7,8.37,1.87,16.81,3.67,24.89,7,10.13,4.12,13.58,18.23,11.42,26.16-3,11.13-9.5,19.61-18.48,26.45-.77.59-1.47,1.27-2.47,2.14,4.39,1.71,8.5,3.2,12.51,4.94,1.81.79,4,2.11,2.84,4.46s-3.42,1.05-5.23.28l-5-2.15c-.24-.15-.59-.49-.7-.42C969.87,567.64,970.31,568,970.6,568.26Zm-51.74-85.18c-1.48,1.37-.61,2.43-.34,3.48a46.33,46.33,0,0,1-2.76,30.68c-2,4.57-3.87,9.2-5.48,13.91-5.09,14.82,2.59,29,17.72,32.89,21.71,5.63,46.88-7.83,54.44-29.12,4.49-12.63.15-23.89-11-27.55-5.66-1.86-11.53-3.13-17.35-4.47-9.59-2.21-19-4.6-27.08-10.81C923.76,489.55,921.82,485.86,918.86,483.08Zm37.76,87.72c-1.45,3.63-1.45,3.63-1.14,6.54C957.06,574.73,957.06,574.73,956.62,570.8Z" transform="translate(375.88 -28.58)"/><path class="cls-1" d="M454,718.31c0-16.14,2.74-28.12,9.89-38.88,13.32-20.08,35-24,54.13-9.45,7.11,5.4,14.42,9.74,23.22,11.87s17.69,5.48,23.5,13.14c9.07,12,9.07,25.11,4.08,38.73-10.28,28-35.79,41.37-62.44,38.62C477.11,769.31,453.4,747.45,454,718.31Zm3.86-4.08c-.31,18.9,7.3,33.88,22.49,44.87,26.86,19.44,72.12,10.06,85.42-27,7.87-21.91-.44-40.91-23.81-46.37a55.28,55.28,0,0,1-19.79-9,148.83,148.83,0,0,0-12.74-7.83c-11.58-6.57-25.75-4.57-35.55,4.39C461.71,684.38,458.32,698.69,457.83,714.23Z" transform="translate(375.88 -28.58)"/><path class="cls-1" d="M915.55,248.14c10.35,0,17.3,7.62,17.28,18.94s-7.9,19.8-18.11,19.71a17,17,0,0,1-16.65-17.06C898.31,256.11,904.93,247.74,915.55,248.14Zm13.53,19c0-9.27-5.07-15-13.41-15.17s-14.74,7-14.69,16.12c0,8.49,6,14.83,14.09,15C923.35,283.21,929.06,276.73,929.08,267.16Z" transform="translate(375.88 -28.58)"/><path class="cls-1" d="M-329.68,761.91c-10,0-17.32-7-17-16.77.4-13.69,7.1-21.5,17.85-21.22,11.57.31,16.81,8.43,17.52,18.47C-310.59,753-319.57,761.93-329.68,761.91Zm.61-34.09c-8.29,0-14.77,6.77-14.85,15.49-.08,8.87,6.28,15.68,14.58,15.59,7.7-.08,14.14-7.39,14.32-16.23C-314.86,734.42-321.11,727.81-329.07,727.82Z" transform="translate(375.88 -28.58)"/><path class="cls-1" d="M-51.47,40.15c10.57,0,17.41,7.32,17.44,18.74,0,10.68-8,19.74-17.74,19.89-9,.14-17.08-8.06-17-17.35C-68.76,48.33-62.13,40.19-51.47,40.15Zm.66,3.83c-8.78-.1-14.92,6.28-15.09,15.69-.15,8.65,6,15.32,14.22,15.38S-37.13,68-37.09,58.69C-37,50.6-43.14,44.06-50.81,44Z" transform="translate(375.88 -28.58)"/><path class="cls-1" d="M862,714.75c-.07-6.63,2.17-10.76,6.41-11.52a9.2,9.2,0,0,1,9.33,3.41,9.09,9.09,0,0,1,1.27,9.82c-2.54,6-8.31,8.81-13,12.65-1.54,1.26-3.07.65-2.88-1.51C863.52,723.23,861.72,719.09,862,714.75Zm7.94,7.17L871,721c6.15-3.09,7.7-6.93,4.31-11.81-.51,4.48-3.47,7.65-4.47,11.65-.3.36-.61.71-.92,1.07a1.23,1.23,0,0,0-.35.15c-.05,0,0,.18-.05.27Zm-2.11-15.12c-5.44,2.36-3.38,6.92-3.44,10.87.62-3.74,3.28-6.79,3.72-10.58l.37-.65Zm-1.28,15.31c2.65-3.8,5.86-7.26,6.54-12,.14-1,1.41-2.33-.3-3-1.46-.56-1.87,1-2.55,1.85C867.18,712.77,867,717.48,866.54,722.11Z" transform="translate(375.88 -28.58)"/><path class="cls-1" d="M-33.93,706.9c-.94-.09-2,.22-2.55-.93-.07-.15.23-.66.38-.67,1.18-.09,1.74.68,2.11,1.65Z" transform="translate(375.88 -28.58)"/><path class="cls-1" d="M-38.84,703.2c.16.21.46.41.49.65.07.61-.34.82-.84.61a1,1,0,0,1-.39-.75C-39.57,703.56-39.17,703.42-38.84,703.2Z" transform="translate(375.88 -28.58)"/><path class="cls-1" d="M-53,699c.81,0,1.57.12,1.62,1.17a.46.46,0,0,1-.31.31c-1.07,0-1.15-.77-1.25-1.54Z" transform="translate(375.88 -28.58)"/><path class="cls-1" d="M15,686c.82,0,1.64,0,1.71,1.14,0,.11-.19.32-.31.33-1.12.1-1.22-.73-1.34-1.52Z" transform="translate(375.88 -28.58)"/><path class="cls-1" d="M-44.28,706.16l-.73.35-.44-1c.27,0,.61-.22.79-.11S-44.4,705.88-44.28,706.16Z" transform="translate(375.88 -28.58)"/><path class="cls-1" d="M-48,703.16c.25.14.61.21.72.42s-.1.51-.18.77c-.24-.15-.57-.25-.71-.47S-48.12,703.42-48,703.16Z" transform="translate(375.88 -28.58)"/><path class="cls-1" d="M-41.7,708.31c0,.1-.09.29-.13.29a1.19,1.19,0,0,1-.38-.12c0-.1.08-.29.12-.29A1.94,1.94,0,0,1-41.7,708.31Z" transform="translate(375.88 -28.58)"/><path class="cls-1" d="M-47,696.9l1,1.06Z" transform="translate(375.88 -28.58)"/><path class="cls-1" d="M-42,702l.51.37c-.1,0-.24,0-.29,0a1.41,1.41,0,0,1-.18-.37Z" transform="translate(375.88 -28.58)"/><path class="cls-1" d="M15.07,685.91l-.39-.2L15,686Z" transform="translate(375.88 -28.58)"/><path class="cls-1" d="M-34,707l.45.37c-.09,0-.21,0-.25-.07a1.07,1.07,0,0,1-.14-.35Z" transform="translate(375.88 -28.58)"/><path class="cls-1" d="M-48,695.91l1,1.05Z" transform="translate(375.88 -28.58)"/><path class="cls-1" d="M4,674.94l.48.47c-.11,0-.25,0-.31-.08a1.58,1.58,0,0,1-.15-.4Z" transform="translate(375.88 -28.58)"/><path class="cls-1" d="M4.05,674.93l-1.12-.87.34-.34L4,674.94Z" transform="translate(375.88 -28.58)"/><path class="cls-1" d="M3,668l.36.18-.31-.22Z" transform="translate(375.88 -28.58)"/><path class="cls-1" d="M2,667l1,1,0,0-1-1Z" transform="translate(375.88 -28.58)"/><path class="cls-1" d="M630.81,66.94C634,61.72,639,59.3,645,58.68l-14,8.5Z" transform="translate(375.88 -28.58)"/><path class="cls-1" d="M624.84,74c.09-2,.62-3.73,3-4l.14.14c-.23,1.91-1.54,3-3,4Z" transform="translate(375.88 -28.58)"/><path class="cls-1" d="M702.12,75.22l1-1c.63,0,1.56,0,1.53.68-.06,1.56-1.32,2-2.68,2.13v0Z" transform="translate(375.88 -28.58)"/><path class="cls-1" d="M702,77.08a1.79,1.79,0,0,1-2,1l.06,0a1.76,1.76,0,0,1,2-1Z" transform="translate(375.88 -28.58)"/><path class="cls-1" d="M699.92,78l-.38.46c0-.09,0-.21.07-.26a1.79,1.79,0,0,1,.37-.15Z" transform="translate(375.88 -28.58)"/><path class="cls-1" d="M631.05,67.18l-1,1-.16-.17c.32-.34.64-.69.95-1Z" transform="translate(375.88 -28.58)"/><path class="cls-1" d="M630,68.15l-1,1-.08-.07,1-1.06Z" transform="translate(375.88 -28.58)"/><path class="cls-1" d="M627.89,70l1-1,.07.07-1,1Z" transform="translate(375.88 -28.58)"/><path class="cls-1" d="M670,106.1c.11-.16.23-.31.35-.47,0,.09,0,.21-.07.25a1.54,1.54,0,0,1-.34.17Z" transform="translate(375.88 -28.58)"/><path class="cls-1" d="M666,115.09l.24-.42-.29.37Z" transform="translate(375.88 -28.58)"/><path class="cls-1" d="M940.1,517.79c10.88,8.68,18.35,19.38,19.79,33.63.22,2.21-.94,2.73-2.75,3.82-4,2.42-9.53.57-12.92,5-.71.92-4.19-1-4.69-2.38-3.53-9.73-9.23-18.62-11.07-29-1.5-8.47-3.32-16.88-2.63-25.7,1,5.79,2,11.58,3,17.36a100.53,100.53,0,0,0,10.64,30.94c2.23,4.08,4.5,6.06,9.69,4.71,8-2.09,9.07-3.17,7-11.13-2.3-9-8-15.93-13.61-22.93-1-1.28-2.51-2.23-2.8-4Z" transform="translate(375.88 -28.58)"/><path class="cls-1" d="M930.77,560.12c-7.34-2.84-10.91-9-12.77-16-2.9-10.72-.38-21.24,2.93-31.56,1,5.59-.84,11-1.55,16.44a35.74,35.74,0,0,0,1.89,16.57c1.91,5.61,5.9,9.91,9.75,14.25Z" transform="translate(375.88 -28.58)"/><path class="cls-1" d="M932.63,499.62c7.7,6.39,16.81,10.61,24.63,16.7a31,31,0,0,1,9.79,12.92c.67,1.66,1.41,3.37,0,5.64-2.16-4.27-3.43-8.62-6.46-12.15-4.31-5-9.71-8.42-15-12.06C940.88,507.46,935.76,504.71,932.63,499.62Z" transform="translate(375.88 -28.58)"/><path class="cls-1" d="M975.55,540.51c3.2-7.49,2.82-14.49-3.26-21.35C980.38,522.18,981.94,534.26,975.55,540.51Z" transform="translate(375.88 -28.58)"/><path class="cls-1" d="M972.21,517.76c-6-3.59-12.53-5.88-18.52-9.4C960.67,509.8,967.22,512.16,972.21,517.76Z" transform="translate(375.88 -28.58)"/><path class="cls-1" d="M937.73,515.14a2.08,2.08,0,0,1-1.84-2.14l.06-.07a2,2,0,0,1,2.07,2Z" transform="translate(375.88 -28.58)"/><path class="cls-1" d="M965.33,547.73c.09,0,.25.08.25.12a1.1,1.1,0,0,1-.1.34c-.1,0-.26-.08-.26-.11A1,1,0,0,1,965.33,547.73Z" transform="translate(375.88 -28.58)"/><path class="cls-1" d="M962.89,551l-1,.74c-.23-1.17.74-.44,1.09-.7Z" transform="translate(375.88 -28.58)"/><path class="cls-1" d="M938,514.89a1.87,1.87,0,0,1,1.06,1.93l-.21.21a2.15,2.15,0,0,1-1.14-1.89Z" transform="translate(375.88 -28.58)"/><path class="cls-1" d="M939.08,516.82l1,1-.27.27-1-1Z" transform="translate(375.88 -28.58)"/><path class="cls-1" d="M962.93,551l.18-.43-.22.39Z" transform="translate(375.88 -28.58)"/><path class="cls-1" d="M931,559.87l.42.64-.66-.39Z" transform="translate(375.88 -28.58)"/><path class="cls-1" d="M935.89,513l-.45-.57.51.5Z" transform="translate(375.88 -28.58)"/><path class="cls-1" d="M465,718.55c-.57-8.37,2-16.41,5.13-24.33,4.64-11.64,24.13-22,34.1-17.46a24.82,24.82,0,0,1,8.17,5.52c6.28,6.75,5.95,13.23-.81,19.63-3.25,3.08-6.82,5.82-10,8.94-3.82,3.74-5.47,8.21-3.69,13.6a66.57,66.57,0,0,1,1.88,7.22,14.62,14.62,0,0,1-6.43,15.55c-6.32,3.74-12.65,3.24-17.94-1.45C467.24,738.6,464.48,729.36,465,718.55Zm3.9,1.69a29,29,0,0,0,6,20.5c4.43,5.8,12,7,17.67,2.93,4.07-3,5.15-8.08,2.7-15.39-3-9-.62-16.29,6.43-22.3a66.82,66.82,0,0,1,5.86-4.62c4-2.67,6.89-6,6.09-11-.91-5.74-5-8.47-10.18-10.45-10.59-4-26.8,6.45-30.14,16.48C470.74,703.94,468.49,711.56,468.85,720.24Z" transform="translate(375.88 -28.58)"/><path class="cls-1" d="M518.93,711.08c.26-4.15-.72-7.74.65-11.07,4.12-10,11.9-11.84,22.24-8,10,3.67,13.69,12.45,14.88,21.94,1.75,14-.69,27.1-10.72,38-5.11,5.57-20.17,11.51-29.83,6.94-10.92-5.18-13.55-19.49-4.33-28.88C517.41,724.31,520.44,718.34,518.93,711.08Zm35.14,10.22c-.36-10.68-2.69-20.52-12.75-26.46-9.4-5.54-19.36.27-19.38,11.14a28.18,28.18,0,0,0,.41,6.44,14.89,14.89,0,0,1-2.3,12.3c-2.68,4-5.91,7.61-8.29,11.74-4.77,8.28-.48,18,8.73,20.46,9.7,2.62,22.13-3.2,27.57-13.24C551.82,736.76,554.25,729.37,554.07,721.3Z" transform="translate(375.88 -28.58)"/><path class="cls-1" d="M507.52,711.59c-3.28,4.71-4.2,10-3.63,16.61C499.66,722.63,501.47,715.52,507.52,711.59Z" transform="translate(375.88 -28.58)"/><path class="cls-1" d="M511.41,725.12l3.36-9.54C516,719.49,515,722.73,511.41,725.12Z" transform="translate(375.88 -28.58)"/><path class="cls-1" d="M921.94,272c-4.39.12-1.65,2.7-1.24,5.29-3.92-3.65-6.93-3.81-8.86,1.64-.29-3.85.09-7.92-7.27-5.87,5.35-3.6,5.12-6.81,2.9-10.24,4.54-.28,5.07-.81,6.14-6.71,1.62,3.64,4.44,4.21,7.47,4.31-.91,4.25,1.73,5.06,5.46,5.19-2.86,1.49-5.95,2.52-4.65,6.45Zm-3-4.75c0-2.38-.46-4.31-3.39-4.36s-4.27,1.89-4.4,4.31S912,272,915,271.91C917.73,271.85,918.86,269.87,918.94,267.25Z" transform="translate(375.88 -28.58)"/><path class="cls-1" d="M921.89,272.06l1.32.3-.24.39-1-.75Z" transform="translate(375.88 -28.58)"/><path class="cls-1" d="M-340.16,748.82c5.16-3.57,5.53-6.7,2.29-10.48,4.09-.18,7.08-1.2,7.24-6,2.05,3,4.42,4.33,8.76,1.76-3.88,6-.95,7.09,4.57,7-3.29,2.08-8.29,2.41-4.38,6.85,0,0-.42.56-.55.52-5.5-1.55-.8,3.19-2.63,4.06-4-5.69-5.74-.59-8.7,2.86C-332.87,750.49-333.08,747-340.16,748.82Zm14.3-6.56c.2-2.12-.54-4.07-3-4a4.51,4.51,0,0,0-4.65,4.79c.05,2.11,1.2,4.57,3.72,4.5C-326.93,747.47-325.53,745.39-325.86,742.26Z" transform="translate(375.88 -28.58)"/><path class="cls-1" d="M-46.94,68.78c-3.94-5.77-5.72-.62-8.47,2.51-.15-3.81,1-8.26-6-6.3,3.91-3.54,4.76-6.76,1.71-10.27,3.31-1.06,7.38-.89,6.08-7,2.73,3.35,5.15,5.35,8.94,3.21-1.85,5-1.73,5.27,3.67,7-2.47,1.37-6,2.26-2.94,5.81.42.48.15,1.07-.38.93C-49.85,63.19-45.11,67.86-46.94,68.78Zm-.93-9.25c-.09-2.91-.68-5.26-3.4-5.08a4.75,4.75,0,0,0-4.49,5.06,4,4,0,0,0,4,4.19A3.74,3.74,0,0,0-47.87,59.53Z" transform="translate(375.88 -28.58)"/><path class="cls-1" d="M484.89,714.84a16.1,16.1,0,0,1-7-2.13c-1.53-.89-3.34-2-2.37-4.27a3.88,3.88,0,0,1,4.94-2.29,39.28,39.28,0,0,1,6.3,2.8c1.7.87,3.26,2.42,2.84,4.24C489,715.49,486.61,714.6,484.89,714.84Zm1.64-2.92c-2.33-1.74-4.54-3.81-8.55-2.57C480.61,712.29,483.43,712.52,486.53,711.92Z" transform="translate(375.88 -28.58)"/><path class="cls-1" d="M498,698c-.17,1.07.6,2.71-.85,3.43-1.7.85-2.69-.77-3.73-1.72-2.08-1.91-4.08-3.93-4.46-6.92-.21-1.66-.33-3.44,1.5-4.35s3.33.12,4.45,1.28A11.14,11.14,0,0,1,498,698Zm-3-.13.41.22L495,698c.26-2.54.29-5-2.26-6.55-.66-.39-1.48-.12-1.47.65A6.44,6.44,0,0,0,495,697.91Z" transform="translate(375.88 -28.58)"/><path class="cls-1" d="M486,735.9l-.49-.06c-2.46-.42-5.5,1.27-7.21-1.84a3,3,0,0,1,.71-3.65,12,12,0,0,1,8.81-4c2.19,0,2.22,1.78,1.57,3.71-.76,2.23-3.5,3.23-3.43,5.87Zm1.06-6.68c-3.1-.15-5.21.71-6.53,3-.3.54.46,1.35,1.14,1.3C484.15,733.37,485.9,732.11,487.06,729.22Z" transform="translate(375.88 -28.58)"/><path class="cls-1" d="M502.18,684.19c3.33,3.35,3.37,6.26,3.46,9.15a1.21,1.21,0,0,1-1.21,1.3c-.71,0-1.11-.59-1.2-1.33C502.94,690.74,502.64,688.18,502.18,684.19Z" transform="translate(375.88 -28.58)"/><path class="cls-1" d="M487.54,702.33c-2.44-.77-4.18-2.22-5.54-5.35C485.14,698.26,486.71,699.9,487.54,702.33Z" transform="translate(375.88 -28.58)"/><path class="cls-1" d="M485.34,719.06a9.4,9.4,0,0,1-7.84-.34C480.9,717.67,483.12,717.77,485.34,719.06Z" transform="translate(375.88 -28.58)"/><path class="cls-1" d="M486,735.93c.77.17,1.76.11,2.25.57s-.1,1.15-.73,1.4c-1.27.5-2.28,1.85-3.91,1.34-.34-2,2-2,2.43-3.34Z" transform="translate(375.88 -28.58)"/><path class="cls-1" d="M489.63,704.27l.39-.15.13.6a1.29,1.29,0,0,1-.42-.12C489.65,704.55,489.66,704.38,489.63,704.27Z" transform="translate(375.88 -28.58)"/><path class="cls-1" d="M523.59,730.26a19.52,19.52,0,0,1,7.35,7.16c-2.85.13-3.68-3.08-6.51-2.39.52,2.47,2.63,4,3.61,6.12a18.63,18.63,0,0,1,1.63,3.63c.68,3,1,6.38-2.53,7.72s-5.08-1.67-6.39-4.17c-2.87-5.54-2.2-10.05,1.72-14.69C523.1,732.88,523.15,731.63,523.59,730.26ZM522.24,738c-.69,3.8-.52,6.84,1.09,9.69.63,1.12,1.24,2.72,2.92,1.84a2.58,2.58,0,0,0,1.18-3.45C526.25,743.38,525.29,740.51,522.24,738Z" transform="translate(375.88 -28.58)"/><path class="cls-1" d="M533.77,723.09c3.49.24,6.91.83,9.35,3.67,1.06,1.24,2,2.68,1,4.49a4.16,4.16,0,0,1-4.47,2.43c-4.76-.7-8.46-3.51-11.84-6.67-1.4-1.3-1-2.66,1-3.21A12.35,12.35,0,0,1,533.77,723.09Zm-2.63,3c2.35,2.54,4.74,3.28,6.94,4.33.92.44,2,.69,2.63-.38s-.11-1.9-.85-2.6C537.49,725.15,534.64,726,531.14,726.06Z" transform="translate(375.88 -28.58)"/><path class="cls-1" d="M529.94,714c-.92-.08-2.57.56-3.32-.72s.23-2.91,1-4.08c2.12-3.43,5.47-5.2,9.33-5.89a4.35,4.35,0,0,1,4.62,2.21c1,1.7.14,3.11-1,4.45C537.79,713.05,534.21,713.93,529.94,714Zm-.48-2.34c3.29-.88,6.87-.68,9-4a.92.92,0,0,0-.81-1.42,9.56,9.56,0,0,0-8.29,4.45C529.31,710.74,529.4,711,529.46,711.62Z" transform="translate(375.88 -28.58)"/><path class="cls-1" d="M534.1,698c-1.85,3.85-4.68,4.6-8.59,6.17C528,700.44,530.44,699.13,534.1,698Z" transform="translate(375.88 -28.58)"/><path class="cls-1" d="M516.86,737.64c1.32,3.09,1.27,6.19.57,10.5C515.31,743.91,516.34,740.75,516.86,737.64Z" transform="translate(375.88 -28.58)"/></svg>