<svg id="Layer_1" data-name="Layer 1" xmlns="http://www.w3.org/2000/svg" viewBox="0 0 318.66 173.77"><defs><style>.cls-1{fill:#ffe09b;}.cls-2{fill:#fff;}</style></defs><path class="cls-1" d="M121.48,322.49c-.72.78-1.35,1.32-2.15.34-.35-.43-.44.06-.59.22-.36.41-.74.8-1.32.53a1.36,1.36,0,0,1-.79-1.37,10,10,0,0,1,1.32-3.93c.11-.24.52-.53.07-.81s-.6.16-.78.44a17.24,17.24,0,0,1-2.49,3.5c-.24.24-.43.58-.93.58a5.79,5.79,0,0,1,1.06-2.5,19.16,19.16,0,0,1,1.19-1.79,1.71,1.71,0,0,0-.1-2.52l-2,1.77c-.75.65-1.5,1-2.17-.1-.33-.55-.75-.21-1.16-.14-1,.19-1.51-.35-1.23-1.34.07-.22.2-.34,0-.6-1-1.23-.9-1.42.62-2a1.87,1.87,0,0,0,.3-.17c-.82-.51-2.14-.38-2.24-1.71-.07-.83.66-1,1.27-1.15-.19-.91-1.53-1.74-.47-2.67.81-.7,1.44.47,2.2.73.2-.49.21-1.27.9-1.21,1,.09,1.08,1.25,1.66,1.89.28-.23.14-.52.18-.77.08-.42.24-.79.68-.9s.63.25.8.58.38.72.88.35-.1-.57-.14-.85a4.56,4.56,0,0,0-1.24-2.12,1,1,0,0,1-.19-1.12c.23-.39.64-.28,1-.22s.56.12.67-.35c.28-1.14,1-1,1.69-.42a3.43,3.43,0,0,1,.93.93c.42.7.81.07,1.2,0,.6,0,.39-.47.33-.81-.15-.85-.26-1.69.79-2.09.35-.13.27-.45.28-.71s0-.56,0-.84c0-.72.18-1.49.88-1.7s.93.67,1.27,1.16c.06.1.13.19.27.38.48-.66.91-1.3,1.39-1.9a1.24,1.24,0,0,1,1.21-.62c.52.13.51.68.61,1.08a3.49,3.49,0,0,1-.06,1.54c-.13.66-.59,1.53.8,1.42.44,0,.56.4.34.8s-.52.89-.8,1.33-.68.71-.27,1.26c.16.21,0,.44-.06.67a1.61,1.61,0,0,0,.86,2.19c.27.14.56.39.38.64-.6.85.19.87.6,1.11s1,.5.9,1.12-.65.76-1.16.87c-.72.14-1.44.12-1.32,1.27.06.61-.54.83-1.13.43s-.77-.6-1.56-.23-1.61-.65-2.28-1.26c-1-.89-.9-.9-1.47.34-.68,1.49-1.46,2.93-2.15,4.41-.15.3-.68.65-.15,1a1.11,1.11,0,0,0,1.43-.06,10.86,10.86,0,0,1,4.31-2c.5-.14,1.11-.47,1.51.19s-.17,1-.49,1.44c-.06.09-.11.2-.19.32a9.08,9.08,0,0,1,1.3.56c.51.33.74.81.07,1.21-.5.3-.46.52-.1.9a3.55,3.55,0,0,1,.84,1.7c0,.22.15.61,0,.67-1.17.83-.35,1.89-.37,2.84,0,1.41-.46,1.74-1.67,1.16a.54.54,0,0,0-.71.08c-.79.71-1.38.25-1.89-.4A9.91,9.91,0,0,1,121.48,322.49ZM121,307.67c.61-.1.52-.56.42-.92A4.92,4.92,0,0,0,120,304.4c-.42.3,0,.88-.53,1.05-.33-.5-.65-1-1-1.48s-.84-1-1.3-.94-.1.89-.31,1.34l-.06.1c-.53.18-.94-.62-1.59-.17a2.51,2.51,0,0,0,1.41,1.24c.23.06.58.12.36.43-.72,1,.35.86.71,1.13s1-.1,1.28.29c.07.53-.93.7-.4,1.21s1.28.35,1.94.22.49-.64.42-1.08Zm2.83,12.51c-1.29-.69-2.46-1.6-3.82-2.19-.52-.23-.82-.24-1.15.32a13.73,13.73,0,0,0-1.48,3.12c-.14.49-.42,1.06.16,1.4s.82-.36,1.15-.69.5-.78,1-.19c.72.81,1,.73,1.43-.23.12-.27,0-.68.41-.78.35.16.33.51.42.81a11.88,11.88,0,0,0,1.07,2.9c.32.49,1,1,1.21.15.29-1.1.53-.81,1-.24.18.21.38.47.7.34s.29-.56.23-.83c-.14-.74-.36-1.47-.56-2.19-.08-.31-.25-.76.27-.64,1.35.3.6-.57.5-.91a3.18,3.18,0,0,0-.7-1.09c-1.11-1.24-1.12-1.23.37-1.63,0-.3-.34-.3-.53-.42-.51-.34-1.42.15-1.62-.45s.84-.85,1-1.64a16.27,16.27,0,0,0-5,2c1.55.89,3.11,1.49,3.9,3.05Zm-10.73-7.45c-.77.71-1.65.3-2.36.59-.41.16-1.22,0-1.14.56s.8.44,1.31.38c.05,0,.11.09.21.19a2.39,2.39,0,0,1-.28.35c-.32.32-1,.6-.75,1.06s.82-.13,1.25-.22,1.24-.52,1.22.58c0,.68.38.63.76.33a9.75,9.75,0,0,1,1.45-1.23c1.26-.63,1-1.33.27-2.15a3.59,3.59,0,0,1-.32-.36c-.74-1.19-2-1.86-2.89-2.89a9.55,9.55,0,0,1,5,4.3c.51-1.1.93-2,1.34-2.91.21-.44.23-.85-.41-.74-.9.14-1.1-.29-1.11-1.06a3.29,3.29,0,0,0-.29-.94c-.46.15-.42.71-1,.7-.28-.52,0-1.34-.77-1.69a2.8,2.8,0,0,0-.34,1.75c0,.23.08.54-.19.64s-.43-.24-.58-.45c-.49-.72-.7-1.65-1.51-2.19-.3.67.26,1.58-.32,1.84s-.72-.8-1.28-1c-.39-.17-.78-.7-1.15-.36s.14.75.34,1.09a3.43,3.43,0,0,0,.42.58c.42.5.6.89-.32,1-.26,0-.6.11-.66.43s.32.53.59.64C110.67,311.89,111.8,312.28,113.07,312.73Zm9.82-7.09a8.2,8.2,0,0,0,3.68-1.44c-1.58-.07-1-.55-.48-1.05a4.76,4.76,0,0,0,1.5-2c-.73-.17-1.14.64-1.89.44a7,7,0,0,0,.58-4.46,6.28,6.28,0,0,0-2,2.63c-.11.21-.2.47-.49.43s-.23-.28-.32-.45c-.29-.52-.41-1.17-1-1.48a4.82,4.82,0,0,0-.14,2.65c0,.48.6,1.09,0,1.4s-.67-.56-1.12-.7a1.27,1.27,0,0,0-.31,0,5.28,5.28,0,0,0,1.2,3.54c.75-1.3.9-2.72,1.83-3.76C124,302.85,123.26,304.12,122.89,305.64Zm1.5,5.77c.35-.39-.09-1,.4-1.24.74.31,1,1.18,1.79,1.46a.71.71,0,0,0-.06-.74c-.43-.86-.12-1.1.77-1,.56,0,1.2.23,1.72-.34-.71-.8-1.8-.75-2.66-1.23.17-.48.92-.35,1-.91-.68-.41-1.34.17-2,0-.1-.67.9-.58.75-1.29a9.93,9.93,0,0,0-3.38,1c-.25.12-.58.23-.52.57s.43.25.69.28a3.33,3.33,0,0,1,2.24.78c-.94.08-1.78-.36-2.7-.32-.59,0-.85.18-.5.78A5.28,5.28,0,0,0,124.39,311.41Zm-4-1.78c-1.33-.09-2.82.3-3-1.6,0-.17-.35-.17-.49,0-.26.38.41,1.71.9,1.8,1.09.19,1.36.64.9,1.65s-.88,1.79-1.37,2.66c-.22.4-.5.74.08,1.13A44.09,44.09,0,0,0,120.44,309.63Z" transform="translate(-108.02 -260.94)"/><path class="cls-1" d="M342,279.12a8.3,8.3,0,0,0-.13,5.16c.35,1.13-.42,1.43-1.14,1.71s-1.42.26-1.79-.75a6.74,6.74,0,0,1,1.72-7.35,2.84,2.84,0,0,0,.09-3.27c-3.22-3-2-8.53,2.66-10.53a18.66,18.66,0,0,1,5.28-.88,19.29,19.29,0,0,0,5.39-1.5,8,8,0,0,1,3.71-.75,2.34,2.34,0,0,1,1.68.52,20.52,20.52,0,0,0,3,2.33,3.35,3.35,0,0,1,1,3.71c-.11.4-.38.74-.13,1.25a4.09,4.09,0,0,1-.79,5.12c-.91,1-1.9,1.83-2.82,2.78-1.82,1.89-3.59,3.85-5.44,5.72-2.68,2.71-6.31,2.34-8.47-.8-.13-.2-.2-.48-.49-.48C343.85,281.11,342.9,280.22,342,279.12Zm8.72.8.71-.27c-.66,1.18-2,1.33-3,2-.32.2-1.11,0-.88.65s.84.24,1.28.07l1.72-.68.11.25-2,1a4.78,4.78,0,0,0,5.87-2.06,25.94,25.94,0,0,1,3.57-4.18c1.33-1.25,2.7-2.47,4-3.73a3.32,3.32,0,0,0,.77-3.81c-.34,1.26-1.46,1.47-2.36,2a45,45,0,0,1-4.51,2.56,1.5,1.5,0,0,1,.88-1.34c1.06-.64,2.13-1.26,3.17-1.92a5.48,5.48,0,0,0,2.4-2.59,2.81,2.81,0,0,0-.34-3,2.54,2.54,0,0,0-2.81-.79,18.72,18.72,0,0,0-2,.7c-1.81.75-3.63,1.46-5.45,2.19l-.12-.26,4.54-2.5a2,2,0,0,0,1.19-.5l.5-.16s0-.08-.07-.09a.46.46,0,0,0-.5.17,1.73,1.73,0,0,0-1.2.49c-.72-.45.09-.52.2-.58a18.73,18.73,0,0,1,3-1c-1.22-.3-2.38-1-3.69-.43-.44.19-.9.33-1.32.54a16,16,0,0,1-7.72,1.76,7.34,7.34,0,0,0-4.47,1.44c-2.27,1.64-3.24,4.47-2.19,6.52.53-.79.55-1.85,1.3-2.51l.09.08c-.19,1.31-1.4,2.42-.8,4,.52-.58.32-1.39,1-1.69.05.71-.55,1.31-.3,2.09a12.78,12.78,0,0,1,2.84-4.65l-.87.18a6.05,6.05,0,0,1,3.42-2.09c-.6.73-1.65.85-2.15,1.75,1.42-.51,2.71-1.42,4.29-1.42-1,.61-2,1.08-3,1.68-2.52,1.55-4,3.7-3.78,6.8.18,2.3,2,4,4,3.74a9.14,9.14,0,0,0,6.16-3.53c.21-.27.38-.62.86-.61.19.91-.48,1.46-.89,2.11-.23.37-.4.64.24.67h0a.89.89,0,0,1-1,.72c-.05-.14-.09-.4-.14-.4a.58.58,0,0,0-.63.56c-.23.07-.58-.05-.62.38C350.32,280.32,350.5,280.12,350.68,279.92Zm-9.66-.55c-1,.95-.81,2.3-1.06,3.55-.59-.39-.06-1-.57-1.45,0,.84,0,1.6,0,2.35,0,.41,0,1,.73.73.46-.16,1.09-.17.87-1a8.49,8.49,0,0,1,.1-4.13c.12-.09.25-.25.11-.32S341.07,279.27,341,279.37Zm5.44,1.78.09.35c1.16.25,2.06-.49,3-1.14Zm-6.59-.44-.13-.17c0,.07-.09.14-.09.21a.64.64,0,0,0,.08.2Z" transform="translate(-108.02 -260.94)"/><path class="cls-1" d="M184.1,410a7.29,7.29,0,0,0-4.75,1.7c-.84.65-1.41.4-2-.3a1.34,1.34,0,0,1,.23-2.23,6.66,6.66,0,0,1,7.07-1A2.71,2.71,0,0,0,187.9,407c1.37-3.31,6-4.58,9.06-2.56a10,10,0,0,1,3.78,4.62,17.73,17.73,0,0,0,3.91,5.52,6.74,6.74,0,0,1,2.38,4.54,2.29,2.29,0,0,1-.41,1.58,1.85,1.85,0,0,0-.38,1.22,3.56,3.56,0,0,1-3.54,3.71c-.34,0-.67-.06-1,.26-1.72,1.77-3.29,2.19-5.45,1.13-3.44-1.7-7.05-3-10.61-4.34a5.31,5.31,0,0,1-2.47-8.08c.16-.23.42-.42.32-.73a4.18,4.18,0,0,1-.16-1.89A5.59,5.59,0,0,1,184.1,410Zm3.06,8.33c-.06-.08-.13-.18-.22,0s.07.1.11.15.1.37.35.34c0,0,.14-.08.14-.12C187.54,418.45,187.34,418.42,187.16,418.37Zm17,0c.1.12.18.31.3.33s.13-.21.18-.34c.69.28.87,1,1.35,1.56.33-.68-.2-1.2-.16-1.79h0c.26-.86-.31-1.39-.83-1.87a20.1,20.1,0,0,1-5.68-8,6.38,6.38,0,0,0-2-2.53c-2.23-2-6-2.1-7.67-.11,1.33.19,2.74-.22,4.11.57-1.81.17-3.59-.86-5.39.59,1.14.15,2-.13,2.86.1,2,.53,3.86,1.2,5,3.11h0c-.66,0-.86-.93-1.66-.87.37,1.11,1.74,1.36,2,2.49l-.09.09c-.44-.06-.66-.42-.95-.68-2.23-2-4.7-3.3-7.8-2.46-2.47.66-4.68,3.1-2.82,6.12a8.88,8.88,0,0,0,4.81,3.69c.46.16,1,.21,1.26.81a3.48,3.48,0,0,1-2.27-.19c-.38-.08-.81-.37-.84.35h0c-1,0-1.56-.79-2.22-1.38l.09-.09.4.09c.07.08.13.19.23,0s-.08-.1-.12-.15c-.37-.91-1.33-1.33-1.78-2.18-.14-.28-.21-.85-.62-.71-.57.21-.05.67-.05,1l0,0c-1.05.18-.38.93-.47,1.43l0,0c-.58.81,0,1.52.26,2.19a4.37,4.37,0,0,0,3.16,2.5,37.2,37.2,0,0,1,9.81,3.86,4,4,0,0,0,3.5.38c-.44-.23-1-.13-1.39-.54h0c.82-.19,1.69.65,2.62-.1-1.07-.36-2.11-.35-2.86-1.09v0c.26-.38.25-.37-.29-.73a17.63,17.63,0,0,1-3.72-3A3.51,3.51,0,0,1,197,422c1.44,1.12,2.75,2.44,4.65,2.75a3.06,3.06,0,0,0,3.18-1.15,2.64,2.64,0,0,0,0-2.82,8.29,8.29,0,0,0-1.53-2,17.84,17.84,0,0,1-3-3.24l.11-.09a3,3,0,0,1,1.6,1.17c.51.65,1.42.46,1.93,1.05l-.39.14A.92.92,0,0,0,204.15,418.41Zm-20.48-9.36h-2c-.38,0-.38,0-.58-.23-.48-.55-1-.11-1.34.09-.58.29-1.31.38-1.61,1.07,0,0,.07.13.12.2.43.69.91,1.06,1.69.38a5.22,5.22,0,0,1,2.28-1C182.7,409.46,183.22,409.62,183.67,409.05Zm4.43-1.38a10,10,0,0,1,6.16,1.32A5.38,5.38,0,0,0,188.1,407.67Z" transform="translate(-108.02 -260.94)"/><path class="cls-1" d="M302,421.66a15.27,15.27,0,0,1,2.88-9.38,8,8,0,0,1,11.05-2.07c.27.17.55.34.8.53a18.85,18.85,0,0,0,6.17,3c7.36,2.14,7.92,8.16,5.23,13.53-3.58,7.14-12.43,9.1-18.62,6C304.53,430.87,302,426.79,302,421.66ZM315.49,434c5.6-.24,10.2-2.76,12.46-8.27,2-4.87.36-9.5-4.25-10.81a31.07,31.07,0,0,1-8.31-4.09,7,7,0,0,0-9,.9c-2.75,2.7-3.45,6.1-3.53,9.83A12.47,12.47,0,0,0,315.49,434Z" transform="translate(-108.02 -260.94)"/><path class="cls-1" d="M419,386.48a11.12,11.12,0,0,1-7.14.08,6.5,6.5,0,0,1-4-8.13c.53-1.62,1.27-3.18,1.84-4.79a8.83,8.83,0,0,0-.23-6.64c-.23-.54-.44-1.09-.65-1.63,1-.51,1.57-.27,2.12.77A8.83,8.83,0,0,0,417,370.5c2,.5,4,1,6,1.57a5,5,0,0,1,3.51,6.28,10.82,10.82,0,0,1-4.15,6.23c-.16.12-.33.23-.48.36a1.56,1.56,0,0,0-.18.3,12.28,12.28,0,0,1,3.16,1.26c.27.15.64.29.44.7s-.52.34-.84.23c-.58-.2-1.15-.44-1.88-.72.16.89.71,1.46.7,2.18,0,.19,0,.47-.14.54s-.46-.07-.57-.27c-.44-.74-.84-1.5-1.25-2.22-.57.29.49,1.48-.83,1.25l.3-2.44-.24,0c-.06.44-.13.88-.2,1.32-.37-.14,0-.59-.27-.73a3.38,3.38,0,0,0-1,2.22c-.07.35-.23.83.42.88,0,.34-.19.54-.53.41a.65.65,0,0,1-.36-.79c.15-.81.32-1.61.48-2.42,0-.06.12-.14.1-.16S419,386.4,419,386.48Zm-8.35-19.72c-.15.32-.21.39-.2.46,0,.23.11.46.16.69a10.59,10.59,0,0,1-.46,6.67c-.5,1.26-1.08,2.49-1.5,3.78-1.13,3.48.38,6.36,3.82,7.58a9.72,9.72,0,0,0,3.55.38,11,11,0,0,0,9.85-8.09c.61-2.68-.47-4.69-3.05-5.51-1.36-.44-2.77-.75-4.16-1.07C415.45,370.92,412.41,370,410.6,366.76Z" transform="translate(-108.02 -260.94)"/><path class="cls-1" d="M187.82,268a4.25,4.25,0,0,1-4.24,4.48,3.81,3.81,0,0,1-3.86-4c0-2.92,1.67-4.89,4.08-4.88A4,4,0,0,1,187.82,268Zm-4.14,3.77A3.65,3.65,0,0,0,187.1,268a3.56,3.56,0,0,0-3.39-3.64c-1.92.05-3.34,1.77-3.31,4A3.36,3.36,0,0,0,183.68,271.75Z" transform="translate(-108.02 -260.94)"/><path class="cls-1" d="M409.85,312.25a4,4,0,0,1,4.09,4.31,4.26,4.26,0,0,1-4.17,4.55,3.83,3.83,0,0,1-3.93-3.91C405.83,314.29,407.47,312.27,409.85,312.25Zm-3.32,4.57a3.35,3.35,0,0,0,3.23,3.57,3.64,3.64,0,0,0,3.46-3.71,3.37,3.37,0,1,0-6.69.14Z" transform="translate(-108.02 -260.94)"/><path class="cls-1" d="M118.76,423.44a4,4,0,0,1,4.08,4.33,4.26,4.26,0,0,1-4.19,4.53,3.83,3.83,0,0,1-3.92-3.92C114.73,425.46,116.37,423.45,118.76,423.44ZM115.42,428a3.37,3.37,0,0,0,3.23,3.58,3.63,3.63,0,0,0,3.46-3.71,3.58,3.58,0,0,0-3.34-3.69A3.62,3.62,0,0,0,115.42,428Z" transform="translate(-108.02 -260.94)"/><path class="cls-1" d="M397.42,421.31c0-1.14.13-2.23,1.38-2.6a2,2,0,0,1,2.41,1.11,2.13,2.13,0,0,1-.34,2.63,19.25,19.25,0,0,1-2.55,2.12c-.45.36-.67.2-.62-.31C397.8,423.25,397.38,422.3,397.42,421.31Zm1.94,1.67c1.55-1,1.93-1.85,1.24-3-.44,1-.86,2-1.29,2.94l-.1.15Zm-.54-2.94.12.12c-.09,1-.65,1.85-.46,3.25.57-1.13,1-1.94,1.4-2.79.2-.45.51-1.08-.1-1.36a1.18,1.18,0,0,0-1.67.67,5.45,5.45,0,0,0-.16,2.61A6.46,6.46,0,0,1,398.82,420Z" transform="translate(-108.02 -260.94)"/><path class="cls-1" d="M419.48,389.42c.11-.74.21-1.48.32-2.24.3.32.09.71.21,1C419.86,388.63,420.18,389.25,419.48,389.42Z" transform="translate(-108.02 -260.94)"/><path class="cls-2" d="M120.44,309.63a44.09,44.09,0,0,1-3,5.67c-.58-.39-.3-.73-.08-1.13.49-.87,1-1.75,1.37-2.66s.19-1.46-.9-1.65c-.49-.09-1.16-1.42-.9-1.8.14-.2.47-.2.49,0C117.62,309.93,119.11,309.54,120.44,309.63Z" transform="translate(-108.02 -260.94)"/><path class="cls-2" d="M419,386.48c.07-.08.15-.17.23,0s-.06.1-.1.16Z" transform="translate(-108.02 -260.94)"/><path class="cls-1" d="M124.07,320.38l.16.11c-.14.15-.14,0-.18-.08Z" transform="translate(-108.02 -260.94)"/><path class="cls-1" d="M123.84,320.13l.23.25,0,0-.25-.23Z" transform="translate(-108.02 -260.94)"/><path class="cls-1" d="M120.9,307.74l-2.34-1.68a2.9,2.9,0,0,1,2.41,1.61Z" transform="translate(-108.02 -260.94)"/><path class="cls-1" d="M351.93,280.8a3.14,3.14,0,0,1-.35.51c-.16.09-.34.16-.54.25C351,280.94,351.43,281.08,351.93,280.8Z" transform="translate(-108.02 -260.94)"/><path class="cls-1" d="M342.27,271a.72.72,0,0,1-.48.72C341.76,271.38,341.79,271.06,342.27,271Z" transform="translate(-108.02 -260.94)"/><path class="cls-1" d="M341.51,269.55l.12-.3s.13.09.12.1-.12.18-.18.27Z" transform="translate(-108.02 -260.94)"/><path class="cls-1" d="M342.51,270.55a.37.37,0,0,1-.24.49A.38.38,0,0,1,342.51,270.55Z" transform="translate(-108.02 -260.94)"/><path class="cls-1" d="M341.79,271.74c0,.21,0,.4-.24.49C341.51,272,341.54,271.82,341.79,271.74Z" transform="translate(-108.02 -260.94)"/><path class="cls-1" d="M352.59,278.7l.05-.09-.06.08Z" transform="translate(-108.02 -260.94)"/><path class="cls-1" d="M352.58,278.69l-.24.25h0l.25-.24Z" transform="translate(-108.02 -260.94)"/><path class="cls-1" d="M342.75,270.31c0,.16-.07.25-.24.25Z" transform="translate(-108.02 -260.94)"/><path class="cls-1" d="M343,270.07a.22.22,0,0,1-.24.25Z" transform="translate(-108.02 -260.94)"/><path class="cls-1" d="M343.23,269.83a.22.22,0,0,1-.24.25Z" transform="translate(-108.02 -260.94)"/><path class="cls-1" d="M341.57,269.62a2.56,2.56,0,0,0-.2.26l-.09-.08.23-.25Z" transform="translate(-108.02 -260.94)"/><path class="cls-1" d="M183.28,417.46a.69.69,0,0,1,.72.71h0a.71.71,0,0,1-.71-.72Z" transform="translate(-108.02 -260.94)"/><path class="cls-1" d="M199.64,414.76a.91.91,0,0,1,.75.71l-.11.09a.91.91,0,0,1-.72-.72Z" transform="translate(-108.02 -260.94)"/><path class="cls-1" d="M204.64,418.41h-.48c0-.16,0-.32,0-.48A.44.44,0,0,1,204.64,418.41Z" transform="translate(-108.02 -260.94)"/><path class="cls-1" d="M185.37,419.15l-.15.12L185,419c.07,0,.15-.06.2,0S185.33,419.09,185.37,419.15Z" transform="translate(-108.02 -260.94)"/><path class="cls-1" d="M186,419.66a1.21,1.21,0,0,1-.14.1s-.09,0-.09-.07a.61.61,0,0,1,.05-.18Z" transform="translate(-108.02 -260.94)"/><path class="cls-1" d="M184,416.23c.17.08.33.18.33.4,0,0-.06.07-.09.07-.24,0-.29-.2-.31-.4Z" transform="translate(-108.02 -260.94)"/><path class="cls-1" d="M197.91,424.41l-.39-.16.09-.15.32.29Z" transform="translate(-108.02 -260.94)"/><path class="cls-1" d="M198.39,424.65c-.21,0-.4,0-.48-.24l0,0a.51.51,0,0,1,.47.24Z" transform="translate(-108.02 -260.94)"/><path class="cls-1" d="M198.16,425.59l-.31-.07c.16-.22.21,0,.3.08Z" transform="translate(-108.02 -260.94)"/><path class="cls-1" d="M198.64,425.83c-.19,0-.38,0-.48-.24h0a.54.54,0,0,1,.48.24Z" transform="translate(-108.02 -260.94)"/><path class="cls-1" d="M188.48,419.75s0-.06,0-.06l.08,0s0,.06,0,.06Z" transform="translate(-108.02 -260.94)"/><path class="cls-1" d="M184.48,418.65l.14.1s-.07,0-.08,0,0-.06,0-.1Z" transform="translate(-108.02 -260.94)"/><path class="cls-1" d="M187.84,419.37l.1,0s0,0,0,.07l-.11-.12Z" transform="translate(-108.02 -260.94)"/><polygon class="cls-1" points="76.89 156.38 76.82 156.41 76.82 156.34 76.89 156.38"/><path class="cls-1" d="M184,416.3l-.21-.27,0,0,.25.23Z" transform="translate(-108.02 -260.94)"/><path class="cls-1" d="M185.43,417.71l-.16-.1c.13-.15.14,0,.19.07Z" transform="translate(-108.02 -260.94)"/><path class="cls-1" d="M185.63,418l-.2-.27,0,0,.26.21Z" transform="translate(-108.02 -260.94)"/><path class="cls-1" d="M199.56,414.84l-.2-.27h0l.29.18Z" transform="translate(-108.02 -260.94)"/><path class="cls-1" d="M204.16,417.93l-.25-.25Z" transform="translate(-108.02 -260.94)"/><path class="cls-1" d="M199.36,414.57a.2.2,0,0,1-.08,0s0,0,0-.06l.09.11Z" transform="translate(-108.02 -260.94)"/><path class="cls-1" d="M205.82,418.17l-.12-.12h.09a.42.42,0,0,1,0,.1Z" transform="translate(-108.02 -260.94)"/><path class="cls-1" d="M184.25,418.4l-.24-.24h0l.24.24Z" transform="translate(-108.02 -260.94)"/><path class="cls-1" d="M184.49,418.64l-.24-.24h0l.24.24Z" transform="translate(-108.02 -260.94)"/><path class="cls-1" d="M196.54,411.64c.07.06.17.12,0,.22l-.13-.13Z" transform="translate(-108.02 -260.94)"/><path class="cls-1" d="M196.24,410l.12.12s-.07,0-.08,0a.42.42,0,0,1,0-.1Z" transform="translate(-108.02 -260.94)"/><path class="cls-1" d="M180.53,409.18l-.18.07s0-.05-.07-.07a1.22,1.22,0,0,1,.17-.07S180.5,409.15,180.53,409.18Z" transform="translate(-108.02 -260.94)"/><path class="cls-1" d="M311.59,412.15c2.64,0,4.41,1.38,4.92,3.27a2.57,2.57,0,0,1-.84,2.6,23.09,23.09,0,0,1-1.91,1.63,3.81,3.81,0,0,0-1.3,4.87,3.47,3.47,0,0,1-4.9,4.39,6.45,6.45,0,0,1-2.92-4.72,12.27,12.27,0,0,1,1.27-8A7.9,7.9,0,0,1,311.59,412.15Zm.57.73a7.85,7.85,0,0,0-.81.11c-2.48.71-4.37,2.07-5.16,4.66-.94,3.07-1.47,6.13.21,9.14a3.27,3.27,0,0,0,3.35,1.79c1.85-.45,2.53-1.88,1.91-4-.74-2.63-.3-3.93,1.88-5.62a15.69,15.69,0,0,0,1.66-1.37,2.44,2.44,0,0,0-.34-3.74A5.27,5.27,0,0,0,312.16,412.88Z" transform="translate(-108.02 -260.94)"/><path class="cls-1" d="M314.19,427.37c-.07-1.05.89-2.11,1.83-3.13a4.23,4.23,0,0,0,1.15-3.93c-.39-2.07.31-3.63,1.82-4.41a4.81,4.81,0,0,1,5.08,1.06c3.61,3.82,2.19,12.57-2.86,14.45-2,.76-4,1-5.8-.64A4.38,4.38,0,0,1,314.19,427.37Zm11.09-4.5a7,7,0,0,0-1.5-5.11c-1.33-1.52-2.94-2-4.37-1.34s-2,1.95-1.53,4a5,5,0,0,1-1.36,4.38,15.41,15.41,0,0,0-.94,1.23,3.24,3.24,0,0,0,1.85,5.07c1.88.6,4.85-.52,6.1-2.36A9.45,9.45,0,0,0,325.28,422.87Z" transform="translate(-108.02 -260.94)"/><path class="cls-1" d="M313.79,421.35a26,26,0,0,0-.4,2.79,2.53,2.53,0,0,1,.32-2.88Z" transform="translate(-108.02 -260.94)"/><path class="cls-1" d="M316.27,421.4a2.34,2.34,0,0,1-.85,2.32Z" transform="translate(-108.02 -260.94)"/><path class="cls-1" d="M313.71,421.26a1.15,1.15,0,0,1,.93-.89,1.32,1.32,0,0,1-.85,1Z" transform="translate(-108.02 -260.94)"/><path class="cls-1" d="M415.7,375.22c2.33,2,4.12,4.4,4.51,7.6.09.75-.17,1.1-.88,1.24a11.76,11.76,0,0,0-2.53.66c-.67.31-1,.31-1.24-.42a3.07,3.07,0,0,0-.29-.64,23.47,23.47,0,0,1-3-9.5,5.59,5.59,0,0,1-.1-2.7c.38,2,.66,3.79,1.06,5.55a23.45,23.45,0,0,0,2.29,6.14,1.73,1.73,0,0,0,2.26,1c2-.45,2.19-.64,1.66-2.62a14,14,0,0,0-3.18-5.28c-.25-.31-.59-.55-.68-1Z" transform="translate(-108.02 -260.94)"/><path class="cls-1" d="M413.46,385.13c-2.17-.93-2.92-2.87-3.24-4.94s.4-4.13,1-6.19c-.78,4-1.16,8,2.29,11.08Z" transform="translate(-108.02 -260.94)"/><path class="cls-1" d="M415.18,372.14c2.56,1.24,5,2.65,6.48,5.19a2.3,2.3,0,0,1,.4,1.81c-.09,0-.21,0-.21,0-.6-2.43-2.34-3.89-4.31-5.18a8.38,8.38,0,0,1-2.38-1.75Z" transform="translate(-108.02 -260.94)"/><path class="cls-1" d="M423.15,375.22c-1.69-1.14-3.71-1.61-5.41-2.72C419.65,373.19,421.69,373.61,423.15,375.22Z" transform="translate(-108.02 -260.94)"/><path class="cls-1" d="M424,380.54c.34-1.65.65-3.29-.7-4.92a3.22,3.22,0,0,1,.7,4.93Z" transform="translate(-108.02 -260.94)"/><path class="cls-1" d="M416.93,372.22a.75.75,0,0,1,.14-.12s.08,0,.08.06a.34.34,0,0,1,0,.17Z" transform="translate(-108.02 -260.94)"/><path class="cls-1" d="M414.92,371.93l-.32-.08.1-.13.24.19Z" transform="translate(-108.02 -260.94)"/><path class="cls-1" d="M415.39,375.06a.5.5,0,0,1-.27-.46l.07-.07a.52.52,0,0,1,.28.44Z" transform="translate(-108.02 -260.94)"/><path class="cls-1" d="M414.94,374.3l.25.23-.07.07a2.75,2.75,0,0,0-.22-.26Z" transform="translate(-108.02 -260.94)"/><path class="cls-1" d="M414.9,374.34l-.14-.12c.14-.15.14,0,.18.08Z" transform="translate(-108.02 -260.94)"/><path class="cls-1" d="M414.94,371.91l.24.24,0,0-.24-.24Z" transform="translate(-108.02 -260.94)"/><path class="cls-1" d="M424,380.55l0,.08h-.06l.1-.1Z" transform="translate(-108.02 -260.94)"/><path class="cls-1" d="M413.51,385.08l.1.15-.15-.1Z" transform="translate(-108.02 -260.94)"/><path class="cls-1" d="M415.61,375.3l-.22-.24.08-.09.23.25Z" transform="translate(-108.02 -260.94)"/><path class="cls-1" d="M184.48,269.6c-.63.11-1.29.17-1.53,1-.15-.76.07-1.78-1.58-1.26.88-.72,1.21-1.31.78-2-.21-.35-.11-.35.2-.4a1.12,1.12,0,0,0,1-1.27c.45,0,.44.5.79.64s.69-.05,1.13-.09c-.51,1.08-.16,1.53,1.11,1.34-.74.36-1.47.6-1.17,1.54h0a.66.66,0,0,0-.72.48Zm0-1.73c0-.53-.16-1-.8-.92a1,1,0,0,0-.94,1.14c0,.49.16,1,.78,1S184.54,268.55,184.52,267.87Z" transform="translate(-108.02 -260.94)"/><path class="cls-1" d="M184.49,269.59a.57.57,0,0,1,.39.54s-.13.1-.17.08c-.28-.12-.23-.38-.23-.61Z" transform="translate(-108.02 -260.94)"/><path class="cls-1" d="M185.2,269.12l.33.07c-.17.24-.24,0-.32-.08Z" transform="translate(-108.02 -260.94)"/><path class="cls-1" d="M411.33,317.75a.68.68,0,0,0-.72.49h0c-.63.11-1.29.17-1.48,1.3-.31-.92.18-2.19-1.42-1.61.67-.63,1-1.23.57-1.94-.21-.34-.1-.35.2-.4.7-.11,1-.57,1-1.41.53.64,1,1.18,2,.54-.58,1.24-.22,1.69,1,1.49-.74.37-1.46.61-1.17,1.55Zm-.68-1.32c0-.37-.09-.86-.75-.84a1,1,0,0,0-1,1.1c0,.53.15,1.1.84,1.05S410.66,317.2,410.65,316.43Z" transform="translate(-108.02 -260.94)"/><path class="cls-1" d="M410.61,318.24c.22.11.41.26.39.53,0,0-.13.1-.17.09-.27-.12-.23-.38-.23-.61Z" transform="translate(-108.02 -260.94)"/><path class="cls-1" d="M411.32,317.77l.33.06c-.17.24-.23.05-.32-.08Z" transform="translate(-108.02 -260.94)"/><path class="cls-1" d="M119.5,429.44a1.55,1.55,0,0,0-1.55,1.25,7.58,7.58,0,0,0-.2-1.33c-.17-.5-.62-.34-1.07-.28.58-.58.92-1.18.48-1.89-.21-.34-.1-.35.21-.4.69-.11,1-.57,1-1.41.53.64,1,1.18,2,.57-.35,1.05-.53,1.93,1.18,1.38-.84.45-1.57.69-1.27,1.63h0a.66.66,0,0,0-.72.48Zm0-1.63c0-.5,0-1-.71-1a1,1,0,0,0-1,1c0,.53.12,1.11.8,1.1S119.53,428.44,119.54,427.81Z" transform="translate(-108.02 -260.94)"/><path class="cls-1" d="M119.51,429.43a.55.55,0,0,1,.38.54s-.12.1-.16.08c-.28-.12-.23-.38-.23-.61Z" transform="translate(-108.02 -260.94)"/><path class="cls-1" d="M120.22,429l.33.07c-.18.23-.24,0-.32-.08Z" transform="translate(-108.02 -260.94)"/><path class="cls-1" d="M399,419.77c.05-.12.06-.37.25-.25s0,.27-.13.37Z" transform="translate(-108.02 -260.94)"/><path class="cls-1" d="M399.15,419.89l-.22.27-.11-.12.21-.27Z" transform="translate(-108.02 -260.94)"/><path class="cls-1" d="M309.22,421.26a3.77,3.77,0,0,1-1.65-.46c-.44-.22-.7-.57-.48-1.06a.8.8,0,0,1,1.06-.49,3.41,3.41,0,0,1,1.57.8c.25.27.76.46.53.94S309.62,421.24,309.22,421.26Zm-1.71-1.34c.89.83,1.18.91,2.1.58A2.43,2.43,0,0,0,307.51,419.92Z" transform="translate(-108.02 -260.94)"/><path class="cls-1" d="M310.85,417.13a1.3,1.3,0,0,1-.76-.95.72.72,0,0,1,.17-.86.75.75,0,0,1,1-.06,3.21,3.21,0,0,1,1,2.76c-.1.24-.24.32-.44.19s-.53-.27-.42-.62c0-.16.31-.22.25-.48-.1-.46-.12-1-.6-1.23s-.44,0-.29.67c0,.07.06.14.08.22S310.85,416.92,310.85,417.13Z" transform="translate(-108.02 -260.94)"/><path class="cls-1" d="M310.34,424.45c0,.71-1.14,1.85-1.79,1.8-.48-.05-1-.22-1-.82s1.36-1.45,2.17-1.44C310.07,424,310.33,424.12,310.34,424.45Zm-.69.25a1.56,1.56,0,0,0-1.57.68c-.09.13.1.32.25.32C309,425.74,309.39,425.38,309.65,424.7Z" transform="translate(-108.02 -260.94)"/><path class="cls-1" d="M313.61,416.59l-.34-2.35a2.57,2.57,0,0,1,.64,2.32Z" transform="translate(-108.02 -260.94)"/><path class="cls-1" d="M310.38,418.88a2.2,2.2,0,0,1-1.46-1.42l0,0a2.25,2.25,0,0,1,1.42,1.45Z" transform="translate(-108.02 -260.94)"/><path class="cls-1" d="M307.66,422.23a2.1,2.1,0,0,1,1.82,0A2.13,2.13,0,0,1,307.66,422.23Z" transform="translate(-108.02 -260.94)"/><path class="cls-1" d="M310.37,418.89l.13.1h-.07s0-.06-.05-.1Z" transform="translate(-108.02 -260.94)"/><path class="cls-1" d="M308.92,417.46l-.11-.12.14.1Z" transform="translate(-108.02 -260.94)"/><path class="cls-1" d="M317.14,427.47c0-.77,0-1.31.5-1.51s.76.34,1,.65a3.55,3.55,0,0,1,1.09,2.32,1.12,1.12,0,0,1-.7,1.14c-.55.22-.91-.12-1.22-.51A4.53,4.53,0,0,1,317.14,427.47Zm.74-.87a3.27,3.27,0,0,0,.33,2.46c.15.25.33.47.66.31a.51.51,0,0,0,.26-.69A4.6,4.6,0,0,0,317.88,426.6Z" transform="translate(-108.02 -260.94)"/><path class="cls-1" d="M320.51,423.22a2.66,2.66,0,0,1,2.32.93,1,1,0,0,1,.18,1,.88.88,0,0,1-.91.44,4.4,4.4,0,0,1-2.9-1.5c-.31-.26-.2-.57.23-.69A3.27,3.27,0,0,1,320.51,423.22Zm-.44.69a3.92,3.92,0,0,0,1.67,1.1c.2.08.41.1.54-.09s0-.44-.14-.62C321.59,423.74,320.9,423.92,320.07,423.91Z" transform="translate(-108.02 -260.94)"/><path class="cls-1" d="M319.65,421.05c-.19,0-.62.15-.73-.21a1.22,1.22,0,0,1,.22-.88,2.89,2.89,0,0,1,2.29-1.32,1,1,0,0,1,1.07.6c.21.46-.13.75-.43,1A3.28,3.28,0,0,1,319.65,421.05Zm-.17-.57a3.77,3.77,0,0,0,2-.61c.14-.12.37-.24.23-.48a.4.4,0,0,0-.52-.15A2.39,2.39,0,0,0,319.48,420.48Z" transform="translate(-108.02 -260.94)"/><path class="cls-1" d="M319.77,426.45a3.08,3.08,0,0,1-1.82-1.63A4,4,0,0,1,319.77,426.45Z" transform="translate(-108.02 -260.94)"/></svg>