<svg id="e31864e6-7dcc-464d-a11b-4b855bb3f909" data-name="Layer 1" xmlns="http://www.w3.org/2000/svg" viewBox="0 0 318.66 173.76"><path d="M163.3,365.13a4,4,0,0,1,1.39.55c.44.36.65.79.06,1.14s-.49.57-.11,1a3.35,3.35,0,0,1,.78,1.59c.05.23.18.61.09.68-1.19.9-.33,2.05-.39,3.07-.08,1.26-.53,1.56-1.62,1-.28-.13-.44-.25-.72,0-.83.78-1.44.29-2-.42a8.79,8.79,0,0,1-1.06-2.51c-.79.77-1.61,1.31-2.39.05-.55.51-.89,1.4-1.77.94s-.83-1.39-.64-2.22a13,13,0,0,1,1.25-3.1c.13-.24.49-.54,0-.78s-.54.16-.7.42A16.54,16.54,0,0,1,153.1,370c-.27.27-.47.66-1,.71a5.32,5.32,0,0,1,1-2.45c.44-.8,1-1.54,1.48-2.32a1.16,1.16,0,0,0,.23-1.12c-.27-.65-.48-1.22-1.24-.38a20,20,0,0,1-1.61,1.43c-.43.38-1.1.62-1.41.24a1.75,1.75,0,0,0-2.12-.66c-.4.13-1-.45-.88-.59.91-1.13-1.41-1.94-.26-3a4.29,4.29,0,0,1,1.24-.52c-.88-.51-2.2-.45-2.24-1.8,0-.74.59-1,1.33-1l-.69-1.29c-.24-.46-.51-.91,0-1.39s1-.12,1.41.11a7.74,7.74,0,0,1,.91.62c.23-.52.23-1.31.92-1.25,1,.09,1.11,1.22,1.64,1.9.31-.23.16-.53.2-.77.08-.43.24-.8.67-.91s.64.25.8.57.38.73.89.36-.08-.56-.13-.84a4.66,4.66,0,0,0-1.25-2.13,1,1,0,0,1-.19-1.12c.22-.39.63-.28,1-.22s.56.14.68-.35c.27-1.14,1-1,1.68-.42a3.54,3.54,0,0,1,.93.92c.41.7.81.09,1.2.06.63-.06.3-.49.29-.81,0-.81-.32-1.73.82-2.08.36-.12.28-.44.29-.71s0-.56,0-.84c0-.74.18-1.56,1-1.73s.84.69,1.16,1.16a4.12,4.12,0,0,0,.3.39c.48-.66.9-1.29,1.36-1.87.3-.38.69-.78,1.2-.63s.68.76.67,1.27a10.31,10.31,0,0,1-.22,2c-.1.51-.06.73.53.7.93,0,1,.46.6,1.14-.23.38-.46.75-.72,1.11s-.59.67-.23,1.16a.59.59,0,0,1,0,.68c-.64,1.11-.41,1.86.86,2.25.24.07.47.34.33.55-.59.86.19.93.65,1.19s.9.47.85,1-.61.8-1.12.9c-.76.16-1.53.19-1.38,1.35.06.4-.37.72-.86.51s-1-1-2-.35c-.44.28-1.37-.62-2-1.15-1.09-1-1-1-1.66.38s-1.36,2.71-2,4.08c-.17.35-.72.74-.27,1.13a1.12,1.12,0,0,0,1.53-.06,9.63,9.63,0,0,1,3.85-1.85c.6-.16,1.32-.71,1.87,0S163.63,364.46,163.3,365.13Zm-4.1-8.78c.6-.09.52-.55.41-.91a5,5,0,0,0-1.54-2.46c0,.35-.08.54-.1.73s0,.4-.31.41l-.88-1.25c-.37-.53-.85-1.23-1.42-1.15s0,1-.38,1.45c-.51.16-.93-.61-1.57-.2a2.39,2.39,0,0,0,1.41,1.26c.22.06.57.13.35.43-.72,1,.35.87.72,1.13s.93-.06,1.27.25c.07.56-.93.74-.4,1.25s1.29.35,1.94.21.49-.63.42-1.07Zm2.8,12.54a38.77,38.77,0,0,0-3.8-2.21c-.54-.24-.83-.22-1.15.33a14,14,0,0,0-1.52,3.23c-.15.53-.3,1.07.31,1.34s.69-.35,1-.65.47-1,1.07-.29,1,.73,1.43-.24c.12-.26,0-.68.41-.77.36.16.33.51.43.81a11.86,11.86,0,0,0,1.06,2.9c.32.48,1,1,1.22.15.29-1.08.52-.83,1-.24.18.2.38.47.7.34s.29-.56.24-.83c-.15-.74-.37-1.46-.56-2.19-.1-.35-.32-.8.37-.63.89.23.6-.27.49-.7a3.31,3.31,0,0,0-.87-1.4c-1.1-1.14-1.09-1.15.44-1.53-.07-.34-.4-.35-.63-.48-.49-.27-1.33.17-1.52-.4s.72-.84,1-1.37c0-.05,0-.13-.07-.27a17.84,17.84,0,0,0-4.85,2c1.52.91,3.07,1.54,3.92,3Zm-12.62-5.84c-.16.21-.24.33-.34.44-.33.32-1,.6-.76,1.06s.82-.13,1.25-.23,1.24-.51,1.22.58c0,.69.37.64.76.34s.94-.85,1.44-1.26c1.19-1,1.19-1,.21-2.21a2.91,2.91,0,0,1-.24-.27c-.74-1.19-2-1.87-2.9-2.89a9.38,9.38,0,0,1,4.92,4.24,20.82,20.82,0,0,0,1.43-3c.18-.49,0-.73-.45-.65-.88.15-1.12-.26-1.12-1a3.33,3.33,0,0,0-.28-.93c-.49.1-.43.81-1,.63-.16-.57-.07-1.27-.7-1.66-.45.55-.31,1.17-.36,1.76,0,.26.1.63-.29.68s-.34-.27-.47-.47c-.48-.73-.71-1.65-1.5-2.21a1.2,1.2,0,0,0-.09.19c-.17.56.29,1.41-.24,1.66s-.66-.75-1.17-1-.85-.8-1.26-.44.16.81.4,1.19c.12.2.27.39.41.58.32.4.56.75-.25.85-.33,0-.81.09-.79.55s.47.51.8.63c1.06.39,2.12.76,3.29,1.17-.8.74-1.73.3-2.48.62-.37.15-1.1,0-1,.54s.71.5,1.2.36C149.05,362.92,149.13,363,149.38,363.05Zm11.4-16.12c-.58.93-.22,1.83-.18,2.73,0,.45.56,1,.05,1.31s-.69-.54-1.13-.69a1.08,1.08,0,0,0-.34,0,5.31,5.31,0,0,0,1.21,3.54c.76-1.27.94-2.68,1.94-4-.07,1.8-.92,3.07-1.19,4.55a7.78,7.78,0,0,0,3.47-1.31c-1.05-.42-1.05-.43-.31-1.15a5.32,5.32,0,0,0,1.53-2.07c-.74-.13-1.16.61-1.9.49a8.61,8.61,0,0,0,.74-3.42c0-.3.15-.74-.2-.86s-.61.31-.8.57c-.38.51-.67,1.08-1,1.62-.15.25-.18.68-.58.66s-.29-.43-.43-.65C161.39,347.77,161.28,347.23,160.78,346.93Zm4.76,9.19c-.62-.6-1.4.28-2-.16.09-.57.88-.53.81-1.22a10.36,10.36,0,0,0-3.43,1c-.25.12-.57.24-.49.58s.45.22.7.25a4.23,4.23,0,0,1,2.33.72c-.52.42-.92.05-1.3,0a7.11,7.11,0,0,0-1.65-.21c-.5,0-.65.23-.4.68a5.25,5.25,0,0,0,2.52,2.34c.3-.42,0-.89.36-1.25.76.26,1,1.21,1.89,1.47-.31-1.67-.31-1.67,1.4-1.76.12,0,.24,0,.36,0s.53-.06.52-.35c0-.14-.23-.32-.4-.39-.71-.29-1.44-.54-2.16-.81C164.77,356.48,165.44,356.62,165.54,356.12Zm-7,2.19c-1.21-.12-2.7.39-2.88-1.53,0-.26-.4-.25-.55,0-.25.42.46,1.68,1,1.77,1,.18,1.31.63.89,1.58s-.91,1.86-1.42,2.76c-.23.4-.46.74.11,1.1A33.33,33.33,0,0,0,158.58,358.31Z" transform="translate(-146.26 -309.64)" style="fill:#303030"/><path d="M222.2,458.73a7,7,0,0,0-4.61,1.68c-.83.63-1.39.4-2-.27-.8-.83-.68-1.44.13-2.17a6.87,6.87,0,0,1,7.06-1.13,2.59,2.59,0,0,0,3.42-1.31c1.44-3.23,6-4.44,9-2.45a10.07,10.07,0,0,1,3.78,4.61,17.5,17.5,0,0,0,3.91,5.52,6.76,6.76,0,0,1,2.38,4.54,2.29,2.29,0,0,1-.4,1.58,1.69,1.69,0,0,0-.37,1.34c.25,1.76-1.59,3.4-3.18,3.56a2.61,2.61,0,0,0-1.78.85,4.18,4.18,0,0,1-5,.57c-3.44-1.69-7-3-10.6-4.32-3.12-1.19-4.78-5.33-2.42-8.17a.92.92,0,0,0,.25-.75A5.4,5.4,0,0,1,222.2,458.73Zm2.14,7.93c.07.08.14.19.23,0s-.07-.1-.11-.15l-.24-.25c-.31-.8-1.16-1.18-1.54-1.93-.14-.27-.21-.85-.62-.71-.58.2-.06.67-.05,1l0,0c-1,.18-.38.93-.46,1.43v0c-.45.36-.23.8-.12,1.2a4.51,4.51,0,0,0,3.46,3.44,38.93,38.93,0,0,1,9.95,3.95,5,5,0,0,0,3.47.46l-1.41-.66h0c.81-.2,1.68.55,2.76-.11a6,6,0,0,1-3-1.09h0c.26-.38.25-.37-.29-.73a17.55,17.55,0,0,1-3.73-3.06,3.79,3.79,0,0,1,2.64,1.16c1.44,1.14,2.77,2.47,4.68,2.74a3.13,3.13,0,0,0,3.1-1.13,2.6,2.6,0,0,0,0-2.82,7.52,7.52,0,0,0-1.52-2,17.63,17.63,0,0,1-3-3.25l.11-.09a3,3,0,0,1,1.6,1.17c.5.65,1.42.46,1.92,1.05l-.39.14a.94.94,0,0,0,.62.58c.1.11.19.31.3.33s.14-.21.18-.34c.69.28.88,1,1.35,1.56.34-.69-.2-1.2-.15-1.79h0c.26-.86-.31-1.39-.83-1.87a20.07,20.07,0,0,1-5.68-8,6.26,6.26,0,0,0-2-2.52,5.74,5.74,0,0,0-7.74-.12c1.4.15,2.8-.19,4.2.53-1.82.17-3.57-.51-5.13.5.86.27,1.73,0,2.58.22,2,.53,3.86,1.2,5,3.11h0c-.66,0-.86-.93-1.69-.86.44,1.07,1.75,1.36,2,2.48l-.09.09a15.56,15.56,0,0,1-2.24-1.73c-2.09-1.46-4.36-2.21-6.84-1.3-2.63,1-4.31,3.26-2.3,6.31a8.61,8.61,0,0,0,4.62,3.39c.47.16,1,.2,1.27.81a3.5,3.5,0,0,1-2.28-.19c-.37-.08-.81-.37-.84.35h0a3,3,0,0,1-2.42-1.65l0,0,.42.07Zm1,.39c-.07-.09-.14-.18-.23,0s.08.1.12.15.1.36.34.34c0,0,.14-.08.14-.12C225.77,467.13,225.56,467.1,225.39,467.05ZM222.13,458c-1.22-.55-2.17,0-3.11-.64-.48-.35-1.47.35-2.14.8-.22.15-.77.25-.39.65s.46,1.2,1.12.76A10,10,0,0,1,222.13,458Zm4.43-1.72a10.27,10.27,0,0,1,5.92,1.39A5.36,5.36,0,0,0,226.56,456.26Z" transform="translate(-146.26 -309.64)" style="fill:#303030"/><path d="M380.15,327.87a8.81,8.81,0,0,0-.07,5.18c.34,1.14-.54,1.39-1.25,1.66a1.14,1.14,0,0,1-1.69-.75,6.69,6.69,0,0,1,1.68-7.35c.68-.65.83-2.63.15-3.27-3.5-3.29-1.71-8.92,2.81-10.62a20.45,20.45,0,0,1,5.06-.8,21,21,0,0,0,5.5-1.55,8.35,8.35,0,0,1,3.72-.72,2.48,2.48,0,0,1,1.67.56,18.08,18.08,0,0,0,2.84,2.19,3.27,3.27,0,0,1,1,3.89,1.67,1.67,0,0,0,.16,1.54c.75,1.24.31,3.31-.93,4.63-1,1.11-2.18,2.11-3.23,3.21-1.75,1.81-3.42,3.69-5.19,5.47a5.2,5.2,0,0,1-8.39-.83c-.16-.23-.26-.45-.58-.54A5.41,5.41,0,0,1,380.15,327.87Zm15.42-15.62a1.77,1.77,0,0,0-1.19.49c-.72-.45.09-.52.2-.58a12.6,12.6,0,0,1,3.09-.91,4.58,4.58,0,0,0-4.76-.11,17.13,17.13,0,0,1-8.16,1.91,7.18,7.18,0,0,0-4.35,1.43c-2.27,1.64-3.24,4.47-2.19,6.52.53-.79.55-1.84,1.3-2.51l.09.09c-.19,1.3-1.4,2.41-.82,4,.58-.5.31-1.35,1-1.63.06.71-.54,1.3-.29,2.08a9.51,9.51,0,0,1,3.05-4.48c-.53-.32-.77.14-1.09,0a6.16,6.16,0,0,1,3.43-2.09c-.6.73-1.65.85-2.35,1.87,1.65-.52,2.89-1.58,4.82-1.61-1.33.69-2.38,1.15-3.35,1.76-2.47,1.53-4,3.63-3.76,6.69a3.7,3.7,0,0,0,4.57,3.71,9.34,9.34,0,0,0,5.6-3.39c.21-.25.3-.68.82-.59.07,1.25-1,1.92-1.45,2.89-.29.08-.72.1-.73.44s.37.09.57.13a1.44,1.44,0,0,1-1.45,1c-.07-.2.4-.71,0-.54-1.12.51-2.35.7-3.65,1.14a1.24,1.24,0,0,0,1.4.2c.78-.19,1.4-.8,2.24-.81-.39.71-1.21.71-1.78,1.1-.25.17-.9,0-.72.51s.65.38,1,.23c.69-.26,1.37-.54,2-.82-.45.71-1.25.85-1.92,1.3a4.78,4.78,0,0,0,5.81-2,31.29,31.29,0,0,1,4.67-5.27c1-.9,2-1.76,2.93-2.65a3.46,3.46,0,0,0,.86-3.89c-.48,1.76-2.24,1.72-3.35,2.57a13.92,13.92,0,0,1-3.64,2,1.91,1.91,0,0,1,.89-1.32c.73-.42,1.42-.88,2.15-1.3a7.3,7.3,0,0,0,3.47-3.16,2.85,2.85,0,0,0-.3-3.16,2.55,2.55,0,0,0-2.83-.75c-2.05.56-3.91,1.58-5.91,2.27l-1.32.46-.09-.3c.7-.36,1.41-.71,2.1-1.08s1.45-.81,2.17-1.22a2.06,2.06,0,0,0,1.18-.5l.51-.17s0-.08-.07-.09A.48.48,0,0,0,395.57,312.25Zm-15.78,14.86c-1.82.83-3,4.53-2.09,6,.26.41.54.14.83.06s.91-.1.74-.67A8.62,8.62,0,0,1,379.79,327.11Z" transform="translate(-146.26 -309.64)" style="fill:#303030"/><path d="M340.21,469.94a14.73,14.73,0,0,1,2.9-9.05,8.08,8.08,0,0,1,11-2,17.78,17.78,0,0,1,1.68,1.15,15,15,0,0,0,5.17,2.36c3.33,1,6.07,2.7,6.72,6.51a11,11,0,0,1-1,6.39c-3.22,7.39-11.76,9.61-17.92,7.15A12.8,12.8,0,0,1,340.21,469.94Zm.92,0a11.78,11.78,0,0,0,5.31,10.45c6.33,4.5,16.86,2.12,19.89-6.38,1.73-4.86.07-9.21-4.43-10.46a30.46,30.46,0,0,1-8.3-4.1,7,7,0,0,0-8.91.86C342,462.93,341.08,466.23,341.13,470Z" transform="translate(-146.26 -309.64)" style="fill:#303030"/><path d="M457.72,438.09c0,.34-.19.54-.53.41a.65.65,0,0,1-.35-.79c.14-.81.31-1.61.47-2.42,0-.05.12-.14.1-.16s-.16-.05-.23,0a11.08,11.08,0,0,1-6.57.27,6.61,6.61,0,0,1-4.35-9.12c.54-1.37,1.14-2.71,1.63-4.1a8.71,8.71,0,0,0-.26-6.52c-.23-.54-.44-1.09-.65-1.63,1-.52,1.57-.28,2.12.77a8.85,8.85,0,0,0,6.14,4.36c2,.49,4,.95,6,1.57,2.87.9,4.15,3.31,3.5,6.28a10.78,10.78,0,0,1-4.16,6.22c-.22.17-.48.28-.62.64a13,13,0,0,1,3.13,1.28c.26.17.64.29.44.71a.64.64,0,0,1-.85.24c-.58-.19-1.14-.45-1.87-.74.16.89.71,1.46.7,2.18,0,.19,0,.47-.14.54s-.45-.07-.57-.26c-.43-.74-.84-1.5-1.35-2.41-.18.81.26,1.79-1,1.72-.37,0-.11.89-.72.94.1-.73.21-1.46.32-2.2.33.14,0,.76.5.68.3,0,.36-.38.38-.67,0-.5.06-1,.1-1.58-.57.38-.15,1-.52,1.45l-.15-.84a3.48,3.48,0,0,0-1,2.26C457.24,437.55,457.06,438,457.72,438.09Zm-8.89-22.5c-.43.48-.06.84,0,1.19a10.62,10.62,0,0,1-.44,6.33c-.51,1.26-1.08,2.49-1.51,3.77-1.21,3.63.33,6.6,3.95,7.81a9.48,9.48,0,0,0,3.43.3,11.08,11.08,0,0,0,9.81-8.15,4.29,4.29,0,0,0-3-5.43c-1.36-.43-2.77-.72-4.16-1.08a16.14,16.14,0,0,1-5.56-2.08A11.89,11.89,0,0,1,448.83,415.59Z" transform="translate(-146.26 -309.64)" style="fill:#303030"/><path d="M226,316.58a4.28,4.28,0,0,1-4.14,4.58,3.84,3.84,0,0,1-4-3.89c0-2.9,1.62-4.95,4-5A4,4,0,0,1,226,316.58Zm-7.41.37a3.36,3.36,0,0,0,3.2,3.49,3.64,3.64,0,0,0,3.49-3.8,3.55,3.55,0,0,0-3.31-3.59C220.11,313,218.62,314.75,218.63,317Z" transform="translate(-146.26 -309.64)" style="fill:#303030"/><path d="M157,472.12a4,4,0,0,1,4.05,4.34,4.26,4.26,0,0,1-4.21,4.52,3.84,3.84,0,0,1-3.9-4C153,474.11,154.61,472.13,157,472.12Zm-3.37,4.64a3.34,3.34,0,0,0,3.31,3.5,3.64,3.64,0,0,0,3.38-3.78,3.56,3.56,0,0,0-3.29-3.61C155.14,472.84,153.64,474.56,153.64,476.76Z" transform="translate(-146.26 -309.64)" style="fill:#303030"/><path d="M452.17,365.31a4.26,4.26,0,0,1-4.24,4.49,3.83,3.83,0,0,1-3.86-4c0-2.92,1.67-4.89,4.08-4.88A4,4,0,0,1,452.17,365.31ZM448,369.08a3.63,3.63,0,0,0,3.44-3.72,3.57,3.57,0,0,0-3.36-3.67,3.62,3.62,0,0,0-3.33,3.83A3.35,3.35,0,0,0,448,369.08Z" transform="translate(-146.26 -309.64)" style="fill:#303030"/><path d="M435.65,469.9c0-1.11.18-2.16,1.37-2.51a2,2,0,0,1,2.42,1.12,2.14,2.14,0,0,1-.53,2.81c-.73.68-1.54,1.26-2.31,1.89-.36.29-.71.41-.67-.22C436,471.93,435.6,470.94,435.65,469.9Zm1.94,1.76c1.55-1,1.93-1.85,1.16-3.12-.17,1.2-.92,2-1.21,3.07l-.1.15Zm-.54-2.94.12.12c-.09,1-.65,1.85-.46,3.25.57-1.13,1-1.95,1.4-2.79.2-.45.51-1.08-.1-1.36a1.18,1.18,0,0,0-1.67.66,5.49,5.49,0,0,0-.16,2.62A6.4,6.4,0,0,1,437.05,468.72Z" transform="translate(-146.26 -309.64)" style="fill:#303030"/><path d="M162.26,369.11l-.26-.23.1-.09a2.75,2.75,0,0,0,.22.26Z" transform="translate(-146.26 -309.64)" style="fill:#303030"/><path d="M162.32,369.05l.13.12c-.12.15-.14,0-.19-.06Z" transform="translate(-146.26 -309.64)" style="fill:#303030"/><path d="M159.12,356.43l-2.33-1.68a2.92,2.92,0,0,1,2.41,1.6Z" transform="translate(-146.26 -309.64)" style="fill:#303030"/><path d="M237.87,463.44a.92.92,0,0,1,.75.71l-.11.09a.89.89,0,0,1-.72-.72Z" transform="translate(-146.26 -309.64)" style="fill:#303030"/><path d="M222.24,466.84a.71.71,0,0,1-.72-.72v0a.69.69,0,0,1,.72.71Z" transform="translate(-146.26 -309.64)" style="fill:#303030"/><path d="M242.86,467.09h-.48c0-.16,0-.32,0-.48A.44.44,0,0,1,242.86,467.09Z" transform="translate(-146.26 -309.64)" style="fill:#303030"/><path d="M223.4,468c0-.06-.12-.12-.12-.17s.12-.16.22-.09.07.12.1.19Z" transform="translate(-146.26 -309.64)" style="fill:#303030"/><path d="M222.25,464.91c.18.08.34.17.34.4,0,0-.06.07-.09.06-.24,0-.29-.19-.32-.39Z" transform="translate(-146.26 -309.64)" style="fill:#303030"/><path d="M224.24,468.41H224s-.06-.08,0-.09.12-.09.13-.08A.63.63,0,0,1,224.24,468.41Z" transform="translate(-146.26 -309.64)" style="fill:#303030"/><path d="M236.13,473.09l-.39-.16.09-.15.32.29Z" transform="translate(-146.26 -309.64)" style="fill:#303030"/><path d="M226.71,468.42s0-.06,0-.06l.09,0s0,.06,0,.06Z" transform="translate(-146.26 -309.64)" style="fill:#303030"/><path d="M236.61,473.32c-.2,0-.39,0-.48-.23l0,0a.49.49,0,0,1,.47.24Z" transform="translate(-146.26 -309.64)" style="fill:#303030"/><path d="M236.38,474.27l-.31-.07c.17-.22.22,0,.3.08Z" transform="translate(-146.26 -309.64)" style="fill:#303030"/><path d="M236.37,474.28a.53.53,0,0,1,.49.24h0c-.2,0-.39,0-.49-.24Z" transform="translate(-146.26 -309.64)" style="fill:#303030"/><path d="M222.71,467.33l.13.1s-.06,0-.08,0a.46.46,0,0,1,0-.1Z" transform="translate(-146.26 -309.64)" style="fill:#303030"/><path d="M234.46,458.7l.12.11h-.08s0-.07,0-.1Z" transform="translate(-146.26 -309.64)" style="fill:#303030"/><path d="M234.76,460.32c.08.06.18.12,0,.22l-.13-.13Z" transform="translate(-146.26 -309.64)" style="fill:#303030"/><path d="M237.58,463.25a.3.3,0,0,1-.08,0s0,0,0-.06l.08.11Z" transform="translate(-146.26 -309.64)" style="fill:#303030"/><path d="M226.06,468.05l.1,0s0,0,0,.06l-.11-.11Z" transform="translate(-146.26 -309.64)" style="fill:#303030"/><path d="M237.79,463.52l-.21-.27h0l.3.18Z" transform="translate(-146.26 -309.64)" style="fill:#303030"/><path d="M222,464.68l.24.23-.07.07-.21-.27Z" transform="translate(-146.26 -309.64)" style="fill:#303030"/><polygon points="76.84 156.31 76.86 156.38 76.8 156.37 76.84 156.31" style="fill:#303030"/><path d="M223.65,466.39l-.12-.14.15.1Z" transform="translate(-146.26 -309.64)" style="fill:#303030"/><path d="M242.38,466.61l-.25-.25Z" transform="translate(-146.26 -309.64)" style="fill:#303030"/><path d="M244.05,466.85l-.12-.12H244s0,.07.05.1Z" transform="translate(-146.26 -309.64)" style="fill:#303030"/><path d="M222.23,466.85l.23.24h0l-.24-.24Z" transform="translate(-146.26 -309.64)" style="fill:#303030"/><path d="M222.71,467.32l-.23-.24h0l.25.24Z" transform="translate(-146.26 -309.64)" style="fill:#303030"/><path d="M218.76,457.87a.59.59,0,0,1-.19.05s0,0-.06-.07l.18-.06S218.73,457.84,218.76,457.87Z" transform="translate(-146.26 -309.64)" style="fill:#303030"/><path d="M389.19,330.21c.12-.45.4-.52.82-.54C389.85,330.1,389.57,330.17,389.19,330.21Z" transform="translate(-146.26 -309.64)" style="fill:#303030"/><path d="M380.5,319.72a.75.75,0,0,1-.48.73C380,320.08,380,319.75,380.5,319.72Z" transform="translate(-146.26 -309.64)" style="fill:#303030"/><path d="M389.61,328.35l.28-.44c.13,0,.36,0,.29.18A.45.45,0,0,1,389.61,328.35Z" transform="translate(-146.26 -309.64)" style="fill:#303030"/><path d="M380,320.44a.44.44,0,0,1-.24.49C379.74,320.7,379.76,320.51,380,320.44Z" transform="translate(-146.26 -309.64)" style="fill:#303030"/><path d="M380.74,319.24a.38.38,0,0,1-.24.49A.38.38,0,0,1,380.74,319.24Z" transform="translate(-146.26 -309.64)" style="fill:#303030"/><path d="M379.74,318.24l.12-.3.12.1a2.53,2.53,0,0,1-.18.27Z" transform="translate(-146.26 -309.64)" style="fill:#303030"/><path d="M379.51,318.49l.23-.24.06.06-.21.27Z" transform="translate(-146.26 -309.64)" style="fill:#303030"/><path d="M381.46,318.52a.22.22,0,0,1-.25.25Z" transform="translate(-146.26 -309.64)" style="fill:#303030"/><path d="M381.22,318.76a.22.22,0,0,1-.25.25Z" transform="translate(-146.26 -309.64)" style="fill:#303030"/><path d="M381,319a.22.22,0,0,1-.25.25Z" transform="translate(-146.26 -309.64)" style="fill:#303030"/><polygon points="232.88 18.1 232.94 18.07 232.93 18.14 232.88 18.1" style="fill:#303030"/><path d="M349.46,460.84c3,0,4.8,1.37,5.28,3.29a2.66,2.66,0,0,1-.94,2.68c-.78.74-1.64,1.39-2.42,2.13a3.15,3.15,0,0,0-.91,3.48c.38,1.23.86,2.46.09,3.79a3.38,3.38,0,0,1-4.8,1.36,5.86,5.86,0,0,1-2.74-4.15c-.75-3.74-.23-7.26,2.36-10.15A6.93,6.93,0,0,1,349.46,460.84Zm-5.91,10.28a7.89,7.89,0,0,0,1.27,4.66,3.11,3.11,0,0,0,3.74,1.3,2.52,2.52,0,0,0,1.43-3.37c-1.12-3.1.05-5.16,2.63-6.74a3.39,3.39,0,0,0,.46-.39,2.57,2.57,0,0,0-.81-4.56c-2.74-1.12-6.17.42-7.5,3.41A15.05,15.05,0,0,0,343.55,471.12Z" transform="translate(-146.26 -309.64)" style="fill:#303030"/><path d="M352.44,476.51c-.11-1.52.9-2.6,1.86-3.66a4.15,4.15,0,0,0,1.11-3.82c-.41-2.18.35-3.8,2-4.54a4.84,4.84,0,0,1,5.17,1.49c2.12,2.64,2.28,7.51.49,10.74a7.43,7.43,0,0,1-6.13,4A4.22,4.22,0,0,1,352.44,476.51Zm11.07-5.23a7,7,0,0,0-1-4.16,4.1,4.1,0,0,0-4.65-2.12c-1.45.47-2.19,1.94-1.76,4.11a5.09,5.09,0,0,1-1.35,4.38,14.36,14.36,0,0,0-.95,1.23,3.27,3.27,0,0,0,1.95,5.1,6.2,6.2,0,0,0,6-2.37A9.91,9.91,0,0,0,363.51,471.28Z" transform="translate(-146.26 -309.64)" style="fill:#303030"/><path d="M352,470a16.68,16.68,0,0,0-.38,2.8,2.49,2.49,0,0,1,.3-2.88Z" transform="translate(-146.26 -309.64)" style="fill:#303030"/><path d="M353.64,472.38l.86-2.31A2.26,2.26,0,0,1,353.64,472.38Z" transform="translate(-146.26 -309.64)" style="fill:#303030"/><path d="M351.94,469.94a1.15,1.15,0,0,1,.93-.89,1.32,1.32,0,0,1-.85,1Z" transform="translate(-146.26 -309.64)" style="fill:#303030"/><path d="M453.93,423.9a12.38,12.38,0,0,1,4.61,7.93c.07.56-.21.67-.63.79l-2.75.75c-1,.26-1.06.38-1.42-.6a3.81,3.81,0,0,0-.37-.61c-2.11-3.64-2.73-7.66-2.87-11.8.24,1.42.46,2.85.74,4.26a22.36,22.36,0,0,0,2.78,7.57c.57.91,1.44,1,3.13.35,1-.38.81-1.07.65-1.85a13.27,13.27,0,0,0-3.2-5.65c-.27-.34-.66-.59-.76-1.06A.24.24,0,0,0,453.93,423.9Z" transform="translate(-146.26 -309.64)" style="fill:#303030"/><path d="M451.69,433.81c-2.23-.94-3-2.93-3.25-5.06s.39-4.05,1-6.07c-.75,4-1.17,8,2.29,11.08Z" transform="translate(-146.26 -309.64)" style="fill:#303030"/><path d="M453.41,420.83c3.32.92,7,4.63,6.86,7-.07,0-.19,0-.19,0-.6-2.43-2.34-3.89-4.31-5.17a8.61,8.61,0,0,1-2.38-1.76Z" transform="translate(-146.26 -309.64)" style="fill:#303030"/><path d="M456,421.18c1.91.69,3.95,1.12,5.42,2.73C459.69,422.78,457.68,422.28,456,421.18Z" transform="translate(-146.26 -309.64)" style="fill:#303030"/><path d="M462.27,429.23c.34-1.65.65-3.3-.7-4.92a3.21,3.21,0,0,1,.7,4.92Z" transform="translate(-146.26 -309.64)" style="fill:#303030"/><path d="M455.43,420.9c-.05,0-.08.08-.13.09s-.09,0-.09-.05a1.13,1.13,0,0,1,0-.18Z" transform="translate(-146.26 -309.64)" style="fill:#303030"/><path d="M453.15,420.61l-.32-.08.1-.13.24.19Z" transform="translate(-146.26 -309.64)" style="fill:#303030"/><path d="M453.62,423.74a.5.5,0,0,1-.27-.46l.07-.07a.52.52,0,0,1,.28.44Z" transform="translate(-146.26 -309.64)" style="fill:#303030"/><path d="M453.35,423.28l-.22-.26,0,0,.25.24Z" transform="translate(-146.26 -309.64)" style="fill:#303030"/><path d="M453.39,420.85l-.24-.24,0,0,.24.24Z" transform="translate(-146.26 -309.64)" style="fill:#303030"/><path d="M453.13,423l-.14-.12c.14-.15.14,0,.18.08Z" transform="translate(-146.26 -309.64)" style="fill:#303030"/><path d="M453.84,424l-.22-.24.08-.09.23.25A.24.24,0,0,1,453.84,424Z" transform="translate(-146.26 -309.64)" style="fill:#303030"/><path d="M462.27,429.23a.3.3,0,0,1,0,.08h-.06l.1-.09Z" transform="translate(-146.26 -309.64)" style="fill:#303030"/><path d="M451.74,433.76l.1.15-.15-.1Z" transform="translate(-146.26 -309.64)" style="fill:#303030"/><path d="M223.44,317.8c-.94.07-.25.7-.38,1.14-.85-1-1.43-.54-1.92.44-.24-.7.29-1.9-1.5-1.27.83-.78,1.2-1.38.69-2.13-.23-.32,0-.3.2-.32.76-.1,1-.63,1.1-1.49a1.34,1.34,0,0,0,1.88.73c-.43,1.19-.3,1.35,1.21,1.41-.86.33-1.6.56-1.3,1.5Zm-.69-1.33c0-.37-.09-.86-.76-.83a1,1,0,0,0-1,1.11c0,.55.13,1.09.84,1S222.76,317.25,222.75,316.47Z" transform="translate(-146.26 -309.64)" style="fill:#303030"/><path d="M223.42,317.81l.33.07-.05.1-.26-.18Z" transform="translate(-146.26 -309.64)" style="fill:#303030"/><path d="M158.45,477.62c-.95.07-.27.7-.33,1.19-.89-1-1.48-.58-2,.5-.07-.9.2-1.89-1.37-1.45.75-.7,1.13-1.31.61-2.05-.22-.32,0-.3.21-.33.75-.1,1-.63,1.09-1.49a1.35,1.35,0,0,0,1.89.74c-.43,1.18-.31,1.35,1.21,1.4-.86.33-1.6.57-1.3,1.51Zm-.68-1.15c0-.49-.06-1-.73-1a1,1,0,0,0-1,1.07c0,.55.09,1.11.79,1.08S157.76,477.11,157.77,476.47Z" transform="translate(-146.26 -309.64)" style="fill:#303030"/><path d="M158.44,477.64l.33.06-.06.1-.26-.18Z" transform="translate(-146.26 -309.64)" style="fill:#303030"/><path d="M449.56,366.44c-.93.07-.24.71-.35,1.07-.9-.69-1.18-.63-1.95.39-.13-1.35-.13-1.35-1.29-1.34.63-.59,1-1.19.49-1.93-.23-.33,0-.3.2-.33.74-.11,1.07-.58,1-1.61.52,1,1.15,1.15,1.94.86-.43,1.18-.3,1.34,1.21,1.4-.86.33-1.6.57-1.3,1.51Zm-.68-1.07c0-.58-.06-1.09-.72-1.09a1,1,0,0,0-1,1.07c0,.55.09,1.11.8,1.08A1,1,0,0,0,448.88,365.37Z" transform="translate(-146.26 -309.64)" style="fill:#303030"/><path d="M449.55,366.46l.33.06-.05.1-.27-.18Z" transform="translate(-146.26 -309.64)" style="fill:#303030"/><path d="M437.26,468.45c.05-.13.06-.37.25-.25s0,.27-.13.37Z" transform="translate(-146.26 -309.64)" style="fill:#303030"/><path d="M437.05,468.72l.21-.27.12.12-.22.27Z" transform="translate(-146.26 -309.64)" style="fill:#303030"/><path d="M347.44,469.94a3.69,3.69,0,0,1-1.63-.46c-.44-.22-.71-.56-.5-1.05a.81.81,0,0,1,1.06-.5,3.3,3.3,0,0,1,1.57.79c.26.27.76.47.54.94S347.86,469.92,347.44,469.94Zm-1.8-1.27a2.47,2.47,0,0,0,2.39.62C347.21,468.8,346.66,468.33,345.64,468.67Z" transform="translate(-146.26 -309.64)" style="fill:#303030"/><path d="M349.16,465.84a1.32,1.32,0,0,1-.84-1,.72.72,0,0,1,.26-.94.74.74,0,0,1,.88,0,3.21,3.21,0,0,1,1,2.75c-.09.25-.23.33-.44.2s-.53-.27-.43-.62c.05-.16.31-.22.26-.48-.1-.46-.12-1-.6-1.23s-.44,0-.3.66Z" transform="translate(-146.26 -309.64)" style="fill:#303030"/><path d="M348.57,473.1c0,.74-1.14,1.88-1.79,1.82-.49,0-1-.22-1-.82s1.37-1.45,2.17-1.43C348.3,472.67,348.56,472.8,348.57,473.1Zm-.66.2c-.72.1-1.27.2-1.6.76-.09.13.1.31.25.32C347.23,474.41,347.62,474.06,347.91,473.3Z" transform="translate(-146.26 -309.64)" style="fill:#303030"/><path d="M351.86,465.27l-.37-2.27A1.75,1.75,0,0,1,351.86,465.27Z" transform="translate(-146.26 -309.64)" style="fill:#303030"/><path d="M347.18,466.12a2.25,2.25,0,0,1,1.42,1.45h0a2.21,2.21,0,0,1-1.46-1.41Z" transform="translate(-146.26 -309.64)" style="fill:#303030"/><path d="M345.9,470.9a1.7,1.7,0,0,1,1.58,0A1.64,1.64,0,0,1,345.9,470.9Z" transform="translate(-146.26 -309.64)" style="fill:#303030"/><path d="M348.6,467.57l.13.1h-.08a.42.42,0,0,1,0-.1Z" transform="translate(-146.26 -309.64)" style="fill:#303030"/><path d="M347.15,466.15,347,466l.15.1Z" transform="translate(-146.26 -309.64)" style="fill:#303030"/><path d="M358,477.54a1.08,1.08,0,0,1-.75,1.22c-.56.19-.93-.16-1.19-.57a4.06,4.06,0,0,1-.64-2.85c.11-.81.63-.95,1.21-.36A4,4,0,0,1,358,477.54Zm-1.89-2.29a3.49,3.49,0,0,0,.35,2.47c.16.25.32.48.66.34a.51.51,0,0,0,.27-.69A4.73,4.73,0,0,0,356.08,475.25Z" transform="translate(-146.26 -309.64)" style="fill:#303030"/><path d="M358.7,471.9a2.56,2.56,0,0,1,2.39,1c.48.75.17,1.34-.71,1.38-1.24.05-2.07-.74-2.93-1.45-.29-.25-.29-.58.17-.72A2.8,2.8,0,0,1,358.7,471.9Zm-.45.71a4.71,4.71,0,0,0,1.66,1.05c.23.09.48.16.62-.1s0-.45-.2-.62C359.76,472.42,359.08,472.59,358.25,472.61Z" transform="translate(-146.26 -309.64)" style="fill:#303030"/><path d="M358.06,469.74c-.31,0-.71.13-.9-.16s0-.71.23-1a2.91,2.91,0,0,1,2.2-1.28,1,1,0,0,1,1.11.53c.28.53-.11.84-.44,1.11A3.21,3.21,0,0,1,358.06,469.74Zm-.2-.56c.75-.2,1.57-.17,2.1-.89a.22.22,0,0,0-.17-.35,2.11,2.11,0,0,0-2,1S357.83,469.05,357.86,469.18Z" transform="translate(-146.26 -309.64)" style="fill:#303030"/><path d="M356.41,473.69a3.53,3.53,0,0,1,1.59,1.44A2.41,2.41,0,0,1,356.41,473.69Z" transform="translate(-146.26 -309.64)" style="fill:#303030"/></svg>