<svg id="Layer_1" data-name="Layer 1" xmlns="http://www.w3.org/2000/svg" viewBox="0 0 1099.95 1022.04"><defs><style>.cls-1{fill:#fff;}</style></defs><path d="M524.6-313.5v1022H-373.8c-.23-5.61-.76-11.23-.62-16.83.66-26.94,1.52-53.87,2.26-80.81a29.92,29.92,0,0,0-.47-4.3l-.95.09-1.9,7.08c-.5-.61-.84-.83-.87-1.1-.12-.82-.1-1.65-.17-2.48-2.14-24-.33-48.27-5.79-72.2-4.21-18.42-5.63-37.47-8.58-56.19-1.54-9.77-3.72-19.44-5.62-29.16l-1.3.24c1.91,11.94,4.12,23.83,5.66,35.82,3.56,27.55,7.22,55.09,10,82.72,1.8,17.87,2.22,35.88,2.93,53.84.13,3.12-1.38,6.31-2.13,9.46l-1.44-.32c0-1.81.1-3.62,0-5.43-1.48-22.24-1.91-44.63-4.77-66.7-4-30.79-9-61.52-15.13-92-6.56-32.36-14.57-64.45-22.77-96.45-7.57-29.57-16.19-58.87-24.42-88.27-1.7-6.05-3.73-12-5.61-18,2.16,12.27,5.3,24.27,8.49,36.25,8.93,33.51,18.47,66.88,26.65,100.58,8.41,34.69,16.73,69.48,22.76,104.63,5.18,30.1,7.5,60.72,10.21,91.19,1.24,13.88.42,27.95.41,41.93,0,4-3.26,6.7-5.86,4.88-1.63-1.14-2.78-4-2.92-6.09-1.56-23.58-1.63-47.33-4.56-70.73-4.19-33.46-9.81-66.79-16-100-4.28-22.84-10.24-45.39-16.1-67.9-5.69-21.86-12-43.57-18.43-65.22-6.38-21.3-13.84-42.29-19.89-63.67-6.34-22.38-11.45-45.1-17.3-67.61C-498.17,167-508.42,128.21-517.14,95c1.2,7.61,2.86,21.1,5.58,34.38S-505,155.81-501.7,169l9.78,39-1.19.36q-2.82-7.45-5.62-14.9c12.6,52.13,28.55,103.35,39.21,156a6.52,6.52,0,0,1-2.05-3.26c-4.81-16.75-9.48-33.55-14.39-50.27-9-30.59-18.49-61-27.1-91.75-9.34-33.27-17.88-66.76-26.88-100.12-.67-2.5-2.27-4.75-3.44-7.11l-2,.42c-4.44,13-2.35,26.5-2.08,41.33-2.67-9.22-4.94-17.07-7.22-24.91l-.93.26,10.56,45.74,1.15-.24-1.15-8,1.89-.42L-505,257.87l.52-.14c.15-2.13.31-4.26.46-6.4l1.8-.08q1.53,10.63,3.07,21.26l-1.5.3q-1.35-2.94-2.71-5.88l-.67.19v12c-16.74-61.72-33.23-122.55-49.72-183.37l-2,.49,35.4,148C-524.83,231-529,217.52-533,204.05c-12.26-40.6-22.66-81.63-30.13-123.42-6.33-35.44-11.05-71-12-107-1.55-58.68,6.11-115.76,28.75-170.37A363.58,363.58,0,0,1-492-287.91c4.65-5.7,9.55-11.2,14.33-16.79l-.55-.5-3.82,2.89a29.25,29.25,0,0,1,5-6.93c1.31-1.42,2.78-3.8,4.23-3.83,12.69-.3,25.39-.18,39.63-.18-42.52,38.65-72.44,83.67-90.6,137.24C-541.87-122.6-551.24-69-540-12a44,44,0,0,0,.91-5.44c.22-8.66.29-17.32.49-26,1-42.55,4.77-84.68,17.9-125.52a279.74,279.74,0,0,1,31.23-66c17.43-27.07,38.44-51.14,61.63-73.41a17.34,17.34,0,0,1,13.14-5.22q414.47.21,828.93.12Q469.4-313.42,524.6-313.5ZM-520.87,70.31c-7.56-62.84-12.08-125.66,1.23-188.37C-537.22-55.38-534,7.44-520.87,70.31ZM-562.95-118.8C-576.81-75.3-574.85,3-561.72,55.68-570.24-2.39-573.27-60.49-562.95-118.8Zm1.23,27.7C-571.9-36-565.55,18.26-553.83,72.22-562.6,18.07-566.74-36.31-561.72-91.1Zm68.23,213.23c-7.9-34.17-15.79-68.35-22.74-98.39A565.15,565.15,0,0,0-493.49,122.13Zm-13.42-277.68c-4.54,5.66-12.81,44.5-11.2,51.9C-514.4-120.86-510.68-138.07-506.91-155.55Zm23.22,318.24,1.55-.43q-2.26-8.12-4.55-16.22l-1.59.44Z" transform="translate(575.35 313.54)"/><path class="cls-1" d="M-506.91-155.55c-3.77,17.48-7.49,34.69-11.2,51.9" transform="translate(575.35 313.54)"/></svg>